<?xml version="1.0" standalone="no"?>
<!DOCTYPE svg PUBLIC "-//W3C//DTD SVG 20010904//EN"
 "http://www.w3.org/TR/2001/REC-SVG-20010904/DTD/svg10.dtd">
<svg version="1.0" xmlns="http://www.w3.org/2000/svg"
 width="240.000000pt" height="242.000000pt" viewBox="0 0 240.000000 242.000000"
 preserveAspectRatio="xMidYMid meet">
<metadata>
Created by potrace 1.16, written by Peter Selinger 2001-2019
</metadata>
<g transform="translate(0.000000,242.000000) scale(0.100000,-0.100000)"
fill="#000000" stroke="none">
<path d="M1012 2285 c-392 -69 -723 -351 -854 -725 -43 -124 -53 -191 -53
-350 0 -119 4 -172 19 -228 22 -88 32 -89 15 -1 -7 35 -13 127 -13 204 1 119
5 157 28 249 80 315 282 559 592 715 140 71 232 92 435 98 199 7 276 -6 431
-70 134 -55 225 -117 333 -225 77 -78 215 -264 215 -291 0 -5 5 -13 11 -16 15
-10 -16 61 -61 137 -49 82 -169 210 -260 278 -74 55 -222 143 -261 155 -13 4
-26 11 -29 16 -3 5 -48 20 -100 34 -121 33 -322 42 -448 20z"/>
<path d="M632 1848 c-33 -13 -75 -43 -112 -78 -49 -47 -62 -55 -71 -44 -6 8
-15 14 -19 14 -14 0 1 -38 21 -56 19 -17 21 -17 43 7 105 111 203 154 294 130
51 -14 107 -61 116 -97 4 -15 9 -24 11 -22 3 2 0 20 -5 40 -31 110 -151 156
-278 106z"/>
<path d="M1097 1642 c-12 -57 -84 -201 -137 -272 -28 -37 -92 -106 -143 -152
-90 -84 -332 -281 -372 -305 -20 -12 -20 -12 0 -13 27 0 75 33 235 164 152
124 223 193 288 281 73 98 149 268 140 312 -2 11 -7 5 -11 -15z"/>
<path d="M996 895 l-48 -120 -332 -4 -333 -3 -7 26 c-3 14 -11 26 -16 26 -13
0 8 -56 27 -72 12 -10 90 -14 334 -16 l318 -2 15 22 c24 38 97 230 94 247 -2
9 -25 -38 -52 -104z"/>
</g>
</svg>
