%TF.GenerationSoftware,KiCad,Pcbnew,8.0.0*%
%TF.CreationDate,2024-04-15T20:03:37+02:00*%
%TF.ProjectId,MuntsorteerderESP,4d756e74-736f-4727-9465-657264657245,rev?*%
%TF.SameCoordinates,Original*%
%TF.FileFunction,Copper,L2,Bot*%
%TF.FilePolarity,Positive*%
%FSLAX46Y46*%
G04 Gerber Fmt 4.6, Leading zero omitted, Abs format (unit mm)*
G04 Created by KiCad (PCBNEW 8.0.0) date 2024-04-15 20:03:37*
%MOMM*%
%LPD*%
G01*
G04 APERTURE LIST*
%TA.AperFunction,ComponentPad*%
%ADD10R,2.600000X2.600000*%
%TD*%
%TA.AperFunction,ComponentPad*%
%ADD11C,2.600000*%
%TD*%
%TA.AperFunction,ComponentPad*%
%ADD12R,1.700000X1.700000*%
%TD*%
%TA.AperFunction,ComponentPad*%
%ADD13O,1.700000X1.700000*%
%TD*%
%TA.AperFunction,ComponentPad*%
%ADD14R,2.000000X2.000000*%
%TD*%
%TA.AperFunction,ComponentPad*%
%ADD15C,2.000000*%
%TD*%
%TA.AperFunction,ComponentPad*%
%ADD16C,0.400000*%
%TD*%
%TA.AperFunction,ComponentPad*%
%ADD17O,0.900000X2.000000*%
%TD*%
%TA.AperFunction,ComponentPad*%
%ADD18O,0.900000X1.700000*%
%TD*%
%TA.AperFunction,ComponentPad*%
%ADD19R,1.600000X1.600000*%
%TD*%
%TA.AperFunction,ComponentPad*%
%ADD20O,1.600000X1.600000*%
%TD*%
%TA.AperFunction,ViaPad*%
%ADD21C,0.600000*%
%TD*%
%TA.AperFunction,Conductor*%
%ADD22C,0.200000*%
%TD*%
G04 APERTURE END LIST*
D10*
%TO.P,J8,1,Pin_1*%
%TO.N,Net-(J8-Pin_1)*%
X127000000Y-43683000D03*
D11*
%TO.P,J8,2,Pin_2*%
%TO.N,VCC_5V*%
X127000000Y-48763000D03*
%TD*%
D12*
%TO.P,J6,1,Pin_1*%
%TO.N,ESP_3.3V*%
X125730000Y-56642000D03*
D13*
%TO.P,J6,2,Pin_2*%
X125730000Y-59182000D03*
%TO.P,J6,3,Pin_3*%
X125730000Y-61722000D03*
%TO.P,J6,4,Pin_4*%
X125730000Y-64262000D03*
%TD*%
D12*
%TO.P,J5,1,Pin_1*%
%TO.N,VCC_5V*%
X136906000Y-85481000D03*
D13*
%TO.P,J5,2,Pin_2*%
X136906000Y-88021000D03*
%TO.P,J5,3,Pin_3*%
X136906000Y-90561000D03*
%TO.P,J5,4,Pin_4*%
X136906000Y-93101000D03*
%TD*%
D14*
%TO.P,BZ1,1,-*%
%TO.N,Net-(BZ1--)*%
X147320000Y-81280000D03*
D15*
%TO.P,BZ1,2,+*%
%TO.N,GND*%
X154920000Y-81280000D03*
%TD*%
D16*
%TO.P,U1,41_10*%
%TO.N,N/C*%
X165446000Y-42188000D03*
%TO.P,U1,41_11*%
X165446000Y-40788000D03*
%TO.P,U1,41_12*%
X165446000Y-43588000D03*
%TO.P,U1,41_13*%
X164046000Y-40788000D03*
%TO.P,U1,41_14*%
X164046000Y-42188000D03*
%TO.P,U1,41_15*%
X164046000Y-43588000D03*
%TO.P,U1,41_16*%
X166146000Y-41488000D03*
%TO.P,U1,41_17*%
X166146000Y-42888000D03*
%TO.P,U1,41_18*%
X164746000Y-41488000D03*
%TO.P,U1,41_19*%
X164746000Y-42888000D03*
%TO.P,U1,41_20*%
X163346000Y-41488000D03*
%TO.P,U1,41_21*%
X163346000Y-42888000D03*
%TD*%
D12*
%TO.P,J9,1,Pin_1*%
%TO.N,ShiftQ*%
X171450000Y-57150000D03*
D13*
%TO.P,J9,2,Pin_2*%
%TO.N,ShiftH*%
X171450000Y-59690000D03*
%TD*%
D17*
%TO.P,J1,S1,SHIELD*%
%TO.N,GND*%
X139700000Y-32440000D03*
%TO.P,J1,S2,SHIELD*%
X131050000Y-32440000D03*
D18*
%TO.P,J1,S3,SHIELD*%
X139700000Y-28270000D03*
%TO.P,J1,S4,SHIELD*%
X131050000Y-28270000D03*
%TD*%
D12*
%TO.P,M2,1,PWM*%
%TO.N,Net-(M2-PWM)*%
X165274000Y-72390000D03*
D13*
%TO.P,M2,2,+*%
%TO.N,VCC_5V*%
X165274000Y-69850000D03*
%TO.P,M2,3,-*%
%TO.N,GND*%
X165274000Y-67310000D03*
%TD*%
D12*
%TO.P,M4,1,PWM*%
%TO.N,Net-(M4-PWM)*%
X156130000Y-72390000D03*
D13*
%TO.P,M4,2,+*%
%TO.N,VCC_5V*%
X156130000Y-69850000D03*
%TO.P,M4,3,-*%
%TO.N,GND*%
X156130000Y-67310000D03*
%TD*%
D12*
%TO.P,M3,1,PWM*%
%TO.N,Net-(M3-PWM)*%
X160702000Y-72390000D03*
D13*
%TO.P,M3,2,+*%
%TO.N,VCC_5V*%
X160702000Y-69850000D03*
%TO.P,M3,3,-*%
%TO.N,GND*%
X160702000Y-67310000D03*
%TD*%
D12*
%TO.P,J3,1,Pin_1*%
%TO.N,IR1*%
X165100000Y-90170000D03*
D13*
%TO.P,J3,2,Pin_2*%
%TO.N,IR2*%
X165100000Y-87630000D03*
%TO.P,J3,3,Pin_3*%
%TO.N,IR3*%
X165100000Y-85090000D03*
%TO.P,J3,4,Pin_4*%
%TO.N,IR4*%
X165100000Y-82550000D03*
%TO.P,J3,5,Pin_5*%
%TO.N,IR5*%
X165100000Y-80010000D03*
%TO.P,J3,6,Pin_6*%
%TO.N,IR6*%
X165100000Y-77470000D03*
%TD*%
D12*
%TO.P,M5,1,PWM*%
%TO.N,Net-(M5-PWM)*%
X151558000Y-72390000D03*
D13*
%TO.P,M5,2,+*%
%TO.N,VCC_5V*%
X151558000Y-69850000D03*
%TO.P,M5,3,-*%
%TO.N,GND*%
X151558000Y-67310000D03*
%TD*%
D12*
%TO.P,J10,1,Pin_1*%
%TO.N,Net-(J10-Pin_1)*%
X135128000Y-80518000D03*
%TD*%
%TO.P,J2,1,Pin_1*%
%TO.N,SCL*%
X124714000Y-37846000D03*
D13*
%TO.P,J2,2,Pin_2*%
%TO.N,SDA*%
X124714000Y-35306000D03*
%TO.P,J2,3,Pin_3*%
%TO.N,VCC_5V*%
X124714000Y-32766000D03*
%TO.P,J2,4,Pin_4*%
%TO.N,GND*%
X124714000Y-30226000D03*
%TD*%
D12*
%TO.P,J7,1,Pin_1*%
%TO.N,GND*%
X151130000Y-91440000D03*
D13*
%TO.P,J7,2,Pin_2*%
X153670000Y-91440000D03*
%TO.P,J7,3,Pin_3*%
X156210000Y-91440000D03*
%TO.P,J7,4,Pin_4*%
X158750000Y-91440000D03*
%TD*%
D19*
%TO.P,U6,1,EN1\u002C2*%
%TO.N,GPIO40*%
X124475000Y-76190000D03*
D20*
%TO.P,U6,2,1A*%
%TO.N,GPIO39*%
X127015000Y-76190000D03*
%TO.P,U6,3,1Y*%
%TO.N,Net-(M7-+)*%
X129555000Y-76190000D03*
%TO.P,U6,4,GND*%
%TO.N,GND*%
X132095000Y-76190000D03*
%TO.P,U6,5,GND*%
X134635000Y-76190000D03*
%TO.P,U6,6,2Y*%
%TO.N,Net-(M7--)*%
X137175000Y-76190000D03*
%TO.P,U6,7,2A*%
%TO.N,GPIO4*%
X139715000Y-76190000D03*
%TO.P,U6,8,VCC2*%
%TO.N,Net-(JP1-A)*%
X142255000Y-76190000D03*
%TO.P,U6,9,EN3\u002C4*%
%TO.N,unconnected-(U6-EN3\u002C4-Pad9)*%
X142255000Y-68570000D03*
%TO.P,U6,10,3A*%
%TO.N,unconnected-(U6-3A-Pad10)*%
X139715000Y-68570000D03*
%TO.P,U6,11,3Y*%
%TO.N,unconnected-(U6-3Y-Pad11)*%
X137175000Y-68570000D03*
%TO.P,U6,12,GND*%
%TO.N,GND*%
X134635000Y-68570000D03*
%TO.P,U6,13,GND*%
X132095000Y-68570000D03*
%TO.P,U6,14,4Y*%
%TO.N,unconnected-(U6-4Y-Pad14)*%
X129555000Y-68570000D03*
%TO.P,U6,15,4A*%
%TO.N,unconnected-(U6-4A-Pad15)*%
X127015000Y-68570000D03*
%TO.P,U6,16,VCC1*%
%TO.N,VCC_5V*%
X124475000Y-68570000D03*
%TD*%
D12*
%TO.P,J4,1,Pin_1*%
%TO.N,BTN1*%
X171450000Y-77470000D03*
D13*
%TO.P,J4,2,Pin_2*%
%TO.N,BTN2*%
X171450000Y-80010000D03*
%TO.P,J4,3,Pin_3*%
%TO.N,BTN3*%
X171450000Y-82550000D03*
%TO.P,J4,4,Pin_4*%
%TO.N,BTN4*%
X171450000Y-85090000D03*
%TO.P,J4,5,Pin_5*%
%TO.N,BTN5*%
X171450000Y-87630000D03*
%TO.P,J4,6,Pin_6*%
%TO.N,BTN6*%
X171450000Y-90170000D03*
%TD*%
D12*
%TO.P,M1,1,PWM*%
%TO.N,Net-(M1-PWM)*%
X169846000Y-72390000D03*
D13*
%TO.P,M1,2,+*%
%TO.N,VCC_5V*%
X169846000Y-69850000D03*
%TO.P,M1,3,-*%
%TO.N,GND*%
X169846000Y-67310000D03*
%TD*%
D12*
%TO.P,M6,1,PWM*%
%TO.N,Net-(M6-PWM)*%
X146812000Y-72390000D03*
D13*
%TO.P,M6,2,+*%
%TO.N,VCC_5V*%
X146812000Y-69850000D03*
%TO.P,M6,3,-*%
%TO.N,GND*%
X146812000Y-67310000D03*
%TD*%
D12*
%TO.P,J11,1,Pin_1*%
%TO.N,GPIO35*%
X149591000Y-52324000D03*
D13*
%TO.P,J11,2,Pin_2*%
%TO.N,GPIO36*%
X147051000Y-52324000D03*
%TO.P,J11,3,Pin_3*%
%TO.N,GPIO37*%
X144511000Y-52324000D03*
%TD*%
D10*
%TO.P,M7,1,+*%
%TO.N,Net-(M7-+)*%
X126695000Y-86990000D03*
D11*
%TO.P,M7,2,-*%
%TO.N,Net-(M7--)*%
X126695000Y-92070000D03*
%TD*%
D21*
%TO.N,GND*%
X128270000Y-62865000D03*
X128270000Y-65188200D03*
%TO.N,BTN3*%
X161036000Y-47498000D03*
%TO.N,GND*%
X149229800Y-57299700D03*
%TO.N,CHIP_PU*%
X157480000Y-32867500D03*
X148293000Y-37226500D03*
%TO.N,ESP_3.3V*%
X151768500Y-64186500D03*
X159258000Y-31712500D03*
X154432000Y-66294000D03*
X149727500Y-36082200D03*
X143275600Y-66065200D03*
%TO.N,VCC_5V*%
X133604000Y-53848000D03*
%TO.N,GPIO0*%
X151125600Y-51535900D03*
X147278600Y-47884300D03*
%TO.N,Net-(J1-CC1)*%
X137160000Y-31750000D03*
X142494000Y-35560000D03*
%TO.N,SDA*%
X158496000Y-37845900D03*
%TO.N,SCL*%
X155959800Y-39461900D03*
%TO.N,IR5*%
X163068000Y-49784000D03*
%TO.N,IR4*%
X157300800Y-51072600D03*
%TO.N,IR1*%
X159477800Y-48913500D03*
X164589900Y-56535400D03*
%TO.N,IR3*%
X154357600Y-52221900D03*
X165578900Y-64915600D03*
%TO.N,IR2*%
X152623700Y-50156700D03*
X145163500Y-60515100D03*
X145163500Y-74881300D03*
%TO.N,IR6*%
X171001600Y-55376700D03*
X161786200Y-50652500D03*
X172376900Y-73480800D03*
%TO.N,BTN5*%
X155960800Y-48858400D03*
X166929700Y-65515600D03*
%TO.N,BTN6*%
X167656250Y-50021750D03*
%TO.N,BTN3*%
X173405100Y-50771890D03*
%TO.N,BTN4*%
X167529800Y-64169600D03*
X160004300Y-45681500D03*
%TO.N,SCK*%
X164912565Y-39436565D03*
X154947200Y-55202600D03*
%TO.N,GPIO4*%
X143877300Y-65438300D03*
X168656000Y-36210400D03*
%TO.N,SI*%
X156848500Y-58421800D03*
X167901300Y-42673900D03*
%TO.N,RCK*%
X154308500Y-60850300D03*
X166124815Y-37600815D03*
%TO.N,SERVO*%
X168515900Y-65349500D03*
X150756400Y-59436000D03*
X147258500Y-64067500D03*
%TO.N,ShiftQ*%
X153754700Y-54901600D03*
%TO.N,ShiftH*%
X153642800Y-55769000D03*
%TO.N,GPIO40*%
X149478900Y-54276900D03*
%TO.N,GPIO39*%
X156517100Y-45523700D03*
%TO.N,GPIO37*%
X157184800Y-44785300D03*
%TD*%
D22*
%TO.N,GPIO4*%
X166301100Y-36576000D02*
X168290400Y-36576000D01*
X160883900Y-41993200D02*
X166301100Y-36576000D01*
X160883900Y-42367800D02*
X160883900Y-41993200D01*
X153270000Y-49981700D02*
X160883900Y-42367800D01*
X152530800Y-51288900D02*
X153270000Y-50549700D01*
X168290400Y-36576000D02*
X168656000Y-36210400D01*
X151546100Y-54735400D02*
X151546100Y-53102500D01*
X151144400Y-55137100D02*
X151546100Y-54735400D01*
X151546100Y-53102500D02*
X152530800Y-52117800D01*
X151144400Y-58171200D02*
X151144400Y-55137100D01*
X153270000Y-50549700D02*
X153270000Y-49981700D01*
X152530800Y-52117800D02*
X152530800Y-51288900D01*
X143877300Y-65438300D02*
X151144400Y-58171200D01*
%TO.N,SCK*%
X154999000Y-51847500D02*
X154999000Y-55150800D01*
X154999000Y-55150800D02*
X154947200Y-55202600D01*
X162094400Y-44752100D02*
X154999000Y-51847500D01*
X164663835Y-39436565D02*
X162094400Y-42006000D01*
X162094400Y-42006000D02*
X162094400Y-44752100D01*
X164912565Y-39436565D02*
X164663835Y-39436565D01*
%TO.N,GND*%
X128270000Y-62865000D02*
X128270000Y-65188200D01*
%TO.N,IR3*%
X154357600Y-52563000D02*
X154357600Y-52221900D01*
X153152900Y-53767700D02*
X154357600Y-52563000D01*
X153152900Y-55407700D02*
X153152900Y-53767700D01*
X154540300Y-57582800D02*
X152924400Y-55966900D01*
X152924400Y-55966900D02*
X152924400Y-55636200D01*
X156429500Y-60001500D02*
X154540300Y-58112300D01*
X164263000Y-60001500D02*
X156429500Y-60001500D01*
X154540300Y-58112300D02*
X154540300Y-57582800D01*
X168131600Y-63870100D02*
X164263000Y-60001500D01*
X168131600Y-64457400D02*
X168131600Y-63870100D01*
X152924400Y-55636200D02*
X153152900Y-55407700D01*
X165578900Y-64915600D02*
X167673400Y-64915600D01*
X167673400Y-64915600D02*
X168131600Y-64457400D01*
%TO.N,IR2*%
X147752200Y-77470000D02*
X145163500Y-74881300D01*
X153788300Y-77470000D02*
X147752200Y-77470000D01*
X163948300Y-87630000D02*
X153788300Y-77470000D01*
X165100000Y-87630000D02*
X163948300Y-87630000D01*
%TO.N,VCC_5V*%
X139192000Y-69850000D02*
X146812000Y-69850000D01*
X135890000Y-73152000D02*
X139192000Y-69850000D01*
X135890000Y-77334600D02*
X135890000Y-73152000D01*
X136906000Y-85481000D02*
X136906000Y-78350600D01*
X136906000Y-78350600D02*
X135890000Y-77334600D01*
X132588000Y-69850000D02*
X135890000Y-73152000D01*
X124475000Y-68570000D02*
X125755000Y-69850000D01*
X125755000Y-69850000D02*
X132588000Y-69850000D01*
%TO.N,GPIO39*%
X127015000Y-75707000D02*
X127015000Y-76190000D01*
X123190000Y-71882000D02*
X127015000Y-75707000D01*
X123190000Y-67310000D02*
X123190000Y-71882000D01*
X124206000Y-66294000D02*
X123190000Y-67310000D01*
X138312700Y-66294000D02*
X124206000Y-66294000D01*
X150742700Y-53864000D02*
X138312700Y-66294000D01*
X150742700Y-52636500D02*
X150742700Y-53864000D01*
X151243300Y-52135900D02*
X150742700Y-52636500D01*
X151374129Y-52135900D02*
X151243300Y-52135900D01*
X151725600Y-51784429D02*
X151374129Y-52135900D01*
X151727400Y-51472600D02*
X151725600Y-51474400D01*
X151725600Y-51474400D02*
X151725600Y-51784429D01*
X151727400Y-50202200D02*
X151727400Y-51472600D01*
X156405900Y-45523700D02*
X151727400Y-50202200D01*
X156517100Y-45523700D02*
X156405900Y-45523700D01*
%TO.N,GPIO40*%
X123949800Y-65788200D02*
X137967600Y-65788200D01*
X122519981Y-73133281D02*
X122519975Y-67218025D01*
X124475000Y-75088300D02*
X122519981Y-73133281D01*
X124475000Y-76190000D02*
X124475000Y-75088300D01*
X122519975Y-67218025D02*
X123949800Y-65788200D01*
X137967600Y-65788200D02*
X149478900Y-54276900D01*
%TO.N,ShiftH*%
X156595800Y-59599800D02*
X154942000Y-57946000D01*
X154942000Y-57068200D02*
X153642800Y-55769000D01*
X171359800Y-59599800D02*
X156595800Y-59599800D01*
X171450000Y-59690000D02*
X171359800Y-59599800D01*
X154942000Y-57946000D02*
X154942000Y-57068200D01*
%TO.N,IR2*%
X152129100Y-50651300D02*
X152623700Y-50156700D01*
X152129100Y-51953814D02*
X152129100Y-50651300D01*
X151144400Y-52938514D02*
X152129100Y-51953814D01*
X145163500Y-60515100D02*
X151144400Y-54534200D01*
X151144400Y-54534200D02*
X151144400Y-52938514D01*
%TO.N,RCK*%
X151546100Y-58087900D02*
X154308500Y-60850300D01*
X151546100Y-55310500D02*
X151546100Y-58087900D01*
X151947800Y-53268800D02*
X151947800Y-54908800D01*
X151947800Y-54908800D02*
X151546100Y-55310500D01*
X152932500Y-52284100D02*
X151947800Y-53268800D01*
X153670000Y-50218200D02*
X153670000Y-50715386D01*
X153670000Y-50715386D02*
X152932500Y-51452886D01*
X161651400Y-41849200D02*
X161651400Y-42236800D01*
X165899785Y-37600815D02*
X161651400Y-41849200D01*
X152932500Y-51452886D02*
X152932500Y-52284100D01*
X166124815Y-37600815D02*
X165899785Y-37600815D01*
X161651400Y-42236800D02*
X153670000Y-50218200D01*
%TO.N,BTN3*%
X162584395Y-49046395D02*
X171679605Y-49046395D01*
X161036000Y-47498000D02*
X162584395Y-49046395D01*
X171679605Y-49046395D02*
X173405100Y-50771890D01*
%TO.N,SI*%
X165363200Y-45212000D02*
X167901300Y-42673900D01*
X162276400Y-45212000D02*
X165363200Y-45212000D01*
X156695300Y-50793100D02*
X162276400Y-45212000D01*
X156695300Y-58268600D02*
X156695300Y-50793100D01*
X156848500Y-58421800D02*
X156695300Y-58268600D01*
%TO.N,Net-(J1-CC1)*%
X137160000Y-31764239D02*
X137160000Y-31750000D01*
X141732000Y-34544000D02*
X139939761Y-34544000D01*
X142494000Y-35560000D02*
X142494000Y-35306000D01*
X142494000Y-35306000D02*
X141732000Y-34544000D01*
X139939761Y-34544000D02*
X137160000Y-31764239D01*
%TO.N,GND*%
X131050000Y-28270000D02*
X131050000Y-28294300D01*
X134635000Y-76190000D02*
X132095000Y-76190000D01*
X130245700Y-30226000D02*
X131050000Y-29421700D01*
X124714000Y-30226000D02*
X130245700Y-30226000D01*
X139700000Y-28845800D02*
X139700000Y-32440000D01*
X169846000Y-67310000D02*
X165274000Y-67310000D01*
X142673900Y-67310000D02*
X146812000Y-67310000D01*
X139700000Y-28270000D02*
X139700000Y-28845800D01*
X142673900Y-67310000D02*
X142673900Y-63855600D01*
X142673900Y-63855600D02*
X149229800Y-57299700D01*
X131050000Y-31138300D02*
X130245700Y-30334000D01*
X156130000Y-67310000D02*
X160702000Y-67310000D01*
X153670000Y-91440000D02*
X156210000Y-91440000D01*
X131050000Y-32440000D02*
X131050000Y-31138300D01*
X151558000Y-67310000D02*
X156130000Y-67310000D01*
X131457700Y-28702000D02*
X131050000Y-28294300D01*
X134635000Y-68570000D02*
X135895000Y-67310000D01*
X156210000Y-91440000D02*
X158750000Y-91440000D01*
X160702000Y-67310000D02*
X165274000Y-67310000D01*
X139556200Y-28702000D02*
X131457700Y-28702000D01*
X131050000Y-28294300D02*
X131050000Y-29421700D01*
X151558000Y-67310000D02*
X146812000Y-67310000D01*
X130245700Y-30334000D02*
X130245700Y-30226000D01*
X135895000Y-67310000D02*
X142673900Y-67310000D01*
X132095000Y-68570000D02*
X134635000Y-68570000D01*
X139700000Y-28845800D02*
X139556200Y-28702000D01*
X151130000Y-91440000D02*
X153670000Y-91440000D01*
%TO.N,CHIP_PU*%
X153121000Y-37226500D02*
X148293000Y-37226500D01*
X157480000Y-32867500D02*
X153121000Y-37226500D01*
%TO.N,ESP_3.3V*%
X143275600Y-66065200D02*
X149889800Y-66065200D01*
X149889800Y-66065200D02*
X151768500Y-64186500D01*
X159258000Y-31712500D02*
X154097200Y-31712500D01*
X154097200Y-31712500D02*
X149727500Y-36082200D01*
X154432000Y-66294000D02*
X152324500Y-64186500D01*
X152324500Y-64186500D02*
X151768500Y-64186500D01*
%TO.N,VCC_5V*%
X151558000Y-69850000D02*
X146812000Y-69850000D01*
X128519000Y-48763000D02*
X127000000Y-48763000D01*
X160702000Y-69850000D02*
X165274000Y-69850000D01*
X156130000Y-69850000D02*
X154978300Y-69850000D01*
X154978300Y-69850000D02*
X152709700Y-69850000D01*
X133604000Y-53848000D02*
X128519000Y-48763000D01*
X156130000Y-69850000D02*
X160702000Y-69850000D01*
X151558000Y-69850000D02*
X152709700Y-69850000D01*
X169846000Y-69850000D02*
X165274000Y-69850000D01*
%TO.N,GPIO0*%
X151125600Y-51535900D02*
X147474000Y-47884300D01*
X147474000Y-47884300D02*
X147278600Y-47884300D01*
%TO.N,SDA*%
X124714000Y-35306000D02*
X125865700Y-35306000D01*
X128405600Y-37845900D02*
X158496000Y-37845900D01*
X125865700Y-35306000D02*
X128405600Y-37845900D01*
%TO.N,SCL*%
X124714000Y-37846000D02*
X125865700Y-37846000D01*
X125865700Y-37846000D02*
X127481600Y-39461900D01*
X127481600Y-39461900D02*
X155959800Y-39461900D01*
%TO.N,IR5*%
X166401086Y-74246500D02*
X163909200Y-76738386D01*
X168235100Y-51168600D02*
X173049300Y-55982800D01*
X163068000Y-49784000D02*
X164452600Y-51168600D01*
X173049300Y-55982800D02*
X173049300Y-71313400D01*
X164452600Y-51168600D02*
X168235100Y-51168600D01*
X163909200Y-76738386D02*
X163909200Y-79073200D01*
X173049300Y-71313400D02*
X170116200Y-74246500D01*
X170116200Y-74246500D02*
X166401086Y-74246500D01*
X164846000Y-80010000D02*
X165100000Y-80010000D01*
X163909200Y-79073200D02*
X164846000Y-80010000D01*
%TO.N,IR4*%
X172647600Y-56149100D02*
X172486800Y-55988300D01*
X163505200Y-80955200D02*
X163505200Y-76576700D01*
X172486800Y-55988300D02*
X166571400Y-55988300D01*
X172647600Y-68696300D02*
X172647600Y-56149100D01*
X168961900Y-71120000D02*
X170223900Y-71120000D01*
X170223900Y-71120000D02*
X172647600Y-68696300D01*
X163378200Y-57150000D02*
X157300800Y-51072600D01*
X165409700Y-57150000D02*
X163378200Y-57150000D01*
X163505200Y-76576700D02*
X168961900Y-71120000D01*
X165100000Y-82550000D02*
X163505200Y-80955200D01*
X166571400Y-55988300D02*
X165409700Y-57150000D01*
%TO.N,IR1*%
X164589900Y-56535400D02*
X159477800Y-51423300D01*
X159477800Y-51423300D02*
X159477800Y-48913500D01*
%TO.N,IR6*%
X165100000Y-77470000D02*
X168387700Y-77470000D01*
X165755600Y-55376700D02*
X161786200Y-51407300D01*
X171001600Y-55376700D02*
X165755600Y-55376700D01*
X168387700Y-77470000D02*
X172376900Y-73480800D01*
X161786200Y-51407300D02*
X161786200Y-50652500D01*
%TO.N,BTN5*%
X151947800Y-55476800D02*
X152349500Y-55075100D01*
X153334200Y-51621500D02*
X155960800Y-48994900D01*
X155960800Y-48994900D02*
X155960800Y-48858400D01*
X166929700Y-65515600D02*
X160807600Y-65515600D01*
X152349500Y-55075100D02*
X152349500Y-53435100D01*
X152349500Y-53435100D02*
X153334200Y-52450400D01*
X160807600Y-65515600D02*
X151947800Y-56655800D01*
X151947800Y-56655800D02*
X151947800Y-55476800D01*
X153334200Y-52450400D02*
X153334200Y-51621500D01*
%TO.N,BTN6*%
X171450000Y-90170000D02*
X173451000Y-88169000D01*
X173451000Y-88169000D02*
X173451000Y-55816500D01*
X173451000Y-55816500D02*
X167656250Y-50021750D01*
X167656250Y-50021750D02*
X167576500Y-49942000D01*
%TO.N,BTN4*%
X153735900Y-51949900D02*
X160004300Y-45681500D01*
X152751200Y-55241400D02*
X152751200Y-53601400D01*
X156263200Y-60403200D02*
X154138600Y-58278600D01*
X163763400Y-60403200D02*
X156263200Y-60403200D01*
X152349500Y-56015100D02*
X152349500Y-55643100D01*
X152751200Y-53601400D02*
X153735900Y-52616700D01*
X154138600Y-57804200D02*
X152349500Y-56015100D01*
X154138600Y-58278600D02*
X154138600Y-57804200D01*
X167529800Y-64169600D02*
X163763400Y-60403200D01*
X152349500Y-55643100D02*
X152751200Y-55241400D01*
X153735900Y-52616700D02*
X153735900Y-51949900D01*
%TO.N,SERVO*%
X147767200Y-63558800D02*
X147258500Y-64067500D01*
X167707100Y-66158300D02*
X156600800Y-66158300D01*
X154001300Y-63558800D02*
X150756400Y-63558800D01*
X150756400Y-63558800D02*
X147767200Y-63558800D01*
X150756400Y-63558800D02*
X150756400Y-59436000D01*
X168515900Y-65349500D02*
X167707100Y-66158300D01*
X156600800Y-66158300D02*
X154001300Y-63558800D01*
%TO.N,ShiftQ*%
X155385000Y-56531900D02*
X153754700Y-54901600D01*
X168250200Y-59198100D02*
X156762100Y-59198100D01*
X156762100Y-59198100D02*
X155385000Y-57821000D01*
X155385000Y-57821000D02*
X155385000Y-56531900D01*
X171450000Y-57150000D02*
X170298300Y-57150000D01*
X170298300Y-57150000D02*
X168250200Y-59198100D01*
%TO.N,GPIO37*%
X144511000Y-49729200D02*
X144511000Y-52324000D01*
X157184800Y-44785300D02*
X149454900Y-44785300D01*
X149454900Y-44785300D02*
X144511000Y-49729200D01*
%TD*%
%TA.AperFunction,Conductor*%
%TO.N,GND*%
G36*
X153204075Y-91247007D02*
G01*
X153170000Y-91374174D01*
X153170000Y-91505826D01*
X153204075Y-91632993D01*
X153236988Y-91690000D01*
X151563012Y-91690000D01*
X151595925Y-91632993D01*
X151630000Y-91505826D01*
X151630000Y-91374174D01*
X151595925Y-91247007D01*
X151563012Y-91190000D01*
X153236988Y-91190000D01*
X153204075Y-91247007D01*
G37*
%TD.AperFunction*%
%TA.AperFunction,Conductor*%
G36*
X155744075Y-91247007D02*
G01*
X155710000Y-91374174D01*
X155710000Y-91505826D01*
X155744075Y-91632993D01*
X155776988Y-91690000D01*
X154103012Y-91690000D01*
X154135925Y-91632993D01*
X154170000Y-91505826D01*
X154170000Y-91374174D01*
X154135925Y-91247007D01*
X154103012Y-91190000D01*
X155776988Y-91190000D01*
X155744075Y-91247007D01*
G37*
%TD.AperFunction*%
%TA.AperFunction,Conductor*%
G36*
X158284075Y-91247007D02*
G01*
X158250000Y-91374174D01*
X158250000Y-91505826D01*
X158284075Y-91632993D01*
X158316988Y-91690000D01*
X156643012Y-91690000D01*
X156675925Y-91632993D01*
X156710000Y-91505826D01*
X156710000Y-91374174D01*
X156675925Y-91247007D01*
X156643012Y-91190000D01*
X158316988Y-91190000D01*
X158284075Y-91247007D01*
G37*
%TD.AperFunction*%
%TA.AperFunction,Conductor*%
G36*
X145589948Y-70470185D02*
G01*
X145635292Y-70522097D01*
X145637965Y-70527830D01*
X145773501Y-70721396D01*
X145773506Y-70721402D01*
X145895430Y-70843326D01*
X145928915Y-70904649D01*
X145923931Y-70974341D01*
X145882059Y-71030274D01*
X145851083Y-71047189D01*
X145719669Y-71096203D01*
X145719664Y-71096206D01*
X145604455Y-71182452D01*
X145604452Y-71182455D01*
X145518206Y-71297664D01*
X145518202Y-71297671D01*
X145467908Y-71432517D01*
X145461501Y-71492116D01*
X145461501Y-71492123D01*
X145461500Y-71492135D01*
X145461500Y-73287870D01*
X145461501Y-73287876D01*
X145467908Y-73347483D01*
X145518202Y-73482328D01*
X145518206Y-73482335D01*
X145604452Y-73597544D01*
X145604455Y-73597547D01*
X145719664Y-73683793D01*
X145719671Y-73683797D01*
X145854517Y-73734091D01*
X145854516Y-73734091D01*
X145861444Y-73734835D01*
X145914127Y-73740500D01*
X147709872Y-73740499D01*
X147769483Y-73734091D01*
X147904331Y-73683796D01*
X148019546Y-73597546D01*
X148105796Y-73482331D01*
X148156091Y-73347483D01*
X148162500Y-73287873D01*
X148162499Y-71492128D01*
X148156091Y-71432517D01*
X148105796Y-71297669D01*
X148105795Y-71297668D01*
X148105793Y-71297664D01*
X148019547Y-71182455D01*
X148019544Y-71182452D01*
X147904335Y-71096206D01*
X147904328Y-71096202D01*
X147772917Y-71047189D01*
X147716983Y-71005318D01*
X147692566Y-70939853D01*
X147707418Y-70871580D01*
X147728563Y-70843332D01*
X147850495Y-70721401D01*
X147986035Y-70527830D01*
X147988707Y-70522097D01*
X148034878Y-70469658D01*
X148101091Y-70450500D01*
X150268909Y-70450500D01*
X150335948Y-70470185D01*
X150381292Y-70522097D01*
X150383965Y-70527830D01*
X150519501Y-70721396D01*
X150519506Y-70721402D01*
X150641430Y-70843326D01*
X150674915Y-70904649D01*
X150669931Y-70974341D01*
X150628059Y-71030274D01*
X150597083Y-71047189D01*
X150465669Y-71096203D01*
X150465664Y-71096206D01*
X150350455Y-71182452D01*
X150350452Y-71182455D01*
X150264206Y-71297664D01*
X150264202Y-71297671D01*
X150213908Y-71432517D01*
X150207501Y-71492116D01*
X150207501Y-71492123D01*
X150207500Y-71492135D01*
X150207500Y-73287870D01*
X150207501Y-73287876D01*
X150213908Y-73347483D01*
X150264202Y-73482328D01*
X150264206Y-73482335D01*
X150350452Y-73597544D01*
X150350455Y-73597547D01*
X150465664Y-73683793D01*
X150465671Y-73683797D01*
X150600517Y-73734091D01*
X150600516Y-73734091D01*
X150607444Y-73734835D01*
X150660127Y-73740500D01*
X152455872Y-73740499D01*
X152515483Y-73734091D01*
X152650331Y-73683796D01*
X152765546Y-73597546D01*
X152851796Y-73482331D01*
X152902091Y-73347483D01*
X152908500Y-73287873D01*
X152908499Y-71492128D01*
X152902091Y-71432517D01*
X152851796Y-71297669D01*
X152851795Y-71297668D01*
X152851793Y-71297664D01*
X152765547Y-71182455D01*
X152765544Y-71182452D01*
X152650335Y-71096206D01*
X152650328Y-71096202D01*
X152518917Y-71047189D01*
X152462983Y-71005318D01*
X152438566Y-70939853D01*
X152453418Y-70871580D01*
X152474563Y-70843332D01*
X152596495Y-70721401D01*
X152732035Y-70527830D01*
X152734707Y-70522097D01*
X152780878Y-70469658D01*
X152847091Y-70450500D01*
X154840909Y-70450500D01*
X154907948Y-70470185D01*
X154953292Y-70522097D01*
X154955965Y-70527830D01*
X155091501Y-70721396D01*
X155091506Y-70721402D01*
X155213430Y-70843326D01*
X155246915Y-70904649D01*
X155241931Y-70974341D01*
X155200059Y-71030274D01*
X155169083Y-71047189D01*
X155037669Y-71096203D01*
X155037664Y-71096206D01*
X154922455Y-71182452D01*
X154922452Y-71182455D01*
X154836206Y-71297664D01*
X154836202Y-71297671D01*
X154785908Y-71432517D01*
X154779501Y-71492116D01*
X154779501Y-71492123D01*
X154779500Y-71492135D01*
X154779500Y-73287870D01*
X154779501Y-73287876D01*
X154785908Y-73347483D01*
X154836202Y-73482328D01*
X154836206Y-73482335D01*
X154922452Y-73597544D01*
X154922455Y-73597547D01*
X155037664Y-73683793D01*
X155037671Y-73683797D01*
X155172517Y-73734091D01*
X155172516Y-73734091D01*
X155179444Y-73734835D01*
X155232127Y-73740500D01*
X157027872Y-73740499D01*
X157087483Y-73734091D01*
X157222331Y-73683796D01*
X157337546Y-73597546D01*
X157423796Y-73482331D01*
X157474091Y-73347483D01*
X157480500Y-73287873D01*
X157480499Y-71492128D01*
X157474091Y-71432517D01*
X157423796Y-71297669D01*
X157423795Y-71297668D01*
X157423793Y-71297664D01*
X157337547Y-71182455D01*
X157337544Y-71182452D01*
X157222335Y-71096206D01*
X157222328Y-71096202D01*
X157090917Y-71047189D01*
X157034983Y-71005318D01*
X157010566Y-70939853D01*
X157025418Y-70871580D01*
X157046563Y-70843332D01*
X157168495Y-70721401D01*
X157304035Y-70527830D01*
X157306707Y-70522097D01*
X157352878Y-70469658D01*
X157419091Y-70450500D01*
X159412909Y-70450500D01*
X159479948Y-70470185D01*
X159525292Y-70522097D01*
X159527965Y-70527830D01*
X159663501Y-70721396D01*
X159663506Y-70721402D01*
X159785430Y-70843326D01*
X159818915Y-70904649D01*
X159813931Y-70974341D01*
X159772059Y-71030274D01*
X159741083Y-71047189D01*
X159609669Y-71096203D01*
X159609664Y-71096206D01*
X159494455Y-71182452D01*
X159494452Y-71182455D01*
X159408206Y-71297664D01*
X159408202Y-71297671D01*
X159357908Y-71432517D01*
X159351501Y-71492116D01*
X159351501Y-71492123D01*
X159351500Y-71492135D01*
X159351500Y-73287870D01*
X159351501Y-73287876D01*
X159357908Y-73347483D01*
X159408202Y-73482328D01*
X159408206Y-73482335D01*
X159494452Y-73597544D01*
X159494455Y-73597547D01*
X159609664Y-73683793D01*
X159609671Y-73683797D01*
X159744517Y-73734091D01*
X159744516Y-73734091D01*
X159751444Y-73734835D01*
X159804127Y-73740500D01*
X161599872Y-73740499D01*
X161659483Y-73734091D01*
X161794331Y-73683796D01*
X161909546Y-73597546D01*
X161995796Y-73482331D01*
X162046091Y-73347483D01*
X162052500Y-73287873D01*
X162052499Y-71492128D01*
X162046091Y-71432517D01*
X161995796Y-71297669D01*
X161995795Y-71297668D01*
X161995793Y-71297664D01*
X161909547Y-71182455D01*
X161909544Y-71182452D01*
X161794335Y-71096206D01*
X161794328Y-71096202D01*
X161662917Y-71047189D01*
X161606983Y-71005318D01*
X161582566Y-70939853D01*
X161597418Y-70871580D01*
X161618563Y-70843332D01*
X161740495Y-70721401D01*
X161876035Y-70527830D01*
X161878707Y-70522097D01*
X161924878Y-70469658D01*
X161991091Y-70450500D01*
X163984909Y-70450500D01*
X164051948Y-70470185D01*
X164097292Y-70522097D01*
X164099965Y-70527830D01*
X164235501Y-70721396D01*
X164235506Y-70721402D01*
X164357430Y-70843326D01*
X164390915Y-70904649D01*
X164385931Y-70974341D01*
X164344059Y-71030274D01*
X164313083Y-71047189D01*
X164181669Y-71096203D01*
X164181664Y-71096206D01*
X164066455Y-71182452D01*
X164066452Y-71182455D01*
X163980206Y-71297664D01*
X163980202Y-71297671D01*
X163929908Y-71432517D01*
X163923501Y-71492116D01*
X163923501Y-71492123D01*
X163923500Y-71492135D01*
X163923500Y-73287870D01*
X163923501Y-73287876D01*
X163929908Y-73347483D01*
X163980202Y-73482328D01*
X163980206Y-73482335D01*
X164066452Y-73597544D01*
X164066455Y-73597547D01*
X164181664Y-73683793D01*
X164181671Y-73683797D01*
X164316517Y-73734091D01*
X164316516Y-73734091D01*
X164323444Y-73734835D01*
X164376127Y-73740500D01*
X165192802Y-73740499D01*
X165259841Y-73760183D01*
X165305596Y-73812987D01*
X165315540Y-73882146D01*
X165286515Y-73945702D01*
X165280483Y-73952180D01*
X163136486Y-76096178D01*
X163024681Y-76207982D01*
X163024679Y-76207984D01*
X163004659Y-76242661D01*
X162995881Y-76257866D01*
X162945623Y-76344915D01*
X162904699Y-76497643D01*
X162904699Y-76497645D01*
X162904699Y-76665746D01*
X162904700Y-76665759D01*
X162904700Y-80868530D01*
X162904699Y-80868548D01*
X162904699Y-81034254D01*
X162904698Y-81034254D01*
X162945623Y-81186985D01*
X162974558Y-81237100D01*
X162974559Y-81237104D01*
X162974560Y-81237104D01*
X162999328Y-81280005D01*
X163024679Y-81323914D01*
X163024681Y-81323917D01*
X163143549Y-81442785D01*
X163143555Y-81442790D01*
X163767233Y-82066468D01*
X163800718Y-82127791D01*
X163799327Y-82186241D01*
X163764939Y-82314583D01*
X163764936Y-82314596D01*
X163744341Y-82549999D01*
X163744341Y-82550000D01*
X163764936Y-82785403D01*
X163764938Y-82785413D01*
X163826094Y-83013655D01*
X163826096Y-83013659D01*
X163826097Y-83013663D01*
X163901675Y-83175740D01*
X163925965Y-83227830D01*
X163925967Y-83227834D01*
X163953737Y-83267493D01*
X164061501Y-83421396D01*
X164061506Y-83421402D01*
X164228597Y-83588493D01*
X164228603Y-83588498D01*
X164414158Y-83718425D01*
X164457783Y-83773002D01*
X164464977Y-83842500D01*
X164433454Y-83904855D01*
X164414158Y-83921575D01*
X164228597Y-84051505D01*
X164061505Y-84218597D01*
X163925965Y-84412169D01*
X163925964Y-84412171D01*
X163826098Y-84626335D01*
X163826094Y-84626344D01*
X163764938Y-84854586D01*
X163764936Y-84854596D01*
X163744341Y-85089999D01*
X163744341Y-85090000D01*
X163764936Y-85325403D01*
X163764938Y-85325413D01*
X163826094Y-85553655D01*
X163826096Y-85553659D01*
X163826097Y-85553663D01*
X163901675Y-85715740D01*
X163925965Y-85767830D01*
X163925967Y-85767834D01*
X163953737Y-85807493D01*
X164061501Y-85961396D01*
X164061506Y-85961402D01*
X164228597Y-86128493D01*
X164228603Y-86128498D01*
X164414158Y-86258425D01*
X164457783Y-86313002D01*
X164464977Y-86382500D01*
X164433454Y-86444855D01*
X164414158Y-86461575D01*
X164228600Y-86591503D01*
X164081500Y-86738603D01*
X164020177Y-86772087D01*
X163950485Y-86767103D01*
X163906138Y-86738602D01*
X154275890Y-77108355D01*
X154275888Y-77108352D01*
X154157017Y-76989481D01*
X154157016Y-76989480D01*
X154070204Y-76939360D01*
X154070204Y-76939359D01*
X154070200Y-76939358D01*
X154020085Y-76910423D01*
X153867357Y-76869499D01*
X153709243Y-76869499D01*
X153701647Y-76869499D01*
X153701631Y-76869500D01*
X148052298Y-76869500D01*
X147985259Y-76849815D01*
X147964617Y-76833181D01*
X145994200Y-74862765D01*
X145960715Y-74801442D01*
X145958663Y-74788986D01*
X145948868Y-74702045D01*
X145889289Y-74531778D01*
X145793316Y-74379038D01*
X145665762Y-74251484D01*
X145611408Y-74217331D01*
X145513023Y-74155511D01*
X145342754Y-74095931D01*
X145342749Y-74095930D01*
X145163504Y-74075735D01*
X145163496Y-74075735D01*
X144984250Y-74095930D01*
X144984245Y-74095931D01*
X144813976Y-74155511D01*
X144661237Y-74251484D01*
X144533684Y-74379037D01*
X144437711Y-74531776D01*
X144378131Y-74702045D01*
X144378130Y-74702050D01*
X144357935Y-74881296D01*
X144357935Y-74881303D01*
X144378130Y-75060549D01*
X144378131Y-75060554D01*
X144437711Y-75230823D01*
X144513336Y-75351179D01*
X144533684Y-75383562D01*
X144661238Y-75511116D01*
X144813978Y-75607089D01*
X144984245Y-75666668D01*
X145071169Y-75676461D01*
X145135580Y-75703526D01*
X145144964Y-75711999D01*
X147383484Y-77950520D01*
X147383486Y-77950521D01*
X147383490Y-77950524D01*
X147520409Y-78029573D01*
X147520412Y-78029575D01*
X147520416Y-78029577D01*
X147673143Y-78070501D01*
X147673145Y-78070501D01*
X147838854Y-78070501D01*
X147838870Y-78070500D01*
X153488203Y-78070500D01*
X153555242Y-78090185D01*
X153575884Y-78106819D01*
X155037384Y-79568319D01*
X155070869Y-79629642D01*
X155065885Y-79699334D01*
X155024013Y-79755267D01*
X154958549Y-79779684D01*
X154949703Y-79780000D01*
X154795707Y-79780000D01*
X154550506Y-79820916D01*
X154315396Y-79901630D01*
X154315390Y-79901632D01*
X154096761Y-80019949D01*
X154049942Y-80056388D01*
X154049942Y-80056390D01*
X154790590Y-80797037D01*
X154727007Y-80814075D01*
X154612993Y-80879901D01*
X154519901Y-80972993D01*
X154454075Y-81087007D01*
X154437037Y-81150589D01*
X153696564Y-80410116D01*
X153596267Y-80563632D01*
X153496412Y-80791282D01*
X153435387Y-81032261D01*
X153435385Y-81032270D01*
X153414859Y-81279994D01*
X153414859Y-81280005D01*
X153435385Y-81527729D01*
X153435387Y-81527738D01*
X153496412Y-81768717D01*
X153596266Y-81996364D01*
X153696564Y-82149882D01*
X154437037Y-81409409D01*
X154454075Y-81472993D01*
X154519901Y-81587007D01*
X154612993Y-81680099D01*
X154727007Y-81745925D01*
X154790590Y-81762962D01*
X154049942Y-82503609D01*
X154096768Y-82540055D01*
X154096770Y-82540056D01*
X154315385Y-82658364D01*
X154315396Y-82658369D01*
X154550506Y-82739083D01*
X154795707Y-82780000D01*
X155044293Y-82780000D01*
X155289493Y-82739083D01*
X155524603Y-82658369D01*
X155524614Y-82658364D01*
X155743228Y-82540057D01*
X155743231Y-82540055D01*
X155790056Y-82503609D01*
X155049409Y-81762962D01*
X155112993Y-81745925D01*
X155227007Y-81680099D01*
X155320099Y-81587007D01*
X155385925Y-81472993D01*
X155402962Y-81409409D01*
X156143434Y-82149882D01*
X156243731Y-81996369D01*
X156343587Y-81768717D01*
X156404612Y-81527738D01*
X156404614Y-81527729D01*
X156425141Y-81280005D01*
X156425141Y-81279995D01*
X156423809Y-81263923D01*
X156437889Y-81195487D01*
X156486734Y-81145527D01*
X156554835Y-81129906D01*
X156620571Y-81153583D01*
X156635063Y-81165999D01*
X163579584Y-88110520D01*
X163716515Y-88189577D01*
X163837005Y-88221862D01*
X163896664Y-88258228D01*
X163917291Y-88289229D01*
X163925966Y-88307832D01*
X163925967Y-88307834D01*
X163991052Y-88400784D01*
X164061501Y-88501396D01*
X164061506Y-88501402D01*
X164183430Y-88623326D01*
X164216915Y-88684649D01*
X164211931Y-88754341D01*
X164170059Y-88810274D01*
X164139083Y-88827189D01*
X164007669Y-88876203D01*
X164007664Y-88876206D01*
X163892455Y-88962452D01*
X163892452Y-88962455D01*
X163806206Y-89077664D01*
X163806202Y-89077671D01*
X163755908Y-89212517D01*
X163749890Y-89268500D01*
X163749501Y-89272123D01*
X163749500Y-89272135D01*
X163749500Y-91067870D01*
X163749501Y-91067876D01*
X163755908Y-91127483D01*
X163806202Y-91262328D01*
X163806206Y-91262335D01*
X163892452Y-91377544D01*
X163892455Y-91377547D01*
X164007664Y-91463793D01*
X164007671Y-91463797D01*
X164142517Y-91514091D01*
X164142516Y-91514091D01*
X164149444Y-91514835D01*
X164202127Y-91520500D01*
X165997872Y-91520499D01*
X166057483Y-91514091D01*
X166192331Y-91463796D01*
X166307546Y-91377546D01*
X166393796Y-91262331D01*
X166444091Y-91127483D01*
X166450500Y-91067873D01*
X166450499Y-89272128D01*
X166444091Y-89212517D01*
X166441714Y-89206145D01*
X166393797Y-89077671D01*
X166393793Y-89077664D01*
X166307547Y-88962455D01*
X166307544Y-88962452D01*
X166192335Y-88876206D01*
X166192328Y-88876202D01*
X166060917Y-88827189D01*
X166004983Y-88785318D01*
X165980566Y-88719853D01*
X165995418Y-88651580D01*
X166016563Y-88623332D01*
X166138495Y-88501401D01*
X166274035Y-88307830D01*
X166373903Y-88093663D01*
X166435063Y-87865408D01*
X166455659Y-87630000D01*
X166435063Y-87394592D01*
X166373903Y-87166337D01*
X166274035Y-86952171D01*
X166259313Y-86931145D01*
X166138494Y-86758597D01*
X165971402Y-86591506D01*
X165971396Y-86591501D01*
X165785842Y-86461575D01*
X165742217Y-86406998D01*
X165735023Y-86337500D01*
X165766546Y-86275145D01*
X165785842Y-86258425D01*
X165808026Y-86242891D01*
X165971401Y-86128495D01*
X166138495Y-85961401D01*
X166274035Y-85767830D01*
X166373903Y-85553663D01*
X166435063Y-85325408D01*
X166455659Y-85090000D01*
X166435063Y-84854592D01*
X166373903Y-84626337D01*
X166274035Y-84412171D01*
X166257581Y-84388671D01*
X166138494Y-84218597D01*
X165971402Y-84051506D01*
X165971396Y-84051501D01*
X165785842Y-83921575D01*
X165742217Y-83866998D01*
X165735023Y-83797500D01*
X165766546Y-83735145D01*
X165785842Y-83718425D01*
X165808026Y-83702891D01*
X165971401Y-83588495D01*
X166138495Y-83421401D01*
X166274035Y-83227830D01*
X166373903Y-83013663D01*
X166435063Y-82785408D01*
X166455659Y-82550000D01*
X166435063Y-82314592D01*
X166373903Y-82086337D01*
X166274035Y-81872171D01*
X166273175Y-81870942D01*
X166138494Y-81678597D01*
X165971402Y-81511506D01*
X165971396Y-81511501D01*
X165785842Y-81381575D01*
X165742217Y-81326998D01*
X165735023Y-81257500D01*
X165766546Y-81195145D01*
X165785842Y-81178425D01*
X165916400Y-81087007D01*
X165971401Y-81048495D01*
X166138495Y-80881401D01*
X166274035Y-80687830D01*
X166373903Y-80473663D01*
X166435063Y-80245408D01*
X166455659Y-80010000D01*
X166435063Y-79774592D01*
X166379793Y-79568319D01*
X166373905Y-79546344D01*
X166373904Y-79546343D01*
X166373903Y-79546337D01*
X166274035Y-79332171D01*
X166258830Y-79310455D01*
X166138494Y-79138597D01*
X165971402Y-78971506D01*
X165971396Y-78971501D01*
X165785842Y-78841575D01*
X165742217Y-78786998D01*
X165735023Y-78717500D01*
X165766546Y-78655145D01*
X165785842Y-78638425D01*
X165893537Y-78563016D01*
X165971401Y-78508495D01*
X166138495Y-78341401D01*
X166274035Y-78147830D01*
X166276707Y-78142097D01*
X166322878Y-78089658D01*
X166389091Y-78070500D01*
X168301031Y-78070500D01*
X168301047Y-78070501D01*
X168308643Y-78070501D01*
X168466754Y-78070501D01*
X168466757Y-78070501D01*
X168619485Y-78029577D01*
X168702091Y-77981884D01*
X168756416Y-77950520D01*
X168868220Y-77838716D01*
X168868220Y-77838714D01*
X168878424Y-77828511D01*
X168878427Y-77828506D01*
X169887820Y-76819114D01*
X169949142Y-76785630D01*
X170018834Y-76790614D01*
X170074767Y-76832486D01*
X170099184Y-76897950D01*
X170099500Y-76906796D01*
X170099500Y-78367870D01*
X170099501Y-78367876D01*
X170105908Y-78427483D01*
X170156202Y-78562328D01*
X170156206Y-78562335D01*
X170242452Y-78677544D01*
X170242455Y-78677547D01*
X170357664Y-78763793D01*
X170357671Y-78763797D01*
X170489081Y-78812810D01*
X170545015Y-78854681D01*
X170569432Y-78920145D01*
X170554580Y-78988418D01*
X170533430Y-79016673D01*
X170411503Y-79138600D01*
X170275965Y-79332169D01*
X170275964Y-79332171D01*
X170176098Y-79546335D01*
X170176094Y-79546344D01*
X170114938Y-79774586D01*
X170114936Y-79774596D01*
X170094341Y-80009999D01*
X170094341Y-80010000D01*
X170114936Y-80245403D01*
X170114938Y-80245413D01*
X170176094Y-80473655D01*
X170176096Y-80473659D01*
X170176097Y-80473663D01*
X170251675Y-80635740D01*
X170275965Y-80687830D01*
X170275967Y-80687834D01*
X170303737Y-80727493D01*
X170411501Y-80881396D01*
X170411506Y-80881402D01*
X170578597Y-81048493D01*
X170578603Y-81048498D01*
X170764158Y-81178425D01*
X170807783Y-81233002D01*
X170814977Y-81302500D01*
X170783454Y-81364855D01*
X170764158Y-81381575D01*
X170578597Y-81511505D01*
X170411505Y-81678597D01*
X170275965Y-81872169D01*
X170275964Y-81872171D01*
X170176098Y-82086335D01*
X170176094Y-82086344D01*
X170114938Y-82314586D01*
X170114936Y-82314596D01*
X170094341Y-82549999D01*
X170094341Y-82550000D01*
X170114936Y-82785403D01*
X170114938Y-82785413D01*
X170176094Y-83013655D01*
X170176096Y-83013659D01*
X170176097Y-83013663D01*
X170251675Y-83175740D01*
X170275965Y-83227830D01*
X170275967Y-83227834D01*
X170303737Y-83267493D01*
X170411501Y-83421396D01*
X170411506Y-83421402D01*
X170578597Y-83588493D01*
X170578603Y-83588498D01*
X170764158Y-83718425D01*
X170807783Y-83773002D01*
X170814977Y-83842500D01*
X170783454Y-83904855D01*
X170764158Y-83921575D01*
X170578597Y-84051505D01*
X170411505Y-84218597D01*
X170275965Y-84412169D01*
X170275964Y-84412171D01*
X170176098Y-84626335D01*
X170176094Y-84626344D01*
X170114938Y-84854586D01*
X170114936Y-84854596D01*
X170094341Y-85089999D01*
X170094341Y-85090000D01*
X170114936Y-85325403D01*
X170114938Y-85325413D01*
X170176094Y-85553655D01*
X170176096Y-85553659D01*
X170176097Y-85553663D01*
X170251675Y-85715740D01*
X170275965Y-85767830D01*
X170275967Y-85767834D01*
X170303737Y-85807493D01*
X170411501Y-85961396D01*
X170411506Y-85961402D01*
X170578597Y-86128493D01*
X170578603Y-86128498D01*
X170764158Y-86258425D01*
X170807783Y-86313002D01*
X170814977Y-86382500D01*
X170783454Y-86444855D01*
X170764158Y-86461575D01*
X170578597Y-86591505D01*
X170411505Y-86758597D01*
X170275965Y-86952169D01*
X170275964Y-86952171D01*
X170176098Y-87166335D01*
X170176094Y-87166344D01*
X170114938Y-87394586D01*
X170114936Y-87394596D01*
X170094341Y-87629999D01*
X170094341Y-87630000D01*
X170114936Y-87865403D01*
X170114938Y-87865413D01*
X170176094Y-88093655D01*
X170176096Y-88093659D01*
X170176097Y-88093663D01*
X170251989Y-88256413D01*
X170275965Y-88307830D01*
X170275967Y-88307834D01*
X170341052Y-88400784D01*
X170411501Y-88501396D01*
X170411506Y-88501402D01*
X170578597Y-88668493D01*
X170578603Y-88668498D01*
X170764158Y-88798425D01*
X170807783Y-88853002D01*
X170814977Y-88922500D01*
X170783454Y-88984855D01*
X170764158Y-89001575D01*
X170578597Y-89131505D01*
X170411505Y-89298597D01*
X170275965Y-89492169D01*
X170275964Y-89492171D01*
X170176098Y-89706335D01*
X170176094Y-89706344D01*
X170114938Y-89934586D01*
X170114936Y-89934596D01*
X170094341Y-90169999D01*
X170094341Y-90170000D01*
X170114936Y-90405403D01*
X170114938Y-90405413D01*
X170176094Y-90633655D01*
X170176096Y-90633659D01*
X170176097Y-90633663D01*
X170273204Y-90841910D01*
X170275965Y-90847830D01*
X170275967Y-90847834D01*
X170294145Y-90873794D01*
X170411505Y-91041401D01*
X170578599Y-91208495D01*
X170675384Y-91276265D01*
X170772165Y-91344032D01*
X170772167Y-91344033D01*
X170772170Y-91344035D01*
X170986337Y-91443903D01*
X171214592Y-91505063D01*
X171391034Y-91520500D01*
X171449999Y-91525659D01*
X171450000Y-91525659D01*
X171450001Y-91525659D01*
X171508966Y-91520500D01*
X171685408Y-91505063D01*
X171913663Y-91443903D01*
X172127830Y-91344035D01*
X172321401Y-91208495D01*
X172488495Y-91041401D01*
X172624035Y-90847830D01*
X172723903Y-90633663D01*
X172785063Y-90405408D01*
X172805659Y-90170000D01*
X172785063Y-89934592D01*
X172750671Y-89806239D01*
X172752334Y-89736393D01*
X172782763Y-89686470D01*
X173809506Y-88659728D01*
X173809511Y-88659724D01*
X173819714Y-88649520D01*
X173819716Y-88649520D01*
X173931520Y-88537716D01*
X173962155Y-88484655D01*
X174010574Y-88400790D01*
X174010575Y-88400787D01*
X174010577Y-88400784D01*
X174010577Y-88400780D01*
X174012937Y-88395085D01*
X174056776Y-88340680D01*
X174123069Y-88318612D01*
X174190769Y-88335889D01*
X174238382Y-88387024D01*
X174251500Y-88442533D01*
X174251500Y-92706061D01*
X174251249Y-92713942D01*
X174234334Y-92979555D01*
X174232335Y-92995188D01*
X174182614Y-93252637D01*
X174178648Y-93267890D01*
X174096670Y-93516958D01*
X174090801Y-93531585D01*
X173977899Y-93768229D01*
X173970222Y-93781995D01*
X173828207Y-94002415D01*
X173818847Y-94015094D01*
X173650020Y-94215723D01*
X173639126Y-94227113D01*
X173446219Y-94404700D01*
X173433969Y-94414616D01*
X173220088Y-94566304D01*
X173206678Y-94574586D01*
X172975289Y-94697915D01*
X172960938Y-94704429D01*
X172715779Y-94797410D01*
X172700717Y-94802051D01*
X172445729Y-94863188D01*
X172430200Y-94865882D01*
X172172788Y-94893825D01*
X172159406Y-94894549D01*
X124594400Y-94894549D01*
X124586113Y-94894272D01*
X124335774Y-94877505D01*
X124320985Y-94875616D01*
X124077565Y-94829510D01*
X124063108Y-94825859D01*
X123826991Y-94750872D01*
X123813078Y-94745513D01*
X123649067Y-94670727D01*
X123587663Y-94642728D01*
X123574501Y-94635742D01*
X123460769Y-94566304D01*
X123363042Y-94506637D01*
X123350807Y-94498116D01*
X123156387Y-94344577D01*
X123145263Y-94334650D01*
X122970674Y-94158884D01*
X122960821Y-94147693D01*
X122808588Y-93952240D01*
X122800150Y-93939948D01*
X122758387Y-93870499D01*
X122672468Y-93727621D01*
X122665581Y-93714433D01*
X122564302Y-93488308D01*
X122559042Y-93474371D01*
X122551498Y-93450052D01*
X122485642Y-93237747D01*
X122482090Y-93223268D01*
X122479104Y-93206905D01*
X122437622Y-92979553D01*
X122435833Y-92964753D01*
X122420721Y-92713849D01*
X122420498Y-92706460D01*
X122420497Y-92070004D01*
X124889451Y-92070004D01*
X124909616Y-92339101D01*
X124969664Y-92602188D01*
X124969666Y-92602195D01*
X125068256Y-92853396D01*
X125068258Y-92853400D01*
X125081443Y-92876237D01*
X125203185Y-93087102D01*
X125321877Y-93235936D01*
X125371442Y-93298089D01*
X125535223Y-93450054D01*
X125569259Y-93481635D01*
X125792226Y-93633651D01*
X126035359Y-93750738D01*
X126293228Y-93830280D01*
X126293229Y-93830280D01*
X126293232Y-93830281D01*
X126560063Y-93870499D01*
X126560068Y-93870499D01*
X126560071Y-93870500D01*
X126560072Y-93870500D01*
X126829928Y-93870500D01*
X126829929Y-93870500D01*
X126829936Y-93870499D01*
X127096767Y-93830281D01*
X127096768Y-93830280D01*
X127096772Y-93830280D01*
X127354641Y-93750738D01*
X127597775Y-93633651D01*
X127820741Y-93481635D01*
X128018561Y-93298085D01*
X128186815Y-93087102D01*
X128321743Y-92853398D01*
X128420334Y-92602195D01*
X128480383Y-92339103D01*
X128500549Y-92070000D01*
X128499987Y-92062506D01*
X128480383Y-91800898D01*
X128420335Y-91537811D01*
X128420334Y-91537805D01*
X128321743Y-91286602D01*
X128186815Y-91052898D01*
X128018561Y-90841915D01*
X128018560Y-90841914D01*
X128018557Y-90841910D01*
X127820741Y-90658365D01*
X127689558Y-90568926D01*
X127597775Y-90506349D01*
X127597769Y-90506346D01*
X127597768Y-90506345D01*
X127597767Y-90506344D01*
X127354643Y-90389263D01*
X127354645Y-90389263D01*
X127096773Y-90309720D01*
X127096767Y-90309718D01*
X126829936Y-90269500D01*
X126829929Y-90269500D01*
X126560071Y-90269500D01*
X126560063Y-90269500D01*
X126293232Y-90309718D01*
X126293226Y-90309720D01*
X126035358Y-90389262D01*
X125792230Y-90506346D01*
X125569258Y-90658365D01*
X125371442Y-90841910D01*
X125203185Y-91052898D01*
X125068258Y-91286599D01*
X125068256Y-91286603D01*
X124969666Y-91537804D01*
X124969664Y-91537811D01*
X124909616Y-91800898D01*
X124889451Y-92069995D01*
X124889451Y-92070004D01*
X122420497Y-92070004D01*
X122420494Y-88337870D01*
X124894500Y-88337870D01*
X124894501Y-88337876D01*
X124900908Y-88397483D01*
X124951202Y-88532328D01*
X124951206Y-88532335D01*
X125037452Y-88647544D01*
X125037455Y-88647547D01*
X125152664Y-88733793D01*
X125152671Y-88733797D01*
X125287517Y-88784091D01*
X125287516Y-88784091D01*
X125294444Y-88784835D01*
X125347127Y-88790500D01*
X128042872Y-88790499D01*
X128102483Y-88784091D01*
X128237331Y-88733796D01*
X128352546Y-88647546D01*
X128438796Y-88532331D01*
X128489091Y-88397483D01*
X128495500Y-88337873D01*
X128495499Y-85642128D01*
X128489091Y-85582517D01*
X128478329Y-85553663D01*
X128438797Y-85447671D01*
X128438793Y-85447664D01*
X128352547Y-85332455D01*
X128352544Y-85332452D01*
X128237335Y-85246206D01*
X128237328Y-85246202D01*
X128102482Y-85195908D01*
X128102483Y-85195908D01*
X128042883Y-85189501D01*
X128042881Y-85189500D01*
X128042873Y-85189500D01*
X128042864Y-85189500D01*
X125347129Y-85189500D01*
X125347123Y-85189501D01*
X125287516Y-85195908D01*
X125152671Y-85246202D01*
X125152664Y-85246206D01*
X125037455Y-85332452D01*
X125037452Y-85332455D01*
X124951206Y-85447664D01*
X124951202Y-85447671D01*
X124900908Y-85582517D01*
X124894501Y-85642116D01*
X124894501Y-85642123D01*
X124894500Y-85642135D01*
X124894500Y-88337870D01*
X122420494Y-88337870D01*
X122420481Y-74182377D01*
X122440166Y-74115339D01*
X122492969Y-74069584D01*
X122562128Y-74059640D01*
X122625684Y-74088665D01*
X122632162Y-74094697D01*
X123360646Y-74823181D01*
X123394131Y-74884504D01*
X123389147Y-74954196D01*
X123347278Y-75010127D01*
X123317453Y-75032454D01*
X123317452Y-75032455D01*
X123231206Y-75147664D01*
X123231202Y-75147671D01*
X123180908Y-75282517D01*
X123174501Y-75342116D01*
X123174500Y-75342135D01*
X123174500Y-77037870D01*
X123174501Y-77037876D01*
X123180908Y-77097483D01*
X123231202Y-77232328D01*
X123231206Y-77232335D01*
X123317452Y-77347544D01*
X123317455Y-77347547D01*
X123432664Y-77433793D01*
X123432671Y-77433797D01*
X123567517Y-77484091D01*
X123567516Y-77484091D01*
X123574444Y-77484835D01*
X123627127Y-77490500D01*
X125322872Y-77490499D01*
X125382483Y-77484091D01*
X125517331Y-77433796D01*
X125632546Y-77347546D01*
X125718796Y-77232331D01*
X125769091Y-77097483D01*
X125772862Y-77062401D01*
X125799599Y-76997855D01*
X125856990Y-76958006D01*
X125926816Y-76955511D01*
X125986905Y-76991163D01*
X125997726Y-77004536D01*
X126014956Y-77029143D01*
X126175858Y-77190045D01*
X126175861Y-77190047D01*
X126362266Y-77320568D01*
X126568504Y-77416739D01*
X126788308Y-77475635D01*
X126950230Y-77489801D01*
X127014998Y-77495468D01*
X127015000Y-77495468D01*
X127015002Y-77495468D01*
X127071807Y-77490498D01*
X127241692Y-77475635D01*
X127461496Y-77416739D01*
X127667734Y-77320568D01*
X127854139Y-77190047D01*
X128015047Y-77029139D01*
X128145568Y-76842734D01*
X128172618Y-76784724D01*
X128218790Y-76732285D01*
X128285983Y-76713133D01*
X128352865Y-76733348D01*
X128397381Y-76784724D01*
X128400854Y-76792171D01*
X128424429Y-76842728D01*
X128424432Y-76842734D01*
X128554954Y-77029141D01*
X128715858Y-77190045D01*
X128715861Y-77190047D01*
X128902266Y-77320568D01*
X129108504Y-77416739D01*
X129328308Y-77475635D01*
X129490230Y-77489801D01*
X129554998Y-77495468D01*
X129555000Y-77495468D01*
X129555002Y-77495468D01*
X129611807Y-77490498D01*
X129781692Y-77475635D01*
X130001496Y-77416739D01*
X130207734Y-77320568D01*
X130394139Y-77190047D01*
X130555047Y-77029139D01*
X130685568Y-76842734D01*
X130712895Y-76784129D01*
X130759064Y-76731695D01*
X130826257Y-76712542D01*
X130893139Y-76732757D01*
X130937657Y-76784133D01*
X130964865Y-76842482D01*
X131095342Y-77028820D01*
X131256179Y-77189657D01*
X131442517Y-77320134D01*
X131648673Y-77416265D01*
X131648682Y-77416269D01*
X131844999Y-77468872D01*
X131845000Y-77468871D01*
X131845000Y-76505686D01*
X131849394Y-76510080D01*
X131940606Y-76562741D01*
X132042339Y-76590000D01*
X132147661Y-76590000D01*
X132249394Y-76562741D01*
X132340606Y-76510080D01*
X132345000Y-76505686D01*
X132345000Y-77468872D01*
X132541317Y-77416269D01*
X132541326Y-77416265D01*
X132747482Y-77320134D01*
X132933820Y-77189657D01*
X133094657Y-77028820D01*
X133225134Y-76842481D01*
X133225135Y-76842479D01*
X133252618Y-76783543D01*
X133298790Y-76731103D01*
X133365983Y-76711951D01*
X133432864Y-76732166D01*
X133477382Y-76783543D01*
X133504864Y-76842479D01*
X133504865Y-76842481D01*
X133635342Y-77028820D01*
X133796179Y-77189657D01*
X133982517Y-77320134D01*
X134188673Y-77416265D01*
X134188682Y-77416269D01*
X134384999Y-77468872D01*
X134385000Y-77468871D01*
X134385000Y-76505686D01*
X134389394Y-76510080D01*
X134480606Y-76562741D01*
X134582339Y-76590000D01*
X134687661Y-76590000D01*
X134789394Y-76562741D01*
X134880606Y-76510080D01*
X134885000Y-76505686D01*
X134885000Y-77468872D01*
X135081317Y-77416269D01*
X135081326Y-77416266D01*
X135133065Y-77392139D01*
X135202143Y-77381646D01*
X135265927Y-77410164D01*
X135304168Y-77468640D01*
X135305236Y-77472388D01*
X135330423Y-77566385D01*
X135331668Y-77568541D01*
X135331671Y-77568547D01*
X135331673Y-77568550D01*
X135409477Y-77703312D01*
X135409481Y-77703317D01*
X135528349Y-77822185D01*
X135528355Y-77822190D01*
X136269181Y-78563016D01*
X136302666Y-78624339D01*
X136305500Y-78650697D01*
X136305500Y-79077376D01*
X136285815Y-79144415D01*
X136233011Y-79190170D01*
X136163853Y-79200114D01*
X136138168Y-79193558D01*
X136085485Y-79173909D01*
X136085483Y-79173908D01*
X136025883Y-79167501D01*
X136025881Y-79167500D01*
X136025873Y-79167500D01*
X136025864Y-79167500D01*
X134230129Y-79167500D01*
X134230123Y-79167501D01*
X134170516Y-79173908D01*
X134035671Y-79224202D01*
X134035664Y-79224206D01*
X133920455Y-79310452D01*
X133920452Y-79310455D01*
X133834206Y-79425664D01*
X133834202Y-79425671D01*
X133783908Y-79560517D01*
X133777501Y-79620116D01*
X133777500Y-79620135D01*
X133777500Y-81415870D01*
X133777501Y-81415876D01*
X133783908Y-81475483D01*
X133834202Y-81610328D01*
X133834206Y-81610335D01*
X133920452Y-81725544D01*
X133920455Y-81725547D01*
X134035664Y-81811793D01*
X134035671Y-81811797D01*
X134170517Y-81862091D01*
X134170516Y-81862091D01*
X134177444Y-81862835D01*
X134230127Y-81868500D01*
X136025872Y-81868499D01*
X136085483Y-81862091D01*
X136138167Y-81842440D01*
X136207858Y-81837457D01*
X136269181Y-81870942D01*
X136302666Y-81932265D01*
X136305500Y-81958623D01*
X136305500Y-84006500D01*
X136285815Y-84073539D01*
X136233011Y-84119294D01*
X136181501Y-84130500D01*
X136008130Y-84130500D01*
X136008123Y-84130501D01*
X135948516Y-84136908D01*
X135813671Y-84187202D01*
X135813664Y-84187206D01*
X135698455Y-84273452D01*
X135698452Y-84273455D01*
X135612206Y-84388664D01*
X135612202Y-84388671D01*
X135561908Y-84523517D01*
X135555501Y-84583116D01*
X135555501Y-84583123D01*
X135555500Y-84583135D01*
X135555500Y-86378870D01*
X135555501Y-86378876D01*
X135561908Y-86438483D01*
X135612202Y-86573328D01*
X135612206Y-86573335D01*
X135698452Y-86688544D01*
X135698455Y-86688547D01*
X135813664Y-86774793D01*
X135813671Y-86774797D01*
X135945081Y-86823810D01*
X136001015Y-86865681D01*
X136025432Y-86931145D01*
X136010580Y-86999418D01*
X135989430Y-87027673D01*
X135867503Y-87149600D01*
X135731965Y-87343169D01*
X135731964Y-87343171D01*
X135632098Y-87557335D01*
X135632094Y-87557344D01*
X135570938Y-87785586D01*
X135570936Y-87785596D01*
X135550341Y-88020999D01*
X135550341Y-88021000D01*
X135570936Y-88256403D01*
X135570938Y-88256413D01*
X135632094Y-88484655D01*
X135632096Y-88484659D01*
X135632097Y-88484663D01*
X135696757Y-88623326D01*
X135731965Y-88698830D01*
X135731967Y-88698834D01*
X135867501Y-88892395D01*
X135867506Y-88892402D01*
X136034597Y-89059493D01*
X136034603Y-89059498D01*
X136220158Y-89189425D01*
X136263783Y-89244002D01*
X136270977Y-89313500D01*
X136239454Y-89375855D01*
X136220158Y-89392575D01*
X136034597Y-89522505D01*
X135867505Y-89689597D01*
X135731965Y-89883169D01*
X135731964Y-89883171D01*
X135638401Y-90083816D01*
X135632534Y-90096401D01*
X135632098Y-90097335D01*
X135632094Y-90097344D01*
X135570938Y-90325586D01*
X135570936Y-90325596D01*
X135550341Y-90560999D01*
X135550341Y-90561000D01*
X135570936Y-90796403D01*
X135570938Y-90796413D01*
X135632094Y-91024655D01*
X135632096Y-91024659D01*
X135632097Y-91024663D01*
X135709195Y-91189999D01*
X135731965Y-91238830D01*
X135731967Y-91238834D01*
X135867501Y-91432395D01*
X135867506Y-91432402D01*
X136034597Y-91599493D01*
X136034603Y-91599498D01*
X136220158Y-91729425D01*
X136263783Y-91784002D01*
X136270977Y-91853500D01*
X136239454Y-91915855D01*
X136220158Y-91932575D01*
X136034597Y-92062505D01*
X135867505Y-92229597D01*
X135731965Y-92423169D01*
X135731964Y-92423171D01*
X135632098Y-92637335D01*
X135632094Y-92637344D01*
X135570938Y-92865586D01*
X135570936Y-92865596D01*
X135550341Y-93100999D01*
X135550341Y-93101000D01*
X135570936Y-93336403D01*
X135570938Y-93336413D01*
X135632094Y-93564655D01*
X135632096Y-93564659D01*
X135632097Y-93564663D01*
X135727022Y-93768229D01*
X135731965Y-93778830D01*
X135731967Y-93778834D01*
X135767991Y-93830281D01*
X135867505Y-93972401D01*
X136034599Y-94139495D01*
X136131384Y-94207265D01*
X136228165Y-94275032D01*
X136228167Y-94275033D01*
X136228170Y-94275035D01*
X136442337Y-94374903D01*
X136670592Y-94436063D01*
X136858918Y-94452539D01*
X136905999Y-94456659D01*
X136906000Y-94456659D01*
X136906001Y-94456659D01*
X136945234Y-94453226D01*
X137141408Y-94436063D01*
X137369663Y-94374903D01*
X137583830Y-94275035D01*
X137777401Y-94139495D01*
X137944495Y-93972401D01*
X138080035Y-93778830D01*
X138179903Y-93564663D01*
X138241063Y-93336408D01*
X138261659Y-93101000D01*
X138241063Y-92865592D01*
X138179903Y-92637337D01*
X138080035Y-92423171D01*
X138061976Y-92397379D01*
X137944494Y-92229597D01*
X137777402Y-92062506D01*
X137777396Y-92062501D01*
X137591842Y-91932575D01*
X137548217Y-91877998D01*
X137541726Y-91815288D01*
X140643500Y-91815288D01*
X140656739Y-91915855D01*
X140675162Y-92055789D01*
X140691718Y-92117578D01*
X140737947Y-92290104D01*
X140830773Y-92514205D01*
X140830777Y-92514214D01*
X140841100Y-92532093D01*
X140952064Y-92724289D01*
X140952066Y-92724292D01*
X140952067Y-92724293D01*
X141099733Y-92916736D01*
X141099739Y-92916743D01*
X141271256Y-93088260D01*
X141271263Y-93088266D01*
X141384321Y-93175018D01*
X141463711Y-93235936D01*
X141673788Y-93357224D01*
X141897900Y-93450054D01*
X142132211Y-93512838D01*
X142279093Y-93532175D01*
X142372711Y-93544500D01*
X142372712Y-93544500D01*
X142615289Y-93544500D01*
X142663388Y-93538167D01*
X142855789Y-93512838D01*
X143090100Y-93450054D01*
X143314212Y-93357224D01*
X143524289Y-93235936D01*
X143716738Y-93088265D01*
X143888265Y-92916738D01*
X144035936Y-92724289D01*
X144157224Y-92514212D01*
X144230278Y-92337844D01*
X149780000Y-92337844D01*
X149786401Y-92397372D01*
X149786403Y-92397379D01*
X149836645Y-92532086D01*
X149836649Y-92532093D01*
X149922809Y-92647187D01*
X149922812Y-92647190D01*
X150037906Y-92733350D01*
X150037913Y-92733354D01*
X150172620Y-92783596D01*
X150172627Y-92783598D01*
X150232155Y-92789999D01*
X150232172Y-92790000D01*
X150880000Y-92790000D01*
X150880000Y-91873012D01*
X150937007Y-91905925D01*
X151064174Y-91940000D01*
X151195826Y-91940000D01*
X151322993Y-91905925D01*
X151380000Y-91873012D01*
X151380000Y-92790000D01*
X152027828Y-92790000D01*
X152027844Y-92789999D01*
X152087372Y-92783598D01*
X152087379Y-92783596D01*
X152222086Y-92733354D01*
X152222093Y-92733350D01*
X152337187Y-92647190D01*
X152337190Y-92647187D01*
X152423350Y-92532093D01*
X152423354Y-92532086D01*
X152472614Y-92400013D01*
X152514485Y-92344079D01*
X152579949Y-92319662D01*
X152648222Y-92334513D01*
X152676477Y-92355665D01*
X152798917Y-92478105D01*
X152992421Y-92613600D01*
X153206507Y-92713429D01*
X153206516Y-92713433D01*
X153420000Y-92770634D01*
X153420000Y-91873012D01*
X153477007Y-91905925D01*
X153604174Y-91940000D01*
X153735826Y-91940000D01*
X153862993Y-91905925D01*
X153920000Y-91873012D01*
X153920000Y-92770633D01*
X154133483Y-92713433D01*
X154133492Y-92713429D01*
X154347578Y-92613600D01*
X154541082Y-92478105D01*
X154708105Y-92311082D01*
X154838425Y-92124968D01*
X154893002Y-92081344D01*
X154962501Y-92074151D01*
X155024855Y-92105673D01*
X155041575Y-92124968D01*
X155171894Y-92311082D01*
X155338917Y-92478105D01*
X155532421Y-92613600D01*
X155746507Y-92713429D01*
X155746516Y-92713433D01*
X155960000Y-92770634D01*
X155960000Y-91873012D01*
X156017007Y-91905925D01*
X156144174Y-91940000D01*
X156275826Y-91940000D01*
X156402993Y-91905925D01*
X156460000Y-91873012D01*
X156460000Y-92770633D01*
X156673483Y-92713433D01*
X156673492Y-92713429D01*
X156887578Y-92613600D01*
X157081082Y-92478105D01*
X157248105Y-92311082D01*
X157378425Y-92124968D01*
X157433002Y-92081344D01*
X157502501Y-92074151D01*
X157564855Y-92105673D01*
X157581575Y-92124968D01*
X157711894Y-92311082D01*
X157878917Y-92478105D01*
X158072421Y-92613600D01*
X158286507Y-92713429D01*
X158286516Y-92713433D01*
X158500000Y-92770634D01*
X158500000Y-91873012D01*
X158557007Y-91905925D01*
X158684174Y-91940000D01*
X158815826Y-91940000D01*
X158942993Y-91905925D01*
X159000000Y-91873012D01*
X159000000Y-92770633D01*
X159213483Y-92713433D01*
X159213492Y-92713429D01*
X159427578Y-92613600D01*
X159621082Y-92478105D01*
X159788105Y-92311082D01*
X159923600Y-92117578D01*
X160023429Y-91903492D01*
X160023432Y-91903486D01*
X160080636Y-91690000D01*
X159183012Y-91690000D01*
X159215925Y-91632993D01*
X159250000Y-91505826D01*
X159250000Y-91374174D01*
X159215925Y-91247007D01*
X159183012Y-91190000D01*
X160080636Y-91190000D01*
X160080635Y-91189999D01*
X160023432Y-90976513D01*
X160023429Y-90976507D01*
X159923600Y-90762422D01*
X159923599Y-90762420D01*
X159788113Y-90568926D01*
X159788108Y-90568920D01*
X159621082Y-90401894D01*
X159427578Y-90266399D01*
X159213492Y-90166570D01*
X159213486Y-90166567D01*
X159000000Y-90109364D01*
X159000000Y-91006988D01*
X158942993Y-90974075D01*
X158815826Y-90940000D01*
X158684174Y-90940000D01*
X158557007Y-90974075D01*
X158500000Y-91006988D01*
X158500000Y-90109364D01*
X158499999Y-90109364D01*
X158286513Y-90166567D01*
X158286507Y-90166570D01*
X158072422Y-90266399D01*
X158072420Y-90266400D01*
X157878926Y-90401886D01*
X157878920Y-90401891D01*
X157711891Y-90568920D01*
X157711890Y-90568922D01*
X157581575Y-90755031D01*
X157526998Y-90798655D01*
X157457499Y-90805848D01*
X157395145Y-90774326D01*
X157378425Y-90755031D01*
X157248109Y-90568922D01*
X157248108Y-90568920D01*
X157081082Y-90401894D01*
X156887578Y-90266399D01*
X156673492Y-90166570D01*
X156673486Y-90166567D01*
X156460000Y-90109364D01*
X156460000Y-91006988D01*
X156402993Y-90974075D01*
X156275826Y-90940000D01*
X156144174Y-90940000D01*
X156017007Y-90974075D01*
X155960000Y-91006988D01*
X155960000Y-90109364D01*
X155959999Y-90109364D01*
X155746513Y-90166567D01*
X155746507Y-90166570D01*
X155532422Y-90266399D01*
X155532420Y-90266400D01*
X155338926Y-90401886D01*
X155338920Y-90401891D01*
X155171891Y-90568920D01*
X155171890Y-90568922D01*
X155041575Y-90755031D01*
X154986998Y-90798655D01*
X154917499Y-90805848D01*
X154855145Y-90774326D01*
X154838425Y-90755031D01*
X154708109Y-90568922D01*
X154708108Y-90568920D01*
X154541082Y-90401894D01*
X154347578Y-90266399D01*
X154133492Y-90166570D01*
X154133486Y-90166567D01*
X153920000Y-90109364D01*
X153920000Y-91006988D01*
X153862993Y-90974075D01*
X153735826Y-90940000D01*
X153604174Y-90940000D01*
X153477007Y-90974075D01*
X153420000Y-91006988D01*
X153420000Y-90109364D01*
X153419999Y-90109364D01*
X153206513Y-90166567D01*
X153206507Y-90166570D01*
X152992422Y-90266399D01*
X152992420Y-90266400D01*
X152798926Y-90401886D01*
X152676477Y-90524335D01*
X152615154Y-90557819D01*
X152545462Y-90552835D01*
X152489529Y-90510963D01*
X152472614Y-90479986D01*
X152423354Y-90347913D01*
X152423350Y-90347906D01*
X152337190Y-90232812D01*
X152337187Y-90232809D01*
X152222093Y-90146649D01*
X152222086Y-90146645D01*
X152087379Y-90096403D01*
X152087372Y-90096401D01*
X152027844Y-90090000D01*
X151380000Y-90090000D01*
X151380000Y-91006988D01*
X151322993Y-90974075D01*
X151195826Y-90940000D01*
X151064174Y-90940000D01*
X150937007Y-90974075D01*
X150880000Y-91006988D01*
X150880000Y-90090000D01*
X150232155Y-90090000D01*
X150172627Y-90096401D01*
X150172620Y-90096403D01*
X150037913Y-90146645D01*
X150037906Y-90146649D01*
X149922812Y-90232809D01*
X149922809Y-90232812D01*
X149836649Y-90347906D01*
X149836645Y-90347913D01*
X149786403Y-90482620D01*
X149786401Y-90482627D01*
X149780000Y-90542155D01*
X149780000Y-91190000D01*
X150696988Y-91190000D01*
X150664075Y-91247007D01*
X150630000Y-91374174D01*
X150630000Y-91505826D01*
X150664075Y-91632993D01*
X150696988Y-91690000D01*
X149780000Y-91690000D01*
X149780000Y-92337844D01*
X144230278Y-92337844D01*
X144250054Y-92290100D01*
X144312838Y-92055789D01*
X144344500Y-91815288D01*
X144344500Y-91572712D01*
X144339904Y-91537805D01*
X144330161Y-91463793D01*
X144312838Y-91332211D01*
X144250054Y-91097900D01*
X144157224Y-90873788D01*
X144035936Y-90663711D01*
X143957123Y-90561000D01*
X143888266Y-90471263D01*
X143888260Y-90471256D01*
X143716743Y-90299739D01*
X143716736Y-90299733D01*
X143524293Y-90152067D01*
X143524292Y-90152066D01*
X143524289Y-90152064D01*
X143314212Y-90030776D01*
X143314205Y-90030773D01*
X143090104Y-89937947D01*
X142855785Y-89875161D01*
X142615289Y-89843500D01*
X142615288Y-89843500D01*
X142372712Y-89843500D01*
X142372711Y-89843500D01*
X142132214Y-89875161D01*
X141897895Y-89937947D01*
X141673794Y-90030773D01*
X141673785Y-90030777D01*
X141463706Y-90152067D01*
X141271263Y-90299733D01*
X141271256Y-90299739D01*
X141099739Y-90471256D01*
X141099733Y-90471263D01*
X140952067Y-90663706D01*
X140830777Y-90873785D01*
X140830773Y-90873794D01*
X140737947Y-91097895D01*
X140675161Y-91332214D01*
X140643500Y-91572711D01*
X140643500Y-91815288D01*
X137541726Y-91815288D01*
X137541023Y-91808500D01*
X137572546Y-91746145D01*
X137591842Y-91729425D01*
X137614026Y-91713891D01*
X137777401Y-91599495D01*
X137944495Y-91432401D01*
X138080035Y-91238830D01*
X138179903Y-91024663D01*
X138241063Y-90796408D01*
X138261659Y-90561000D01*
X138241063Y-90325592D01*
X138179903Y-90097337D01*
X138080035Y-89883171D01*
X138074427Y-89875161D01*
X137944494Y-89689597D01*
X137777402Y-89522506D01*
X137777396Y-89522501D01*
X137591842Y-89392575D01*
X137548217Y-89337998D01*
X137541023Y-89268500D01*
X137572546Y-89206145D01*
X137591842Y-89189425D01*
X137674560Y-89131505D01*
X137777401Y-89059495D01*
X137944495Y-88892401D01*
X138080035Y-88698830D01*
X138179903Y-88484663D01*
X138241063Y-88256408D01*
X138261659Y-88021000D01*
X138241063Y-87785592D01*
X138179903Y-87557337D01*
X138080035Y-87343171D01*
X137944495Y-87149599D01*
X137822567Y-87027671D01*
X137789084Y-86966351D01*
X137794068Y-86896659D01*
X137835939Y-86840725D01*
X137866915Y-86823810D01*
X137998331Y-86774796D01*
X138113546Y-86688546D01*
X138199796Y-86573331D01*
X138250091Y-86438483D01*
X138256500Y-86378873D01*
X138256499Y-84583128D01*
X138250091Y-84523517D01*
X138228286Y-84465056D01*
X138199797Y-84388671D01*
X138199793Y-84388664D01*
X138113547Y-84273455D01*
X138113544Y-84273452D01*
X137998335Y-84187206D01*
X137998328Y-84187202D01*
X137863482Y-84136908D01*
X137863483Y-84136908D01*
X137803883Y-84130501D01*
X137803881Y-84130500D01*
X137803873Y-84130500D01*
X137803865Y-84130500D01*
X137630500Y-84130500D01*
X137563461Y-84110815D01*
X137517706Y-84058011D01*
X137506500Y-84006500D01*
X137506500Y-82327870D01*
X145819500Y-82327870D01*
X145819501Y-82327876D01*
X145825908Y-82387483D01*
X145876202Y-82522328D01*
X145876206Y-82522335D01*
X145962452Y-82637544D01*
X145962455Y-82637547D01*
X146077664Y-82723793D01*
X146077671Y-82723797D01*
X146212517Y-82774091D01*
X146212516Y-82774091D01*
X146219444Y-82774835D01*
X146272127Y-82780500D01*
X148367872Y-82780499D01*
X148427483Y-82774091D01*
X148562331Y-82723796D01*
X148677546Y-82637546D01*
X148763796Y-82522331D01*
X148814091Y-82387483D01*
X148820500Y-82327873D01*
X148820499Y-80232128D01*
X148814091Y-80172517D01*
X148770778Y-80056390D01*
X148763797Y-80037671D01*
X148763793Y-80037664D01*
X148677547Y-79922455D01*
X148677544Y-79922452D01*
X148562335Y-79836206D01*
X148562328Y-79836202D01*
X148427482Y-79785908D01*
X148427483Y-79785908D01*
X148367883Y-79779501D01*
X148367881Y-79779500D01*
X148367873Y-79779500D01*
X148367864Y-79779500D01*
X146272129Y-79779500D01*
X146272123Y-79779501D01*
X146212516Y-79785908D01*
X146077671Y-79836202D01*
X146077664Y-79836206D01*
X145962455Y-79922452D01*
X145962452Y-79922455D01*
X145876206Y-80037664D01*
X145876202Y-80037671D01*
X145825908Y-80172517D01*
X145819501Y-80232116D01*
X145819501Y-80232123D01*
X145819500Y-80232135D01*
X145819500Y-82327870D01*
X137506500Y-82327870D01*
X137506500Y-78439659D01*
X137506501Y-78439646D01*
X137506501Y-78271545D01*
X137506501Y-78271543D01*
X137465577Y-78118815D01*
X137414055Y-78029577D01*
X137386520Y-77981884D01*
X137274716Y-77870080D01*
X137274715Y-77870079D01*
X137270385Y-77865749D01*
X137270374Y-77865739D01*
X137110251Y-77705616D01*
X137076766Y-77644293D01*
X137081750Y-77574601D01*
X137123622Y-77518668D01*
X137187124Y-77494407D01*
X137401692Y-77475635D01*
X137621496Y-77416739D01*
X137827734Y-77320568D01*
X138014139Y-77190047D01*
X138175047Y-77029139D01*
X138305568Y-76842734D01*
X138332618Y-76784724D01*
X138378790Y-76732285D01*
X138445983Y-76713133D01*
X138512865Y-76733348D01*
X138557381Y-76784724D01*
X138560854Y-76792171D01*
X138584429Y-76842728D01*
X138584432Y-76842734D01*
X138714954Y-77029141D01*
X138875858Y-77190045D01*
X138875861Y-77190047D01*
X139062266Y-77320568D01*
X139268504Y-77416739D01*
X139488308Y-77475635D01*
X139650230Y-77489801D01*
X139714998Y-77495468D01*
X139715000Y-77495468D01*
X139715002Y-77495468D01*
X139771807Y-77490498D01*
X139941692Y-77475635D01*
X140161496Y-77416739D01*
X140367734Y-77320568D01*
X140554139Y-77190047D01*
X140715047Y-77029139D01*
X140845568Y-76842734D01*
X140872618Y-76784724D01*
X140918790Y-76732285D01*
X140985983Y-76713133D01*
X141052865Y-76733348D01*
X141097381Y-76784724D01*
X141100854Y-76792171D01*
X141124429Y-76842728D01*
X141124432Y-76842734D01*
X141254954Y-77029141D01*
X141415858Y-77190045D01*
X141415861Y-77190047D01*
X141602266Y-77320568D01*
X141808504Y-77416739D01*
X142028308Y-77475635D01*
X142190230Y-77489801D01*
X142254998Y-77495468D01*
X142255000Y-77495468D01*
X142255002Y-77495468D01*
X142311807Y-77490498D01*
X142481692Y-77475635D01*
X142701496Y-77416739D01*
X142907734Y-77320568D01*
X143094139Y-77190047D01*
X143255047Y-77029139D01*
X143385568Y-76842734D01*
X143481739Y-76636496D01*
X143540635Y-76416692D01*
X143558895Y-76207982D01*
X143560468Y-76190001D01*
X143560468Y-76189998D01*
X143546960Y-76035606D01*
X143540635Y-75963308D01*
X143481739Y-75743504D01*
X143385568Y-75537266D01*
X143255047Y-75350861D01*
X143255045Y-75350858D01*
X143094141Y-75189954D01*
X142907734Y-75059432D01*
X142907732Y-75059431D01*
X142701497Y-74963261D01*
X142701488Y-74963258D01*
X142481697Y-74904366D01*
X142481693Y-74904365D01*
X142481692Y-74904365D01*
X142481691Y-74904364D01*
X142481686Y-74904364D01*
X142255002Y-74884532D01*
X142254998Y-74884532D01*
X142028313Y-74904364D01*
X142028302Y-74904366D01*
X141808511Y-74963258D01*
X141808502Y-74963261D01*
X141602267Y-75059431D01*
X141602265Y-75059432D01*
X141415858Y-75189954D01*
X141254954Y-75350858D01*
X141124432Y-75537265D01*
X141124431Y-75537267D01*
X141097382Y-75595275D01*
X141051209Y-75647714D01*
X140984016Y-75666866D01*
X140917135Y-75646650D01*
X140872618Y-75595275D01*
X140845568Y-75537267D01*
X140845567Y-75537265D01*
X140827257Y-75511116D01*
X140715047Y-75350861D01*
X140715045Y-75350858D01*
X140554141Y-75189954D01*
X140367734Y-75059432D01*
X140367732Y-75059431D01*
X140161497Y-74963261D01*
X140161488Y-74963258D01*
X139941697Y-74904366D01*
X139941693Y-74904365D01*
X139941692Y-74904365D01*
X139941691Y-74904364D01*
X139941686Y-74904364D01*
X139715002Y-74884532D01*
X139714998Y-74884532D01*
X139488313Y-74904364D01*
X139488302Y-74904366D01*
X139268511Y-74963258D01*
X139268502Y-74963261D01*
X139062267Y-75059431D01*
X139062265Y-75059432D01*
X138875858Y-75189954D01*
X138714954Y-75350858D01*
X138584432Y-75537265D01*
X138584431Y-75537267D01*
X138557382Y-75595275D01*
X138511209Y-75647714D01*
X138444016Y-75666866D01*
X138377135Y-75646650D01*
X138332618Y-75595275D01*
X138305568Y-75537267D01*
X138305567Y-75537265D01*
X138287257Y-75511116D01*
X138175047Y-75350861D01*
X138175045Y-75350858D01*
X138014141Y-75189954D01*
X137827734Y-75059432D01*
X137827732Y-75059431D01*
X137621497Y-74963261D01*
X137621488Y-74963258D01*
X137401697Y-74904366D01*
X137401693Y-74904365D01*
X137401692Y-74904365D01*
X137401691Y-74904364D01*
X137401686Y-74904364D01*
X137175002Y-74884532D01*
X137174998Y-74884532D01*
X136948313Y-74904364D01*
X136948302Y-74904366D01*
X136728511Y-74963258D01*
X136728497Y-74963263D01*
X136666904Y-74991985D01*
X136597827Y-75002477D01*
X136534043Y-74973957D01*
X136495804Y-74915480D01*
X136490500Y-74879603D01*
X136490500Y-73452097D01*
X136510185Y-73385058D01*
X136526819Y-73364416D01*
X139404416Y-70486819D01*
X139465739Y-70453334D01*
X139492097Y-70450500D01*
X145522909Y-70450500D01*
X145589948Y-70470185D01*
G37*
%TD.AperFunction*%
%TA.AperFunction,Conductor*%
G36*
X134314920Y-75944394D02*
G01*
X134262259Y-76035606D01*
X134235000Y-76137339D01*
X134235000Y-76242661D01*
X134262259Y-76344394D01*
X134314920Y-76435606D01*
X134319314Y-76440000D01*
X132410686Y-76440000D01*
X132415080Y-76435606D01*
X132467741Y-76344394D01*
X132495000Y-76242661D01*
X132495000Y-76137339D01*
X132467741Y-76035606D01*
X132415080Y-75944394D01*
X132410686Y-75940000D01*
X134319314Y-75940000D01*
X134314920Y-75944394D01*
G37*
%TD.AperFunction*%
%TA.AperFunction,Conductor*%
G36*
X123966898Y-69768011D02*
G01*
X124028504Y-69796739D01*
X124248308Y-69855635D01*
X124410230Y-69869801D01*
X124474998Y-69875468D01*
X124475000Y-69875468D01*
X124475002Y-69875468D01*
X124531673Y-69870509D01*
X124701692Y-69855635D01*
X124797932Y-69829847D01*
X124867781Y-69831510D01*
X124917706Y-69861941D01*
X125270139Y-70214374D01*
X125270149Y-70214385D01*
X125274479Y-70218715D01*
X125274480Y-70218716D01*
X125386284Y-70330520D01*
X125386286Y-70330521D01*
X125386290Y-70330524D01*
X125523209Y-70409573D01*
X125523216Y-70409577D01*
X125635019Y-70439534D01*
X125675942Y-70450500D01*
X125675943Y-70450500D01*
X132287903Y-70450500D01*
X132354942Y-70470185D01*
X132375584Y-70486819D01*
X135253181Y-73364416D01*
X135286666Y-73425739D01*
X135289500Y-73452097D01*
X135289500Y-74866165D01*
X135269815Y-74933204D01*
X135217011Y-74978959D01*
X135147853Y-74988903D01*
X135113097Y-74978548D01*
X135081328Y-74963734D01*
X134885000Y-74911127D01*
X134885000Y-75874314D01*
X134880606Y-75869920D01*
X134789394Y-75817259D01*
X134687661Y-75790000D01*
X134582339Y-75790000D01*
X134480606Y-75817259D01*
X134389394Y-75869920D01*
X134385000Y-75874314D01*
X134385000Y-74911127D01*
X134188671Y-74963734D01*
X133982517Y-75059865D01*
X133796179Y-75190342D01*
X133635342Y-75351179D01*
X133504865Y-75537517D01*
X133477382Y-75596457D01*
X133431210Y-75648896D01*
X133364016Y-75668048D01*
X133297135Y-75647832D01*
X133252618Y-75596457D01*
X133225134Y-75537517D01*
X133094657Y-75351179D01*
X132933820Y-75190342D01*
X132747482Y-75059865D01*
X132541328Y-74963734D01*
X132345000Y-74911127D01*
X132345000Y-75874314D01*
X132340606Y-75869920D01*
X132249394Y-75817259D01*
X132147661Y-75790000D01*
X132042339Y-75790000D01*
X131940606Y-75817259D01*
X131849394Y-75869920D01*
X131845000Y-75874314D01*
X131845000Y-74911127D01*
X131648671Y-74963734D01*
X131442517Y-75059865D01*
X131256179Y-75190342D01*
X131095342Y-75351179D01*
X130964867Y-75537515D01*
X130937657Y-75595867D01*
X130891484Y-75648306D01*
X130824290Y-75667457D01*
X130757409Y-75647241D01*
X130712893Y-75595865D01*
X130685570Y-75537271D01*
X130685567Y-75537265D01*
X130667257Y-75511116D01*
X130555047Y-75350861D01*
X130555045Y-75350858D01*
X130394141Y-75189954D01*
X130207734Y-75059432D01*
X130207732Y-75059431D01*
X130001497Y-74963261D01*
X130001488Y-74963258D01*
X129781697Y-74904366D01*
X129781693Y-74904365D01*
X129781692Y-74904365D01*
X129781691Y-74904364D01*
X129781686Y-74904364D01*
X129555002Y-74884532D01*
X129554998Y-74884532D01*
X129328313Y-74904364D01*
X129328302Y-74904366D01*
X129108511Y-74963258D01*
X129108502Y-74963261D01*
X128902267Y-75059431D01*
X128902265Y-75059432D01*
X128715858Y-75189954D01*
X128554954Y-75350858D01*
X128424432Y-75537265D01*
X128424431Y-75537267D01*
X128397382Y-75595275D01*
X128351209Y-75647714D01*
X128284016Y-75666866D01*
X128217135Y-75646650D01*
X128172618Y-75595275D01*
X128145568Y-75537267D01*
X128145567Y-75537265D01*
X128127257Y-75511116D01*
X128015047Y-75350861D01*
X128015045Y-75350858D01*
X127854141Y-75189954D01*
X127667734Y-75059432D01*
X127667732Y-75059431D01*
X127461497Y-74963261D01*
X127461488Y-74963258D01*
X127241697Y-74904366D01*
X127241687Y-74904364D01*
X127089292Y-74891031D01*
X127024223Y-74865578D01*
X127012419Y-74855184D01*
X123826819Y-71669584D01*
X123793334Y-71608261D01*
X123790500Y-71581903D01*
X123790500Y-69880396D01*
X123810185Y-69813357D01*
X123862989Y-69767602D01*
X123932147Y-69757658D01*
X123966898Y-69768011D01*
G37*
%TD.AperFunction*%
%TA.AperFunction,Conductor*%
G36*
X134885000Y-69848872D02*
G01*
X135081317Y-69796269D01*
X135081326Y-69796265D01*
X135287482Y-69700134D01*
X135473820Y-69569657D01*
X135634657Y-69408820D01*
X135765132Y-69222484D01*
X135792341Y-69164134D01*
X135838513Y-69111695D01*
X135905707Y-69092542D01*
X135972588Y-69112757D01*
X136017105Y-69164132D01*
X136020854Y-69172171D01*
X136044431Y-69222732D01*
X136044432Y-69222734D01*
X136174954Y-69409141D01*
X136335858Y-69570045D01*
X136335861Y-69570047D01*
X136522266Y-69700568D01*
X136728504Y-69796739D01*
X136948308Y-69855635D01*
X137110230Y-69869801D01*
X137174998Y-69875468D01*
X137175000Y-69875468D01*
X137175002Y-69875468D01*
X137231673Y-69870509D01*
X137401692Y-69855635D01*
X137621496Y-69796739D01*
X137827734Y-69700568D01*
X138014139Y-69570047D01*
X138175047Y-69409139D01*
X138305568Y-69222734D01*
X138332618Y-69164724D01*
X138378790Y-69112285D01*
X138445983Y-69093133D01*
X138512865Y-69113348D01*
X138557381Y-69164724D01*
X138560854Y-69172171D01*
X138584429Y-69222728D01*
X138584432Y-69222734D01*
X138683555Y-69364298D01*
X138705882Y-69430505D01*
X138688871Y-69498272D01*
X138669661Y-69523102D01*
X135977680Y-72215083D01*
X135916357Y-72248568D01*
X135846665Y-72243584D01*
X135802318Y-72215083D01*
X133127623Y-69540388D01*
X133094138Y-69479065D01*
X133099122Y-69409373D01*
X133113730Y-69381583D01*
X133225129Y-69222489D01*
X133225135Y-69222479D01*
X133252618Y-69163543D01*
X133298790Y-69111103D01*
X133365983Y-69091951D01*
X133432864Y-69112166D01*
X133477382Y-69163543D01*
X133504864Y-69222479D01*
X133504865Y-69222481D01*
X133635342Y-69408820D01*
X133796179Y-69569657D01*
X133982517Y-69700134D01*
X134188673Y-69796265D01*
X134188682Y-69796269D01*
X134384999Y-69848872D01*
X134385000Y-69848871D01*
X134385000Y-68885686D01*
X134389394Y-68890080D01*
X134480606Y-68942741D01*
X134582339Y-68970000D01*
X134687661Y-68970000D01*
X134789394Y-68942741D01*
X134880606Y-68890080D01*
X134885000Y-68885686D01*
X134885000Y-69848872D01*
G37*
%TD.AperFunction*%
%TA.AperFunction,Conductor*%
G36*
X170185886Y-60219985D02*
G01*
X170231229Y-60271895D01*
X170275964Y-60367829D01*
X170275965Y-60367831D01*
X170350656Y-60474500D01*
X170411505Y-60561401D01*
X170578599Y-60728495D01*
X170675384Y-60796265D01*
X170772165Y-60864032D01*
X170772167Y-60864033D01*
X170772170Y-60864035D01*
X170986337Y-60963903D01*
X171214592Y-61025063D01*
X171385536Y-61040019D01*
X171449999Y-61045659D01*
X171450000Y-61045659D01*
X171450001Y-61045659D01*
X171489234Y-61042226D01*
X171685408Y-61025063D01*
X171891008Y-60969973D01*
X171960856Y-60971636D01*
X172018719Y-61010798D01*
X172046223Y-61075027D01*
X172047100Y-61089748D01*
X172047100Y-68396202D01*
X172027415Y-68463241D01*
X172010781Y-68483883D01*
X171241442Y-69253221D01*
X171180119Y-69286706D01*
X171110427Y-69281722D01*
X171054494Y-69239850D01*
X171041383Y-69217953D01*
X171020035Y-69172171D01*
X171014821Y-69164725D01*
X170884494Y-68978597D01*
X170717402Y-68811506D01*
X170717401Y-68811505D01*
X170531405Y-68681269D01*
X170487781Y-68626692D01*
X170480588Y-68557193D01*
X170512110Y-68494839D01*
X170531405Y-68478119D01*
X170717082Y-68348105D01*
X170884105Y-68181082D01*
X171019600Y-67987578D01*
X171119429Y-67773492D01*
X171119432Y-67773486D01*
X171176636Y-67560000D01*
X170279012Y-67560000D01*
X170311925Y-67502993D01*
X170346000Y-67375826D01*
X170346000Y-67244174D01*
X170311925Y-67117007D01*
X170279012Y-67060000D01*
X171176636Y-67060000D01*
X171176635Y-67059999D01*
X171119432Y-66846513D01*
X171119429Y-66846507D01*
X171019600Y-66632422D01*
X171019599Y-66632420D01*
X170884113Y-66438926D01*
X170884108Y-66438920D01*
X170717082Y-66271894D01*
X170523578Y-66136399D01*
X170309492Y-66036570D01*
X170309486Y-66036567D01*
X170096000Y-65979364D01*
X170096000Y-66876988D01*
X170038993Y-66844075D01*
X169911826Y-66810000D01*
X169780174Y-66810000D01*
X169653007Y-66844075D01*
X169596000Y-66876988D01*
X169596000Y-65979364D01*
X169595999Y-65979364D01*
X169382513Y-66036567D01*
X169382502Y-66036571D01*
X169229889Y-66107736D01*
X169160812Y-66118228D01*
X169097028Y-66089708D01*
X169058789Y-66031231D01*
X169058235Y-65961364D01*
X169089801Y-65907676D01*
X169145716Y-65851762D01*
X169241689Y-65699022D01*
X169301268Y-65528755D01*
X169302088Y-65521481D01*
X169321465Y-65349503D01*
X169321465Y-65349496D01*
X169301269Y-65170250D01*
X169301268Y-65170245D01*
X169241688Y-64999976D01*
X169189236Y-64916499D01*
X169145716Y-64847238D01*
X169018162Y-64719684D01*
X168982562Y-64697315D01*
X168865420Y-64623709D01*
X168815145Y-64606117D01*
X168758370Y-64565395D01*
X168732623Y-64500442D01*
X168732101Y-64489076D01*
X168732101Y-64370747D01*
X168732100Y-64370729D01*
X168732100Y-63959160D01*
X168732101Y-63959147D01*
X168732101Y-63791044D01*
X168732101Y-63791043D01*
X168691177Y-63638316D01*
X168648986Y-63565238D01*
X168612124Y-63501390D01*
X168612118Y-63501382D01*
X165522716Y-60411981D01*
X165489231Y-60350658D01*
X165494215Y-60280966D01*
X165536087Y-60225033D01*
X165601551Y-60200616D01*
X165610397Y-60200300D01*
X170118847Y-60200300D01*
X170185886Y-60219985D01*
G37*
%TD.AperFunction*%
%TA.AperFunction,Conductor*%
G36*
X150463234Y-56167114D02*
G01*
X150519167Y-56208986D01*
X150543584Y-56274450D01*
X150543900Y-56283296D01*
X150543900Y-57871102D01*
X150524215Y-57938141D01*
X150507581Y-57958783D01*
X143858765Y-64607598D01*
X143797442Y-64641083D01*
X143784968Y-64643137D01*
X143698050Y-64652930D01*
X143527778Y-64712510D01*
X143375037Y-64808484D01*
X143247484Y-64936037D01*
X143151509Y-65088780D01*
X143102749Y-65228127D01*
X143062027Y-65284903D01*
X143026664Y-65304213D01*
X142926076Y-65339411D01*
X142926075Y-65339412D01*
X142773337Y-65435384D01*
X142645784Y-65562937D01*
X142549811Y-65715676D01*
X142490231Y-65885945D01*
X142490230Y-65885950D01*
X142470035Y-66065196D01*
X142470035Y-66065203D01*
X142490230Y-66244449D01*
X142490231Y-66244454D01*
X142549811Y-66414723D01*
X142645784Y-66567462D01*
X142773338Y-66695016D01*
X142847807Y-66741808D01*
X142874849Y-66758800D01*
X142926078Y-66790989D01*
X143096345Y-66850568D01*
X143096350Y-66850569D01*
X143275596Y-66870765D01*
X143275600Y-66870765D01*
X143275604Y-66870765D01*
X143454849Y-66850569D01*
X143454852Y-66850568D01*
X143454855Y-66850568D01*
X143625122Y-66790989D01*
X143777862Y-66695016D01*
X143777867Y-66695010D01*
X143780697Y-66692755D01*
X143782875Y-66691865D01*
X143783758Y-66691311D01*
X143783855Y-66691465D01*
X143845383Y-66666345D01*
X143858012Y-66665700D01*
X145428241Y-66665700D01*
X145495280Y-66685385D01*
X145541035Y-66738189D01*
X145550979Y-66807347D01*
X145540622Y-66842107D01*
X145538569Y-66846507D01*
X145538567Y-66846513D01*
X145481364Y-67059999D01*
X145481364Y-67060000D01*
X146378988Y-67060000D01*
X146346075Y-67117007D01*
X146312000Y-67244174D01*
X146312000Y-67375826D01*
X146346075Y-67502993D01*
X146378988Y-67560000D01*
X145481364Y-67560000D01*
X145538567Y-67773486D01*
X145538570Y-67773492D01*
X145638399Y-67987578D01*
X145773894Y-68181082D01*
X145940917Y-68348105D01*
X146126595Y-68478119D01*
X146170219Y-68532696D01*
X146177412Y-68602195D01*
X146145890Y-68664549D01*
X146126595Y-68681269D01*
X145940594Y-68811508D01*
X145773506Y-68978596D01*
X145637965Y-69172170D01*
X145637962Y-69172175D01*
X145635289Y-69177909D01*
X145589115Y-69230346D01*
X145522909Y-69249500D01*
X143567728Y-69249500D01*
X143500689Y-69229815D01*
X143454934Y-69177011D01*
X143444990Y-69107853D01*
X143455346Y-69073095D01*
X143481739Y-69016496D01*
X143540635Y-68796692D01*
X143560468Y-68570000D01*
X143540635Y-68343308D01*
X143481739Y-68123504D01*
X143385568Y-67917266D01*
X143255047Y-67730861D01*
X143255045Y-67730858D01*
X143094141Y-67569954D01*
X142907734Y-67439432D01*
X142907732Y-67439431D01*
X142701497Y-67343261D01*
X142701488Y-67343258D01*
X142481697Y-67284366D01*
X142481693Y-67284365D01*
X142481692Y-67284365D01*
X142481691Y-67284364D01*
X142481686Y-67284364D01*
X142255002Y-67264532D01*
X142254998Y-67264532D01*
X142028313Y-67284364D01*
X142028302Y-67284366D01*
X141808511Y-67343258D01*
X141808502Y-67343261D01*
X141602267Y-67439431D01*
X141602265Y-67439432D01*
X141415858Y-67569954D01*
X141254954Y-67730858D01*
X141124432Y-67917265D01*
X141124431Y-67917267D01*
X141097382Y-67975275D01*
X141051209Y-68027714D01*
X140984016Y-68046866D01*
X140917135Y-68026650D01*
X140872618Y-67975275D01*
X140845686Y-67917520D01*
X140845568Y-67917266D01*
X140715047Y-67730861D01*
X140715045Y-67730858D01*
X140554141Y-67569954D01*
X140367734Y-67439432D01*
X140367732Y-67439431D01*
X140161497Y-67343261D01*
X140161488Y-67343258D01*
X139941697Y-67284366D01*
X139941693Y-67284365D01*
X139941692Y-67284365D01*
X139941691Y-67284364D01*
X139941686Y-67284364D01*
X139715002Y-67264532D01*
X139714998Y-67264532D01*
X139488313Y-67284364D01*
X139488302Y-67284366D01*
X139268511Y-67343258D01*
X139268502Y-67343261D01*
X139062267Y-67439431D01*
X139062265Y-67439432D01*
X138875858Y-67569954D01*
X138714954Y-67730858D01*
X138584432Y-67917265D01*
X138584431Y-67917267D01*
X138557382Y-67975275D01*
X138511209Y-68027714D01*
X138444016Y-68046866D01*
X138377135Y-68026650D01*
X138332618Y-67975275D01*
X138305686Y-67917520D01*
X138305568Y-67917266D01*
X138175047Y-67730861D01*
X138175045Y-67730858D01*
X138014141Y-67569954D01*
X137827734Y-67439432D01*
X137827732Y-67439431D01*
X137621497Y-67343261D01*
X137621488Y-67343258D01*
X137401697Y-67284366D01*
X137401693Y-67284365D01*
X137401692Y-67284365D01*
X137401691Y-67284364D01*
X137401686Y-67284364D01*
X137175002Y-67264532D01*
X137174998Y-67264532D01*
X136948313Y-67284364D01*
X136948302Y-67284366D01*
X136728511Y-67343258D01*
X136728502Y-67343261D01*
X136522267Y-67439431D01*
X136522265Y-67439432D01*
X136335858Y-67569954D01*
X136174954Y-67730858D01*
X136044433Y-67917264D01*
X136044432Y-67917266D01*
X136044315Y-67917518D01*
X136017106Y-67975867D01*
X135970933Y-68028306D01*
X135903739Y-68047457D01*
X135836858Y-68027241D01*
X135792342Y-67975865D01*
X135765135Y-67917520D01*
X135765134Y-67917518D01*
X135634657Y-67731179D01*
X135473820Y-67570342D01*
X135287482Y-67439865D01*
X135081328Y-67343734D01*
X134885000Y-67291127D01*
X134885000Y-68254314D01*
X134880606Y-68249920D01*
X134789394Y-68197259D01*
X134687661Y-68170000D01*
X134582339Y-68170000D01*
X134480606Y-68197259D01*
X134389394Y-68249920D01*
X134385000Y-68254314D01*
X134385000Y-67291127D01*
X134188671Y-67343734D01*
X133982517Y-67439865D01*
X133796179Y-67570342D01*
X133635342Y-67731179D01*
X133504865Y-67917517D01*
X133477382Y-67976457D01*
X133431210Y-68028896D01*
X133364016Y-68048048D01*
X133297135Y-68027832D01*
X133252618Y-67976457D01*
X133225134Y-67917517D01*
X133094657Y-67731179D01*
X132933820Y-67570342D01*
X132747482Y-67439865D01*
X132541328Y-67343734D01*
X132345000Y-67291127D01*
X132345000Y-68254314D01*
X132340606Y-68249920D01*
X132249394Y-68197259D01*
X132147661Y-68170000D01*
X132042339Y-68170000D01*
X131940606Y-68197259D01*
X131849394Y-68249920D01*
X131845000Y-68254314D01*
X131845000Y-67291127D01*
X131648671Y-67343734D01*
X131442517Y-67439865D01*
X131256179Y-67570342D01*
X131095342Y-67731179D01*
X130964867Y-67917515D01*
X130937657Y-67975867D01*
X130891484Y-68028306D01*
X130824290Y-68047457D01*
X130757409Y-68027241D01*
X130712893Y-67975865D01*
X130685685Y-67917518D01*
X130685568Y-67917266D01*
X130555047Y-67730861D01*
X130555045Y-67730858D01*
X130394141Y-67569954D01*
X130207734Y-67439432D01*
X130207732Y-67439431D01*
X130001497Y-67343261D01*
X130001488Y-67343258D01*
X129781697Y-67284366D01*
X129781693Y-67284365D01*
X129781692Y-67284365D01*
X129781691Y-67284364D01*
X129781686Y-67284364D01*
X129555002Y-67264532D01*
X129554998Y-67264532D01*
X129328313Y-67284364D01*
X129328302Y-67284366D01*
X129108511Y-67343258D01*
X129108502Y-67343261D01*
X128902267Y-67439431D01*
X128902265Y-67439432D01*
X128715858Y-67569954D01*
X128554954Y-67730858D01*
X128424432Y-67917265D01*
X128424431Y-67917267D01*
X128397382Y-67975275D01*
X128351209Y-68027714D01*
X128284016Y-68046866D01*
X128217135Y-68026650D01*
X128172618Y-67975275D01*
X128145686Y-67917520D01*
X128145568Y-67917266D01*
X128015047Y-67730861D01*
X128015045Y-67730858D01*
X127854141Y-67569954D01*
X127667734Y-67439432D01*
X127667732Y-67439431D01*
X127461497Y-67343261D01*
X127461488Y-67343258D01*
X127241697Y-67284366D01*
X127241693Y-67284365D01*
X127241692Y-67284365D01*
X127241691Y-67284364D01*
X127241686Y-67284364D01*
X127015002Y-67264532D01*
X127014998Y-67264532D01*
X126788313Y-67284364D01*
X126788302Y-67284366D01*
X126568511Y-67343258D01*
X126568502Y-67343261D01*
X126362267Y-67439431D01*
X126362265Y-67439432D01*
X126175858Y-67569954D01*
X126014954Y-67730858D01*
X125884432Y-67917265D01*
X125884431Y-67917267D01*
X125857382Y-67975275D01*
X125811209Y-68027714D01*
X125744016Y-68046866D01*
X125677135Y-68026650D01*
X125632618Y-67975275D01*
X125605686Y-67917520D01*
X125605568Y-67917266D01*
X125475047Y-67730861D01*
X125475045Y-67730858D01*
X125314141Y-67569954D01*
X125127734Y-67439432D01*
X125127732Y-67439431D01*
X124921497Y-67343261D01*
X124921488Y-67343258D01*
X124701697Y-67284366D01*
X124701693Y-67284365D01*
X124701692Y-67284365D01*
X124701691Y-67284364D01*
X124701686Y-67284364D01*
X124475002Y-67264532D01*
X124474998Y-67264532D01*
X124386672Y-67272259D01*
X124318172Y-67258492D01*
X124267989Y-67209877D01*
X124252056Y-67141848D01*
X124275432Y-67076004D01*
X124288174Y-67061060D01*
X124418418Y-66930816D01*
X124479739Y-66897334D01*
X124506097Y-66894500D01*
X138226031Y-66894500D01*
X138226047Y-66894501D01*
X138233643Y-66894501D01*
X138391754Y-66894501D01*
X138391757Y-66894501D01*
X138544485Y-66853577D01*
X138594604Y-66824639D01*
X138681416Y-66774520D01*
X138793220Y-66662716D01*
X138793220Y-66662714D01*
X138803428Y-66652507D01*
X138803430Y-66652504D01*
X144398447Y-61057487D01*
X144459770Y-61024002D01*
X144529462Y-61028986D01*
X144573809Y-61057487D01*
X144661238Y-61144916D01*
X144813978Y-61240889D01*
X144863836Y-61258335D01*
X144984245Y-61300468D01*
X144984250Y-61300469D01*
X145163496Y-61320665D01*
X145163500Y-61320665D01*
X145163504Y-61320665D01*
X145342749Y-61300469D01*
X145342752Y-61300468D01*
X145342755Y-61300468D01*
X145513022Y-61240889D01*
X145665762Y-61144916D01*
X145793316Y-61017362D01*
X145889289Y-60864622D01*
X145948868Y-60694355D01*
X145958661Y-60607429D01*
X145985726Y-60543018D01*
X145994190Y-60533643D01*
X150332221Y-56195613D01*
X150393542Y-56162130D01*
X150463234Y-56167114D01*
G37*
%TD.AperFunction*%
%TA.AperFunction,Conductor*%
G36*
X150279433Y-66617336D02*
G01*
X150322627Y-66672255D01*
X150329273Y-66741808D01*
X150319895Y-66770752D01*
X150284568Y-66846511D01*
X150284567Y-66846513D01*
X150227364Y-67059999D01*
X150227364Y-67060000D01*
X151124988Y-67060000D01*
X151092075Y-67117007D01*
X151058000Y-67244174D01*
X151058000Y-67375826D01*
X151092075Y-67502993D01*
X151124988Y-67560000D01*
X150227364Y-67560000D01*
X150284567Y-67773486D01*
X150284570Y-67773492D01*
X150384399Y-67987578D01*
X150519894Y-68181082D01*
X150686917Y-68348105D01*
X150872595Y-68478119D01*
X150916219Y-68532696D01*
X150923412Y-68602195D01*
X150891890Y-68664549D01*
X150872595Y-68681269D01*
X150686594Y-68811508D01*
X150519506Y-68978596D01*
X150383965Y-69172170D01*
X150383962Y-69172175D01*
X150381289Y-69177909D01*
X150335115Y-69230346D01*
X150268909Y-69249500D01*
X148101091Y-69249500D01*
X148034052Y-69229815D01*
X147988711Y-69177909D01*
X147986037Y-69172175D01*
X147986034Y-69172170D01*
X147980406Y-69164133D01*
X147900030Y-69049342D01*
X147850494Y-68978597D01*
X147683402Y-68811506D01*
X147683401Y-68811505D01*
X147497405Y-68681269D01*
X147453781Y-68626692D01*
X147446588Y-68557193D01*
X147478110Y-68494839D01*
X147497405Y-68478119D01*
X147683082Y-68348105D01*
X147850105Y-68181082D01*
X147985600Y-67987578D01*
X148085429Y-67773492D01*
X148085432Y-67773486D01*
X148142636Y-67560000D01*
X147245012Y-67560000D01*
X147277925Y-67502993D01*
X147312000Y-67375826D01*
X147312000Y-67244174D01*
X147277925Y-67117007D01*
X147245012Y-67060000D01*
X148142636Y-67060000D01*
X148142635Y-67059999D01*
X148085432Y-66846513D01*
X148085430Y-66846507D01*
X148083378Y-66842107D01*
X148072885Y-66773029D01*
X148101403Y-66709245D01*
X148159879Y-66671004D01*
X148195759Y-66665700D01*
X149803131Y-66665700D01*
X149803147Y-66665701D01*
X149810743Y-66665701D01*
X149968854Y-66665701D01*
X149968857Y-66665701D01*
X150121585Y-66624777D01*
X150145507Y-66610964D01*
X150213405Y-66594488D01*
X150279433Y-66617336D01*
G37*
%TD.AperFunction*%
%TA.AperFunction,Conductor*%
G36*
X152234624Y-64945859D02*
G01*
X153601298Y-66312533D01*
X153634783Y-66373856D01*
X153636837Y-66386330D01*
X153646630Y-66473249D01*
X153706210Y-66643521D01*
X153752931Y-66717876D01*
X153802184Y-66796262D01*
X153929738Y-66923816D01*
X154082478Y-67019789D01*
X154243131Y-67076004D01*
X154252745Y-67079368D01*
X154252750Y-67079369D01*
X154431996Y-67099565D01*
X154432000Y-67099565D01*
X154432004Y-67099565D01*
X154611249Y-67079369D01*
X154611251Y-67079368D01*
X154611255Y-67079368D01*
X154686562Y-67053016D01*
X154756339Y-67049454D01*
X154774750Y-67060000D01*
X155696988Y-67060000D01*
X155664075Y-67117007D01*
X155630000Y-67244174D01*
X155630000Y-67375826D01*
X155664075Y-67502993D01*
X155696988Y-67560000D01*
X154799364Y-67560000D01*
X154856567Y-67773486D01*
X154856570Y-67773492D01*
X154956399Y-67987578D01*
X155091894Y-68181082D01*
X155258917Y-68348105D01*
X155444595Y-68478119D01*
X155488219Y-68532696D01*
X155495412Y-68602195D01*
X155463890Y-68664549D01*
X155444595Y-68681269D01*
X155258594Y-68811508D01*
X155091506Y-68978596D01*
X154955965Y-69172170D01*
X154955962Y-69172175D01*
X154953289Y-69177909D01*
X154907115Y-69230346D01*
X154840909Y-69249500D01*
X152847091Y-69249500D01*
X152780052Y-69229815D01*
X152734711Y-69177909D01*
X152732037Y-69172175D01*
X152732034Y-69172170D01*
X152726406Y-69164133D01*
X152646030Y-69049342D01*
X152596494Y-68978597D01*
X152429402Y-68811506D01*
X152429401Y-68811505D01*
X152243405Y-68681269D01*
X152199781Y-68626692D01*
X152192588Y-68557193D01*
X152224110Y-68494839D01*
X152243405Y-68478119D01*
X152429082Y-68348105D01*
X152596105Y-68181082D01*
X152731600Y-67987578D01*
X152831429Y-67773492D01*
X152831432Y-67773486D01*
X152888636Y-67560000D01*
X151991012Y-67560000D01*
X152023925Y-67502993D01*
X152058000Y-67375826D01*
X152058000Y-67244174D01*
X152023925Y-67117007D01*
X151991012Y-67060000D01*
X152888636Y-67060000D01*
X152888635Y-67059999D01*
X152831432Y-66846513D01*
X152831429Y-66846507D01*
X152731600Y-66632422D01*
X152731599Y-66632420D01*
X152596113Y-66438926D01*
X152596108Y-66438920D01*
X152429082Y-66271894D01*
X152235578Y-66136399D01*
X152021492Y-66036570D01*
X152021486Y-66036567D01*
X151808000Y-65979364D01*
X151808000Y-66876988D01*
X151750993Y-66844075D01*
X151623826Y-66810000D01*
X151492174Y-66810000D01*
X151365007Y-66844075D01*
X151308000Y-66876988D01*
X151308000Y-65979364D01*
X151307999Y-65979363D01*
X151095036Y-66036427D01*
X151025187Y-66034764D01*
X150967324Y-65995602D01*
X150939820Y-65931373D01*
X150951406Y-65862471D01*
X150975259Y-65828974D01*
X151787035Y-65017198D01*
X151848356Y-64983715D01*
X151860811Y-64981663D01*
X151947755Y-64971868D01*
X152105991Y-64916498D01*
X152175766Y-64912936D01*
X152234624Y-64945859D01*
G37*
%TD.AperFunction*%
%TA.AperFunction,Conductor*%
G36*
X159357510Y-66778485D02*
G01*
X159403265Y-66831289D01*
X159413209Y-66900447D01*
X159410246Y-66914894D01*
X159371364Y-67059999D01*
X159371364Y-67060000D01*
X160268988Y-67060000D01*
X160236075Y-67117007D01*
X160202000Y-67244174D01*
X160202000Y-67375826D01*
X160236075Y-67502993D01*
X160268988Y-67560000D01*
X159371364Y-67560000D01*
X159428567Y-67773486D01*
X159428570Y-67773492D01*
X159528399Y-67987578D01*
X159663894Y-68181082D01*
X159830917Y-68348105D01*
X160016595Y-68478119D01*
X160060219Y-68532696D01*
X160067412Y-68602195D01*
X160035890Y-68664549D01*
X160016595Y-68681269D01*
X159830594Y-68811508D01*
X159663506Y-68978596D01*
X159527965Y-69172170D01*
X159527962Y-69172175D01*
X159525289Y-69177909D01*
X159479115Y-69230346D01*
X159412909Y-69249500D01*
X157419091Y-69249500D01*
X157352052Y-69229815D01*
X157306711Y-69177909D01*
X157304037Y-69172175D01*
X157304034Y-69172170D01*
X157298406Y-69164133D01*
X157218030Y-69049342D01*
X157168494Y-68978597D01*
X157001402Y-68811506D01*
X157001401Y-68811505D01*
X156815405Y-68681269D01*
X156771781Y-68626692D01*
X156764588Y-68557193D01*
X156796110Y-68494839D01*
X156815405Y-68478119D01*
X157001082Y-68348105D01*
X157168105Y-68181082D01*
X157303600Y-67987578D01*
X157403429Y-67773492D01*
X157403432Y-67773486D01*
X157460636Y-67560000D01*
X156563012Y-67560000D01*
X156595925Y-67502993D01*
X156630000Y-67375826D01*
X156630000Y-67244174D01*
X156595925Y-67117007D01*
X156563012Y-67060000D01*
X157460636Y-67060000D01*
X157460635Y-67059999D01*
X157421754Y-66914894D01*
X157423417Y-66845044D01*
X157462579Y-66787182D01*
X157526807Y-66759677D01*
X157541529Y-66758800D01*
X159290471Y-66758800D01*
X159357510Y-66778485D01*
G37*
%TD.AperFunction*%
%TA.AperFunction,Conductor*%
G36*
X163929510Y-66778485D02*
G01*
X163975265Y-66831289D01*
X163985209Y-66900447D01*
X163982246Y-66914894D01*
X163943364Y-67059999D01*
X163943364Y-67060000D01*
X164840988Y-67060000D01*
X164808075Y-67117007D01*
X164774000Y-67244174D01*
X164774000Y-67375826D01*
X164808075Y-67502993D01*
X164840988Y-67560000D01*
X163943364Y-67560000D01*
X164000567Y-67773486D01*
X164000570Y-67773492D01*
X164100399Y-67987578D01*
X164235894Y-68181082D01*
X164402917Y-68348105D01*
X164588595Y-68478119D01*
X164632219Y-68532696D01*
X164639412Y-68602195D01*
X164607890Y-68664549D01*
X164588595Y-68681269D01*
X164402594Y-68811508D01*
X164235506Y-68978596D01*
X164099965Y-69172170D01*
X164099962Y-69172175D01*
X164097289Y-69177909D01*
X164051115Y-69230346D01*
X163984909Y-69249500D01*
X161991091Y-69249500D01*
X161924052Y-69229815D01*
X161878711Y-69177909D01*
X161876037Y-69172175D01*
X161876034Y-69172170D01*
X161870406Y-69164133D01*
X161790030Y-69049342D01*
X161740494Y-68978597D01*
X161573402Y-68811506D01*
X161573401Y-68811505D01*
X161387405Y-68681269D01*
X161343781Y-68626692D01*
X161336588Y-68557193D01*
X161368110Y-68494839D01*
X161387405Y-68478119D01*
X161573082Y-68348105D01*
X161740105Y-68181082D01*
X161875600Y-67987578D01*
X161975429Y-67773492D01*
X161975432Y-67773486D01*
X162032636Y-67560000D01*
X161135012Y-67560000D01*
X161167925Y-67502993D01*
X161202000Y-67375826D01*
X161202000Y-67244174D01*
X161167925Y-67117007D01*
X161135012Y-67060000D01*
X162032636Y-67060000D01*
X162032635Y-67059999D01*
X161993754Y-66914894D01*
X161995417Y-66845044D01*
X162034579Y-66787182D01*
X162098807Y-66759677D01*
X162113529Y-66758800D01*
X163862471Y-66758800D01*
X163929510Y-66778485D01*
G37*
%TD.AperFunction*%
%TA.AperFunction,Conductor*%
G36*
X168953898Y-66121127D02*
G01*
X168986126Y-66183121D01*
X168979721Y-66252696D01*
X168952129Y-66294683D01*
X168807886Y-66438926D01*
X168672400Y-66632420D01*
X168672399Y-66632422D01*
X168572570Y-66846507D01*
X168572567Y-66846513D01*
X168515364Y-67059999D01*
X168515364Y-67060000D01*
X169412988Y-67060000D01*
X169380075Y-67117007D01*
X169346000Y-67244174D01*
X169346000Y-67375826D01*
X169380075Y-67502993D01*
X169412988Y-67560000D01*
X168515364Y-67560000D01*
X168572567Y-67773486D01*
X168572570Y-67773492D01*
X168672399Y-67987578D01*
X168807894Y-68181082D01*
X168974917Y-68348105D01*
X169160595Y-68478119D01*
X169204219Y-68532696D01*
X169211412Y-68602195D01*
X169179890Y-68664549D01*
X169160595Y-68681269D01*
X168974594Y-68811508D01*
X168807506Y-68978596D01*
X168671965Y-69172170D01*
X168671962Y-69172175D01*
X168669289Y-69177909D01*
X168623115Y-69230346D01*
X168556909Y-69249500D01*
X166563091Y-69249500D01*
X166496052Y-69229815D01*
X166450711Y-69177909D01*
X166448037Y-69172175D01*
X166448034Y-69172170D01*
X166442406Y-69164133D01*
X166362030Y-69049342D01*
X166312494Y-68978597D01*
X166145402Y-68811506D01*
X166145401Y-68811505D01*
X165959405Y-68681269D01*
X165915781Y-68626692D01*
X165908588Y-68557193D01*
X165940110Y-68494839D01*
X165959405Y-68478119D01*
X166145082Y-68348105D01*
X166312105Y-68181082D01*
X166447600Y-67987578D01*
X166547429Y-67773492D01*
X166547432Y-67773486D01*
X166604636Y-67560000D01*
X165707012Y-67560000D01*
X165739925Y-67502993D01*
X165774000Y-67375826D01*
X165774000Y-67244174D01*
X165739925Y-67117007D01*
X165707012Y-67060000D01*
X166604636Y-67060000D01*
X166604635Y-67059999D01*
X166565754Y-66914894D01*
X166567417Y-66845044D01*
X166606579Y-66787182D01*
X166670807Y-66759677D01*
X166685529Y-66758800D01*
X167620431Y-66758800D01*
X167620447Y-66758801D01*
X167628043Y-66758801D01*
X167786154Y-66758801D01*
X167786157Y-66758801D01*
X167938885Y-66717877D01*
X167989004Y-66688939D01*
X168075816Y-66638820D01*
X168187620Y-66527016D01*
X168187620Y-66527014D01*
X168197828Y-66516807D01*
X168197830Y-66516804D01*
X168534435Y-66180198D01*
X168595756Y-66146715D01*
X168608211Y-66144663D01*
X168695155Y-66134868D01*
X168734425Y-66121127D01*
X168823492Y-66089961D01*
X168893271Y-66086399D01*
X168953898Y-66121127D01*
G37*
%TD.AperFunction*%
%TA.AperFunction,Conductor*%
G36*
X134314920Y-68324394D02*
G01*
X134262259Y-68415606D01*
X134235000Y-68517339D01*
X134235000Y-68622661D01*
X134262259Y-68724394D01*
X134314920Y-68815606D01*
X134319314Y-68820000D01*
X132410686Y-68820000D01*
X132415080Y-68815606D01*
X132467741Y-68724394D01*
X132495000Y-68622661D01*
X132495000Y-68517339D01*
X132467741Y-68415606D01*
X132415080Y-68324394D01*
X132410686Y-68320000D01*
X134319314Y-68320000D01*
X134314920Y-68324394D01*
G37*
%TD.AperFunction*%
%TA.AperFunction,Conductor*%
G36*
X130427673Y-26936185D02*
G01*
X130473428Y-26988989D01*
X130483372Y-27058147D01*
X130454347Y-27121703D01*
X130448315Y-27128181D01*
X130312089Y-27264406D01*
X130312086Y-27264410D01*
X130208124Y-27419999D01*
X130208119Y-27420008D01*
X130136508Y-27592894D01*
X130136506Y-27592902D01*
X130100000Y-27776428D01*
X130100000Y-28020000D01*
X130750000Y-28020000D01*
X130750000Y-28520000D01*
X130100000Y-28520000D01*
X130100000Y-28763571D01*
X130136506Y-28947097D01*
X130136508Y-28947105D01*
X130208119Y-29119991D01*
X130208124Y-29120000D01*
X130312086Y-29275589D01*
X130312089Y-29275593D01*
X130444406Y-29407910D01*
X130444410Y-29407913D01*
X130599999Y-29511875D01*
X130600012Y-29511882D01*
X130772889Y-29583489D01*
X130772896Y-29583491D01*
X130800000Y-29588882D01*
X130800000Y-28836988D01*
X130809940Y-28854205D01*
X130865795Y-28910060D01*
X130934204Y-28949556D01*
X131010504Y-28970000D01*
X131089496Y-28970000D01*
X131165796Y-28949556D01*
X131234205Y-28910060D01*
X131290060Y-28854205D01*
X131300000Y-28836988D01*
X131300000Y-29588881D01*
X131327103Y-29583491D01*
X131327110Y-29583489D01*
X131499987Y-29511882D01*
X131500000Y-29511875D01*
X131655589Y-29407913D01*
X131655593Y-29407910D01*
X131787910Y-29275593D01*
X131787913Y-29275589D01*
X131891875Y-29120000D01*
X131891880Y-29119991D01*
X131963491Y-28947105D01*
X131963493Y-28947097D01*
X131999999Y-28763571D01*
X132000000Y-28763569D01*
X132000000Y-28520000D01*
X131350000Y-28520000D01*
X131350000Y-28020000D01*
X132000000Y-28020000D01*
X132000000Y-27776430D01*
X131999999Y-27776428D01*
X131963493Y-27592902D01*
X131963491Y-27592894D01*
X131891880Y-27420008D01*
X131891875Y-27419999D01*
X131787913Y-27264410D01*
X131787910Y-27264406D01*
X131651685Y-27128181D01*
X131618200Y-27066858D01*
X131623184Y-26997166D01*
X131665056Y-26941233D01*
X131730520Y-26916816D01*
X131739366Y-26916500D01*
X139010634Y-26916500D01*
X139077673Y-26936185D01*
X139123428Y-26988989D01*
X139133372Y-27058147D01*
X139104347Y-27121703D01*
X139098315Y-27128181D01*
X138962089Y-27264406D01*
X138962086Y-27264410D01*
X138858124Y-27419999D01*
X138858119Y-27420008D01*
X138786508Y-27592894D01*
X138786506Y-27592902D01*
X138750000Y-27776428D01*
X138750000Y-28020000D01*
X139400000Y-28020000D01*
X139400000Y-28520000D01*
X138750000Y-28520000D01*
X138750000Y-28763571D01*
X138786506Y-28947097D01*
X138786508Y-28947105D01*
X138858119Y-29119991D01*
X138858124Y-29120000D01*
X138962086Y-29275589D01*
X138962089Y-29275593D01*
X139094406Y-29407910D01*
X139094410Y-29407913D01*
X139249999Y-29511875D01*
X139250012Y-29511882D01*
X139422889Y-29583489D01*
X139422896Y-29583491D01*
X139450000Y-29588882D01*
X139450000Y-28836988D01*
X139459940Y-28854205D01*
X139515795Y-28910060D01*
X139584204Y-28949556D01*
X139660504Y-28970000D01*
X139739496Y-28970000D01*
X139815796Y-28949556D01*
X139884205Y-28910060D01*
X139940060Y-28854205D01*
X139950000Y-28836988D01*
X139950000Y-29588881D01*
X139977103Y-29583491D01*
X139977110Y-29583489D01*
X140149987Y-29511882D01*
X140150000Y-29511875D01*
X140305589Y-29407913D01*
X140305593Y-29407910D01*
X140437910Y-29275593D01*
X140437913Y-29275589D01*
X140541875Y-29120000D01*
X140541880Y-29119991D01*
X140613491Y-28947105D01*
X140613493Y-28947097D01*
X140649999Y-28763571D01*
X140650000Y-28763569D01*
X140650000Y-28520000D01*
X140000000Y-28520000D01*
X140000000Y-28020000D01*
X140650000Y-28020000D01*
X140650000Y-27776430D01*
X140649999Y-27776428D01*
X140613493Y-27592902D01*
X140613491Y-27592894D01*
X140541880Y-27420008D01*
X140541875Y-27419999D01*
X140437913Y-27264410D01*
X140437910Y-27264406D01*
X140301685Y-27128181D01*
X140268200Y-27066858D01*
X140273184Y-26997166D01*
X140315056Y-26941233D01*
X140380520Y-26916816D01*
X140389366Y-26916500D01*
X172146108Y-26916500D01*
X172207933Y-26916500D01*
X172216042Y-26916765D01*
X172238774Y-26918254D01*
X172470114Y-26933417D01*
X172486172Y-26935532D01*
X172731888Y-26984408D01*
X172747554Y-26988606D01*
X172898736Y-27039925D01*
X172984788Y-27069136D01*
X172999765Y-27075339D01*
X173217336Y-27182633D01*
X173224460Y-27186146D01*
X173238507Y-27194256D01*
X173279649Y-27221746D01*
X173446815Y-27333443D01*
X173459675Y-27343311D01*
X173469783Y-27352175D01*
X173648033Y-27508497D01*
X173659502Y-27519966D01*
X173824685Y-27708320D01*
X173834558Y-27721186D01*
X173856620Y-27754204D01*
X173973743Y-27929492D01*
X173981853Y-27943539D01*
X174092657Y-28168227D01*
X174098864Y-28183213D01*
X174179393Y-28420445D01*
X174183591Y-28436111D01*
X174232465Y-28681813D01*
X174234583Y-28697895D01*
X174238888Y-28763571D01*
X174250916Y-28947097D01*
X174251235Y-28951956D01*
X174251500Y-28960066D01*
X174251500Y-34564000D01*
X174231815Y-34631039D01*
X174179011Y-34676794D01*
X174127500Y-34688000D01*
X173956000Y-34688000D01*
X173956000Y-49948273D01*
X173936315Y-50015312D01*
X173883511Y-50061067D01*
X173814353Y-50071011D01*
X173766030Y-50053268D01*
X173754623Y-50046101D01*
X173584349Y-49986520D01*
X173497430Y-49976727D01*
X173433016Y-49949660D01*
X173423633Y-49941188D01*
X172167195Y-48684750D01*
X172167193Y-48684747D01*
X172048322Y-48565876D01*
X172048321Y-48565875D01*
X171958671Y-48514116D01*
X171958669Y-48514114D01*
X171911393Y-48486819D01*
X171911392Y-48486818D01*
X171840422Y-48467802D01*
X171758662Y-48445894D01*
X171600548Y-48445894D01*
X171592952Y-48445894D01*
X171592936Y-48445895D01*
X162884492Y-48445895D01*
X162817453Y-48426210D01*
X162796811Y-48409576D01*
X161866700Y-47479465D01*
X161833215Y-47418142D01*
X161831163Y-47405686D01*
X161821368Y-47318745D01*
X161761789Y-47148478D01*
X161665816Y-46995738D01*
X161591537Y-46921459D01*
X161558052Y-46860136D01*
X161563036Y-46790444D01*
X161591537Y-46746097D01*
X162488816Y-45848819D01*
X162550139Y-45815334D01*
X162576497Y-45812500D01*
X165276531Y-45812500D01*
X165276547Y-45812501D01*
X165284143Y-45812501D01*
X165442254Y-45812501D01*
X165442257Y-45812501D01*
X165594985Y-45771577D01*
X165645104Y-45742639D01*
X165731916Y-45692520D01*
X165843720Y-45580716D01*
X165843720Y-45580714D01*
X165853928Y-45570507D01*
X165853930Y-45570504D01*
X167919835Y-43504598D01*
X167981156Y-43471115D01*
X167993611Y-43469063D01*
X168080555Y-43459268D01*
X168250822Y-43399689D01*
X168403562Y-43303716D01*
X168531116Y-43176162D01*
X168627089Y-43023422D01*
X168686668Y-42853155D01*
X168701769Y-42719128D01*
X168706865Y-42673903D01*
X168706865Y-42673896D01*
X168686669Y-42494650D01*
X168686668Y-42494645D01*
X168630851Y-42335129D01*
X168627089Y-42324378D01*
X168531116Y-42171638D01*
X168403562Y-42044084D01*
X168250823Y-41948111D01*
X168080554Y-41888531D01*
X168080549Y-41888530D01*
X167901304Y-41868335D01*
X167901296Y-41868335D01*
X167722050Y-41888530D01*
X167722045Y-41888531D01*
X167551776Y-41948111D01*
X167399037Y-42044084D01*
X167271484Y-42171637D01*
X167175510Y-42324378D01*
X167115930Y-42494650D01*
X167106137Y-42581568D01*
X167079070Y-42645982D01*
X167070598Y-42655365D01*
X167015065Y-42710898D01*
X166953742Y-42744383D01*
X166884050Y-42739399D01*
X166828117Y-42697527D01*
X166811442Y-42667188D01*
X166803400Y-42645982D01*
X166770818Y-42560070D01*
X166674183Y-42420071D01*
X166546852Y-42307266D01*
X166528809Y-42297796D01*
X166478597Y-42249212D01*
X166462622Y-42181194D01*
X166485957Y-42115336D01*
X166528809Y-42078203D01*
X166546852Y-42068734D01*
X166674183Y-41955929D01*
X166770818Y-41815930D01*
X166831140Y-41656872D01*
X166851645Y-41488000D01*
X166831140Y-41319128D01*
X166770818Y-41160070D01*
X166674183Y-41020071D01*
X166546852Y-40907266D01*
X166546849Y-40907263D01*
X166396226Y-40828210D01*
X166296715Y-40803683D01*
X166232235Y-40787790D01*
X166171856Y-40752635D01*
X166140067Y-40690416D01*
X166138815Y-40682340D01*
X166131140Y-40619131D01*
X166131139Y-40619125D01*
X166070817Y-40460068D01*
X166036476Y-40410318D01*
X165974183Y-40320071D01*
X165863408Y-40221933D01*
X165846849Y-40207263D01*
X165696227Y-40128210D01*
X165626589Y-40111046D01*
X165566209Y-40075889D01*
X165534421Y-40013670D01*
X165541317Y-39944141D01*
X165551269Y-39924681D01*
X165638354Y-39786087D01*
X165697933Y-39615820D01*
X165715275Y-39461903D01*
X165718130Y-39436568D01*
X165718130Y-39436561D01*
X165697934Y-39257315D01*
X165697933Y-39257310D01*
X165638353Y-39087040D01*
X165583603Y-38999907D01*
X165546042Y-38940130D01*
X165527042Y-38872895D01*
X165547409Y-38806060D01*
X165563349Y-38786484D01*
X165919596Y-38430238D01*
X165980917Y-38396755D01*
X166021159Y-38394701D01*
X166124812Y-38406380D01*
X166124815Y-38406380D01*
X166124819Y-38406380D01*
X166304064Y-38386184D01*
X166304067Y-38386183D01*
X166304070Y-38386183D01*
X166474337Y-38326604D01*
X166627077Y-38230631D01*
X166754631Y-38103077D01*
X166850604Y-37950337D01*
X166910183Y-37780070D01*
X166910184Y-37780064D01*
X166930380Y-37600818D01*
X166930380Y-37600811D01*
X166910184Y-37421565D01*
X166910183Y-37421560D01*
X166882153Y-37341455D01*
X166878592Y-37271676D01*
X166913321Y-37211048D01*
X166975314Y-37178821D01*
X166999195Y-37176500D01*
X168203731Y-37176500D01*
X168203747Y-37176501D01*
X168211343Y-37176501D01*
X168369454Y-37176501D01*
X168369457Y-37176501D01*
X168522185Y-37135577D01*
X168586312Y-37098553D01*
X168659116Y-37056520D01*
X168674532Y-37041103D01*
X168735852Y-37007616D01*
X168748313Y-37005563D01*
X168835255Y-36995768D01*
X169005522Y-36936189D01*
X169158262Y-36840216D01*
X169285816Y-36712662D01*
X169381789Y-36559922D01*
X169441368Y-36389655D01*
X169441369Y-36389649D01*
X169461565Y-36210403D01*
X169461565Y-36210396D01*
X169441369Y-36031150D01*
X169441368Y-36031145D01*
X169412705Y-35949230D01*
X169381789Y-35860878D01*
X169285816Y-35708138D01*
X169158262Y-35580584D01*
X169125503Y-35560000D01*
X169005523Y-35484611D01*
X168835254Y-35425031D01*
X168835249Y-35425030D01*
X168656004Y-35404835D01*
X168655996Y-35404835D01*
X168476750Y-35425030D01*
X168476745Y-35425031D01*
X168306476Y-35484611D01*
X168153737Y-35580584D01*
X168026184Y-35708137D01*
X167930210Y-35860878D01*
X167919162Y-35892454D01*
X167878440Y-35949230D01*
X167813488Y-35974978D01*
X167802120Y-35975500D01*
X166387770Y-35975500D01*
X166387754Y-35975499D01*
X166380158Y-35975499D01*
X166222043Y-35975499D01*
X166145679Y-35995961D01*
X166069314Y-36016423D01*
X166069309Y-36016426D01*
X165932390Y-36095475D01*
X165932382Y-36095481D01*
X160403381Y-41624482D01*
X160403375Y-41624490D01*
X160355463Y-41707478D01*
X160355463Y-41707479D01*
X160324323Y-41761414D01*
X160324323Y-41761415D01*
X160283399Y-41914143D01*
X160283399Y-41914145D01*
X160283399Y-42067703D01*
X160263714Y-42134742D01*
X160247080Y-42155384D01*
X158042184Y-44360279D01*
X157980861Y-44393764D01*
X157911169Y-44388780D01*
X157855236Y-44346908D01*
X157849509Y-44338570D01*
X157818048Y-44288500D01*
X157814616Y-44283038D01*
X157687062Y-44155484D01*
X157534323Y-44059511D01*
X157364054Y-43999931D01*
X157364049Y-43999930D01*
X157184804Y-43979735D01*
X157184796Y-43979735D01*
X157005550Y-43999930D01*
X157005545Y-43999931D01*
X156835276Y-44059511D01*
X156682536Y-44155485D01*
X156679703Y-44157745D01*
X156677524Y-44158634D01*
X156676642Y-44159189D01*
X156676544Y-44159034D01*
X156615017Y-44184155D01*
X156602388Y-44184800D01*
X149375839Y-44184800D01*
X149362033Y-44188499D01*
X149362034Y-44188500D01*
X149223114Y-44225723D01*
X149223109Y-44225726D01*
X149086190Y-44304775D01*
X149086182Y-44304781D01*
X144030481Y-49360482D01*
X144030480Y-49360484D01*
X143987760Y-49434478D01*
X143951423Y-49497415D01*
X143910499Y-49650143D01*
X143910499Y-49650145D01*
X143910499Y-49818246D01*
X143910500Y-49818259D01*
X143910500Y-51034908D01*
X143890815Y-51101947D01*
X143838914Y-51147286D01*
X143833173Y-51149963D01*
X143833169Y-51149965D01*
X143639597Y-51285505D01*
X143472505Y-51452597D01*
X143336965Y-51646169D01*
X143336964Y-51646171D01*
X143237098Y-51860335D01*
X143237094Y-51860344D01*
X143175938Y-52088586D01*
X143175936Y-52088596D01*
X143155341Y-52323999D01*
X143155341Y-52324000D01*
X143175936Y-52559403D01*
X143175938Y-52559413D01*
X143237094Y-52787655D01*
X143237096Y-52787659D01*
X143237097Y-52787663D01*
X143241000Y-52796032D01*
X143336965Y-53001830D01*
X143336967Y-53001834D01*
X143379539Y-53062632D01*
X143472505Y-53195401D01*
X143639599Y-53362495D01*
X143736384Y-53430265D01*
X143833165Y-53498032D01*
X143833167Y-53498033D01*
X143833170Y-53498035D01*
X144047337Y-53597903D01*
X144275592Y-53659063D01*
X144452034Y-53674500D01*
X144510999Y-53679659D01*
X144511000Y-53679659D01*
X144511001Y-53679659D01*
X144550234Y-53676226D01*
X144746408Y-53659063D01*
X144974663Y-53597903D01*
X145188830Y-53498035D01*
X145382401Y-53362495D01*
X145549495Y-53195401D01*
X145679425Y-53009842D01*
X145734002Y-52966217D01*
X145803500Y-52959023D01*
X145865855Y-52990546D01*
X145882575Y-53009842D01*
X146012500Y-53195395D01*
X146012505Y-53195401D01*
X146179599Y-53362495D01*
X146276384Y-53430265D01*
X146373165Y-53498032D01*
X146373167Y-53498033D01*
X146373170Y-53498035D01*
X146587337Y-53597903D01*
X146815592Y-53659063D01*
X146992034Y-53674500D01*
X147050999Y-53679659D01*
X147051000Y-53679659D01*
X147051001Y-53679659D01*
X147090234Y-53676226D01*
X147286408Y-53659063D01*
X147514663Y-53597903D01*
X147728830Y-53498035D01*
X147922401Y-53362495D01*
X148044329Y-53240566D01*
X148105648Y-53207084D01*
X148175340Y-53212068D01*
X148231274Y-53253939D01*
X148248189Y-53284917D01*
X148297202Y-53416328D01*
X148297206Y-53416335D01*
X148383452Y-53531544D01*
X148383455Y-53531547D01*
X148498664Y-53617793D01*
X148498671Y-53617797D01*
X148543618Y-53634561D01*
X148633517Y-53668091D01*
X148693127Y-53674500D01*
X148693162Y-53674499D01*
X148694342Y-53674564D01*
X148694609Y-53674658D01*
X148696429Y-53674854D01*
X148696382Y-53675283D01*
X148760233Y-53697804D01*
X148803100Y-53752978D01*
X148809333Y-53822569D01*
X148792708Y-53864359D01*
X148753110Y-53927377D01*
X148693530Y-54097650D01*
X148683737Y-54184567D01*
X148656670Y-54248981D01*
X148648198Y-54258364D01*
X137755184Y-65151381D01*
X137693861Y-65184866D01*
X137667503Y-65187700D01*
X126968676Y-65187700D01*
X126901637Y-65168015D01*
X126855882Y-65115211D01*
X126845938Y-65046053D01*
X126867102Y-64992576D01*
X126899813Y-64945859D01*
X126904035Y-64939830D01*
X127003903Y-64725663D01*
X127065063Y-64497408D01*
X127085659Y-64262000D01*
X127083939Y-64242346D01*
X127076674Y-64159300D01*
X127065063Y-64026592D01*
X127003903Y-63798337D01*
X126904035Y-63584171D01*
X126846072Y-63501390D01*
X126768494Y-63390597D01*
X126601402Y-63223506D01*
X126601396Y-63223501D01*
X126415842Y-63093575D01*
X126372217Y-63038998D01*
X126365023Y-62969500D01*
X126396546Y-62907145D01*
X126415842Y-62890425D01*
X126490171Y-62838379D01*
X126601401Y-62760495D01*
X126768495Y-62593401D01*
X126904035Y-62399830D01*
X127003903Y-62185663D01*
X127065063Y-61957408D01*
X127085659Y-61722000D01*
X127065063Y-61486592D01*
X127003903Y-61258337D01*
X126904035Y-61044171D01*
X126893801Y-61029554D01*
X126768494Y-60850597D01*
X126601402Y-60683506D01*
X126601396Y-60683501D01*
X126415842Y-60553575D01*
X126372217Y-60498998D01*
X126365023Y-60429500D01*
X126396546Y-60367145D01*
X126415842Y-60350425D01*
X126488640Y-60299451D01*
X126601401Y-60220495D01*
X126768495Y-60053401D01*
X126904035Y-59859830D01*
X127003903Y-59645663D01*
X127065063Y-59417408D01*
X127085659Y-59182000D01*
X127065063Y-58946592D01*
X127003903Y-58718337D01*
X126904035Y-58504171D01*
X126872907Y-58459716D01*
X126768496Y-58310600D01*
X126710170Y-58252274D01*
X126646567Y-58188671D01*
X126613084Y-58127351D01*
X126618068Y-58057659D01*
X126659939Y-58001725D01*
X126690915Y-57984810D01*
X126822331Y-57935796D01*
X126937546Y-57849546D01*
X127023796Y-57734331D01*
X127074091Y-57599483D01*
X127080500Y-57539873D01*
X127080499Y-55744128D01*
X127074091Y-55684517D01*
X127067073Y-55665702D01*
X127023797Y-55549671D01*
X127023793Y-55549664D01*
X126937547Y-55434455D01*
X126937544Y-55434452D01*
X126822335Y-55348206D01*
X126822328Y-55348202D01*
X126687482Y-55297908D01*
X126687483Y-55297908D01*
X126627883Y-55291501D01*
X126627881Y-55291500D01*
X126627873Y-55291500D01*
X126627864Y-55291500D01*
X124832129Y-55291500D01*
X124832123Y-55291501D01*
X124772516Y-55297908D01*
X124637671Y-55348202D01*
X124637664Y-55348206D01*
X124522455Y-55434452D01*
X124522452Y-55434455D01*
X124436206Y-55549664D01*
X124436202Y-55549671D01*
X124385908Y-55684517D01*
X124379918Y-55740237D01*
X124379501Y-55744123D01*
X124379500Y-55744135D01*
X124379500Y-57539870D01*
X124379501Y-57539876D01*
X124385908Y-57599483D01*
X124436202Y-57734328D01*
X124436206Y-57734335D01*
X124522452Y-57849544D01*
X124522455Y-57849547D01*
X124637664Y-57935793D01*
X124637671Y-57935797D01*
X124769081Y-57984810D01*
X124825015Y-58026681D01*
X124849432Y-58092145D01*
X124834580Y-58160418D01*
X124813430Y-58188673D01*
X124691503Y-58310600D01*
X124555965Y-58504169D01*
X124555964Y-58504171D01*
X124456098Y-58718335D01*
X124456094Y-58718344D01*
X124394938Y-58946586D01*
X124394936Y-58946596D01*
X124374341Y-59181999D01*
X124374341Y-59182000D01*
X124394936Y-59417403D01*
X124394938Y-59417413D01*
X124456094Y-59645655D01*
X124456096Y-59645659D01*
X124456097Y-59645663D01*
X124521315Y-59785522D01*
X124555965Y-59859830D01*
X124555967Y-59859834D01*
X124691501Y-60053395D01*
X124691506Y-60053402D01*
X124858597Y-60220493D01*
X124858603Y-60220498D01*
X125044158Y-60350425D01*
X125087783Y-60405002D01*
X125094977Y-60474500D01*
X125063454Y-60536855D01*
X125044158Y-60553575D01*
X124858597Y-60683505D01*
X124691505Y-60850597D01*
X124555965Y-61044169D01*
X124555964Y-61044171D01*
X124456098Y-61258335D01*
X124456094Y-61258344D01*
X124394938Y-61486586D01*
X124394936Y-61486596D01*
X124374341Y-61721999D01*
X124374341Y-61722000D01*
X124394936Y-61957403D01*
X124394938Y-61957413D01*
X124456094Y-62185655D01*
X124456096Y-62185659D01*
X124456097Y-62185663D01*
X124555965Y-62399830D01*
X124555967Y-62399834D01*
X124691501Y-62593395D01*
X124691506Y-62593402D01*
X124858597Y-62760493D01*
X124858603Y-62760498D01*
X125044158Y-62890425D01*
X125087783Y-62945002D01*
X125094977Y-63014500D01*
X125063454Y-63076855D01*
X125044158Y-63093575D01*
X124858597Y-63223505D01*
X124691505Y-63390597D01*
X124555965Y-63584169D01*
X124555964Y-63584171D01*
X124456098Y-63798335D01*
X124456094Y-63798344D01*
X124394938Y-64026586D01*
X124394936Y-64026596D01*
X124374341Y-64261999D01*
X124374341Y-64262000D01*
X124394936Y-64497403D01*
X124394938Y-64497413D01*
X124456094Y-64725655D01*
X124456096Y-64725659D01*
X124456097Y-64725663D01*
X124535254Y-64895415D01*
X124555965Y-64939830D01*
X124555969Y-64939836D01*
X124592898Y-64992576D01*
X124615226Y-65058782D01*
X124598216Y-65126549D01*
X124547268Y-65174363D01*
X124491324Y-65187700D01*
X124036469Y-65187700D01*
X124036453Y-65187699D01*
X124028857Y-65187699D01*
X123870743Y-65187699D01*
X123763387Y-65216465D01*
X123718010Y-65228624D01*
X123718009Y-65228625D01*
X123667896Y-65257559D01*
X123667895Y-65257560D01*
X123625058Y-65282292D01*
X123581085Y-65307679D01*
X123581082Y-65307681D01*
X123469278Y-65419486D01*
X122632154Y-66256609D01*
X122570831Y-66290094D01*
X122501139Y-66285110D01*
X122445206Y-66243238D01*
X122420789Y-66177774D01*
X122420473Y-66168947D01*
X122420456Y-48763004D01*
X125194451Y-48763004D01*
X125214616Y-49032101D01*
X125274664Y-49295188D01*
X125274666Y-49295195D01*
X125373256Y-49546396D01*
X125373258Y-49546400D01*
X125391464Y-49577934D01*
X125508185Y-49780102D01*
X125636647Y-49941188D01*
X125676442Y-49991089D01*
X125847964Y-50150237D01*
X125874259Y-50174635D01*
X126097226Y-50326651D01*
X126340359Y-50443738D01*
X126598228Y-50523280D01*
X126598229Y-50523280D01*
X126598232Y-50523281D01*
X126865063Y-50563499D01*
X126865068Y-50563499D01*
X126865071Y-50563500D01*
X126865072Y-50563500D01*
X127134928Y-50563500D01*
X127134929Y-50563500D01*
X127175314Y-50557413D01*
X127401767Y-50523281D01*
X127401768Y-50523280D01*
X127401772Y-50523280D01*
X127659641Y-50443738D01*
X127902775Y-50326651D01*
X128125741Y-50174635D01*
X128290516Y-50021746D01*
X128323557Y-49991089D01*
X128323557Y-49991087D01*
X128323561Y-49991085D01*
X128491815Y-49780102D01*
X128491818Y-49780095D01*
X128491839Y-49780070D01*
X128549027Y-49739930D01*
X128618839Y-49737080D01*
X128676467Y-49769702D01*
X132773298Y-53866533D01*
X132806783Y-53927856D01*
X132808837Y-53940330D01*
X132818630Y-54027249D01*
X132878210Y-54197521D01*
X132916899Y-54259094D01*
X132974184Y-54350262D01*
X133101738Y-54477816D01*
X133254478Y-54573789D01*
X133424745Y-54633368D01*
X133424750Y-54633369D01*
X133603996Y-54653565D01*
X133604000Y-54653565D01*
X133604004Y-54653565D01*
X133783249Y-54633369D01*
X133783252Y-54633368D01*
X133783255Y-54633368D01*
X133953522Y-54573789D01*
X134106262Y-54477816D01*
X134233816Y-54350262D01*
X134329789Y-54197522D01*
X134389368Y-54027255D01*
X134390587Y-54016435D01*
X134409565Y-53848003D01*
X134409565Y-53847996D01*
X134389369Y-53668750D01*
X134389368Y-53668745D01*
X134385979Y-53659061D01*
X134329789Y-53498478D01*
X134233816Y-53345738D01*
X134106262Y-53218184D01*
X134096528Y-53212068D01*
X133953521Y-53122210D01*
X133783249Y-53062630D01*
X133696330Y-53052837D01*
X133631916Y-53025770D01*
X133622533Y-53017298D01*
X129006590Y-48401355D01*
X129006588Y-48401352D01*
X128887717Y-48282481D01*
X128887716Y-48282480D01*
X128800904Y-48232360D01*
X128800904Y-48232359D01*
X128800900Y-48232358D01*
X128750785Y-48203423D01*
X128750784Y-48203422D01*
X128743746Y-48199359D01*
X128745226Y-48196795D01*
X128701867Y-48161853D01*
X128688297Y-48136437D01*
X128626745Y-47979607D01*
X128626741Y-47979599D01*
X128614273Y-47958003D01*
X128491815Y-47745898D01*
X128323561Y-47534915D01*
X128323560Y-47534914D01*
X128323557Y-47534910D01*
X128125741Y-47351365D01*
X128023309Y-47281528D01*
X127902775Y-47199349D01*
X127902769Y-47199346D01*
X127902768Y-47199345D01*
X127902767Y-47199344D01*
X127659643Y-47082263D01*
X127659645Y-47082263D01*
X127401773Y-47002720D01*
X127401767Y-47002718D01*
X127134936Y-46962500D01*
X127134929Y-46962500D01*
X126865071Y-46962500D01*
X126865063Y-46962500D01*
X126598232Y-47002718D01*
X126598226Y-47002720D01*
X126340358Y-47082262D01*
X126097230Y-47199346D01*
X125874258Y-47351365D01*
X125676442Y-47534910D01*
X125508185Y-47745898D01*
X125373258Y-47979599D01*
X125373256Y-47979603D01*
X125274666Y-48230804D01*
X125274664Y-48230811D01*
X125214616Y-48493898D01*
X125194451Y-48762995D01*
X125194451Y-48763004D01*
X122420456Y-48763004D01*
X122420452Y-45030870D01*
X125199500Y-45030870D01*
X125199501Y-45030876D01*
X125205908Y-45090483D01*
X125256202Y-45225328D01*
X125256206Y-45225335D01*
X125342452Y-45340544D01*
X125342455Y-45340547D01*
X125457664Y-45426793D01*
X125457671Y-45426797D01*
X125592517Y-45477091D01*
X125592516Y-45477091D01*
X125599444Y-45477835D01*
X125652127Y-45483500D01*
X128347872Y-45483499D01*
X128407483Y-45477091D01*
X128542331Y-45426796D01*
X128657546Y-45340546D01*
X128743796Y-45225331D01*
X128794091Y-45090483D01*
X128800500Y-45030873D01*
X128800499Y-42335128D01*
X128794091Y-42275517D01*
X128761449Y-42188000D01*
X128743797Y-42140671D01*
X128743793Y-42140664D01*
X128657547Y-42025455D01*
X128657544Y-42025452D01*
X128542335Y-41939206D01*
X128542328Y-41939202D01*
X128407482Y-41888908D01*
X128407483Y-41888908D01*
X128347883Y-41882501D01*
X128347881Y-41882500D01*
X128347873Y-41882500D01*
X128347864Y-41882500D01*
X125652129Y-41882500D01*
X125652123Y-41882501D01*
X125592516Y-41888908D01*
X125457671Y-41939202D01*
X125457664Y-41939206D01*
X125342455Y-42025452D01*
X125342452Y-42025455D01*
X125256206Y-42140664D01*
X125256202Y-42140671D01*
X125205908Y-42275517D01*
X125199501Y-42335116D01*
X125199501Y-42335123D01*
X125199500Y-42335135D01*
X125199500Y-45030870D01*
X122420452Y-45030870D01*
X122420443Y-35306000D01*
X123358341Y-35306000D01*
X123378936Y-35541403D01*
X123378938Y-35541413D01*
X123440094Y-35769655D01*
X123440096Y-35769659D01*
X123440097Y-35769663D01*
X123497356Y-35892454D01*
X123539965Y-35983830D01*
X123539967Y-35983834D01*
X123675501Y-36177395D01*
X123675506Y-36177402D01*
X123797430Y-36299326D01*
X123830915Y-36360649D01*
X123825931Y-36430341D01*
X123784059Y-36486274D01*
X123753083Y-36503189D01*
X123621669Y-36552203D01*
X123621664Y-36552206D01*
X123506455Y-36638452D01*
X123506452Y-36638455D01*
X123420206Y-36753664D01*
X123420202Y-36753671D01*
X123369908Y-36888517D01*
X123363501Y-36948116D01*
X123363501Y-36948123D01*
X123363500Y-36948135D01*
X123363500Y-38743870D01*
X123363501Y-38743876D01*
X123369908Y-38803483D01*
X123420202Y-38938328D01*
X123420206Y-38938335D01*
X123506452Y-39053544D01*
X123506455Y-39053547D01*
X123621664Y-39139793D01*
X123621671Y-39139797D01*
X123756517Y-39190091D01*
X123756516Y-39190091D01*
X123763444Y-39190835D01*
X123816127Y-39196500D01*
X125611872Y-39196499D01*
X125671483Y-39190091D01*
X125806331Y-39139796D01*
X125921546Y-39053546D01*
X125965278Y-38995127D01*
X126021210Y-38953258D01*
X126090901Y-38948274D01*
X126152223Y-38981758D01*
X127112884Y-39942420D01*
X127112886Y-39942421D01*
X127112890Y-39942424D01*
X127236294Y-40013670D01*
X127249816Y-40021477D01*
X127402543Y-40062401D01*
X127402545Y-40062401D01*
X127568254Y-40062401D01*
X127568270Y-40062400D01*
X155377388Y-40062400D01*
X155444427Y-40082085D01*
X155454703Y-40089455D01*
X155457536Y-40091714D01*
X155457538Y-40091716D01*
X155610278Y-40187689D01*
X155780545Y-40247268D01*
X155780550Y-40247269D01*
X155959796Y-40267465D01*
X155959800Y-40267465D01*
X155959804Y-40267465D01*
X156139049Y-40247269D01*
X156139052Y-40247268D01*
X156139055Y-40247268D01*
X156309322Y-40187689D01*
X156462062Y-40091716D01*
X156589616Y-39964162D01*
X156685589Y-39811422D01*
X156745168Y-39641155D01*
X156748023Y-39615819D01*
X156765365Y-39461903D01*
X156765365Y-39461896D01*
X156745169Y-39282650D01*
X156745168Y-39282645D01*
X156736303Y-39257310D01*
X156685589Y-39112378D01*
X156589616Y-38959638D01*
X156462062Y-38832084D01*
X156389481Y-38786478D01*
X156309323Y-38736111D01*
X156170234Y-38687442D01*
X156113458Y-38646720D01*
X156087711Y-38581767D01*
X156101167Y-38513206D01*
X156149554Y-38462803D01*
X156211189Y-38446400D01*
X157913588Y-38446400D01*
X157980627Y-38466085D01*
X157990903Y-38473455D01*
X157993736Y-38475714D01*
X157993738Y-38475716D01*
X158146478Y-38571689D01*
X158316745Y-38631268D01*
X158316750Y-38631269D01*
X158495996Y-38651465D01*
X158496000Y-38651465D01*
X158496004Y-38651465D01*
X158675249Y-38631269D01*
X158675252Y-38631268D01*
X158675255Y-38631268D01*
X158845522Y-38571689D01*
X158998262Y-38475716D01*
X159125816Y-38348162D01*
X159221789Y-38195422D01*
X159281368Y-38025155D01*
X159301565Y-37845900D01*
X159294147Y-37780064D01*
X159281369Y-37666650D01*
X159281368Y-37666645D01*
X159221788Y-37496376D01*
X159139540Y-37365480D01*
X159125816Y-37343638D01*
X158998262Y-37216084D01*
X158965960Y-37195787D01*
X158845523Y-37120111D01*
X158675254Y-37060531D01*
X158675249Y-37060530D01*
X158496004Y-37040335D01*
X158495996Y-37040335D01*
X158316750Y-37060530D01*
X158316745Y-37060531D01*
X158146476Y-37120111D01*
X157993736Y-37216085D01*
X157990903Y-37218345D01*
X157988724Y-37219234D01*
X157987842Y-37219789D01*
X157987744Y-37219634D01*
X157926217Y-37244755D01*
X157913588Y-37245400D01*
X154250697Y-37245400D01*
X154183658Y-37225715D01*
X154137903Y-37172911D01*
X154127959Y-37103753D01*
X154156984Y-37040197D01*
X154163016Y-37033719D01*
X154986339Y-36210396D01*
X157498535Y-33698198D01*
X157559856Y-33664715D01*
X157572311Y-33662663D01*
X157659255Y-33652868D01*
X157829522Y-33593289D01*
X157982262Y-33497316D01*
X158109816Y-33369762D01*
X158205789Y-33217022D01*
X158265368Y-33046755D01*
X158270477Y-33001413D01*
X158285565Y-32867503D01*
X158285565Y-32867496D01*
X158265369Y-32688250D01*
X158265368Y-32688245D01*
X158205788Y-32517975D01*
X158196361Y-32502973D01*
X158177360Y-32435737D01*
X158197727Y-32368901D01*
X158250994Y-32323687D01*
X158301354Y-32313000D01*
X158675588Y-32313000D01*
X158742627Y-32332685D01*
X158752903Y-32340055D01*
X158755736Y-32342314D01*
X158755738Y-32342316D01*
X158832432Y-32390506D01*
X158904416Y-32435737D01*
X158908478Y-32438289D01*
X159015647Y-32475789D01*
X159078745Y-32497868D01*
X159078750Y-32497869D01*
X159257996Y-32518065D01*
X159258000Y-32518065D01*
X159258004Y-32518065D01*
X159437249Y-32497869D01*
X159437252Y-32497868D01*
X159437255Y-32497868D01*
X159607522Y-32438289D01*
X159760262Y-32342316D01*
X159887816Y-32214762D01*
X159983789Y-32062022D01*
X160043368Y-31891755D01*
X160044971Y-31877527D01*
X160063565Y-31712503D01*
X160063565Y-31712496D01*
X160043369Y-31533250D01*
X160043368Y-31533245D01*
X160010740Y-31439999D01*
X159983789Y-31362978D01*
X159887816Y-31210238D01*
X159760262Y-31082684D01*
X159705260Y-31048124D01*
X159607523Y-30986711D01*
X159437254Y-30927131D01*
X159437249Y-30927130D01*
X159258004Y-30906935D01*
X159257996Y-30906935D01*
X159078750Y-30927130D01*
X159078745Y-30927131D01*
X158908476Y-30986711D01*
X158755736Y-31082685D01*
X158752903Y-31084945D01*
X158750724Y-31085834D01*
X158749842Y-31086389D01*
X158749744Y-31086234D01*
X158688217Y-31111355D01*
X158675588Y-31112000D01*
X154183869Y-31112000D01*
X154183853Y-31111999D01*
X154176257Y-31111999D01*
X154018143Y-31111999D01*
X153910787Y-31140765D01*
X153865410Y-31152924D01*
X153865409Y-31152925D01*
X153830266Y-31173216D01*
X153830264Y-31173217D01*
X153728490Y-31231975D01*
X153728482Y-31231981D01*
X153616678Y-31343786D01*
X149708965Y-35251498D01*
X149647642Y-35284983D01*
X149635168Y-35287037D01*
X149548250Y-35296830D01*
X149377978Y-35356410D01*
X149225237Y-35452384D01*
X149097684Y-35579937D01*
X149001711Y-35732676D01*
X148942131Y-35902945D01*
X148942130Y-35902950D01*
X148921935Y-36082196D01*
X148921935Y-36082203D01*
X148942130Y-36261449D01*
X148942131Y-36261454D01*
X149001712Y-36431726D01*
X149004417Y-36436031D01*
X149023416Y-36503268D01*
X149003047Y-36570102D01*
X148949778Y-36615315D01*
X148899422Y-36626000D01*
X148875412Y-36626000D01*
X148808373Y-36606315D01*
X148798097Y-36598945D01*
X148795263Y-36596685D01*
X148795262Y-36596684D01*
X148724471Y-36552203D01*
X148642523Y-36500711D01*
X148472254Y-36441131D01*
X148472249Y-36441130D01*
X148293004Y-36420935D01*
X148292996Y-36420935D01*
X148113750Y-36441130D01*
X148113745Y-36441131D01*
X147943476Y-36500711D01*
X147790737Y-36596684D01*
X147663184Y-36724237D01*
X147567211Y-36876976D01*
X147507631Y-37047245D01*
X147507630Y-37047250D01*
X147497712Y-37135283D01*
X147470646Y-37199697D01*
X147413051Y-37239253D01*
X147374492Y-37245400D01*
X128705697Y-37245400D01*
X128638658Y-37225715D01*
X128618016Y-37209081D01*
X126353290Y-34944355D01*
X126353288Y-34944352D01*
X126234417Y-34825481D01*
X126234416Y-34825480D01*
X126146344Y-34774632D01*
X126146343Y-34774631D01*
X126097490Y-34746425D01*
X126097483Y-34746422D01*
X125976994Y-34714136D01*
X125917334Y-34677771D01*
X125896708Y-34646768D01*
X125888038Y-34628176D01*
X125888034Y-34628169D01*
X125752494Y-34434597D01*
X125585402Y-34267506D01*
X125585396Y-34267501D01*
X125399842Y-34137575D01*
X125356217Y-34082998D01*
X125349023Y-34013500D01*
X125380546Y-33951145D01*
X125399842Y-33934425D01*
X125546298Y-33831875D01*
X125585401Y-33804495D01*
X125752495Y-33637401D01*
X125888035Y-33443830D01*
X125987903Y-33229663D01*
X126027048Y-33083571D01*
X130100000Y-33083571D01*
X130136506Y-33267097D01*
X130136508Y-33267105D01*
X130208119Y-33439991D01*
X130208124Y-33440000D01*
X130312086Y-33595589D01*
X130312089Y-33595593D01*
X130444406Y-33727910D01*
X130444410Y-33727913D01*
X130599999Y-33831875D01*
X130600012Y-33831882D01*
X130772889Y-33903489D01*
X130772896Y-33903491D01*
X130800000Y-33908882D01*
X130800000Y-33156988D01*
X130809940Y-33174205D01*
X130865795Y-33230060D01*
X130934204Y-33269556D01*
X131010504Y-33290000D01*
X131089496Y-33290000D01*
X131165796Y-33269556D01*
X131234205Y-33230060D01*
X131290060Y-33174205D01*
X131300000Y-33156988D01*
X131300000Y-33908881D01*
X131327103Y-33903491D01*
X131327110Y-33903489D01*
X131499987Y-33831882D01*
X131500000Y-33831875D01*
X131655589Y-33727913D01*
X131655593Y-33727910D01*
X131787910Y-33595593D01*
X131787913Y-33595589D01*
X131891875Y-33440000D01*
X131891880Y-33439991D01*
X131963491Y-33267105D01*
X131963493Y-33267097D01*
X131999999Y-33083571D01*
X132000000Y-33083569D01*
X132000000Y-32690000D01*
X131350000Y-32690000D01*
X131350000Y-32190000D01*
X131916311Y-32190000D01*
X131983350Y-32209685D01*
X132023697Y-32251999D01*
X132044491Y-32288015D01*
X132146985Y-32390509D01*
X132146986Y-32390510D01*
X132146988Y-32390511D01*
X132272511Y-32462982D01*
X132272512Y-32462982D01*
X132272515Y-32462984D01*
X132412525Y-32500500D01*
X132412528Y-32500500D01*
X132557472Y-32500500D01*
X132557475Y-32500500D01*
X132697485Y-32462984D01*
X132823015Y-32390509D01*
X132925509Y-32288015D01*
X132997984Y-32162485D01*
X133035500Y-32022475D01*
X133035500Y-31877525D01*
X133001330Y-31750003D01*
X136354435Y-31750003D01*
X136374630Y-31929249D01*
X136374631Y-31929254D01*
X136434211Y-32099523D01*
X136473773Y-32162485D01*
X136530184Y-32252262D01*
X136657738Y-32379816D01*
X136810478Y-32475789D01*
X136980745Y-32535368D01*
X137051621Y-32543353D01*
X137116033Y-32570418D01*
X137125417Y-32578891D01*
X139571045Y-35024520D01*
X139571047Y-35024521D01*
X139571051Y-35024524D01*
X139707970Y-35103573D01*
X139707977Y-35103577D01*
X139860704Y-35144501D01*
X139860706Y-35144501D01*
X140026415Y-35144501D01*
X140026431Y-35144500D01*
X141431903Y-35144500D01*
X141498942Y-35164185D01*
X141519583Y-35180818D01*
X141667508Y-35328744D01*
X141700993Y-35390066D01*
X141703047Y-35430307D01*
X141688435Y-35559996D01*
X141688435Y-35560003D01*
X141708630Y-35739249D01*
X141708631Y-35739254D01*
X141768211Y-35909523D01*
X141814902Y-35983830D01*
X141864184Y-36062262D01*
X141991738Y-36189816D01*
X142144478Y-36285789D01*
X142183165Y-36299326D01*
X142314745Y-36345368D01*
X142314750Y-36345369D01*
X142493996Y-36365565D01*
X142494000Y-36365565D01*
X142494004Y-36365565D01*
X142673249Y-36345369D01*
X142673252Y-36345368D01*
X142673255Y-36345368D01*
X142843522Y-36285789D01*
X142996262Y-36189816D01*
X143123816Y-36062262D01*
X143219789Y-35909522D01*
X143279368Y-35739255D01*
X143280109Y-35732678D01*
X143299565Y-35560003D01*
X143299565Y-35559996D01*
X143279369Y-35380750D01*
X143279368Y-35380745D01*
X143261172Y-35328743D01*
X143219789Y-35210478D01*
X143123816Y-35057738D01*
X142996262Y-34930184D01*
X142996260Y-34930182D01*
X142930485Y-34888853D01*
X142908777Y-34871541D01*
X142219590Y-34182355D01*
X142219588Y-34182352D01*
X142100717Y-34063481D01*
X142100716Y-34063480D01*
X142013904Y-34013360D01*
X142013904Y-34013359D01*
X142013900Y-34013358D01*
X141963785Y-33984423D01*
X141811057Y-33943499D01*
X141652943Y-33943499D01*
X141645347Y-33943499D01*
X141645331Y-33943500D01*
X140389366Y-33943500D01*
X140322327Y-33923815D01*
X140276572Y-33871011D01*
X140266628Y-33801853D01*
X140295653Y-33738297D01*
X140301685Y-33731819D01*
X140437910Y-33595593D01*
X140437913Y-33595589D01*
X140541875Y-33440000D01*
X140541880Y-33439991D01*
X140613491Y-33267105D01*
X140613493Y-33267097D01*
X140649999Y-33083571D01*
X140650000Y-33083569D01*
X140650000Y-32690000D01*
X140000000Y-32690000D01*
X140000000Y-32190000D01*
X140650000Y-32190000D01*
X140650000Y-31796430D01*
X140649999Y-31796428D01*
X140613493Y-31612902D01*
X140613491Y-31612894D01*
X140541880Y-31440008D01*
X140541875Y-31439999D01*
X140437913Y-31284410D01*
X140437910Y-31284406D01*
X140305593Y-31152089D01*
X140305589Y-31152086D01*
X140150000Y-31048124D01*
X140149991Y-31048119D01*
X139977103Y-30976507D01*
X139977100Y-30976506D01*
X139950000Y-30971115D01*
X139950000Y-31723011D01*
X139940060Y-31705795D01*
X139884205Y-31649940D01*
X139815796Y-31610444D01*
X139739496Y-31590000D01*
X139660504Y-31590000D01*
X139584204Y-31610444D01*
X139515795Y-31649940D01*
X139459940Y-31705795D01*
X139450000Y-31723011D01*
X139450000Y-30971116D01*
X139449999Y-30971115D01*
X139422899Y-30976506D01*
X139422896Y-30976507D01*
X139250008Y-31048119D01*
X139249999Y-31048124D01*
X139094410Y-31152086D01*
X139094406Y-31152089D01*
X138962089Y-31284406D01*
X138962086Y-31284410D01*
X138858124Y-31439999D01*
X138858119Y-31440009D01*
X138834068Y-31498074D01*
X138790227Y-31552477D01*
X138723932Y-31574542D01*
X138656233Y-31557263D01*
X138631826Y-31538302D01*
X138603017Y-31509493D01*
X138603011Y-31509488D01*
X138477488Y-31437017D01*
X138477489Y-31437017D01*
X138466006Y-31433940D01*
X138337475Y-31399500D01*
X138192525Y-31399500D01*
X138063993Y-31433940D01*
X138052511Y-31437017D01*
X138050456Y-31438204D01*
X138048502Y-31438677D01*
X138045001Y-31440128D01*
X138044774Y-31439581D01*
X137982555Y-31454672D01*
X137916529Y-31431816D01*
X137883469Y-31396786D01*
X137789816Y-31247738D01*
X137662262Y-31120184D01*
X137648211Y-31111355D01*
X137509523Y-31024211D01*
X137339254Y-30964631D01*
X137339249Y-30964630D01*
X137160004Y-30944435D01*
X137159996Y-30944435D01*
X136980750Y-30964630D01*
X136980745Y-30964631D01*
X136810476Y-31024211D01*
X136657737Y-31120184D01*
X136530184Y-31247737D01*
X136434211Y-31400476D01*
X136374631Y-31570745D01*
X136374630Y-31570750D01*
X136354435Y-31749996D01*
X136354435Y-31750003D01*
X133001330Y-31750003D01*
X132997984Y-31737515D01*
X132992206Y-31727508D01*
X132925511Y-31611988D01*
X132925506Y-31611982D01*
X132823017Y-31509493D01*
X132823011Y-31509488D01*
X132697488Y-31437017D01*
X132697489Y-31437017D01*
X132686006Y-31433940D01*
X132557475Y-31399500D01*
X132412525Y-31399500D01*
X132283993Y-31433940D01*
X132272511Y-31437017D01*
X132146988Y-31509488D01*
X132118172Y-31538304D01*
X132056848Y-31571788D01*
X131987157Y-31566802D01*
X131931224Y-31524930D01*
X131915930Y-31498073D01*
X131891877Y-31440003D01*
X131891875Y-31439999D01*
X131787913Y-31284410D01*
X131787910Y-31284406D01*
X131655593Y-31152089D01*
X131655589Y-31152086D01*
X131500000Y-31048124D01*
X131499991Y-31048119D01*
X131327103Y-30976507D01*
X131327100Y-30976506D01*
X131300000Y-30971115D01*
X131300000Y-31723011D01*
X131290060Y-31705795D01*
X131234205Y-31649940D01*
X131165796Y-31610444D01*
X131089496Y-31590000D01*
X131010504Y-31590000D01*
X130934204Y-31610444D01*
X130865795Y-31649940D01*
X130809940Y-31705795D01*
X130800000Y-31723011D01*
X130800000Y-30971116D01*
X130799999Y-30971115D01*
X130772899Y-30976506D01*
X130772896Y-30976507D01*
X130600008Y-31048119D01*
X130599999Y-31048124D01*
X130444410Y-31152086D01*
X130444406Y-31152089D01*
X130312089Y-31284406D01*
X130312086Y-31284410D01*
X130208124Y-31439999D01*
X130208119Y-31440008D01*
X130136508Y-31612894D01*
X130136506Y-31612902D01*
X130100000Y-31796428D01*
X130100000Y-32190000D01*
X130750000Y-32190000D01*
X130750000Y-32690000D01*
X130100000Y-32690000D01*
X130100000Y-33083571D01*
X126027048Y-33083571D01*
X126049063Y-33001408D01*
X126069659Y-32766000D01*
X126049063Y-32530592D01*
X125993624Y-32323687D01*
X125987905Y-32302344D01*
X125987904Y-32302343D01*
X125987903Y-32302337D01*
X125888035Y-32088171D01*
X125869726Y-32062022D01*
X125752494Y-31894597D01*
X125585402Y-31727506D01*
X125585401Y-31727505D01*
X125399405Y-31597269D01*
X125355781Y-31542692D01*
X125348588Y-31473193D01*
X125380110Y-31410839D01*
X125399405Y-31394119D01*
X125585082Y-31264105D01*
X125752105Y-31097082D01*
X125887600Y-30903578D01*
X125987429Y-30689492D01*
X125987432Y-30689486D01*
X126044636Y-30476000D01*
X125147012Y-30476000D01*
X125179925Y-30418993D01*
X125214000Y-30291826D01*
X125214000Y-30160174D01*
X125196078Y-30093288D01*
X145469500Y-30093288D01*
X145501161Y-30333785D01*
X145563947Y-30568104D01*
X145614228Y-30689492D01*
X145656776Y-30792212D01*
X145778064Y-31002289D01*
X145778066Y-31002292D01*
X145778067Y-31002293D01*
X145925733Y-31194736D01*
X145925739Y-31194743D01*
X146097256Y-31366260D01*
X146097263Y-31366266D01*
X146140575Y-31399500D01*
X146289711Y-31513936D01*
X146499788Y-31635224D01*
X146695269Y-31716195D01*
X146722574Y-31727505D01*
X146723900Y-31728054D01*
X146958211Y-31790838D01*
X147138586Y-31814584D01*
X147198711Y-31822500D01*
X147198712Y-31822500D01*
X147441289Y-31822500D01*
X147489388Y-31816167D01*
X147681789Y-31790838D01*
X147916100Y-31728054D01*
X148140212Y-31635224D01*
X148350289Y-31513936D01*
X148542738Y-31366265D01*
X148714265Y-31194738D01*
X148861936Y-31002289D01*
X148983224Y-30792212D01*
X149076054Y-30568100D01*
X149138838Y-30333789D01*
X149170500Y-30093288D01*
X149170500Y-29850712D01*
X149138838Y-29610211D01*
X149076054Y-29375900D01*
X148983224Y-29151788D01*
X148861936Y-28941711D01*
X148794790Y-28854205D01*
X148714266Y-28749263D01*
X148714260Y-28749256D01*
X148542743Y-28577739D01*
X148542736Y-28577733D01*
X148350293Y-28430067D01*
X148350292Y-28430066D01*
X148350289Y-28430064D01*
X148140212Y-28308776D01*
X148140205Y-28308773D01*
X147916104Y-28215947D01*
X147681785Y-28153161D01*
X147441289Y-28121500D01*
X147441288Y-28121500D01*
X147198712Y-28121500D01*
X147198711Y-28121500D01*
X146958214Y-28153161D01*
X146723895Y-28215947D01*
X146499794Y-28308773D01*
X146499785Y-28308777D01*
X146289706Y-28430067D01*
X146097263Y-28577733D01*
X146097256Y-28577739D01*
X145925739Y-28749256D01*
X145925733Y-28749263D01*
X145778067Y-28941706D01*
X145656777Y-29151785D01*
X145656773Y-29151794D01*
X145563947Y-29375895D01*
X145501161Y-29610214D01*
X145469500Y-29850711D01*
X145469500Y-30093288D01*
X125196078Y-30093288D01*
X125179925Y-30033007D01*
X125147012Y-29976000D01*
X126044636Y-29976000D01*
X126044635Y-29975999D01*
X125987432Y-29762513D01*
X125987429Y-29762507D01*
X125887600Y-29548422D01*
X125887599Y-29548420D01*
X125752113Y-29354926D01*
X125752108Y-29354920D01*
X125585082Y-29187894D01*
X125391578Y-29052399D01*
X125177492Y-28952570D01*
X125177486Y-28952567D01*
X124964000Y-28895364D01*
X124964000Y-29792988D01*
X124906993Y-29760075D01*
X124779826Y-29726000D01*
X124648174Y-29726000D01*
X124521007Y-29760075D01*
X124464000Y-29792988D01*
X124464000Y-28895364D01*
X124463999Y-28895364D01*
X124250513Y-28952567D01*
X124250507Y-28952570D01*
X124036422Y-29052399D01*
X124036420Y-29052400D01*
X123842926Y-29187886D01*
X123842920Y-29187891D01*
X123675891Y-29354920D01*
X123675886Y-29354926D01*
X123540400Y-29548420D01*
X123540399Y-29548422D01*
X123440570Y-29762507D01*
X123440567Y-29762513D01*
X123383364Y-29975999D01*
X123383364Y-29976000D01*
X124280988Y-29976000D01*
X124248075Y-30033007D01*
X124214000Y-30160174D01*
X124214000Y-30291826D01*
X124248075Y-30418993D01*
X124280988Y-30476000D01*
X123383364Y-30476000D01*
X123440567Y-30689486D01*
X123440570Y-30689492D01*
X123540399Y-30903578D01*
X123675894Y-31097082D01*
X123842917Y-31264105D01*
X124028595Y-31394119D01*
X124072219Y-31448696D01*
X124079412Y-31518195D01*
X124047890Y-31580549D01*
X124028595Y-31597269D01*
X123842594Y-31727508D01*
X123675505Y-31894597D01*
X123539965Y-32088169D01*
X123539964Y-32088171D01*
X123440098Y-32302335D01*
X123440094Y-32302344D01*
X123378938Y-32530586D01*
X123378936Y-32530596D01*
X123358341Y-32765999D01*
X123358341Y-32766000D01*
X123378936Y-33001403D01*
X123378938Y-33001413D01*
X123440094Y-33229655D01*
X123440096Y-33229659D01*
X123440097Y-33229663D01*
X123538175Y-33439991D01*
X123539965Y-33443830D01*
X123539967Y-33443834D01*
X123675501Y-33637395D01*
X123675506Y-33637402D01*
X123842597Y-33804493D01*
X123842603Y-33804498D01*
X124028158Y-33934425D01*
X124071783Y-33989002D01*
X124078977Y-34058500D01*
X124047454Y-34120855D01*
X124028158Y-34137575D01*
X123842597Y-34267505D01*
X123675505Y-34434597D01*
X123539965Y-34628169D01*
X123539964Y-34628171D01*
X123440098Y-34842335D01*
X123440094Y-34842344D01*
X123378938Y-35070586D01*
X123378936Y-35070596D01*
X123358341Y-35305999D01*
X123358341Y-35306000D01*
X122420443Y-35306000D01*
X122420437Y-28978105D01*
X122420700Y-28970031D01*
X122432724Y-28785796D01*
X122437360Y-28714753D01*
X122439459Y-28698747D01*
X122439628Y-28697895D01*
X122488363Y-28451773D01*
X122492516Y-28436199D01*
X122573100Y-28197663D01*
X122579250Y-28182744D01*
X122593763Y-28153162D01*
X122690144Y-27956704D01*
X122698174Y-27942720D01*
X122837500Y-27733006D01*
X122847284Y-27720178D01*
X123012682Y-27530344D01*
X123024036Y-27518909D01*
X123212705Y-27352170D01*
X123225464Y-27342297D01*
X123434189Y-27201495D01*
X123448111Y-27193369D01*
X123673375Y-27080876D01*
X123688233Y-27074629D01*
X123926196Y-26992363D01*
X123941750Y-26988097D01*
X124188377Y-26937451D01*
X124204354Y-26935242D01*
X124458925Y-26916823D01*
X124467873Y-26916500D01*
X130360634Y-26916500D01*
X130427673Y-26936185D01*
G37*
%TD.AperFunction*%
%TD*%
M02*
