%TF.GenerationSoftware,KiCad,Pcbnew,8.0.0*%
%TF.CreationDate,2024-04-15T20:03:37+02:00*%
%TF.ProjectId,MuntsorteerderESP,4d756e74-736f-4727-9465-657264657245,rev?*%
%TF.SameCoordinates,Original*%
%TF.FileFunction,Legend,Bot*%
%TF.FilePolarity,Positive*%
%FSLAX46Y46*%
G04 Gerber Fmt 4.6, Leading zero omitted, Abs format (unit mm)*
G04 Created by KiCad (PCBNEW 8.0.0) date 2024-04-15 20:03:37*
%MOMM*%
%LPD*%
G01*
G04 APERTURE LIST*
%ADD10C,0.160000*%
G04 APERTURE END LIST*
D10*
X172386213Y-94381775D02*
X172843356Y-94381775D01*
X172614784Y-94381775D02*
X172614784Y-93581775D01*
X172614784Y-93581775D02*
X172690975Y-93696060D01*
X172690975Y-93696060D02*
X172767165Y-93772251D01*
X172767165Y-93772251D02*
X172843356Y-93810346D01*
X171662403Y-93581775D02*
X172043355Y-93581775D01*
X172043355Y-93581775D02*
X172081451Y-93962727D01*
X172081451Y-93962727D02*
X172043355Y-93924632D01*
X172043355Y-93924632D02*
X171967165Y-93886537D01*
X171967165Y-93886537D02*
X171776689Y-93886537D01*
X171776689Y-93886537D02*
X171700498Y-93924632D01*
X171700498Y-93924632D02*
X171662403Y-93962727D01*
X171662403Y-93962727D02*
X171624308Y-94038918D01*
X171624308Y-94038918D02*
X171624308Y-94229394D01*
X171624308Y-94229394D02*
X171662403Y-94305584D01*
X171662403Y-94305584D02*
X171700498Y-94343680D01*
X171700498Y-94343680D02*
X171776689Y-94381775D01*
X171776689Y-94381775D02*
X171967165Y-94381775D01*
X171967165Y-94381775D02*
X172043355Y-94343680D01*
X172043355Y-94343680D02*
X172081451Y-94305584D01*
X170710022Y-93543680D02*
X171395736Y-94572251D01*
X170290974Y-93581775D02*
X170214784Y-93581775D01*
X170214784Y-93581775D02*
X170138593Y-93619870D01*
X170138593Y-93619870D02*
X170100498Y-93657965D01*
X170100498Y-93657965D02*
X170062403Y-93734156D01*
X170062403Y-93734156D02*
X170024308Y-93886537D01*
X170024308Y-93886537D02*
X170024308Y-94077013D01*
X170024308Y-94077013D02*
X170062403Y-94229394D01*
X170062403Y-94229394D02*
X170100498Y-94305584D01*
X170100498Y-94305584D02*
X170138593Y-94343680D01*
X170138593Y-94343680D02*
X170214784Y-94381775D01*
X170214784Y-94381775D02*
X170290974Y-94381775D01*
X170290974Y-94381775D02*
X170367165Y-94343680D01*
X170367165Y-94343680D02*
X170405260Y-94305584D01*
X170405260Y-94305584D02*
X170443355Y-94229394D01*
X170443355Y-94229394D02*
X170481451Y-94077013D01*
X170481451Y-94077013D02*
X170481451Y-93886537D01*
X170481451Y-93886537D02*
X170443355Y-93734156D01*
X170443355Y-93734156D02*
X170405260Y-93657965D01*
X170405260Y-93657965D02*
X170367165Y-93619870D01*
X170367165Y-93619870D02*
X170290974Y-93581775D01*
X169338593Y-93848441D02*
X169338593Y-94381775D01*
X169529069Y-93543680D02*
X169719546Y-94115108D01*
X169719546Y-94115108D02*
X169224307Y-94115108D01*
X168348117Y-93543680D02*
X169033831Y-94572251D01*
X168119546Y-93657965D02*
X168081450Y-93619870D01*
X168081450Y-93619870D02*
X168005260Y-93581775D01*
X168005260Y-93581775D02*
X167814784Y-93581775D01*
X167814784Y-93581775D02*
X167738593Y-93619870D01*
X167738593Y-93619870D02*
X167700498Y-93657965D01*
X167700498Y-93657965D02*
X167662403Y-93734156D01*
X167662403Y-93734156D02*
X167662403Y-93810346D01*
X167662403Y-93810346D02*
X167700498Y-93924632D01*
X167700498Y-93924632D02*
X168157641Y-94381775D01*
X168157641Y-94381775D02*
X167662403Y-94381775D01*
X167167164Y-93581775D02*
X167090974Y-93581775D01*
X167090974Y-93581775D02*
X167014783Y-93619870D01*
X167014783Y-93619870D02*
X166976688Y-93657965D01*
X166976688Y-93657965D02*
X166938593Y-93734156D01*
X166938593Y-93734156D02*
X166900498Y-93886537D01*
X166900498Y-93886537D02*
X166900498Y-94077013D01*
X166900498Y-94077013D02*
X166938593Y-94229394D01*
X166938593Y-94229394D02*
X166976688Y-94305584D01*
X166976688Y-94305584D02*
X167014783Y-94343680D01*
X167014783Y-94343680D02*
X167090974Y-94381775D01*
X167090974Y-94381775D02*
X167167164Y-94381775D01*
X167167164Y-94381775D02*
X167243355Y-94343680D01*
X167243355Y-94343680D02*
X167281450Y-94305584D01*
X167281450Y-94305584D02*
X167319545Y-94229394D01*
X167319545Y-94229394D02*
X167357641Y-94077013D01*
X167357641Y-94077013D02*
X167357641Y-93886537D01*
X167357641Y-93886537D02*
X167319545Y-93734156D01*
X167319545Y-93734156D02*
X167281450Y-93657965D01*
X167281450Y-93657965D02*
X167243355Y-93619870D01*
X167243355Y-93619870D02*
X167167164Y-93581775D01*
X166595736Y-93657965D02*
X166557640Y-93619870D01*
X166557640Y-93619870D02*
X166481450Y-93581775D01*
X166481450Y-93581775D02*
X166290974Y-93581775D01*
X166290974Y-93581775D02*
X166214783Y-93619870D01*
X166214783Y-93619870D02*
X166176688Y-93657965D01*
X166176688Y-93657965D02*
X166138593Y-93734156D01*
X166138593Y-93734156D02*
X166138593Y-93810346D01*
X166138593Y-93810346D02*
X166176688Y-93924632D01*
X166176688Y-93924632D02*
X166633831Y-94381775D01*
X166633831Y-94381775D02*
X166138593Y-94381775D01*
X165452878Y-93848441D02*
X165452878Y-94381775D01*
X165643354Y-93543680D02*
X165833831Y-94115108D01*
X165833831Y-94115108D02*
X165338592Y-94115108D01*
X164424306Y-94381775D02*
X164424306Y-93581775D01*
X164424306Y-93581775D02*
X164233830Y-93581775D01*
X164233830Y-93581775D02*
X164119544Y-93619870D01*
X164119544Y-93619870D02*
X164043354Y-93696060D01*
X164043354Y-93696060D02*
X164005259Y-93772251D01*
X164005259Y-93772251D02*
X163967163Y-93924632D01*
X163967163Y-93924632D02*
X163967163Y-94038918D01*
X163967163Y-94038918D02*
X164005259Y-94191299D01*
X164005259Y-94191299D02*
X164043354Y-94267489D01*
X164043354Y-94267489D02*
X164119544Y-94343680D01*
X164119544Y-94343680D02*
X164233830Y-94381775D01*
X164233830Y-94381775D02*
X164424306Y-94381775D01*
X163319544Y-94343680D02*
X163395735Y-94381775D01*
X163395735Y-94381775D02*
X163548116Y-94381775D01*
X163548116Y-94381775D02*
X163624306Y-94343680D01*
X163624306Y-94343680D02*
X163662402Y-94267489D01*
X163662402Y-94267489D02*
X163662402Y-93962727D01*
X163662402Y-93962727D02*
X163624306Y-93886537D01*
X163624306Y-93886537D02*
X163548116Y-93848441D01*
X163548116Y-93848441D02*
X163395735Y-93848441D01*
X163395735Y-93848441D02*
X163319544Y-93886537D01*
X163319544Y-93886537D02*
X163281449Y-93962727D01*
X163281449Y-93962727D02*
X163281449Y-94038918D01*
X163281449Y-94038918D02*
X163662402Y-94115108D01*
X162976688Y-94343680D02*
X162900497Y-94381775D01*
X162900497Y-94381775D02*
X162748116Y-94381775D01*
X162748116Y-94381775D02*
X162671926Y-94343680D01*
X162671926Y-94343680D02*
X162633830Y-94267489D01*
X162633830Y-94267489D02*
X162633830Y-94229394D01*
X162633830Y-94229394D02*
X162671926Y-94153203D01*
X162671926Y-94153203D02*
X162748116Y-94115108D01*
X162748116Y-94115108D02*
X162862402Y-94115108D01*
X162862402Y-94115108D02*
X162938592Y-94077013D01*
X162938592Y-94077013D02*
X162976688Y-94000822D01*
X162976688Y-94000822D02*
X162976688Y-93962727D01*
X162976688Y-93962727D02*
X162938592Y-93886537D01*
X162938592Y-93886537D02*
X162862402Y-93848441D01*
X162862402Y-93848441D02*
X162748116Y-93848441D01*
X162748116Y-93848441D02*
X162671926Y-93886537D01*
X162290973Y-94381775D02*
X162290973Y-93848441D01*
X162290973Y-93581775D02*
X162329069Y-93619870D01*
X162329069Y-93619870D02*
X162290973Y-93657965D01*
X162290973Y-93657965D02*
X162252878Y-93619870D01*
X162252878Y-93619870D02*
X162290973Y-93581775D01*
X162290973Y-93581775D02*
X162290973Y-93657965D01*
X161567164Y-93848441D02*
X161567164Y-94496060D01*
X161567164Y-94496060D02*
X161605259Y-94572251D01*
X161605259Y-94572251D02*
X161643355Y-94610346D01*
X161643355Y-94610346D02*
X161719545Y-94648441D01*
X161719545Y-94648441D02*
X161833831Y-94648441D01*
X161833831Y-94648441D02*
X161910021Y-94610346D01*
X161567164Y-94343680D02*
X161643355Y-94381775D01*
X161643355Y-94381775D02*
X161795736Y-94381775D01*
X161795736Y-94381775D02*
X161871926Y-94343680D01*
X161871926Y-94343680D02*
X161910021Y-94305584D01*
X161910021Y-94305584D02*
X161948117Y-94229394D01*
X161948117Y-94229394D02*
X161948117Y-94000822D01*
X161948117Y-94000822D02*
X161910021Y-93924632D01*
X161910021Y-93924632D02*
X161871926Y-93886537D01*
X161871926Y-93886537D02*
X161795736Y-93848441D01*
X161795736Y-93848441D02*
X161643355Y-93848441D01*
X161643355Y-93848441D02*
X161567164Y-93886537D01*
X161186211Y-93848441D02*
X161186211Y-94381775D01*
X161186211Y-93924632D02*
X161148116Y-93886537D01*
X161148116Y-93886537D02*
X161071926Y-93848441D01*
X161071926Y-93848441D02*
X160957640Y-93848441D01*
X160957640Y-93848441D02*
X160881449Y-93886537D01*
X160881449Y-93886537D02*
X160843354Y-93962727D01*
X160843354Y-93962727D02*
X160843354Y-94381775D01*
X160157639Y-94343680D02*
X160233830Y-94381775D01*
X160233830Y-94381775D02*
X160386211Y-94381775D01*
X160386211Y-94381775D02*
X160462401Y-94343680D01*
X160462401Y-94343680D02*
X160500497Y-94267489D01*
X160500497Y-94267489D02*
X160500497Y-93962727D01*
X160500497Y-93962727D02*
X160462401Y-93886537D01*
X160462401Y-93886537D02*
X160386211Y-93848441D01*
X160386211Y-93848441D02*
X160233830Y-93848441D01*
X160233830Y-93848441D02*
X160157639Y-93886537D01*
X160157639Y-93886537D02*
X160119544Y-93962727D01*
X160119544Y-93962727D02*
X160119544Y-94038918D01*
X160119544Y-94038918D02*
X160500497Y-94115108D01*
X159433830Y-94381775D02*
X159433830Y-93581775D01*
X159433830Y-94343680D02*
X159510021Y-94381775D01*
X159510021Y-94381775D02*
X159662402Y-94381775D01*
X159662402Y-94381775D02*
X159738592Y-94343680D01*
X159738592Y-94343680D02*
X159776687Y-94305584D01*
X159776687Y-94305584D02*
X159814783Y-94229394D01*
X159814783Y-94229394D02*
X159814783Y-94000822D01*
X159814783Y-94000822D02*
X159776687Y-93924632D01*
X159776687Y-93924632D02*
X159738592Y-93886537D01*
X159738592Y-93886537D02*
X159662402Y-93848441D01*
X159662402Y-93848441D02*
X159510021Y-93848441D01*
X159510021Y-93848441D02*
X159433830Y-93886537D01*
X158443353Y-94381775D02*
X158443353Y-93581775D01*
X158443353Y-93886537D02*
X158367163Y-93848441D01*
X158367163Y-93848441D02*
X158214782Y-93848441D01*
X158214782Y-93848441D02*
X158138591Y-93886537D01*
X158138591Y-93886537D02*
X158100496Y-93924632D01*
X158100496Y-93924632D02*
X158062401Y-94000822D01*
X158062401Y-94000822D02*
X158062401Y-94229394D01*
X158062401Y-94229394D02*
X158100496Y-94305584D01*
X158100496Y-94305584D02*
X158138591Y-94343680D01*
X158138591Y-94343680D02*
X158214782Y-94381775D01*
X158214782Y-94381775D02*
X158367163Y-94381775D01*
X158367163Y-94381775D02*
X158443353Y-94343680D01*
X157795734Y-93848441D02*
X157605258Y-94381775D01*
X157414781Y-93848441D02*
X157605258Y-94381775D01*
X157605258Y-94381775D02*
X157681448Y-94572251D01*
X157681448Y-94572251D02*
X157719543Y-94610346D01*
X157719543Y-94610346D02*
X157795734Y-94648441D01*
X156614781Y-93581775D02*
X156157638Y-93581775D01*
X156386210Y-94381775D02*
X156386210Y-93581775D01*
X155890971Y-94381775D02*
X155890971Y-93848441D01*
X155890971Y-93581775D02*
X155929067Y-93619870D01*
X155929067Y-93619870D02*
X155890971Y-93657965D01*
X155890971Y-93657965D02*
X155852876Y-93619870D01*
X155852876Y-93619870D02*
X155890971Y-93581775D01*
X155890971Y-93581775D02*
X155890971Y-93657965D01*
X155205257Y-94343680D02*
X155281448Y-94381775D01*
X155281448Y-94381775D02*
X155433829Y-94381775D01*
X155433829Y-94381775D02*
X155510019Y-94343680D01*
X155510019Y-94343680D02*
X155548115Y-94267489D01*
X155548115Y-94267489D02*
X155548115Y-93962727D01*
X155548115Y-93962727D02*
X155510019Y-93886537D01*
X155510019Y-93886537D02*
X155433829Y-93848441D01*
X155433829Y-93848441D02*
X155281448Y-93848441D01*
X155281448Y-93848441D02*
X155205257Y-93886537D01*
X155205257Y-93886537D02*
X155167162Y-93962727D01*
X155167162Y-93962727D02*
X155167162Y-94038918D01*
X155167162Y-94038918D02*
X155548115Y-94115108D01*
X154824305Y-94381775D02*
X154824305Y-93581775D01*
X154824305Y-93886537D02*
X154748115Y-93848441D01*
X154748115Y-93848441D02*
X154595734Y-93848441D01*
X154595734Y-93848441D02*
X154519543Y-93886537D01*
X154519543Y-93886537D02*
X154481448Y-93924632D01*
X154481448Y-93924632D02*
X154443353Y-94000822D01*
X154443353Y-94000822D02*
X154443353Y-94229394D01*
X154443353Y-94229394D02*
X154481448Y-94305584D01*
X154481448Y-94305584D02*
X154519543Y-94343680D01*
X154519543Y-94343680D02*
X154595734Y-94381775D01*
X154595734Y-94381775D02*
X154748115Y-94381775D01*
X154748115Y-94381775D02*
X154824305Y-94343680D01*
X153795733Y-94343680D02*
X153871924Y-94381775D01*
X153871924Y-94381775D02*
X154024305Y-94381775D01*
X154024305Y-94381775D02*
X154100495Y-94343680D01*
X154100495Y-94343680D02*
X154138591Y-94267489D01*
X154138591Y-94267489D02*
X154138591Y-93962727D01*
X154138591Y-93962727D02*
X154100495Y-93886537D01*
X154100495Y-93886537D02*
X154024305Y-93848441D01*
X154024305Y-93848441D02*
X153871924Y-93848441D01*
X153871924Y-93848441D02*
X153795733Y-93886537D01*
X153795733Y-93886537D02*
X153757638Y-93962727D01*
X153757638Y-93962727D02*
X153757638Y-94038918D01*
X153757638Y-94038918D02*
X154138591Y-94115108D01*
X152805257Y-94381775D02*
X152805257Y-93581775D01*
X152805257Y-93581775D02*
X152614781Y-93581775D01*
X152614781Y-93581775D02*
X152500495Y-93619870D01*
X152500495Y-93619870D02*
X152424305Y-93696060D01*
X152424305Y-93696060D02*
X152386210Y-93772251D01*
X152386210Y-93772251D02*
X152348114Y-93924632D01*
X152348114Y-93924632D02*
X152348114Y-94038918D01*
X152348114Y-94038918D02*
X152386210Y-94191299D01*
X152386210Y-94191299D02*
X152424305Y-94267489D01*
X152424305Y-94267489D02*
X152500495Y-94343680D01*
X152500495Y-94343680D02*
X152614781Y-94381775D01*
X152614781Y-94381775D02*
X152805257Y-94381775D01*
X151700495Y-94343680D02*
X151776686Y-94381775D01*
X151776686Y-94381775D02*
X151929067Y-94381775D01*
X151929067Y-94381775D02*
X152005257Y-94343680D01*
X152005257Y-94343680D02*
X152043353Y-94267489D01*
X152043353Y-94267489D02*
X152043353Y-93962727D01*
X152043353Y-93962727D02*
X152005257Y-93886537D01*
X152005257Y-93886537D02*
X151929067Y-93848441D01*
X151929067Y-93848441D02*
X151776686Y-93848441D01*
X151776686Y-93848441D02*
X151700495Y-93886537D01*
X151700495Y-93886537D02*
X151662400Y-93962727D01*
X151662400Y-93962727D02*
X151662400Y-94038918D01*
X151662400Y-94038918D02*
X152043353Y-94115108D01*
X150976686Y-94343680D02*
X151052877Y-94381775D01*
X151052877Y-94381775D02*
X151205258Y-94381775D01*
X151205258Y-94381775D02*
X151281448Y-94343680D01*
X151281448Y-94343680D02*
X151319543Y-94305584D01*
X151319543Y-94305584D02*
X151357639Y-94229394D01*
X151357639Y-94229394D02*
X151357639Y-94000822D01*
X151357639Y-94000822D02*
X151319543Y-93924632D01*
X151319543Y-93924632D02*
X151281448Y-93886537D01*
X151281448Y-93886537D02*
X151205258Y-93848441D01*
X151205258Y-93848441D02*
X151052877Y-93848441D01*
X151052877Y-93848441D02*
X150976686Y-93886537D01*
X150519544Y-94381775D02*
X150595734Y-94343680D01*
X150595734Y-94343680D02*
X150633829Y-94267489D01*
X150633829Y-94267489D02*
X150633829Y-93581775D01*
X149910019Y-94343680D02*
X149986210Y-94381775D01*
X149986210Y-94381775D02*
X150138591Y-94381775D01*
X150138591Y-94381775D02*
X150214781Y-94343680D01*
X150214781Y-94343680D02*
X150252877Y-94267489D01*
X150252877Y-94267489D02*
X150252877Y-93962727D01*
X150252877Y-93962727D02*
X150214781Y-93886537D01*
X150214781Y-93886537D02*
X150138591Y-93848441D01*
X150138591Y-93848441D02*
X149986210Y-93848441D01*
X149986210Y-93848441D02*
X149910019Y-93886537D01*
X149910019Y-93886537D02*
X149871924Y-93962727D01*
X149871924Y-93962727D02*
X149871924Y-94038918D01*
X149871924Y-94038918D02*
X150252877Y-94115108D01*
X149529067Y-94381775D02*
X149529067Y-93848441D01*
X149529067Y-94000822D02*
X149490972Y-93924632D01*
X149490972Y-93924632D02*
X149452877Y-93886537D01*
X149452877Y-93886537D02*
X149376686Y-93848441D01*
X149376686Y-93848441D02*
X149300496Y-93848441D01*
X148690972Y-94343680D02*
X148767163Y-94381775D01*
X148767163Y-94381775D02*
X148919544Y-94381775D01*
X148919544Y-94381775D02*
X148995734Y-94343680D01*
X148995734Y-94343680D02*
X149033829Y-94305584D01*
X149033829Y-94305584D02*
X149071925Y-94229394D01*
X149071925Y-94229394D02*
X149071925Y-94000822D01*
X149071925Y-94000822D02*
X149033829Y-93924632D01*
X149033829Y-93924632D02*
X148995734Y-93886537D01*
X148995734Y-93886537D02*
X148919544Y-93848441D01*
X148919544Y-93848441D02*
X148767163Y-93848441D01*
X148767163Y-93848441D02*
X148690972Y-93886537D01*
X148005258Y-93848441D02*
X148005258Y-94648441D01*
X148005258Y-94343680D02*
X148081449Y-94381775D01*
X148081449Y-94381775D02*
X148233830Y-94381775D01*
X148233830Y-94381775D02*
X148310020Y-94343680D01*
X148310020Y-94343680D02*
X148348115Y-94305584D01*
X148348115Y-94305584D02*
X148386211Y-94229394D01*
X148386211Y-94229394D02*
X148386211Y-94000822D01*
X148386211Y-94000822D02*
X148348115Y-93924632D01*
X148348115Y-93924632D02*
X148310020Y-93886537D01*
X148310020Y-93886537D02*
X148233830Y-93848441D01*
X148233830Y-93848441D02*
X148081449Y-93848441D01*
X148081449Y-93848441D02*
X148005258Y-93886537D01*
X173948260Y-29230775D02*
X173948260Y-28430775D01*
X173605403Y-29230775D02*
X173605403Y-28811727D01*
X173605403Y-28811727D02*
X173643498Y-28735537D01*
X173643498Y-28735537D02*
X173719689Y-28697441D01*
X173719689Y-28697441D02*
X173833975Y-28697441D01*
X173833975Y-28697441D02*
X173910165Y-28735537D01*
X173910165Y-28735537D02*
X173948260Y-28773632D01*
X173338736Y-28697441D02*
X173033974Y-28697441D01*
X173224450Y-28430775D02*
X173224450Y-29116489D01*
X173224450Y-29116489D02*
X173186355Y-29192680D01*
X173186355Y-29192680D02*
X173110165Y-29230775D01*
X173110165Y-29230775D02*
X173033974Y-29230775D01*
X172881593Y-28697441D02*
X172576831Y-28697441D01*
X172767307Y-28430775D02*
X172767307Y-29116489D01*
X172767307Y-29116489D02*
X172729212Y-29192680D01*
X172729212Y-29192680D02*
X172653022Y-29230775D01*
X172653022Y-29230775D02*
X172576831Y-29230775D01*
X172310164Y-28697441D02*
X172310164Y-29497441D01*
X172310164Y-28735537D02*
X172233974Y-28697441D01*
X172233974Y-28697441D02*
X172081593Y-28697441D01*
X172081593Y-28697441D02*
X172005402Y-28735537D01*
X172005402Y-28735537D02*
X171967307Y-28773632D01*
X171967307Y-28773632D02*
X171929212Y-28849822D01*
X171929212Y-28849822D02*
X171929212Y-29078394D01*
X171929212Y-29078394D02*
X171967307Y-29154584D01*
X171967307Y-29154584D02*
X172005402Y-29192680D01*
X172005402Y-29192680D02*
X172081593Y-29230775D01*
X172081593Y-29230775D02*
X172233974Y-29230775D01*
X172233974Y-29230775D02*
X172310164Y-29192680D01*
X171624450Y-29192680D02*
X171548259Y-29230775D01*
X171548259Y-29230775D02*
X171395878Y-29230775D01*
X171395878Y-29230775D02*
X171319688Y-29192680D01*
X171319688Y-29192680D02*
X171281592Y-29116489D01*
X171281592Y-29116489D02*
X171281592Y-29078394D01*
X171281592Y-29078394D02*
X171319688Y-29002203D01*
X171319688Y-29002203D02*
X171395878Y-28964108D01*
X171395878Y-28964108D02*
X171510164Y-28964108D01*
X171510164Y-28964108D02*
X171586354Y-28926013D01*
X171586354Y-28926013D02*
X171624450Y-28849822D01*
X171624450Y-28849822D02*
X171624450Y-28811727D01*
X171624450Y-28811727D02*
X171586354Y-28735537D01*
X171586354Y-28735537D02*
X171510164Y-28697441D01*
X171510164Y-28697441D02*
X171395878Y-28697441D01*
X171395878Y-28697441D02*
X171319688Y-28735537D01*
X170938735Y-29154584D02*
X170900640Y-29192680D01*
X170900640Y-29192680D02*
X170938735Y-29230775D01*
X170938735Y-29230775D02*
X170976831Y-29192680D01*
X170976831Y-29192680D02*
X170938735Y-29154584D01*
X170938735Y-29154584D02*
X170938735Y-29230775D01*
X170938735Y-28735537D02*
X170900640Y-28773632D01*
X170900640Y-28773632D02*
X170938735Y-28811727D01*
X170938735Y-28811727D02*
X170976831Y-28773632D01*
X170976831Y-28773632D02*
X170938735Y-28735537D01*
X170938735Y-28735537D02*
X170938735Y-28811727D01*
X169986355Y-28392680D02*
X170672069Y-29421251D01*
X169148260Y-28392680D02*
X169833974Y-29421251D01*
X168538736Y-28697441D02*
X168538736Y-29345060D01*
X168538736Y-29345060D02*
X168576831Y-29421251D01*
X168576831Y-29421251D02*
X168614927Y-29459346D01*
X168614927Y-29459346D02*
X168691117Y-29497441D01*
X168691117Y-29497441D02*
X168805403Y-29497441D01*
X168805403Y-29497441D02*
X168881593Y-29459346D01*
X168538736Y-29192680D02*
X168614927Y-29230775D01*
X168614927Y-29230775D02*
X168767308Y-29230775D01*
X168767308Y-29230775D02*
X168843498Y-29192680D01*
X168843498Y-29192680D02*
X168881593Y-29154584D01*
X168881593Y-29154584D02*
X168919689Y-29078394D01*
X168919689Y-29078394D02*
X168919689Y-28849822D01*
X168919689Y-28849822D02*
X168881593Y-28773632D01*
X168881593Y-28773632D02*
X168843498Y-28735537D01*
X168843498Y-28735537D02*
X168767308Y-28697441D01*
X168767308Y-28697441D02*
X168614927Y-28697441D01*
X168614927Y-28697441D02*
X168538736Y-28735537D01*
X168157783Y-29230775D02*
X168157783Y-28697441D01*
X168157783Y-28430775D02*
X168195879Y-28468870D01*
X168195879Y-28468870D02*
X168157783Y-28506965D01*
X168157783Y-28506965D02*
X168119688Y-28468870D01*
X168119688Y-28468870D02*
X168157783Y-28430775D01*
X168157783Y-28430775D02*
X168157783Y-28506965D01*
X167776831Y-28697441D02*
X167776831Y-29497441D01*
X167776831Y-28735537D02*
X167700641Y-28697441D01*
X167700641Y-28697441D02*
X167548260Y-28697441D01*
X167548260Y-28697441D02*
X167472069Y-28735537D01*
X167472069Y-28735537D02*
X167433974Y-28773632D01*
X167433974Y-28773632D02*
X167395879Y-28849822D01*
X167395879Y-28849822D02*
X167395879Y-29078394D01*
X167395879Y-29078394D02*
X167433974Y-29154584D01*
X167433974Y-29154584D02*
X167472069Y-29192680D01*
X167472069Y-29192680D02*
X167548260Y-29230775D01*
X167548260Y-29230775D02*
X167700641Y-29230775D01*
X167700641Y-29230775D02*
X167776831Y-29192680D01*
X167167307Y-28697441D02*
X166862545Y-28697441D01*
X167053021Y-28430775D02*
X167053021Y-29116489D01*
X167053021Y-29116489D02*
X167014926Y-29192680D01*
X167014926Y-29192680D02*
X166938736Y-29230775D01*
X166938736Y-29230775D02*
X166862545Y-29230775D01*
X166595878Y-29230775D02*
X166595878Y-28697441D01*
X166595878Y-28430775D02*
X166633974Y-28468870D01*
X166633974Y-28468870D02*
X166595878Y-28506965D01*
X166595878Y-28506965D02*
X166557783Y-28468870D01*
X166557783Y-28468870D02*
X166595878Y-28430775D01*
X166595878Y-28430775D02*
X166595878Y-28506965D01*
X165910164Y-29192680D02*
X165986355Y-29230775D01*
X165986355Y-29230775D02*
X166138736Y-29230775D01*
X166138736Y-29230775D02*
X166214926Y-29192680D01*
X166214926Y-29192680D02*
X166253022Y-29116489D01*
X166253022Y-29116489D02*
X166253022Y-28811727D01*
X166253022Y-28811727D02*
X166214926Y-28735537D01*
X166214926Y-28735537D02*
X166138736Y-28697441D01*
X166138736Y-28697441D02*
X165986355Y-28697441D01*
X165986355Y-28697441D02*
X165910164Y-28735537D01*
X165910164Y-28735537D02*
X165872069Y-28811727D01*
X165872069Y-28811727D02*
X165872069Y-28887918D01*
X165872069Y-28887918D02*
X166253022Y-28964108D01*
X165529212Y-29230775D02*
X165529212Y-28430775D01*
X165529212Y-28735537D02*
X165453022Y-28697441D01*
X165453022Y-28697441D02*
X165300641Y-28697441D01*
X165300641Y-28697441D02*
X165224450Y-28735537D01*
X165224450Y-28735537D02*
X165186355Y-28773632D01*
X165186355Y-28773632D02*
X165148260Y-28849822D01*
X165148260Y-28849822D02*
X165148260Y-29078394D01*
X165148260Y-29078394D02*
X165186355Y-29154584D01*
X165186355Y-29154584D02*
X165224450Y-29192680D01*
X165224450Y-29192680D02*
X165300641Y-29230775D01*
X165300641Y-29230775D02*
X165453022Y-29230775D01*
X165453022Y-29230775D02*
X165529212Y-29192680D01*
X164500640Y-29192680D02*
X164576831Y-29230775D01*
X164576831Y-29230775D02*
X164729212Y-29230775D01*
X164729212Y-29230775D02*
X164805402Y-29192680D01*
X164805402Y-29192680D02*
X164843498Y-29116489D01*
X164843498Y-29116489D02*
X164843498Y-28811727D01*
X164843498Y-28811727D02*
X164805402Y-28735537D01*
X164805402Y-28735537D02*
X164729212Y-28697441D01*
X164729212Y-28697441D02*
X164576831Y-28697441D01*
X164576831Y-28697441D02*
X164500640Y-28735537D01*
X164500640Y-28735537D02*
X164462545Y-28811727D01*
X164462545Y-28811727D02*
X164462545Y-28887918D01*
X164462545Y-28887918D02*
X164843498Y-28964108D01*
X163776831Y-29230775D02*
X163776831Y-28430775D01*
X163776831Y-29192680D02*
X163853022Y-29230775D01*
X163853022Y-29230775D02*
X164005403Y-29230775D01*
X164005403Y-29230775D02*
X164081593Y-29192680D01*
X164081593Y-29192680D02*
X164119688Y-29154584D01*
X164119688Y-29154584D02*
X164157784Y-29078394D01*
X164157784Y-29078394D02*
X164157784Y-28849822D01*
X164157784Y-28849822D02*
X164119688Y-28773632D01*
X164119688Y-28773632D02*
X164081593Y-28735537D01*
X164081593Y-28735537D02*
X164005403Y-28697441D01*
X164005403Y-28697441D02*
X163853022Y-28697441D01*
X163853022Y-28697441D02*
X163776831Y-28735537D01*
X163091116Y-29192680D02*
X163167307Y-29230775D01*
X163167307Y-29230775D02*
X163319688Y-29230775D01*
X163319688Y-29230775D02*
X163395878Y-29192680D01*
X163395878Y-29192680D02*
X163433974Y-29116489D01*
X163433974Y-29116489D02*
X163433974Y-28811727D01*
X163433974Y-28811727D02*
X163395878Y-28735537D01*
X163395878Y-28735537D02*
X163319688Y-28697441D01*
X163319688Y-28697441D02*
X163167307Y-28697441D01*
X163167307Y-28697441D02*
X163091116Y-28735537D01*
X163091116Y-28735537D02*
X163053021Y-28811727D01*
X163053021Y-28811727D02*
X163053021Y-28887918D01*
X163053021Y-28887918D02*
X163433974Y-28964108D01*
X162367307Y-29192680D02*
X162443498Y-29230775D01*
X162443498Y-29230775D02*
X162595879Y-29230775D01*
X162595879Y-29230775D02*
X162672069Y-29192680D01*
X162672069Y-29192680D02*
X162710164Y-29154584D01*
X162710164Y-29154584D02*
X162748260Y-29078394D01*
X162748260Y-29078394D02*
X162748260Y-28849822D01*
X162748260Y-28849822D02*
X162710164Y-28773632D01*
X162710164Y-28773632D02*
X162672069Y-28735537D01*
X162672069Y-28735537D02*
X162595879Y-28697441D01*
X162595879Y-28697441D02*
X162443498Y-28697441D01*
X162443498Y-28697441D02*
X162367307Y-28735537D01*
X161910165Y-29230775D02*
X161986355Y-29192680D01*
X161986355Y-29192680D02*
X162024450Y-29116489D01*
X162024450Y-29116489D02*
X162024450Y-28430775D01*
X161300640Y-29192680D02*
X161376831Y-29230775D01*
X161376831Y-29230775D02*
X161529212Y-29230775D01*
X161529212Y-29230775D02*
X161605402Y-29192680D01*
X161605402Y-29192680D02*
X161643498Y-29116489D01*
X161643498Y-29116489D02*
X161643498Y-28811727D01*
X161643498Y-28811727D02*
X161605402Y-28735537D01*
X161605402Y-28735537D02*
X161529212Y-28697441D01*
X161529212Y-28697441D02*
X161376831Y-28697441D01*
X161376831Y-28697441D02*
X161300640Y-28735537D01*
X161300640Y-28735537D02*
X161262545Y-28811727D01*
X161262545Y-28811727D02*
X161262545Y-28887918D01*
X161262545Y-28887918D02*
X161643498Y-28964108D01*
X160919688Y-29230775D02*
X160919688Y-28697441D01*
X160919688Y-28849822D02*
X160881593Y-28773632D01*
X160881593Y-28773632D02*
X160843498Y-28735537D01*
X160843498Y-28735537D02*
X160767307Y-28697441D01*
X160767307Y-28697441D02*
X160691117Y-28697441D01*
X160081593Y-29192680D02*
X160157784Y-29230775D01*
X160157784Y-29230775D02*
X160310165Y-29230775D01*
X160310165Y-29230775D02*
X160386355Y-29192680D01*
X160386355Y-29192680D02*
X160424450Y-29154584D01*
X160424450Y-29154584D02*
X160462546Y-29078394D01*
X160462546Y-29078394D02*
X160462546Y-28849822D01*
X160462546Y-28849822D02*
X160424450Y-28773632D01*
X160424450Y-28773632D02*
X160386355Y-28735537D01*
X160386355Y-28735537D02*
X160310165Y-28697441D01*
X160310165Y-28697441D02*
X160157784Y-28697441D01*
X160157784Y-28697441D02*
X160081593Y-28735537D01*
X159395879Y-28697441D02*
X159395879Y-29497441D01*
X159395879Y-29192680D02*
X159472070Y-29230775D01*
X159472070Y-29230775D02*
X159624451Y-29230775D01*
X159624451Y-29230775D02*
X159700641Y-29192680D01*
X159700641Y-29192680D02*
X159738736Y-29154584D01*
X159738736Y-29154584D02*
X159776832Y-29078394D01*
X159776832Y-29078394D02*
X159776832Y-28849822D01*
X159776832Y-28849822D02*
X159738736Y-28773632D01*
X159738736Y-28773632D02*
X159700641Y-28735537D01*
X159700641Y-28735537D02*
X159624451Y-28697441D01*
X159624451Y-28697441D02*
X159472070Y-28697441D01*
X159472070Y-28697441D02*
X159395879Y-28735537D01*
X159014926Y-29154584D02*
X158976831Y-29192680D01*
X158976831Y-29192680D02*
X159014926Y-29230775D01*
X159014926Y-29230775D02*
X159053022Y-29192680D01*
X159053022Y-29192680D02*
X159014926Y-29154584D01*
X159014926Y-29154584D02*
X159014926Y-29230775D01*
X158710165Y-28697441D02*
X158557784Y-29230775D01*
X158557784Y-29230775D02*
X158405403Y-28849822D01*
X158405403Y-28849822D02*
X158253022Y-29230775D01*
X158253022Y-29230775D02*
X158100641Y-28697441D01*
X157681594Y-29230775D02*
X157757784Y-29192680D01*
X157757784Y-29192680D02*
X157795879Y-29154584D01*
X157795879Y-29154584D02*
X157833975Y-29078394D01*
X157833975Y-29078394D02*
X157833975Y-28849822D01*
X157833975Y-28849822D02*
X157795879Y-28773632D01*
X157795879Y-28773632D02*
X157757784Y-28735537D01*
X157757784Y-28735537D02*
X157681594Y-28697441D01*
X157681594Y-28697441D02*
X157567308Y-28697441D01*
X157567308Y-28697441D02*
X157491117Y-28735537D01*
X157491117Y-28735537D02*
X157453022Y-28773632D01*
X157453022Y-28773632D02*
X157414927Y-28849822D01*
X157414927Y-28849822D02*
X157414927Y-29078394D01*
X157414927Y-29078394D02*
X157453022Y-29154584D01*
X157453022Y-29154584D02*
X157491117Y-29192680D01*
X157491117Y-29192680D02*
X157567308Y-29230775D01*
X157567308Y-29230775D02*
X157681594Y-29230775D01*
X157072069Y-29230775D02*
X157072069Y-28697441D01*
X157072069Y-28849822D02*
X157033974Y-28773632D01*
X157033974Y-28773632D02*
X156995879Y-28735537D01*
X156995879Y-28735537D02*
X156919688Y-28697441D01*
X156919688Y-28697441D02*
X156843498Y-28697441D01*
X156233974Y-29230775D02*
X156233974Y-28430775D01*
X156233974Y-29192680D02*
X156310165Y-29230775D01*
X156310165Y-29230775D02*
X156462546Y-29230775D01*
X156462546Y-29230775D02*
X156538736Y-29192680D01*
X156538736Y-29192680D02*
X156576831Y-29154584D01*
X156576831Y-29154584D02*
X156614927Y-29078394D01*
X156614927Y-29078394D02*
X156614927Y-28849822D01*
X156614927Y-28849822D02*
X156576831Y-28773632D01*
X156576831Y-28773632D02*
X156538736Y-28735537D01*
X156538736Y-28735537D02*
X156462546Y-28697441D01*
X156462546Y-28697441D02*
X156310165Y-28697441D01*
X156310165Y-28697441D02*
X156233974Y-28735537D01*
X155853021Y-28697441D02*
X155853021Y-29497441D01*
X155853021Y-28735537D02*
X155776831Y-28697441D01*
X155776831Y-28697441D02*
X155624450Y-28697441D01*
X155624450Y-28697441D02*
X155548259Y-28735537D01*
X155548259Y-28735537D02*
X155510164Y-28773632D01*
X155510164Y-28773632D02*
X155472069Y-28849822D01*
X155472069Y-28849822D02*
X155472069Y-29078394D01*
X155472069Y-29078394D02*
X155510164Y-29154584D01*
X155510164Y-29154584D02*
X155548259Y-29192680D01*
X155548259Y-29192680D02*
X155624450Y-29230775D01*
X155624450Y-29230775D02*
X155776831Y-29230775D01*
X155776831Y-29230775D02*
X155853021Y-29192680D01*
X155129211Y-29230775D02*
X155129211Y-28697441D01*
X155129211Y-28849822D02*
X155091116Y-28773632D01*
X155091116Y-28773632D02*
X155053021Y-28735537D01*
X155053021Y-28735537D02*
X154976830Y-28697441D01*
X154976830Y-28697441D02*
X154900640Y-28697441D01*
X154329211Y-29192680D02*
X154405402Y-29230775D01*
X154405402Y-29230775D02*
X154557783Y-29230775D01*
X154557783Y-29230775D02*
X154633973Y-29192680D01*
X154633973Y-29192680D02*
X154672069Y-29116489D01*
X154672069Y-29116489D02*
X154672069Y-28811727D01*
X154672069Y-28811727D02*
X154633973Y-28735537D01*
X154633973Y-28735537D02*
X154557783Y-28697441D01*
X154557783Y-28697441D02*
X154405402Y-28697441D01*
X154405402Y-28697441D02*
X154329211Y-28735537D01*
X154329211Y-28735537D02*
X154291116Y-28811727D01*
X154291116Y-28811727D02*
X154291116Y-28887918D01*
X154291116Y-28887918D02*
X154672069Y-28964108D01*
X153986355Y-29192680D02*
X153910164Y-29230775D01*
X153910164Y-29230775D02*
X153757783Y-29230775D01*
X153757783Y-29230775D02*
X153681593Y-29192680D01*
X153681593Y-29192680D02*
X153643497Y-29116489D01*
X153643497Y-29116489D02*
X153643497Y-29078394D01*
X153643497Y-29078394D02*
X153681593Y-29002203D01*
X153681593Y-29002203D02*
X153757783Y-28964108D01*
X153757783Y-28964108D02*
X153872069Y-28964108D01*
X153872069Y-28964108D02*
X153948259Y-28926013D01*
X153948259Y-28926013D02*
X153986355Y-28849822D01*
X153986355Y-28849822D02*
X153986355Y-28811727D01*
X153986355Y-28811727D02*
X153948259Y-28735537D01*
X153948259Y-28735537D02*
X153872069Y-28697441D01*
X153872069Y-28697441D02*
X153757783Y-28697441D01*
X153757783Y-28697441D02*
X153681593Y-28735537D01*
X153338736Y-29192680D02*
X153262545Y-29230775D01*
X153262545Y-29230775D02*
X153110164Y-29230775D01*
X153110164Y-29230775D02*
X153033974Y-29192680D01*
X153033974Y-29192680D02*
X152995878Y-29116489D01*
X152995878Y-29116489D02*
X152995878Y-29078394D01*
X152995878Y-29078394D02*
X153033974Y-29002203D01*
X153033974Y-29002203D02*
X153110164Y-28964108D01*
X153110164Y-28964108D02*
X153224450Y-28964108D01*
X153224450Y-28964108D02*
X153300640Y-28926013D01*
X153300640Y-28926013D02*
X153338736Y-28849822D01*
X153338736Y-28849822D02*
X153338736Y-28811727D01*
X153338736Y-28811727D02*
X153300640Y-28735537D01*
X153300640Y-28735537D02*
X153224450Y-28697441D01*
X153224450Y-28697441D02*
X153110164Y-28697441D01*
X153110164Y-28697441D02*
X153033974Y-28735537D01*
X152653021Y-29154584D02*
X152614926Y-29192680D01*
X152614926Y-29192680D02*
X152653021Y-29230775D01*
X152653021Y-29230775D02*
X152691117Y-29192680D01*
X152691117Y-29192680D02*
X152653021Y-29154584D01*
X152653021Y-29154584D02*
X152653021Y-29230775D01*
X151929212Y-29192680D02*
X152005403Y-29230775D01*
X152005403Y-29230775D02*
X152157784Y-29230775D01*
X152157784Y-29230775D02*
X152233974Y-29192680D01*
X152233974Y-29192680D02*
X152272069Y-29154584D01*
X152272069Y-29154584D02*
X152310165Y-29078394D01*
X152310165Y-29078394D02*
X152310165Y-28849822D01*
X152310165Y-28849822D02*
X152272069Y-28773632D01*
X152272069Y-28773632D02*
X152233974Y-28735537D01*
X152233974Y-28735537D02*
X152157784Y-28697441D01*
X152157784Y-28697441D02*
X152005403Y-28697441D01*
X152005403Y-28697441D02*
X151929212Y-28735537D01*
X151472070Y-29230775D02*
X151548260Y-29192680D01*
X151548260Y-29192680D02*
X151586355Y-29154584D01*
X151586355Y-29154584D02*
X151624451Y-29078394D01*
X151624451Y-29078394D02*
X151624451Y-28849822D01*
X151624451Y-28849822D02*
X151586355Y-28773632D01*
X151586355Y-28773632D02*
X151548260Y-28735537D01*
X151548260Y-28735537D02*
X151472070Y-28697441D01*
X151472070Y-28697441D02*
X151357784Y-28697441D01*
X151357784Y-28697441D02*
X151281593Y-28735537D01*
X151281593Y-28735537D02*
X151243498Y-28773632D01*
X151243498Y-28773632D02*
X151205403Y-28849822D01*
X151205403Y-28849822D02*
X151205403Y-29078394D01*
X151205403Y-29078394D02*
X151243498Y-29154584D01*
X151243498Y-29154584D02*
X151281593Y-29192680D01*
X151281593Y-29192680D02*
X151357784Y-29230775D01*
X151357784Y-29230775D02*
X151472070Y-29230775D01*
X150862545Y-29230775D02*
X150862545Y-28697441D01*
X150862545Y-28773632D02*
X150824450Y-28735537D01*
X150824450Y-28735537D02*
X150748260Y-28697441D01*
X150748260Y-28697441D02*
X150633974Y-28697441D01*
X150633974Y-28697441D02*
X150557783Y-28735537D01*
X150557783Y-28735537D02*
X150519688Y-28811727D01*
X150519688Y-28811727D02*
X150519688Y-29230775D01*
X150519688Y-28811727D02*
X150481593Y-28735537D01*
X150481593Y-28735537D02*
X150405402Y-28697441D01*
X150405402Y-28697441D02*
X150291117Y-28697441D01*
X150291117Y-28697441D02*
X150214926Y-28735537D01*
X150214926Y-28735537D02*
X150176831Y-28811727D01*
X150176831Y-28811727D02*
X150176831Y-29230775D01*
X149224450Y-28392680D02*
X149910164Y-29421251D01*
X173440260Y-28087775D02*
X173440260Y-27287775D01*
X173440260Y-27287775D02*
X173173594Y-27859203D01*
X173173594Y-27859203D02*
X172906927Y-27287775D01*
X172906927Y-27287775D02*
X172906927Y-28087775D01*
X172183117Y-27554441D02*
X172183117Y-28087775D01*
X172525974Y-27554441D02*
X172525974Y-27973489D01*
X172525974Y-27973489D02*
X172487879Y-28049680D01*
X172487879Y-28049680D02*
X172411689Y-28087775D01*
X172411689Y-28087775D02*
X172297403Y-28087775D01*
X172297403Y-28087775D02*
X172221212Y-28049680D01*
X172221212Y-28049680D02*
X172183117Y-28011584D01*
X171802164Y-27554441D02*
X171802164Y-28087775D01*
X171802164Y-27630632D02*
X171764069Y-27592537D01*
X171764069Y-27592537D02*
X171687879Y-27554441D01*
X171687879Y-27554441D02*
X171573593Y-27554441D01*
X171573593Y-27554441D02*
X171497402Y-27592537D01*
X171497402Y-27592537D02*
X171459307Y-27668727D01*
X171459307Y-27668727D02*
X171459307Y-28087775D01*
X171192640Y-27554441D02*
X170887878Y-27554441D01*
X171078354Y-27287775D02*
X171078354Y-27973489D01*
X171078354Y-27973489D02*
X171040259Y-28049680D01*
X171040259Y-28049680D02*
X170964069Y-28087775D01*
X170964069Y-28087775D02*
X170887878Y-28087775D01*
X170659307Y-28049680D02*
X170583116Y-28087775D01*
X170583116Y-28087775D02*
X170430735Y-28087775D01*
X170430735Y-28087775D02*
X170354545Y-28049680D01*
X170354545Y-28049680D02*
X170316449Y-27973489D01*
X170316449Y-27973489D02*
X170316449Y-27935394D01*
X170316449Y-27935394D02*
X170354545Y-27859203D01*
X170354545Y-27859203D02*
X170430735Y-27821108D01*
X170430735Y-27821108D02*
X170545021Y-27821108D01*
X170545021Y-27821108D02*
X170621211Y-27783013D01*
X170621211Y-27783013D02*
X170659307Y-27706822D01*
X170659307Y-27706822D02*
X170659307Y-27668727D01*
X170659307Y-27668727D02*
X170621211Y-27592537D01*
X170621211Y-27592537D02*
X170545021Y-27554441D01*
X170545021Y-27554441D02*
X170430735Y-27554441D01*
X170430735Y-27554441D02*
X170354545Y-27592537D01*
X169859307Y-28087775D02*
X169935497Y-28049680D01*
X169935497Y-28049680D02*
X169973592Y-28011584D01*
X169973592Y-28011584D02*
X170011688Y-27935394D01*
X170011688Y-27935394D02*
X170011688Y-27706822D01*
X170011688Y-27706822D02*
X169973592Y-27630632D01*
X169973592Y-27630632D02*
X169935497Y-27592537D01*
X169935497Y-27592537D02*
X169859307Y-27554441D01*
X169859307Y-27554441D02*
X169745021Y-27554441D01*
X169745021Y-27554441D02*
X169668830Y-27592537D01*
X169668830Y-27592537D02*
X169630735Y-27630632D01*
X169630735Y-27630632D02*
X169592640Y-27706822D01*
X169592640Y-27706822D02*
X169592640Y-27935394D01*
X169592640Y-27935394D02*
X169630735Y-28011584D01*
X169630735Y-28011584D02*
X169668830Y-28049680D01*
X169668830Y-28049680D02*
X169745021Y-28087775D01*
X169745021Y-28087775D02*
X169859307Y-28087775D01*
X169249782Y-28087775D02*
X169249782Y-27554441D01*
X169249782Y-27706822D02*
X169211687Y-27630632D01*
X169211687Y-27630632D02*
X169173592Y-27592537D01*
X169173592Y-27592537D02*
X169097401Y-27554441D01*
X169097401Y-27554441D02*
X169021211Y-27554441D01*
X168868830Y-27554441D02*
X168564068Y-27554441D01*
X168754544Y-27287775D02*
X168754544Y-27973489D01*
X168754544Y-27973489D02*
X168716449Y-28049680D01*
X168716449Y-28049680D02*
X168640259Y-28087775D01*
X168640259Y-28087775D02*
X168564068Y-28087775D01*
X167992639Y-28049680D02*
X168068830Y-28087775D01*
X168068830Y-28087775D02*
X168221211Y-28087775D01*
X168221211Y-28087775D02*
X168297401Y-28049680D01*
X168297401Y-28049680D02*
X168335497Y-27973489D01*
X168335497Y-27973489D02*
X168335497Y-27668727D01*
X168335497Y-27668727D02*
X168297401Y-27592537D01*
X168297401Y-27592537D02*
X168221211Y-27554441D01*
X168221211Y-27554441D02*
X168068830Y-27554441D01*
X168068830Y-27554441D02*
X167992639Y-27592537D01*
X167992639Y-27592537D02*
X167954544Y-27668727D01*
X167954544Y-27668727D02*
X167954544Y-27744918D01*
X167954544Y-27744918D02*
X168335497Y-27821108D01*
X167306925Y-28049680D02*
X167383116Y-28087775D01*
X167383116Y-28087775D02*
X167535497Y-28087775D01*
X167535497Y-28087775D02*
X167611687Y-28049680D01*
X167611687Y-28049680D02*
X167649783Y-27973489D01*
X167649783Y-27973489D02*
X167649783Y-27668727D01*
X167649783Y-27668727D02*
X167611687Y-27592537D01*
X167611687Y-27592537D02*
X167535497Y-27554441D01*
X167535497Y-27554441D02*
X167383116Y-27554441D01*
X167383116Y-27554441D02*
X167306925Y-27592537D01*
X167306925Y-27592537D02*
X167268830Y-27668727D01*
X167268830Y-27668727D02*
X167268830Y-27744918D01*
X167268830Y-27744918D02*
X167649783Y-27821108D01*
X166925973Y-28087775D02*
X166925973Y-27554441D01*
X166925973Y-27706822D02*
X166887878Y-27630632D01*
X166887878Y-27630632D02*
X166849783Y-27592537D01*
X166849783Y-27592537D02*
X166773592Y-27554441D01*
X166773592Y-27554441D02*
X166697402Y-27554441D01*
X166430735Y-27783013D02*
X165821212Y-27783013D01*
X164525973Y-28049680D02*
X164602164Y-28087775D01*
X164602164Y-28087775D02*
X164754545Y-28087775D01*
X164754545Y-28087775D02*
X164830735Y-28049680D01*
X164830735Y-28049680D02*
X164868831Y-27973489D01*
X164868831Y-27973489D02*
X164868831Y-27668727D01*
X164868831Y-27668727D02*
X164830735Y-27592537D01*
X164830735Y-27592537D02*
X164754545Y-27554441D01*
X164754545Y-27554441D02*
X164602164Y-27554441D01*
X164602164Y-27554441D02*
X164525973Y-27592537D01*
X164525973Y-27592537D02*
X164487878Y-27668727D01*
X164487878Y-27668727D02*
X164487878Y-27744918D01*
X164487878Y-27744918D02*
X164868831Y-27821108D01*
X164145021Y-27554441D02*
X164145021Y-28087775D01*
X164145021Y-27630632D02*
X164106926Y-27592537D01*
X164106926Y-27592537D02*
X164030736Y-27554441D01*
X164030736Y-27554441D02*
X163916450Y-27554441D01*
X163916450Y-27554441D02*
X163840259Y-27592537D01*
X163840259Y-27592537D02*
X163802164Y-27668727D01*
X163802164Y-27668727D02*
X163802164Y-28087775D01*
X162697402Y-28087775D02*
X162773592Y-28049680D01*
X162773592Y-28049680D02*
X162811687Y-28011584D01*
X162811687Y-28011584D02*
X162849783Y-27935394D01*
X162849783Y-27935394D02*
X162849783Y-27706822D01*
X162849783Y-27706822D02*
X162811687Y-27630632D01*
X162811687Y-27630632D02*
X162773592Y-27592537D01*
X162773592Y-27592537D02*
X162697402Y-27554441D01*
X162697402Y-27554441D02*
X162583116Y-27554441D01*
X162583116Y-27554441D02*
X162506925Y-27592537D01*
X162506925Y-27592537D02*
X162468830Y-27630632D01*
X162468830Y-27630632D02*
X162430735Y-27706822D01*
X162430735Y-27706822D02*
X162430735Y-27935394D01*
X162430735Y-27935394D02*
X162468830Y-28011584D01*
X162468830Y-28011584D02*
X162506925Y-28049680D01*
X162506925Y-28049680D02*
X162583116Y-28087775D01*
X162583116Y-28087775D02*
X162697402Y-28087775D01*
X162087877Y-27554441D02*
X162087877Y-28354441D01*
X162087877Y-27592537D02*
X162011687Y-27554441D01*
X162011687Y-27554441D02*
X161859306Y-27554441D01*
X161859306Y-27554441D02*
X161783115Y-27592537D01*
X161783115Y-27592537D02*
X161745020Y-27630632D01*
X161745020Y-27630632D02*
X161706925Y-27706822D01*
X161706925Y-27706822D02*
X161706925Y-27935394D01*
X161706925Y-27935394D02*
X161745020Y-28011584D01*
X161745020Y-28011584D02*
X161783115Y-28049680D01*
X161783115Y-28049680D02*
X161859306Y-28087775D01*
X161859306Y-28087775D02*
X162011687Y-28087775D01*
X162011687Y-28087775D02*
X162087877Y-28049680D01*
X161402163Y-28049680D02*
X161325972Y-28087775D01*
X161325972Y-28087775D02*
X161173591Y-28087775D01*
X161173591Y-28087775D02*
X161097401Y-28049680D01*
X161097401Y-28049680D02*
X161059305Y-27973489D01*
X161059305Y-27973489D02*
X161059305Y-27935394D01*
X161059305Y-27935394D02*
X161097401Y-27859203D01*
X161097401Y-27859203D02*
X161173591Y-27821108D01*
X161173591Y-27821108D02*
X161287877Y-27821108D01*
X161287877Y-27821108D02*
X161364067Y-27783013D01*
X161364067Y-27783013D02*
X161402163Y-27706822D01*
X161402163Y-27706822D02*
X161402163Y-27668727D01*
X161402163Y-27668727D02*
X161364067Y-27592537D01*
X161364067Y-27592537D02*
X161287877Y-27554441D01*
X161287877Y-27554441D02*
X161173591Y-27554441D01*
X161173591Y-27554441D02*
X161097401Y-27592537D01*
X160602163Y-28087775D02*
X160678353Y-28049680D01*
X160678353Y-28049680D02*
X160716448Y-27973489D01*
X160716448Y-27973489D02*
X160716448Y-27287775D01*
X159954543Y-28087775D02*
X159954543Y-27668727D01*
X159954543Y-27668727D02*
X159992638Y-27592537D01*
X159992638Y-27592537D02*
X160068829Y-27554441D01*
X160068829Y-27554441D02*
X160221210Y-27554441D01*
X160221210Y-27554441D02*
X160297400Y-27592537D01*
X159954543Y-28049680D02*
X160030734Y-28087775D01*
X160030734Y-28087775D02*
X160221210Y-28087775D01*
X160221210Y-28087775D02*
X160297400Y-28049680D01*
X160297400Y-28049680D02*
X160335496Y-27973489D01*
X160335496Y-27973489D02*
X160335496Y-27897299D01*
X160335496Y-27897299D02*
X160297400Y-27821108D01*
X160297400Y-27821108D02*
X160221210Y-27783013D01*
X160221210Y-27783013D02*
X160030734Y-27783013D01*
X160030734Y-27783013D02*
X159954543Y-27744918D01*
X159230733Y-27554441D02*
X159230733Y-28202060D01*
X159230733Y-28202060D02*
X159268828Y-28278251D01*
X159268828Y-28278251D02*
X159306924Y-28316346D01*
X159306924Y-28316346D02*
X159383114Y-28354441D01*
X159383114Y-28354441D02*
X159497400Y-28354441D01*
X159497400Y-28354441D02*
X159573590Y-28316346D01*
X159230733Y-28049680D02*
X159306924Y-28087775D01*
X159306924Y-28087775D02*
X159459305Y-28087775D01*
X159459305Y-28087775D02*
X159535495Y-28049680D01*
X159535495Y-28049680D02*
X159573590Y-28011584D01*
X159573590Y-28011584D02*
X159611686Y-27935394D01*
X159611686Y-27935394D02*
X159611686Y-27706822D01*
X159611686Y-27706822D02*
X159573590Y-27630632D01*
X159573590Y-27630632D02*
X159535495Y-27592537D01*
X159535495Y-27592537D02*
X159459305Y-27554441D01*
X159459305Y-27554441D02*
X159306924Y-27554441D01*
X159306924Y-27554441D02*
X159230733Y-27592537D01*
X158887876Y-28049680D02*
X158811685Y-28087775D01*
X158811685Y-28087775D02*
X158659304Y-28087775D01*
X158659304Y-28087775D02*
X158583114Y-28049680D01*
X158583114Y-28049680D02*
X158545018Y-27973489D01*
X158545018Y-27973489D02*
X158545018Y-27935394D01*
X158545018Y-27935394D02*
X158583114Y-27859203D01*
X158583114Y-27859203D02*
X158659304Y-27821108D01*
X158659304Y-27821108D02*
X158773590Y-27821108D01*
X158773590Y-27821108D02*
X158849780Y-27783013D01*
X158849780Y-27783013D02*
X158887876Y-27706822D01*
X158887876Y-27706822D02*
X158887876Y-27668727D01*
X158887876Y-27668727D02*
X158849780Y-27592537D01*
X158849780Y-27592537D02*
X158773590Y-27554441D01*
X158773590Y-27554441D02*
X158659304Y-27554441D01*
X158659304Y-27554441D02*
X158583114Y-27592537D01*
X158278352Y-27554441D02*
X158087876Y-28087775D01*
X157897399Y-27554441D02*
X158087876Y-28087775D01*
X158087876Y-28087775D02*
X158164066Y-28278251D01*
X158164066Y-28278251D02*
X158202161Y-28316346D01*
X158202161Y-28316346D02*
X158278352Y-28354441D01*
X157630733Y-28049680D02*
X157554542Y-28087775D01*
X157554542Y-28087775D02*
X157402161Y-28087775D01*
X157402161Y-28087775D02*
X157325971Y-28049680D01*
X157325971Y-28049680D02*
X157287875Y-27973489D01*
X157287875Y-27973489D02*
X157287875Y-27935394D01*
X157287875Y-27935394D02*
X157325971Y-27859203D01*
X157325971Y-27859203D02*
X157402161Y-27821108D01*
X157402161Y-27821108D02*
X157516447Y-27821108D01*
X157516447Y-27821108D02*
X157592637Y-27783013D01*
X157592637Y-27783013D02*
X157630733Y-27706822D01*
X157630733Y-27706822D02*
X157630733Y-27668727D01*
X157630733Y-27668727D02*
X157592637Y-27592537D01*
X157592637Y-27592537D02*
X157516447Y-27554441D01*
X157516447Y-27554441D02*
X157402161Y-27554441D01*
X157402161Y-27554441D02*
X157325971Y-27592537D01*
X157059304Y-27554441D02*
X156754542Y-27554441D01*
X156945018Y-27287775D02*
X156945018Y-27973489D01*
X156945018Y-27973489D02*
X156906923Y-28049680D01*
X156906923Y-28049680D02*
X156830733Y-28087775D01*
X156830733Y-28087775D02*
X156754542Y-28087775D01*
X156183113Y-28049680D02*
X156259304Y-28087775D01*
X156259304Y-28087775D02*
X156411685Y-28087775D01*
X156411685Y-28087775D02*
X156487875Y-28049680D01*
X156487875Y-28049680D02*
X156525971Y-27973489D01*
X156525971Y-27973489D02*
X156525971Y-27668727D01*
X156525971Y-27668727D02*
X156487875Y-27592537D01*
X156487875Y-27592537D02*
X156411685Y-27554441D01*
X156411685Y-27554441D02*
X156259304Y-27554441D01*
X156259304Y-27554441D02*
X156183113Y-27592537D01*
X156183113Y-27592537D02*
X156145018Y-27668727D01*
X156145018Y-27668727D02*
X156145018Y-27744918D01*
X156145018Y-27744918D02*
X156525971Y-27821108D01*
X155497399Y-28049680D02*
X155573590Y-28087775D01*
X155573590Y-28087775D02*
X155725971Y-28087775D01*
X155725971Y-28087775D02*
X155802161Y-28049680D01*
X155802161Y-28049680D02*
X155840257Y-27973489D01*
X155840257Y-27973489D02*
X155840257Y-27668727D01*
X155840257Y-27668727D02*
X155802161Y-27592537D01*
X155802161Y-27592537D02*
X155725971Y-27554441D01*
X155725971Y-27554441D02*
X155573590Y-27554441D01*
X155573590Y-27554441D02*
X155497399Y-27592537D01*
X155497399Y-27592537D02*
X155459304Y-27668727D01*
X155459304Y-27668727D02*
X155459304Y-27744918D01*
X155459304Y-27744918D02*
X155840257Y-27821108D01*
X155116447Y-28087775D02*
X155116447Y-27554441D01*
X155116447Y-27630632D02*
X155078352Y-27592537D01*
X155078352Y-27592537D02*
X155002162Y-27554441D01*
X155002162Y-27554441D02*
X154887876Y-27554441D01*
X154887876Y-27554441D02*
X154811685Y-27592537D01*
X154811685Y-27592537D02*
X154773590Y-27668727D01*
X154773590Y-27668727D02*
X154773590Y-28087775D01*
X154773590Y-27668727D02*
X154735495Y-27592537D01*
X154735495Y-27592537D02*
X154659304Y-27554441D01*
X154659304Y-27554441D02*
X154545019Y-27554441D01*
X154545019Y-27554441D02*
X154468828Y-27592537D01*
X154468828Y-27592537D02*
X154430733Y-27668727D01*
X154430733Y-27668727D02*
X154430733Y-28087775D01*
X153554542Y-27287775D02*
X153287875Y-28087775D01*
X153287875Y-28087775D02*
X153021209Y-27287775D01*
X152830733Y-27287775D02*
X152335495Y-27287775D01*
X152335495Y-27287775D02*
X152602161Y-27592537D01*
X152602161Y-27592537D02*
X152487876Y-27592537D01*
X152487876Y-27592537D02*
X152411685Y-27630632D01*
X152411685Y-27630632D02*
X152373590Y-27668727D01*
X152373590Y-27668727D02*
X152335495Y-27744918D01*
X152335495Y-27744918D02*
X152335495Y-27935394D01*
X152335495Y-27935394D02*
X152373590Y-28011584D01*
X152373590Y-28011584D02*
X152411685Y-28049680D01*
X152411685Y-28049680D02*
X152487876Y-28087775D01*
X152487876Y-28087775D02*
X152716447Y-28087775D01*
X152716447Y-28087775D02*
X152792638Y-28049680D01*
X152792638Y-28049680D02*
X152830733Y-28011584D01*
M02*
