%TF.GenerationSoftware,KiCad,Pcbnew,8.0.0*%
%TF.CreationDate,2024-04-15T20:03:37+02:00*%
%TF.ProjectId,MuntsorteerderESP,4d756e74-736f-4727-9465-657264657245,rev?*%
%TF.SameCoordinates,Original*%
%TF.FileFunction,Legend,Top*%
%TF.FilePolarity,Positive*%
%FSLAX46Y46*%
G04 Gerber Fmt 4.6, Leading zero omitted, Abs format (unit mm)*
G04 Created by KiCad (PCBNEW 8.0.0) date 2024-04-15 20:03:37*
%MOMM*%
%LPD*%
G01*
G04 APERTURE LIST*
%ADD10C,0.160000*%
%ADD11C,0.100000*%
%ADD12C,0.150000*%
%ADD13C,0.080000*%
%ADD14C,0.120200*%
%ADD15C,0.120000*%
%ADD16C,0.127000*%
%ADD17C,0.200000*%
G04 APERTURE END LIST*
D10*
X124476310Y-71991775D02*
X124476310Y-72563203D01*
X124476310Y-72563203D02*
X124438215Y-72677489D01*
X124438215Y-72677489D02*
X124362024Y-72753680D01*
X124362024Y-72753680D02*
X124247739Y-72791775D01*
X124247739Y-72791775D02*
X124171548Y-72791775D01*
X125238215Y-72791775D02*
X124857263Y-72791775D01*
X124857263Y-72791775D02*
X124857263Y-71991775D01*
X125962025Y-72715584D02*
X125923929Y-72753680D01*
X125923929Y-72753680D02*
X125809644Y-72791775D01*
X125809644Y-72791775D02*
X125733453Y-72791775D01*
X125733453Y-72791775D02*
X125619167Y-72753680D01*
X125619167Y-72753680D02*
X125542977Y-72677489D01*
X125542977Y-72677489D02*
X125504882Y-72601299D01*
X125504882Y-72601299D02*
X125466786Y-72448918D01*
X125466786Y-72448918D02*
X125466786Y-72334632D01*
X125466786Y-72334632D02*
X125504882Y-72182251D01*
X125504882Y-72182251D02*
X125542977Y-72106060D01*
X125542977Y-72106060D02*
X125619167Y-72029870D01*
X125619167Y-72029870D02*
X125733453Y-71991775D01*
X125733453Y-71991775D02*
X125809644Y-71991775D01*
X125809644Y-71991775D02*
X125923929Y-72029870D01*
X125923929Y-72029870D02*
X125962025Y-72067965D01*
X126533453Y-71991775D02*
X126533453Y-72563203D01*
X126533453Y-72563203D02*
X126495358Y-72677489D01*
X126495358Y-72677489D02*
X126419167Y-72753680D01*
X126419167Y-72753680D02*
X126304882Y-72791775D01*
X126304882Y-72791775D02*
X126228691Y-72791775D01*
X127295358Y-72791775D02*
X126914406Y-72791775D01*
X126914406Y-72791775D02*
X126914406Y-71991775D01*
X128019168Y-72715584D02*
X127981072Y-72753680D01*
X127981072Y-72753680D02*
X127866787Y-72791775D01*
X127866787Y-72791775D02*
X127790596Y-72791775D01*
X127790596Y-72791775D02*
X127676310Y-72753680D01*
X127676310Y-72753680D02*
X127600120Y-72677489D01*
X127600120Y-72677489D02*
X127562025Y-72601299D01*
X127562025Y-72601299D02*
X127523929Y-72448918D01*
X127523929Y-72448918D02*
X127523929Y-72334632D01*
X127523929Y-72334632D02*
X127562025Y-72182251D01*
X127562025Y-72182251D02*
X127600120Y-72106060D01*
X127600120Y-72106060D02*
X127676310Y-72029870D01*
X127676310Y-72029870D02*
X127790596Y-71991775D01*
X127790596Y-71991775D02*
X127866787Y-71991775D01*
X127866787Y-71991775D02*
X127981072Y-72029870D01*
X127981072Y-72029870D02*
X128019168Y-72067965D01*
X128590596Y-71991775D02*
X128590596Y-72563203D01*
X128590596Y-72563203D02*
X128552501Y-72677489D01*
X128552501Y-72677489D02*
X128476310Y-72753680D01*
X128476310Y-72753680D02*
X128362025Y-72791775D01*
X128362025Y-72791775D02*
X128285834Y-72791775D01*
X129352501Y-72791775D02*
X128971549Y-72791775D01*
X128971549Y-72791775D02*
X128971549Y-71991775D01*
X130076311Y-72715584D02*
X130038215Y-72753680D01*
X130038215Y-72753680D02*
X129923930Y-72791775D01*
X129923930Y-72791775D02*
X129847739Y-72791775D01*
X129847739Y-72791775D02*
X129733453Y-72753680D01*
X129733453Y-72753680D02*
X129657263Y-72677489D01*
X129657263Y-72677489D02*
X129619168Y-72601299D01*
X129619168Y-72601299D02*
X129581072Y-72448918D01*
X129581072Y-72448918D02*
X129581072Y-72334632D01*
X129581072Y-72334632D02*
X129619168Y-72182251D01*
X129619168Y-72182251D02*
X129657263Y-72106060D01*
X129657263Y-72106060D02*
X129733453Y-72029870D01*
X129733453Y-72029870D02*
X129847739Y-71991775D01*
X129847739Y-71991775D02*
X129923930Y-71991775D01*
X129923930Y-71991775D02*
X130038215Y-72029870D01*
X130038215Y-72029870D02*
X130076311Y-72067965D01*
X130647739Y-71991775D02*
X130647739Y-72563203D01*
X130647739Y-72563203D02*
X130609644Y-72677489D01*
X130609644Y-72677489D02*
X130533453Y-72753680D01*
X130533453Y-72753680D02*
X130419168Y-72791775D01*
X130419168Y-72791775D02*
X130342977Y-72791775D01*
X131409644Y-72791775D02*
X131028692Y-72791775D01*
X131028692Y-72791775D02*
X131028692Y-71991775D01*
X132133454Y-72715584D02*
X132095358Y-72753680D01*
X132095358Y-72753680D02*
X131981073Y-72791775D01*
X131981073Y-72791775D02*
X131904882Y-72791775D01*
X131904882Y-72791775D02*
X131790596Y-72753680D01*
X131790596Y-72753680D02*
X131714406Y-72677489D01*
X131714406Y-72677489D02*
X131676311Y-72601299D01*
X131676311Y-72601299D02*
X131638215Y-72448918D01*
X131638215Y-72448918D02*
X131638215Y-72334632D01*
X131638215Y-72334632D02*
X131676311Y-72182251D01*
X131676311Y-72182251D02*
X131714406Y-72106060D01*
X131714406Y-72106060D02*
X131790596Y-72029870D01*
X131790596Y-72029870D02*
X131904882Y-71991775D01*
X131904882Y-71991775D02*
X131981073Y-71991775D01*
X131981073Y-71991775D02*
X132095358Y-72029870D01*
X132095358Y-72029870D02*
X132133454Y-72067965D01*
X138412727Y-82889260D02*
X138412727Y-82622594D01*
X138831775Y-82508308D02*
X138831775Y-82889260D01*
X138831775Y-82889260D02*
X138031775Y-82889260D01*
X138031775Y-82889260D02*
X138031775Y-82508308D01*
X138031775Y-82241641D02*
X138831775Y-81708307D01*
X138031775Y-81708307D02*
X138831775Y-82241641D01*
X138031775Y-81517831D02*
X138031775Y-81060688D01*
X138831775Y-81289260D02*
X138031775Y-81289260D01*
X140958070Y-81984631D02*
X140958070Y-82365583D01*
X140958070Y-82365583D02*
X141339022Y-82403679D01*
X141339022Y-82403679D02*
X141300927Y-82365583D01*
X141300927Y-82365583D02*
X141262832Y-82289393D01*
X141262832Y-82289393D02*
X141262832Y-82098917D01*
X141262832Y-82098917D02*
X141300927Y-82022726D01*
X141300927Y-82022726D02*
X141339022Y-81984631D01*
X141339022Y-81984631D02*
X141415213Y-81946536D01*
X141415213Y-81946536D02*
X141605689Y-81946536D01*
X141605689Y-81946536D02*
X141681879Y-81984631D01*
X141681879Y-81984631D02*
X141719975Y-82022726D01*
X141719975Y-82022726D02*
X141758070Y-82098917D01*
X141758070Y-82098917D02*
X141758070Y-82289393D01*
X141758070Y-82289393D02*
X141719975Y-82365583D01*
X141719975Y-82365583D02*
X141681879Y-82403679D01*
X140958070Y-81717964D02*
X141758070Y-81451297D01*
X141758070Y-81451297D02*
X140958070Y-81184631D01*
X143856548Y-53957775D02*
X144351786Y-53957775D01*
X144351786Y-53957775D02*
X144085120Y-54262537D01*
X144085120Y-54262537D02*
X144199405Y-54262537D01*
X144199405Y-54262537D02*
X144275596Y-54300632D01*
X144275596Y-54300632D02*
X144313691Y-54338727D01*
X144313691Y-54338727D02*
X144351786Y-54414918D01*
X144351786Y-54414918D02*
X144351786Y-54605394D01*
X144351786Y-54605394D02*
X144313691Y-54681584D01*
X144313691Y-54681584D02*
X144275596Y-54719680D01*
X144275596Y-54719680D02*
X144199405Y-54757775D01*
X144199405Y-54757775D02*
X143970834Y-54757775D01*
X143970834Y-54757775D02*
X143894643Y-54719680D01*
X143894643Y-54719680D02*
X143856548Y-54681584D01*
X144618453Y-53957775D02*
X145151787Y-53957775D01*
X145151787Y-53957775D02*
X144808929Y-54757775D01*
X146396548Y-53957775D02*
X146891786Y-53957775D01*
X146891786Y-53957775D02*
X146625120Y-54262537D01*
X146625120Y-54262537D02*
X146739405Y-54262537D01*
X146739405Y-54262537D02*
X146815596Y-54300632D01*
X146815596Y-54300632D02*
X146853691Y-54338727D01*
X146853691Y-54338727D02*
X146891786Y-54414918D01*
X146891786Y-54414918D02*
X146891786Y-54605394D01*
X146891786Y-54605394D02*
X146853691Y-54681584D01*
X146853691Y-54681584D02*
X146815596Y-54719680D01*
X146815596Y-54719680D02*
X146739405Y-54757775D01*
X146739405Y-54757775D02*
X146510834Y-54757775D01*
X146510834Y-54757775D02*
X146434643Y-54719680D01*
X146434643Y-54719680D02*
X146396548Y-54681584D01*
X147577501Y-53957775D02*
X147425120Y-53957775D01*
X147425120Y-53957775D02*
X147348929Y-53995870D01*
X147348929Y-53995870D02*
X147310834Y-54033965D01*
X147310834Y-54033965D02*
X147234644Y-54148251D01*
X147234644Y-54148251D02*
X147196548Y-54300632D01*
X147196548Y-54300632D02*
X147196548Y-54605394D01*
X147196548Y-54605394D02*
X147234644Y-54681584D01*
X147234644Y-54681584D02*
X147272739Y-54719680D01*
X147272739Y-54719680D02*
X147348929Y-54757775D01*
X147348929Y-54757775D02*
X147501310Y-54757775D01*
X147501310Y-54757775D02*
X147577501Y-54719680D01*
X147577501Y-54719680D02*
X147615596Y-54681584D01*
X147615596Y-54681584D02*
X147653691Y-54605394D01*
X147653691Y-54605394D02*
X147653691Y-54414918D01*
X147653691Y-54414918D02*
X147615596Y-54338727D01*
X147615596Y-54338727D02*
X147577501Y-54300632D01*
X147577501Y-54300632D02*
X147501310Y-54262537D01*
X147501310Y-54262537D02*
X147348929Y-54262537D01*
X147348929Y-54262537D02*
X147272739Y-54300632D01*
X147272739Y-54300632D02*
X147234644Y-54338727D01*
X147234644Y-54338727D02*
X147196548Y-54414918D01*
X151349548Y-51925775D02*
X151844786Y-51925775D01*
X151844786Y-51925775D02*
X151578120Y-52230537D01*
X151578120Y-52230537D02*
X151692405Y-52230537D01*
X151692405Y-52230537D02*
X151768596Y-52268632D01*
X151768596Y-52268632D02*
X151806691Y-52306727D01*
X151806691Y-52306727D02*
X151844786Y-52382918D01*
X151844786Y-52382918D02*
X151844786Y-52573394D01*
X151844786Y-52573394D02*
X151806691Y-52649584D01*
X151806691Y-52649584D02*
X151768596Y-52687680D01*
X151768596Y-52687680D02*
X151692405Y-52725775D01*
X151692405Y-52725775D02*
X151463834Y-52725775D01*
X151463834Y-52725775D02*
X151387643Y-52687680D01*
X151387643Y-52687680D02*
X151349548Y-52649584D01*
X152568596Y-51925775D02*
X152187644Y-51925775D01*
X152187644Y-51925775D02*
X152149548Y-52306727D01*
X152149548Y-52306727D02*
X152187644Y-52268632D01*
X152187644Y-52268632D02*
X152263834Y-52230537D01*
X152263834Y-52230537D02*
X152454310Y-52230537D01*
X152454310Y-52230537D02*
X152530501Y-52268632D01*
X152530501Y-52268632D02*
X152568596Y-52306727D01*
X152568596Y-52306727D02*
X152606691Y-52382918D01*
X152606691Y-52382918D02*
X152606691Y-52573394D01*
X152606691Y-52573394D02*
X152568596Y-52649584D01*
X152568596Y-52649584D02*
X152530501Y-52687680D01*
X152530501Y-52687680D02*
X152454310Y-52725775D01*
X152454310Y-52725775D02*
X152263834Y-52725775D01*
X152263834Y-52725775D02*
X152187644Y-52687680D01*
X152187644Y-52687680D02*
X152149548Y-52649584D01*
X173269739Y-60091775D02*
X173269739Y-59291775D01*
X173269739Y-59672727D02*
X173726882Y-59672727D01*
X173726882Y-60091775D02*
X173726882Y-59291775D01*
X173803072Y-57627965D02*
X173726882Y-57589870D01*
X173726882Y-57589870D02*
X173650691Y-57513680D01*
X173650691Y-57513680D02*
X173536405Y-57399394D01*
X173536405Y-57399394D02*
X173460215Y-57361299D01*
X173460215Y-57361299D02*
X173384024Y-57361299D01*
X173422120Y-57551775D02*
X173345929Y-57513680D01*
X173345929Y-57513680D02*
X173269739Y-57437489D01*
X173269739Y-57437489D02*
X173231643Y-57285108D01*
X173231643Y-57285108D02*
X173231643Y-57018441D01*
X173231643Y-57018441D02*
X173269739Y-56866060D01*
X173269739Y-56866060D02*
X173345929Y-56789870D01*
X173345929Y-56789870D02*
X173422120Y-56751775D01*
X173422120Y-56751775D02*
X173574501Y-56751775D01*
X173574501Y-56751775D02*
X173650691Y-56789870D01*
X173650691Y-56789870D02*
X173726882Y-56866060D01*
X173726882Y-56866060D02*
X173764977Y-57018441D01*
X173764977Y-57018441D02*
X173764977Y-57285108D01*
X173764977Y-57285108D02*
X173726882Y-57437489D01*
X173726882Y-57437489D02*
X173650691Y-57513680D01*
X173650691Y-57513680D02*
X173574501Y-57551775D01*
X173574501Y-57551775D02*
X173422120Y-57551775D01*
X132248739Y-80599068D02*
X132858263Y-80599068D01*
X132553501Y-80903830D02*
X132553501Y-80294306D01*
X133124929Y-80103830D02*
X133391596Y-80903830D01*
X133391596Y-80903830D02*
X133658262Y-80103830D01*
X167749680Y-71624356D02*
X167787775Y-71510070D01*
X167787775Y-71510070D02*
X167787775Y-71319594D01*
X167787775Y-71319594D02*
X167749680Y-71243403D01*
X167749680Y-71243403D02*
X167711584Y-71205308D01*
X167711584Y-71205308D02*
X167635394Y-71167213D01*
X167635394Y-71167213D02*
X167559203Y-71167213D01*
X167559203Y-71167213D02*
X167483013Y-71205308D01*
X167483013Y-71205308D02*
X167444918Y-71243403D01*
X167444918Y-71243403D02*
X167406822Y-71319594D01*
X167406822Y-71319594D02*
X167368727Y-71471975D01*
X167368727Y-71471975D02*
X167330632Y-71548165D01*
X167330632Y-71548165D02*
X167292537Y-71586260D01*
X167292537Y-71586260D02*
X167216346Y-71624356D01*
X167216346Y-71624356D02*
X167140156Y-71624356D01*
X167140156Y-71624356D02*
X167063965Y-71586260D01*
X167063965Y-71586260D02*
X167025870Y-71548165D01*
X167025870Y-71548165D02*
X166987775Y-71471975D01*
X166987775Y-71471975D02*
X166987775Y-71281498D01*
X166987775Y-71281498D02*
X167025870Y-71167213D01*
X167749680Y-70519593D02*
X167787775Y-70595784D01*
X167787775Y-70595784D02*
X167787775Y-70748165D01*
X167787775Y-70748165D02*
X167749680Y-70824355D01*
X167749680Y-70824355D02*
X167673489Y-70862451D01*
X167673489Y-70862451D02*
X167368727Y-70862451D01*
X167368727Y-70862451D02*
X167292537Y-70824355D01*
X167292537Y-70824355D02*
X167254441Y-70748165D01*
X167254441Y-70748165D02*
X167254441Y-70595784D01*
X167254441Y-70595784D02*
X167292537Y-70519593D01*
X167292537Y-70519593D02*
X167368727Y-70481498D01*
X167368727Y-70481498D02*
X167444918Y-70481498D01*
X167444918Y-70481498D02*
X167521108Y-70862451D01*
X167787775Y-70138641D02*
X167254441Y-70138641D01*
X167406822Y-70138641D02*
X167330632Y-70100546D01*
X167330632Y-70100546D02*
X167292537Y-70062451D01*
X167292537Y-70062451D02*
X167254441Y-69986260D01*
X167254441Y-69986260D02*
X167254441Y-69910070D01*
X167254441Y-69719594D02*
X167787775Y-69529118D01*
X167787775Y-69529118D02*
X167254441Y-69338641D01*
X167787775Y-68919594D02*
X167749680Y-68995784D01*
X167749680Y-68995784D02*
X167711584Y-69033879D01*
X167711584Y-69033879D02*
X167635394Y-69071975D01*
X167635394Y-69071975D02*
X167406822Y-69071975D01*
X167406822Y-69071975D02*
X167330632Y-69033879D01*
X167330632Y-69033879D02*
X167292537Y-68995784D01*
X167292537Y-68995784D02*
X167254441Y-68919594D01*
X167254441Y-68919594D02*
X167254441Y-68805308D01*
X167254441Y-68805308D02*
X167292537Y-68729117D01*
X167292537Y-68729117D02*
X167330632Y-68691022D01*
X167330632Y-68691022D02*
X167406822Y-68652927D01*
X167406822Y-68652927D02*
X167635394Y-68652927D01*
X167635394Y-68652927D02*
X167711584Y-68691022D01*
X167711584Y-68691022D02*
X167749680Y-68729117D01*
X167749680Y-68729117D02*
X167787775Y-68805308D01*
X167787775Y-68805308D02*
X167787775Y-68919594D01*
X167063965Y-67738641D02*
X167025870Y-67700545D01*
X167025870Y-67700545D02*
X166987775Y-67624355D01*
X166987775Y-67624355D02*
X166987775Y-67433879D01*
X166987775Y-67433879D02*
X167025870Y-67357688D01*
X167025870Y-67357688D02*
X167063965Y-67319593D01*
X167063965Y-67319593D02*
X167140156Y-67281498D01*
X167140156Y-67281498D02*
X167216346Y-67281498D01*
X167216346Y-67281498D02*
X167330632Y-67319593D01*
X167330632Y-67319593D02*
X167787775Y-67776736D01*
X167787775Y-67776736D02*
X167787775Y-67281498D01*
D11*
X157933122Y-72696133D02*
X157999789Y-72629466D01*
X157999789Y-72629466D02*
X158133122Y-72562800D01*
X158133122Y-72562800D02*
X158399789Y-72696133D01*
X158399789Y-72696133D02*
X158533122Y-72629466D01*
X158533122Y-72629466D02*
X158599789Y-72562800D01*
X171903122Y-72696133D02*
X171969789Y-72629466D01*
X171969789Y-72629466D02*
X172103122Y-72562800D01*
X172103122Y-72562800D02*
X172369789Y-72696133D01*
X172369789Y-72696133D02*
X172503122Y-72629466D01*
X172503122Y-72629466D02*
X172569789Y-72562800D01*
D10*
X149334680Y-71624356D02*
X149372775Y-71510070D01*
X149372775Y-71510070D02*
X149372775Y-71319594D01*
X149372775Y-71319594D02*
X149334680Y-71243403D01*
X149334680Y-71243403D02*
X149296584Y-71205308D01*
X149296584Y-71205308D02*
X149220394Y-71167213D01*
X149220394Y-71167213D02*
X149144203Y-71167213D01*
X149144203Y-71167213D02*
X149068013Y-71205308D01*
X149068013Y-71205308D02*
X149029918Y-71243403D01*
X149029918Y-71243403D02*
X148991822Y-71319594D01*
X148991822Y-71319594D02*
X148953727Y-71471975D01*
X148953727Y-71471975D02*
X148915632Y-71548165D01*
X148915632Y-71548165D02*
X148877537Y-71586260D01*
X148877537Y-71586260D02*
X148801346Y-71624356D01*
X148801346Y-71624356D02*
X148725156Y-71624356D01*
X148725156Y-71624356D02*
X148648965Y-71586260D01*
X148648965Y-71586260D02*
X148610870Y-71548165D01*
X148610870Y-71548165D02*
X148572775Y-71471975D01*
X148572775Y-71471975D02*
X148572775Y-71281498D01*
X148572775Y-71281498D02*
X148610870Y-71167213D01*
X149334680Y-70519593D02*
X149372775Y-70595784D01*
X149372775Y-70595784D02*
X149372775Y-70748165D01*
X149372775Y-70748165D02*
X149334680Y-70824355D01*
X149334680Y-70824355D02*
X149258489Y-70862451D01*
X149258489Y-70862451D02*
X148953727Y-70862451D01*
X148953727Y-70862451D02*
X148877537Y-70824355D01*
X148877537Y-70824355D02*
X148839441Y-70748165D01*
X148839441Y-70748165D02*
X148839441Y-70595784D01*
X148839441Y-70595784D02*
X148877537Y-70519593D01*
X148877537Y-70519593D02*
X148953727Y-70481498D01*
X148953727Y-70481498D02*
X149029918Y-70481498D01*
X149029918Y-70481498D02*
X149106108Y-70862451D01*
X149372775Y-70138641D02*
X148839441Y-70138641D01*
X148991822Y-70138641D02*
X148915632Y-70100546D01*
X148915632Y-70100546D02*
X148877537Y-70062451D01*
X148877537Y-70062451D02*
X148839441Y-69986260D01*
X148839441Y-69986260D02*
X148839441Y-69910070D01*
X148839441Y-69719594D02*
X149372775Y-69529118D01*
X149372775Y-69529118D02*
X148839441Y-69338641D01*
X149372775Y-68919594D02*
X149334680Y-68995784D01*
X149334680Y-68995784D02*
X149296584Y-69033879D01*
X149296584Y-69033879D02*
X149220394Y-69071975D01*
X149220394Y-69071975D02*
X148991822Y-69071975D01*
X148991822Y-69071975D02*
X148915632Y-69033879D01*
X148915632Y-69033879D02*
X148877537Y-68995784D01*
X148877537Y-68995784D02*
X148839441Y-68919594D01*
X148839441Y-68919594D02*
X148839441Y-68805308D01*
X148839441Y-68805308D02*
X148877537Y-68729117D01*
X148877537Y-68729117D02*
X148915632Y-68691022D01*
X148915632Y-68691022D02*
X148991822Y-68652927D01*
X148991822Y-68652927D02*
X149220394Y-68652927D01*
X149220394Y-68652927D02*
X149296584Y-68691022D01*
X149296584Y-68691022D02*
X149334680Y-68729117D01*
X149334680Y-68729117D02*
X149372775Y-68805308D01*
X149372775Y-68805308D02*
X149372775Y-68919594D01*
X148572775Y-67357688D02*
X148572775Y-67510069D01*
X148572775Y-67510069D02*
X148610870Y-67586260D01*
X148610870Y-67586260D02*
X148648965Y-67624355D01*
X148648965Y-67624355D02*
X148763251Y-67700545D01*
X148763251Y-67700545D02*
X148915632Y-67738641D01*
X148915632Y-67738641D02*
X149220394Y-67738641D01*
X149220394Y-67738641D02*
X149296584Y-67700545D01*
X149296584Y-67700545D02*
X149334680Y-67662450D01*
X149334680Y-67662450D02*
X149372775Y-67586260D01*
X149372775Y-67586260D02*
X149372775Y-67433879D01*
X149372775Y-67433879D02*
X149334680Y-67357688D01*
X149334680Y-67357688D02*
X149296584Y-67319593D01*
X149296584Y-67319593D02*
X149220394Y-67281498D01*
X149220394Y-67281498D02*
X149029918Y-67281498D01*
X149029918Y-67281498D02*
X148953727Y-67319593D01*
X148953727Y-67319593D02*
X148915632Y-67357688D01*
X148915632Y-67357688D02*
X148877537Y-67433879D01*
X148877537Y-67433879D02*
X148877537Y-67586260D01*
X148877537Y-67586260D02*
X148915632Y-67662450D01*
X148915632Y-67662450D02*
X148953727Y-67700545D01*
X148953727Y-67700545D02*
X149029918Y-67738641D01*
D11*
X153361122Y-72696133D02*
X153427789Y-72629466D01*
X153427789Y-72629466D02*
X153561122Y-72562800D01*
X153561122Y-72562800D02*
X153827789Y-72696133D01*
X153827789Y-72696133D02*
X153961122Y-72629466D01*
X153961122Y-72629466D02*
X154027789Y-72562800D01*
D10*
X158605680Y-71624356D02*
X158643775Y-71510070D01*
X158643775Y-71510070D02*
X158643775Y-71319594D01*
X158643775Y-71319594D02*
X158605680Y-71243403D01*
X158605680Y-71243403D02*
X158567584Y-71205308D01*
X158567584Y-71205308D02*
X158491394Y-71167213D01*
X158491394Y-71167213D02*
X158415203Y-71167213D01*
X158415203Y-71167213D02*
X158339013Y-71205308D01*
X158339013Y-71205308D02*
X158300918Y-71243403D01*
X158300918Y-71243403D02*
X158262822Y-71319594D01*
X158262822Y-71319594D02*
X158224727Y-71471975D01*
X158224727Y-71471975D02*
X158186632Y-71548165D01*
X158186632Y-71548165D02*
X158148537Y-71586260D01*
X158148537Y-71586260D02*
X158072346Y-71624356D01*
X158072346Y-71624356D02*
X157996156Y-71624356D01*
X157996156Y-71624356D02*
X157919965Y-71586260D01*
X157919965Y-71586260D02*
X157881870Y-71548165D01*
X157881870Y-71548165D02*
X157843775Y-71471975D01*
X157843775Y-71471975D02*
X157843775Y-71281498D01*
X157843775Y-71281498D02*
X157881870Y-71167213D01*
X158605680Y-70519593D02*
X158643775Y-70595784D01*
X158643775Y-70595784D02*
X158643775Y-70748165D01*
X158643775Y-70748165D02*
X158605680Y-70824355D01*
X158605680Y-70824355D02*
X158529489Y-70862451D01*
X158529489Y-70862451D02*
X158224727Y-70862451D01*
X158224727Y-70862451D02*
X158148537Y-70824355D01*
X158148537Y-70824355D02*
X158110441Y-70748165D01*
X158110441Y-70748165D02*
X158110441Y-70595784D01*
X158110441Y-70595784D02*
X158148537Y-70519593D01*
X158148537Y-70519593D02*
X158224727Y-70481498D01*
X158224727Y-70481498D02*
X158300918Y-70481498D01*
X158300918Y-70481498D02*
X158377108Y-70862451D01*
X158643775Y-70138641D02*
X158110441Y-70138641D01*
X158262822Y-70138641D02*
X158186632Y-70100546D01*
X158186632Y-70100546D02*
X158148537Y-70062451D01*
X158148537Y-70062451D02*
X158110441Y-69986260D01*
X158110441Y-69986260D02*
X158110441Y-69910070D01*
X158110441Y-69719594D02*
X158643775Y-69529118D01*
X158643775Y-69529118D02*
X158110441Y-69338641D01*
X158643775Y-68919594D02*
X158605680Y-68995784D01*
X158605680Y-68995784D02*
X158567584Y-69033879D01*
X158567584Y-69033879D02*
X158491394Y-69071975D01*
X158491394Y-69071975D02*
X158262822Y-69071975D01*
X158262822Y-69071975D02*
X158186632Y-69033879D01*
X158186632Y-69033879D02*
X158148537Y-68995784D01*
X158148537Y-68995784D02*
X158110441Y-68919594D01*
X158110441Y-68919594D02*
X158110441Y-68805308D01*
X158110441Y-68805308D02*
X158148537Y-68729117D01*
X158148537Y-68729117D02*
X158186632Y-68691022D01*
X158186632Y-68691022D02*
X158262822Y-68652927D01*
X158262822Y-68652927D02*
X158491394Y-68652927D01*
X158491394Y-68652927D02*
X158567584Y-68691022D01*
X158567584Y-68691022D02*
X158605680Y-68729117D01*
X158605680Y-68729117D02*
X158643775Y-68805308D01*
X158643775Y-68805308D02*
X158643775Y-68919594D01*
X158110441Y-67357688D02*
X158643775Y-67357688D01*
X157805680Y-67548164D02*
X158377108Y-67738641D01*
X158377108Y-67738641D02*
X158377108Y-67243402D01*
X154033680Y-71624356D02*
X154071775Y-71510070D01*
X154071775Y-71510070D02*
X154071775Y-71319594D01*
X154071775Y-71319594D02*
X154033680Y-71243403D01*
X154033680Y-71243403D02*
X153995584Y-71205308D01*
X153995584Y-71205308D02*
X153919394Y-71167213D01*
X153919394Y-71167213D02*
X153843203Y-71167213D01*
X153843203Y-71167213D02*
X153767013Y-71205308D01*
X153767013Y-71205308D02*
X153728918Y-71243403D01*
X153728918Y-71243403D02*
X153690822Y-71319594D01*
X153690822Y-71319594D02*
X153652727Y-71471975D01*
X153652727Y-71471975D02*
X153614632Y-71548165D01*
X153614632Y-71548165D02*
X153576537Y-71586260D01*
X153576537Y-71586260D02*
X153500346Y-71624356D01*
X153500346Y-71624356D02*
X153424156Y-71624356D01*
X153424156Y-71624356D02*
X153347965Y-71586260D01*
X153347965Y-71586260D02*
X153309870Y-71548165D01*
X153309870Y-71548165D02*
X153271775Y-71471975D01*
X153271775Y-71471975D02*
X153271775Y-71281498D01*
X153271775Y-71281498D02*
X153309870Y-71167213D01*
X154033680Y-70519593D02*
X154071775Y-70595784D01*
X154071775Y-70595784D02*
X154071775Y-70748165D01*
X154071775Y-70748165D02*
X154033680Y-70824355D01*
X154033680Y-70824355D02*
X153957489Y-70862451D01*
X153957489Y-70862451D02*
X153652727Y-70862451D01*
X153652727Y-70862451D02*
X153576537Y-70824355D01*
X153576537Y-70824355D02*
X153538441Y-70748165D01*
X153538441Y-70748165D02*
X153538441Y-70595784D01*
X153538441Y-70595784D02*
X153576537Y-70519593D01*
X153576537Y-70519593D02*
X153652727Y-70481498D01*
X153652727Y-70481498D02*
X153728918Y-70481498D01*
X153728918Y-70481498D02*
X153805108Y-70862451D01*
X154071775Y-70138641D02*
X153538441Y-70138641D01*
X153690822Y-70138641D02*
X153614632Y-70100546D01*
X153614632Y-70100546D02*
X153576537Y-70062451D01*
X153576537Y-70062451D02*
X153538441Y-69986260D01*
X153538441Y-69986260D02*
X153538441Y-69910070D01*
X153538441Y-69719594D02*
X154071775Y-69529118D01*
X154071775Y-69529118D02*
X153538441Y-69338641D01*
X154071775Y-68919594D02*
X154033680Y-68995784D01*
X154033680Y-68995784D02*
X153995584Y-69033879D01*
X153995584Y-69033879D02*
X153919394Y-69071975D01*
X153919394Y-69071975D02*
X153690822Y-69071975D01*
X153690822Y-69071975D02*
X153614632Y-69033879D01*
X153614632Y-69033879D02*
X153576537Y-68995784D01*
X153576537Y-68995784D02*
X153538441Y-68919594D01*
X153538441Y-68919594D02*
X153538441Y-68805308D01*
X153538441Y-68805308D02*
X153576537Y-68729117D01*
X153576537Y-68729117D02*
X153614632Y-68691022D01*
X153614632Y-68691022D02*
X153690822Y-68652927D01*
X153690822Y-68652927D02*
X153919394Y-68652927D01*
X153919394Y-68652927D02*
X153995584Y-68691022D01*
X153995584Y-68691022D02*
X154033680Y-68729117D01*
X154033680Y-68729117D02*
X154071775Y-68805308D01*
X154071775Y-68805308D02*
X154071775Y-68919594D01*
X153271775Y-67319593D02*
X153271775Y-67700545D01*
X153271775Y-67700545D02*
X153652727Y-67738641D01*
X153652727Y-67738641D02*
X153614632Y-67700545D01*
X153614632Y-67700545D02*
X153576537Y-67624355D01*
X153576537Y-67624355D02*
X153576537Y-67433879D01*
X153576537Y-67433879D02*
X153614632Y-67357688D01*
X153614632Y-67357688D02*
X153652727Y-67319593D01*
X153652727Y-67319593D02*
X153728918Y-67281498D01*
X153728918Y-67281498D02*
X153919394Y-67281498D01*
X153919394Y-67281498D02*
X153995584Y-67319593D01*
X153995584Y-67319593D02*
X154033680Y-67357688D01*
X154033680Y-67357688D02*
X154071775Y-67433879D01*
X154071775Y-67433879D02*
X154071775Y-67624355D01*
X154071775Y-67624355D02*
X154033680Y-67700545D01*
X154033680Y-67700545D02*
X153995584Y-67738641D01*
D11*
X167077122Y-72696133D02*
X167143789Y-72629466D01*
X167143789Y-72629466D02*
X167277122Y-72562800D01*
X167277122Y-72562800D02*
X167543789Y-72696133D01*
X167543789Y-72696133D02*
X167677122Y-72629466D01*
X167677122Y-72629466D02*
X167743789Y-72562800D01*
D10*
X127206786Y-29738870D02*
X127130596Y-29700775D01*
X127130596Y-29700775D02*
X127016310Y-29700775D01*
X127016310Y-29700775D02*
X126902024Y-29738870D01*
X126902024Y-29738870D02*
X126825834Y-29815060D01*
X126825834Y-29815060D02*
X126787739Y-29891251D01*
X126787739Y-29891251D02*
X126749643Y-30043632D01*
X126749643Y-30043632D02*
X126749643Y-30157918D01*
X126749643Y-30157918D02*
X126787739Y-30310299D01*
X126787739Y-30310299D02*
X126825834Y-30386489D01*
X126825834Y-30386489D02*
X126902024Y-30462680D01*
X126902024Y-30462680D02*
X127016310Y-30500775D01*
X127016310Y-30500775D02*
X127092501Y-30500775D01*
X127092501Y-30500775D02*
X127206786Y-30462680D01*
X127206786Y-30462680D02*
X127244882Y-30424584D01*
X127244882Y-30424584D02*
X127244882Y-30157918D01*
X127244882Y-30157918D02*
X127092501Y-30157918D01*
X127587739Y-30500775D02*
X127587739Y-29700775D01*
X127587739Y-29700775D02*
X128044882Y-30500775D01*
X128044882Y-30500775D02*
X128044882Y-29700775D01*
X128425834Y-30500775D02*
X128425834Y-29700775D01*
X128425834Y-29700775D02*
X128616310Y-29700775D01*
X128616310Y-29700775D02*
X128730596Y-29738870D01*
X128730596Y-29738870D02*
X128806786Y-29815060D01*
X128806786Y-29815060D02*
X128844881Y-29891251D01*
X128844881Y-29891251D02*
X128882977Y-30043632D01*
X128882977Y-30043632D02*
X128882977Y-30157918D01*
X128882977Y-30157918D02*
X128844881Y-30310299D01*
X128844881Y-30310299D02*
X128806786Y-30386489D01*
X128806786Y-30386489D02*
X128730596Y-30462680D01*
X128730596Y-30462680D02*
X128616310Y-30500775D01*
X128616310Y-30500775D02*
X128425834Y-30500775D01*
D11*
X148662122Y-72569133D02*
X148728789Y-72502466D01*
X148728789Y-72502466D02*
X148862122Y-72435800D01*
X148862122Y-72435800D02*
X149128789Y-72569133D01*
X149128789Y-72569133D02*
X149262122Y-72502466D01*
X149262122Y-72502466D02*
X149328789Y-72435800D01*
D10*
X133713680Y-48383356D02*
X133751775Y-48269070D01*
X133751775Y-48269070D02*
X133751775Y-48078594D01*
X133751775Y-48078594D02*
X133713680Y-48002403D01*
X133713680Y-48002403D02*
X133675584Y-47964308D01*
X133675584Y-47964308D02*
X133599394Y-47926213D01*
X133599394Y-47926213D02*
X133523203Y-47926213D01*
X133523203Y-47926213D02*
X133447013Y-47964308D01*
X133447013Y-47964308D02*
X133408918Y-48002403D01*
X133408918Y-48002403D02*
X133370822Y-48078594D01*
X133370822Y-48078594D02*
X133332727Y-48230975D01*
X133332727Y-48230975D02*
X133294632Y-48307165D01*
X133294632Y-48307165D02*
X133256537Y-48345260D01*
X133256537Y-48345260D02*
X133180346Y-48383356D01*
X133180346Y-48383356D02*
X133104156Y-48383356D01*
X133104156Y-48383356D02*
X133027965Y-48345260D01*
X133027965Y-48345260D02*
X132989870Y-48307165D01*
X132989870Y-48307165D02*
X132951775Y-48230975D01*
X132951775Y-48230975D02*
X132951775Y-48040498D01*
X132951775Y-48040498D02*
X132989870Y-47926213D01*
X133218441Y-47659546D02*
X133751775Y-47507165D01*
X133751775Y-47507165D02*
X133370822Y-47354784D01*
X133370822Y-47354784D02*
X133751775Y-47202403D01*
X133751775Y-47202403D02*
X133218441Y-47050022D01*
X133751775Y-46745260D02*
X133218441Y-46745260D01*
X132951775Y-46745260D02*
X132989870Y-46783356D01*
X132989870Y-46783356D02*
X133027965Y-46745260D01*
X133027965Y-46745260D02*
X132989870Y-46707165D01*
X132989870Y-46707165D02*
X132951775Y-46745260D01*
X132951775Y-46745260D02*
X133027965Y-46745260D01*
X133218441Y-46478594D02*
X133218441Y-46173832D01*
X132951775Y-46364308D02*
X133637489Y-46364308D01*
X133637489Y-46364308D02*
X133713680Y-46326213D01*
X133713680Y-46326213D02*
X133751775Y-46250023D01*
X133751775Y-46250023D02*
X133751775Y-46173832D01*
X133713680Y-45564308D02*
X133751775Y-45640499D01*
X133751775Y-45640499D02*
X133751775Y-45792880D01*
X133751775Y-45792880D02*
X133713680Y-45869070D01*
X133713680Y-45869070D02*
X133675584Y-45907165D01*
X133675584Y-45907165D02*
X133599394Y-45945261D01*
X133599394Y-45945261D02*
X133370822Y-45945261D01*
X133370822Y-45945261D02*
X133294632Y-45907165D01*
X133294632Y-45907165D02*
X133256537Y-45869070D01*
X133256537Y-45869070D02*
X133218441Y-45792880D01*
X133218441Y-45792880D02*
X133218441Y-45640499D01*
X133218441Y-45640499D02*
X133256537Y-45564308D01*
X133751775Y-45221451D02*
X132951775Y-45221451D01*
X133751775Y-44878594D02*
X133332727Y-44878594D01*
X133332727Y-44878594D02*
X133256537Y-44916689D01*
X133256537Y-44916689D02*
X133218441Y-44992880D01*
X133218441Y-44992880D02*
X133218441Y-45107166D01*
X133218441Y-45107166D02*
X133256537Y-45183356D01*
X133256537Y-45183356D02*
X133294632Y-45221451D01*
X172575680Y-71624356D02*
X172613775Y-71510070D01*
X172613775Y-71510070D02*
X172613775Y-71319594D01*
X172613775Y-71319594D02*
X172575680Y-71243403D01*
X172575680Y-71243403D02*
X172537584Y-71205308D01*
X172537584Y-71205308D02*
X172461394Y-71167213D01*
X172461394Y-71167213D02*
X172385203Y-71167213D01*
X172385203Y-71167213D02*
X172309013Y-71205308D01*
X172309013Y-71205308D02*
X172270918Y-71243403D01*
X172270918Y-71243403D02*
X172232822Y-71319594D01*
X172232822Y-71319594D02*
X172194727Y-71471975D01*
X172194727Y-71471975D02*
X172156632Y-71548165D01*
X172156632Y-71548165D02*
X172118537Y-71586260D01*
X172118537Y-71586260D02*
X172042346Y-71624356D01*
X172042346Y-71624356D02*
X171966156Y-71624356D01*
X171966156Y-71624356D02*
X171889965Y-71586260D01*
X171889965Y-71586260D02*
X171851870Y-71548165D01*
X171851870Y-71548165D02*
X171813775Y-71471975D01*
X171813775Y-71471975D02*
X171813775Y-71281498D01*
X171813775Y-71281498D02*
X171851870Y-71167213D01*
X172575680Y-70519593D02*
X172613775Y-70595784D01*
X172613775Y-70595784D02*
X172613775Y-70748165D01*
X172613775Y-70748165D02*
X172575680Y-70824355D01*
X172575680Y-70824355D02*
X172499489Y-70862451D01*
X172499489Y-70862451D02*
X172194727Y-70862451D01*
X172194727Y-70862451D02*
X172118537Y-70824355D01*
X172118537Y-70824355D02*
X172080441Y-70748165D01*
X172080441Y-70748165D02*
X172080441Y-70595784D01*
X172080441Y-70595784D02*
X172118537Y-70519593D01*
X172118537Y-70519593D02*
X172194727Y-70481498D01*
X172194727Y-70481498D02*
X172270918Y-70481498D01*
X172270918Y-70481498D02*
X172347108Y-70862451D01*
X172613775Y-70138641D02*
X172080441Y-70138641D01*
X172232822Y-70138641D02*
X172156632Y-70100546D01*
X172156632Y-70100546D02*
X172118537Y-70062451D01*
X172118537Y-70062451D02*
X172080441Y-69986260D01*
X172080441Y-69986260D02*
X172080441Y-69910070D01*
X172080441Y-69719594D02*
X172613775Y-69529118D01*
X172613775Y-69529118D02*
X172080441Y-69338641D01*
X172613775Y-68919594D02*
X172575680Y-68995784D01*
X172575680Y-68995784D02*
X172537584Y-69033879D01*
X172537584Y-69033879D02*
X172461394Y-69071975D01*
X172461394Y-69071975D02*
X172232822Y-69071975D01*
X172232822Y-69071975D02*
X172156632Y-69033879D01*
X172156632Y-69033879D02*
X172118537Y-68995784D01*
X172118537Y-68995784D02*
X172080441Y-68919594D01*
X172080441Y-68919594D02*
X172080441Y-68805308D01*
X172080441Y-68805308D02*
X172118537Y-68729117D01*
X172118537Y-68729117D02*
X172156632Y-68691022D01*
X172156632Y-68691022D02*
X172232822Y-68652927D01*
X172232822Y-68652927D02*
X172461394Y-68652927D01*
X172461394Y-68652927D02*
X172537584Y-68691022D01*
X172537584Y-68691022D02*
X172575680Y-68729117D01*
X172575680Y-68729117D02*
X172613775Y-68805308D01*
X172613775Y-68805308D02*
X172613775Y-68919594D01*
X172613775Y-67281498D02*
X172613775Y-67738641D01*
X172613775Y-67510069D02*
X171813775Y-67510069D01*
X171813775Y-67510069D02*
X171928060Y-67586260D01*
X171928060Y-67586260D02*
X172004251Y-67662450D01*
X172004251Y-67662450D02*
X172042346Y-67738641D01*
X138793775Y-89366308D02*
X138793775Y-89747260D01*
X138793775Y-89747260D02*
X139174727Y-89785356D01*
X139174727Y-89785356D02*
X139136632Y-89747260D01*
X139136632Y-89747260D02*
X139098537Y-89671070D01*
X139098537Y-89671070D02*
X139098537Y-89480594D01*
X139098537Y-89480594D02*
X139136632Y-89404403D01*
X139136632Y-89404403D02*
X139174727Y-89366308D01*
X139174727Y-89366308D02*
X139250918Y-89328213D01*
X139250918Y-89328213D02*
X139441394Y-89328213D01*
X139441394Y-89328213D02*
X139517584Y-89366308D01*
X139517584Y-89366308D02*
X139555680Y-89404403D01*
X139555680Y-89404403D02*
X139593775Y-89480594D01*
X139593775Y-89480594D02*
X139593775Y-89671070D01*
X139593775Y-89671070D02*
X139555680Y-89747260D01*
X139555680Y-89747260D02*
X139517584Y-89785356D01*
X138793775Y-89099641D02*
X139593775Y-88832974D01*
X139593775Y-88832974D02*
X138793775Y-88566308D01*
X162896880Y-86714965D02*
X162096880Y-86714965D01*
X162896880Y-85876870D02*
X162515927Y-86143537D01*
X162896880Y-86334013D02*
X162096880Y-86334013D01*
X162096880Y-86334013D02*
X162096880Y-86029251D01*
X162096880Y-86029251D02*
X162134975Y-85953061D01*
X162134975Y-85953061D02*
X162173070Y-85914966D01*
X162173070Y-85914966D02*
X162249261Y-85876870D01*
X162249261Y-85876870D02*
X162363546Y-85876870D01*
X162363546Y-85876870D02*
X162439737Y-85914966D01*
X162439737Y-85914966D02*
X162477832Y-85953061D01*
X162477832Y-85953061D02*
X162515927Y-86029251D01*
X162515927Y-86029251D02*
X162515927Y-86334013D01*
X162858785Y-84962585D02*
X162896880Y-84886394D01*
X162896880Y-84886394D02*
X162896880Y-84734013D01*
X162896880Y-84734013D02*
X162858785Y-84657823D01*
X162858785Y-84657823D02*
X162782594Y-84619727D01*
X162782594Y-84619727D02*
X162744499Y-84619727D01*
X162744499Y-84619727D02*
X162668308Y-84657823D01*
X162668308Y-84657823D02*
X162630213Y-84734013D01*
X162630213Y-84734013D02*
X162630213Y-84848299D01*
X162630213Y-84848299D02*
X162592118Y-84924489D01*
X162592118Y-84924489D02*
X162515927Y-84962585D01*
X162515927Y-84962585D02*
X162477832Y-84962585D01*
X162477832Y-84962585D02*
X162401642Y-84924489D01*
X162401642Y-84924489D02*
X162363546Y-84848299D01*
X162363546Y-84848299D02*
X162363546Y-84734013D01*
X162363546Y-84734013D02*
X162401642Y-84657823D01*
X162858785Y-83972108D02*
X162896880Y-84048299D01*
X162896880Y-84048299D02*
X162896880Y-84200680D01*
X162896880Y-84200680D02*
X162858785Y-84276870D01*
X162858785Y-84276870D02*
X162782594Y-84314966D01*
X162782594Y-84314966D02*
X162477832Y-84314966D01*
X162477832Y-84314966D02*
X162401642Y-84276870D01*
X162401642Y-84276870D02*
X162363546Y-84200680D01*
X162363546Y-84200680D02*
X162363546Y-84048299D01*
X162363546Y-84048299D02*
X162401642Y-83972108D01*
X162401642Y-83972108D02*
X162477832Y-83934013D01*
X162477832Y-83934013D02*
X162554023Y-83934013D01*
X162554023Y-83934013D02*
X162630213Y-84314966D01*
X162363546Y-83591156D02*
X162896880Y-83591156D01*
X162439737Y-83591156D02*
X162401642Y-83553061D01*
X162401642Y-83553061D02*
X162363546Y-83476871D01*
X162363546Y-83476871D02*
X162363546Y-83362585D01*
X162363546Y-83362585D02*
X162401642Y-83286394D01*
X162401642Y-83286394D02*
X162477832Y-83248299D01*
X162477832Y-83248299D02*
X162896880Y-83248299D01*
X162858785Y-82905442D02*
X162896880Y-82829251D01*
X162896880Y-82829251D02*
X162896880Y-82676870D01*
X162896880Y-82676870D02*
X162858785Y-82600680D01*
X162858785Y-82600680D02*
X162782594Y-82562584D01*
X162782594Y-82562584D02*
X162744499Y-82562584D01*
X162744499Y-82562584D02*
X162668308Y-82600680D01*
X162668308Y-82600680D02*
X162630213Y-82676870D01*
X162630213Y-82676870D02*
X162630213Y-82791156D01*
X162630213Y-82791156D02*
X162592118Y-82867346D01*
X162592118Y-82867346D02*
X162515927Y-82905442D01*
X162515927Y-82905442D02*
X162477832Y-82905442D01*
X162477832Y-82905442D02*
X162401642Y-82867346D01*
X162401642Y-82867346D02*
X162363546Y-82791156D01*
X162363546Y-82791156D02*
X162363546Y-82676870D01*
X162363546Y-82676870D02*
X162401642Y-82600680D01*
X162896880Y-82105442D02*
X162858785Y-82181632D01*
X162858785Y-82181632D02*
X162820689Y-82219727D01*
X162820689Y-82219727D02*
X162744499Y-82257823D01*
X162744499Y-82257823D02*
X162515927Y-82257823D01*
X162515927Y-82257823D02*
X162439737Y-82219727D01*
X162439737Y-82219727D02*
X162401642Y-82181632D01*
X162401642Y-82181632D02*
X162363546Y-82105442D01*
X162363546Y-82105442D02*
X162363546Y-81991156D01*
X162363546Y-81991156D02*
X162401642Y-81914965D01*
X162401642Y-81914965D02*
X162439737Y-81876870D01*
X162439737Y-81876870D02*
X162515927Y-81838775D01*
X162515927Y-81838775D02*
X162744499Y-81838775D01*
X162744499Y-81838775D02*
X162820689Y-81876870D01*
X162820689Y-81876870D02*
X162858785Y-81914965D01*
X162858785Y-81914965D02*
X162896880Y-81991156D01*
X162896880Y-81991156D02*
X162896880Y-82105442D01*
X162896880Y-81495917D02*
X162363546Y-81495917D01*
X162515927Y-81495917D02*
X162439737Y-81457822D01*
X162439737Y-81457822D02*
X162401642Y-81419727D01*
X162401642Y-81419727D02*
X162363546Y-81343536D01*
X162363546Y-81343536D02*
X162363546Y-81267346D01*
X162858785Y-80695917D02*
X162896880Y-80772108D01*
X162896880Y-80772108D02*
X162896880Y-80924489D01*
X162896880Y-80924489D02*
X162858785Y-81000679D01*
X162858785Y-81000679D02*
X162782594Y-81038775D01*
X162782594Y-81038775D02*
X162477832Y-81038775D01*
X162477832Y-81038775D02*
X162401642Y-81000679D01*
X162401642Y-81000679D02*
X162363546Y-80924489D01*
X162363546Y-80924489D02*
X162363546Y-80772108D01*
X162363546Y-80772108D02*
X162401642Y-80695917D01*
X162401642Y-80695917D02*
X162477832Y-80657822D01*
X162477832Y-80657822D02*
X162554023Y-80657822D01*
X162554023Y-80657822D02*
X162630213Y-81038775D01*
X162363546Y-80314965D02*
X162896880Y-80314965D01*
X162439737Y-80314965D02*
X162401642Y-80276870D01*
X162401642Y-80276870D02*
X162363546Y-80200680D01*
X162363546Y-80200680D02*
X162363546Y-80086394D01*
X162363546Y-80086394D02*
X162401642Y-80010203D01*
X162401642Y-80010203D02*
X162477832Y-79972108D01*
X162477832Y-79972108D02*
X162896880Y-79972108D01*
X169494500Y-86962585D02*
X168694500Y-86962585D01*
X168694500Y-86962585D02*
X168694500Y-86772109D01*
X168694500Y-86772109D02*
X168732595Y-86657823D01*
X168732595Y-86657823D02*
X168808785Y-86581633D01*
X168808785Y-86581633D02*
X168884976Y-86543538D01*
X168884976Y-86543538D02*
X169037357Y-86505442D01*
X169037357Y-86505442D02*
X169151643Y-86505442D01*
X169151643Y-86505442D02*
X169304024Y-86543538D01*
X169304024Y-86543538D02*
X169380214Y-86581633D01*
X169380214Y-86581633D02*
X169456405Y-86657823D01*
X169456405Y-86657823D02*
X169494500Y-86772109D01*
X169494500Y-86772109D02*
X169494500Y-86962585D01*
X169494500Y-86162585D02*
X168961166Y-86162585D01*
X169113547Y-86162585D02*
X169037357Y-86124490D01*
X169037357Y-86124490D02*
X168999262Y-86086395D01*
X168999262Y-86086395D02*
X168961166Y-86010204D01*
X168961166Y-86010204D02*
X168961166Y-85934014D01*
X168961166Y-85324490D02*
X169494500Y-85324490D01*
X168961166Y-85667347D02*
X169380214Y-85667347D01*
X169380214Y-85667347D02*
X169456405Y-85629252D01*
X169456405Y-85629252D02*
X169494500Y-85553062D01*
X169494500Y-85553062D02*
X169494500Y-85438776D01*
X169494500Y-85438776D02*
X169456405Y-85362585D01*
X169456405Y-85362585D02*
X169418309Y-85324490D01*
X169494500Y-84943537D02*
X168694500Y-84943537D01*
X169189738Y-84867347D02*
X169494500Y-84638775D01*
X168961166Y-84638775D02*
X169265928Y-84943537D01*
X169494500Y-84295918D02*
X168694500Y-84295918D01*
X169189738Y-84219728D02*
X169494500Y-83991156D01*
X168961166Y-83991156D02*
X169265928Y-84295918D01*
X168961166Y-83648299D02*
X169494500Y-83648299D01*
X169037357Y-83648299D02*
X168999262Y-83610204D01*
X168999262Y-83610204D02*
X168961166Y-83534014D01*
X168961166Y-83534014D02*
X168961166Y-83419728D01*
X168961166Y-83419728D02*
X168999262Y-83343537D01*
X168999262Y-83343537D02*
X169075452Y-83305442D01*
X169075452Y-83305442D02*
X169494500Y-83305442D01*
X169494500Y-82810204D02*
X169456405Y-82886394D01*
X169456405Y-82886394D02*
X169418309Y-82924489D01*
X169418309Y-82924489D02*
X169342119Y-82962585D01*
X169342119Y-82962585D02*
X169113547Y-82962585D01*
X169113547Y-82962585D02*
X169037357Y-82924489D01*
X169037357Y-82924489D02*
X168999262Y-82886394D01*
X168999262Y-82886394D02*
X168961166Y-82810204D01*
X168961166Y-82810204D02*
X168961166Y-82695918D01*
X168961166Y-82695918D02*
X168999262Y-82619727D01*
X168999262Y-82619727D02*
X169037357Y-82581632D01*
X169037357Y-82581632D02*
X169113547Y-82543537D01*
X169113547Y-82543537D02*
X169342119Y-82543537D01*
X169342119Y-82543537D02*
X169418309Y-82581632D01*
X169418309Y-82581632D02*
X169456405Y-82619727D01*
X169456405Y-82619727D02*
X169494500Y-82695918D01*
X169494500Y-82695918D02*
X169494500Y-82810204D01*
X168961166Y-82200679D02*
X169761166Y-82200679D01*
X168999262Y-82200679D02*
X168961166Y-82124489D01*
X168961166Y-82124489D02*
X168961166Y-81972108D01*
X168961166Y-81972108D02*
X168999262Y-81895917D01*
X168999262Y-81895917D02*
X169037357Y-81857822D01*
X169037357Y-81857822D02*
X169113547Y-81819727D01*
X169113547Y-81819727D02*
X169342119Y-81819727D01*
X169342119Y-81819727D02*
X169418309Y-81857822D01*
X169418309Y-81857822D02*
X169456405Y-81895917D01*
X169456405Y-81895917D02*
X169494500Y-81972108D01*
X169494500Y-81972108D02*
X169494500Y-82124489D01*
X169494500Y-82124489D02*
X169456405Y-82200679D01*
X168961166Y-81476869D02*
X169761166Y-81476869D01*
X168999262Y-81476869D02*
X168961166Y-81400679D01*
X168961166Y-81400679D02*
X168961166Y-81248298D01*
X168961166Y-81248298D02*
X168999262Y-81172107D01*
X168999262Y-81172107D02*
X169037357Y-81134012D01*
X169037357Y-81134012D02*
X169113547Y-81095917D01*
X169113547Y-81095917D02*
X169342119Y-81095917D01*
X169342119Y-81095917D02*
X169418309Y-81134012D01*
X169418309Y-81134012D02*
X169456405Y-81172107D01*
X169456405Y-81172107D02*
X169494500Y-81248298D01*
X169494500Y-81248298D02*
X169494500Y-81400679D01*
X169494500Y-81400679D02*
X169456405Y-81476869D01*
X169456405Y-80448297D02*
X169494500Y-80524488D01*
X169494500Y-80524488D02*
X169494500Y-80676869D01*
X169494500Y-80676869D02*
X169456405Y-80753059D01*
X169456405Y-80753059D02*
X169380214Y-80791155D01*
X169380214Y-80791155D02*
X169075452Y-80791155D01*
X169075452Y-80791155D02*
X168999262Y-80753059D01*
X168999262Y-80753059D02*
X168961166Y-80676869D01*
X168961166Y-80676869D02*
X168961166Y-80524488D01*
X168961166Y-80524488D02*
X168999262Y-80448297D01*
X168999262Y-80448297D02*
X169075452Y-80410202D01*
X169075452Y-80410202D02*
X169151643Y-80410202D01*
X169151643Y-80410202D02*
X169227833Y-80791155D01*
X168961166Y-80067345D02*
X169494500Y-80067345D01*
X169037357Y-80067345D02*
X168999262Y-80029250D01*
X168999262Y-80029250D02*
X168961166Y-79953060D01*
X168961166Y-79953060D02*
X168961166Y-79838774D01*
X168961166Y-79838774D02*
X168999262Y-79762583D01*
X168999262Y-79762583D02*
X169075452Y-79724488D01*
X169075452Y-79724488D02*
X169494500Y-79724488D01*
X124806548Y-53830775D02*
X125301786Y-53830775D01*
X125301786Y-53830775D02*
X125035120Y-54135537D01*
X125035120Y-54135537D02*
X125149405Y-54135537D01*
X125149405Y-54135537D02*
X125225596Y-54173632D01*
X125225596Y-54173632D02*
X125263691Y-54211727D01*
X125263691Y-54211727D02*
X125301786Y-54287918D01*
X125301786Y-54287918D02*
X125301786Y-54478394D01*
X125301786Y-54478394D02*
X125263691Y-54554584D01*
X125263691Y-54554584D02*
X125225596Y-54592680D01*
X125225596Y-54592680D02*
X125149405Y-54630775D01*
X125149405Y-54630775D02*
X124920834Y-54630775D01*
X124920834Y-54630775D02*
X124844643Y-54592680D01*
X124844643Y-54592680D02*
X124806548Y-54554584D01*
X125644644Y-54554584D02*
X125682739Y-54592680D01*
X125682739Y-54592680D02*
X125644644Y-54630775D01*
X125644644Y-54630775D02*
X125606548Y-54592680D01*
X125606548Y-54592680D02*
X125644644Y-54554584D01*
X125644644Y-54554584D02*
X125644644Y-54630775D01*
X125949405Y-53830775D02*
X126444643Y-53830775D01*
X126444643Y-53830775D02*
X126177977Y-54135537D01*
X126177977Y-54135537D02*
X126292262Y-54135537D01*
X126292262Y-54135537D02*
X126368453Y-54173632D01*
X126368453Y-54173632D02*
X126406548Y-54211727D01*
X126406548Y-54211727D02*
X126444643Y-54287918D01*
X126444643Y-54287918D02*
X126444643Y-54478394D01*
X126444643Y-54478394D02*
X126406548Y-54554584D01*
X126406548Y-54554584D02*
X126368453Y-54592680D01*
X126368453Y-54592680D02*
X126292262Y-54630775D01*
X126292262Y-54630775D02*
X126063691Y-54630775D01*
X126063691Y-54630775D02*
X125987500Y-54592680D01*
X125987500Y-54592680D02*
X125949405Y-54554584D01*
X126673215Y-53830775D02*
X126939882Y-54630775D01*
X126939882Y-54630775D02*
X127206548Y-53830775D01*
X124247691Y-28214775D02*
X123866739Y-28214775D01*
X123866739Y-28214775D02*
X123866739Y-27414775D01*
X124971501Y-28138584D02*
X124933405Y-28176680D01*
X124933405Y-28176680D02*
X124819120Y-28214775D01*
X124819120Y-28214775D02*
X124742929Y-28214775D01*
X124742929Y-28214775D02*
X124628643Y-28176680D01*
X124628643Y-28176680D02*
X124552453Y-28100489D01*
X124552453Y-28100489D02*
X124514358Y-28024299D01*
X124514358Y-28024299D02*
X124476262Y-27871918D01*
X124476262Y-27871918D02*
X124476262Y-27757632D01*
X124476262Y-27757632D02*
X124514358Y-27605251D01*
X124514358Y-27605251D02*
X124552453Y-27529060D01*
X124552453Y-27529060D02*
X124628643Y-27452870D01*
X124628643Y-27452870D02*
X124742929Y-27414775D01*
X124742929Y-27414775D02*
X124819120Y-27414775D01*
X124819120Y-27414775D02*
X124933405Y-27452870D01*
X124933405Y-27452870D02*
X124971501Y-27490965D01*
X125314358Y-28214775D02*
X125314358Y-27414775D01*
X125314358Y-27414775D02*
X125504834Y-27414775D01*
X125504834Y-27414775D02*
X125619120Y-27452870D01*
X125619120Y-27452870D02*
X125695310Y-27529060D01*
X125695310Y-27529060D02*
X125733405Y-27605251D01*
X125733405Y-27605251D02*
X125771501Y-27757632D01*
X125771501Y-27757632D02*
X125771501Y-27871918D01*
X125771501Y-27871918D02*
X125733405Y-28024299D01*
X125733405Y-28024299D02*
X125695310Y-28100489D01*
X125695310Y-28100489D02*
X125619120Y-28176680D01*
X125619120Y-28176680D02*
X125504834Y-28214775D01*
X125504834Y-28214775D02*
X125314358Y-28214775D01*
X163177680Y-71624356D02*
X163215775Y-71510070D01*
X163215775Y-71510070D02*
X163215775Y-71319594D01*
X163215775Y-71319594D02*
X163177680Y-71243403D01*
X163177680Y-71243403D02*
X163139584Y-71205308D01*
X163139584Y-71205308D02*
X163063394Y-71167213D01*
X163063394Y-71167213D02*
X162987203Y-71167213D01*
X162987203Y-71167213D02*
X162911013Y-71205308D01*
X162911013Y-71205308D02*
X162872918Y-71243403D01*
X162872918Y-71243403D02*
X162834822Y-71319594D01*
X162834822Y-71319594D02*
X162796727Y-71471975D01*
X162796727Y-71471975D02*
X162758632Y-71548165D01*
X162758632Y-71548165D02*
X162720537Y-71586260D01*
X162720537Y-71586260D02*
X162644346Y-71624356D01*
X162644346Y-71624356D02*
X162568156Y-71624356D01*
X162568156Y-71624356D02*
X162491965Y-71586260D01*
X162491965Y-71586260D02*
X162453870Y-71548165D01*
X162453870Y-71548165D02*
X162415775Y-71471975D01*
X162415775Y-71471975D02*
X162415775Y-71281498D01*
X162415775Y-71281498D02*
X162453870Y-71167213D01*
X163177680Y-70519593D02*
X163215775Y-70595784D01*
X163215775Y-70595784D02*
X163215775Y-70748165D01*
X163215775Y-70748165D02*
X163177680Y-70824355D01*
X163177680Y-70824355D02*
X163101489Y-70862451D01*
X163101489Y-70862451D02*
X162796727Y-70862451D01*
X162796727Y-70862451D02*
X162720537Y-70824355D01*
X162720537Y-70824355D02*
X162682441Y-70748165D01*
X162682441Y-70748165D02*
X162682441Y-70595784D01*
X162682441Y-70595784D02*
X162720537Y-70519593D01*
X162720537Y-70519593D02*
X162796727Y-70481498D01*
X162796727Y-70481498D02*
X162872918Y-70481498D01*
X162872918Y-70481498D02*
X162949108Y-70862451D01*
X163215775Y-70138641D02*
X162682441Y-70138641D01*
X162834822Y-70138641D02*
X162758632Y-70100546D01*
X162758632Y-70100546D02*
X162720537Y-70062451D01*
X162720537Y-70062451D02*
X162682441Y-69986260D01*
X162682441Y-69986260D02*
X162682441Y-69910070D01*
X162682441Y-69719594D02*
X163215775Y-69529118D01*
X163215775Y-69529118D02*
X162682441Y-69338641D01*
X163215775Y-68919594D02*
X163177680Y-68995784D01*
X163177680Y-68995784D02*
X163139584Y-69033879D01*
X163139584Y-69033879D02*
X163063394Y-69071975D01*
X163063394Y-69071975D02*
X162834822Y-69071975D01*
X162834822Y-69071975D02*
X162758632Y-69033879D01*
X162758632Y-69033879D02*
X162720537Y-68995784D01*
X162720537Y-68995784D02*
X162682441Y-68919594D01*
X162682441Y-68919594D02*
X162682441Y-68805308D01*
X162682441Y-68805308D02*
X162720537Y-68729117D01*
X162720537Y-68729117D02*
X162758632Y-68691022D01*
X162758632Y-68691022D02*
X162834822Y-68652927D01*
X162834822Y-68652927D02*
X163063394Y-68652927D01*
X163063394Y-68652927D02*
X163139584Y-68691022D01*
X163139584Y-68691022D02*
X163177680Y-68729117D01*
X163177680Y-68729117D02*
X163215775Y-68805308D01*
X163215775Y-68805308D02*
X163215775Y-68919594D01*
X162415775Y-67776736D02*
X162415775Y-67281498D01*
X162415775Y-67281498D02*
X162720537Y-67548164D01*
X162720537Y-67548164D02*
X162720537Y-67433879D01*
X162720537Y-67433879D02*
X162758632Y-67357688D01*
X162758632Y-67357688D02*
X162796727Y-67319593D01*
X162796727Y-67319593D02*
X162872918Y-67281498D01*
X162872918Y-67281498D02*
X163063394Y-67281498D01*
X163063394Y-67281498D02*
X163139584Y-67319593D01*
X163139584Y-67319593D02*
X163177680Y-67357688D01*
X163177680Y-67357688D02*
X163215775Y-67433879D01*
X163215775Y-67433879D02*
X163215775Y-67662450D01*
X163215775Y-67662450D02*
X163177680Y-67738641D01*
X163177680Y-67738641D02*
X163139584Y-67776736D01*
X170437643Y-55002069D02*
X170551929Y-55040164D01*
X170551929Y-55040164D02*
X170742405Y-55040164D01*
X170742405Y-55040164D02*
X170818596Y-55002069D01*
X170818596Y-55002069D02*
X170856691Y-54963973D01*
X170856691Y-54963973D02*
X170894786Y-54887783D01*
X170894786Y-54887783D02*
X170894786Y-54811592D01*
X170894786Y-54811592D02*
X170856691Y-54735402D01*
X170856691Y-54735402D02*
X170818596Y-54697307D01*
X170818596Y-54697307D02*
X170742405Y-54659211D01*
X170742405Y-54659211D02*
X170590024Y-54621116D01*
X170590024Y-54621116D02*
X170513834Y-54583021D01*
X170513834Y-54583021D02*
X170475739Y-54544926D01*
X170475739Y-54544926D02*
X170437643Y-54468735D01*
X170437643Y-54468735D02*
X170437643Y-54392545D01*
X170437643Y-54392545D02*
X170475739Y-54316354D01*
X170475739Y-54316354D02*
X170513834Y-54278259D01*
X170513834Y-54278259D02*
X170590024Y-54240164D01*
X170590024Y-54240164D02*
X170780501Y-54240164D01*
X170780501Y-54240164D02*
X170894786Y-54278259D01*
X171237644Y-55040164D02*
X171237644Y-54240164D01*
X171580501Y-55040164D02*
X171580501Y-54621116D01*
X171580501Y-54621116D02*
X171542406Y-54544926D01*
X171542406Y-54544926D02*
X171466215Y-54506830D01*
X171466215Y-54506830D02*
X171351929Y-54506830D01*
X171351929Y-54506830D02*
X171275739Y-54544926D01*
X171275739Y-54544926D02*
X171237644Y-54583021D01*
X171961454Y-55040164D02*
X171961454Y-54506830D01*
X171961454Y-54240164D02*
X171923358Y-54278259D01*
X171923358Y-54278259D02*
X171961454Y-54316354D01*
X171961454Y-54316354D02*
X171999549Y-54278259D01*
X171999549Y-54278259D02*
X171961454Y-54240164D01*
X171961454Y-54240164D02*
X171961454Y-54316354D01*
X172228120Y-54506830D02*
X172532882Y-54506830D01*
X172342406Y-55040164D02*
X172342406Y-54354449D01*
X172342406Y-54354449D02*
X172380501Y-54278259D01*
X172380501Y-54278259D02*
X172456691Y-54240164D01*
X172456691Y-54240164D02*
X172532882Y-54240164D01*
X172685263Y-54506830D02*
X172990025Y-54506830D01*
X172799549Y-54240164D02*
X172799549Y-54925878D01*
X172799549Y-54925878D02*
X172837644Y-55002069D01*
X172837644Y-55002069D02*
X172913834Y-55040164D01*
X172913834Y-55040164D02*
X172990025Y-55040164D01*
X154384786Y-93111870D02*
X154308596Y-93073775D01*
X154308596Y-93073775D02*
X154194310Y-93073775D01*
X154194310Y-93073775D02*
X154080024Y-93111870D01*
X154080024Y-93111870D02*
X154003834Y-93188060D01*
X154003834Y-93188060D02*
X153965739Y-93264251D01*
X153965739Y-93264251D02*
X153927643Y-93416632D01*
X153927643Y-93416632D02*
X153927643Y-93530918D01*
X153927643Y-93530918D02*
X153965739Y-93683299D01*
X153965739Y-93683299D02*
X154003834Y-93759489D01*
X154003834Y-93759489D02*
X154080024Y-93835680D01*
X154080024Y-93835680D02*
X154194310Y-93873775D01*
X154194310Y-93873775D02*
X154270501Y-93873775D01*
X154270501Y-93873775D02*
X154384786Y-93835680D01*
X154384786Y-93835680D02*
X154422882Y-93797584D01*
X154422882Y-93797584D02*
X154422882Y-93530918D01*
X154422882Y-93530918D02*
X154270501Y-93530918D01*
X154765739Y-93873775D02*
X154765739Y-93073775D01*
X154765739Y-93073775D02*
X155222882Y-93873775D01*
X155222882Y-93873775D02*
X155222882Y-93073775D01*
X155603834Y-93873775D02*
X155603834Y-93073775D01*
X155603834Y-93073775D02*
X155794310Y-93073775D01*
X155794310Y-93073775D02*
X155908596Y-93111870D01*
X155908596Y-93111870D02*
X155984786Y-93188060D01*
X155984786Y-93188060D02*
X156022881Y-93264251D01*
X156022881Y-93264251D02*
X156060977Y-93416632D01*
X156060977Y-93416632D02*
X156060977Y-93530918D01*
X156060977Y-93530918D02*
X156022881Y-93683299D01*
X156022881Y-93683299D02*
X155984786Y-93759489D01*
X155984786Y-93759489D02*
X155908596Y-93835680D01*
X155908596Y-93835680D02*
X155794310Y-93873775D01*
X155794310Y-93873775D02*
X155603834Y-93873775D01*
X133370775Y-91144260D02*
X132570775Y-91144260D01*
X132570775Y-91144260D02*
X133142203Y-90877594D01*
X133142203Y-90877594D02*
X132570775Y-90610927D01*
X132570775Y-90610927D02*
X133370775Y-90610927D01*
X133370775Y-90115689D02*
X133332680Y-90191879D01*
X133332680Y-90191879D02*
X133294584Y-90229974D01*
X133294584Y-90229974D02*
X133218394Y-90268070D01*
X133218394Y-90268070D02*
X132989822Y-90268070D01*
X132989822Y-90268070D02*
X132913632Y-90229974D01*
X132913632Y-90229974D02*
X132875537Y-90191879D01*
X132875537Y-90191879D02*
X132837441Y-90115689D01*
X132837441Y-90115689D02*
X132837441Y-90001403D01*
X132837441Y-90001403D02*
X132875537Y-89925212D01*
X132875537Y-89925212D02*
X132913632Y-89887117D01*
X132913632Y-89887117D02*
X132989822Y-89849022D01*
X132989822Y-89849022D02*
X133218394Y-89849022D01*
X133218394Y-89849022D02*
X133294584Y-89887117D01*
X133294584Y-89887117D02*
X133332680Y-89925212D01*
X133332680Y-89925212D02*
X133370775Y-90001403D01*
X133370775Y-90001403D02*
X133370775Y-90115689D01*
X132837441Y-89620450D02*
X132837441Y-89315688D01*
X132570775Y-89506164D02*
X133256489Y-89506164D01*
X133256489Y-89506164D02*
X133332680Y-89468069D01*
X133332680Y-89468069D02*
X133370775Y-89391879D01*
X133370775Y-89391879D02*
X133370775Y-89315688D01*
X133370775Y-88934736D02*
X133332680Y-89010926D01*
X133332680Y-89010926D02*
X133294584Y-89049021D01*
X133294584Y-89049021D02*
X133218394Y-89087117D01*
X133218394Y-89087117D02*
X132989822Y-89087117D01*
X132989822Y-89087117D02*
X132913632Y-89049021D01*
X132913632Y-89049021D02*
X132875537Y-89010926D01*
X132875537Y-89010926D02*
X132837441Y-88934736D01*
X132837441Y-88934736D02*
X132837441Y-88820450D01*
X132837441Y-88820450D02*
X132875537Y-88744259D01*
X132875537Y-88744259D02*
X132913632Y-88706164D01*
X132913632Y-88706164D02*
X132989822Y-88668069D01*
X132989822Y-88668069D02*
X133218394Y-88668069D01*
X133218394Y-88668069D02*
X133294584Y-88706164D01*
X133294584Y-88706164D02*
X133332680Y-88744259D01*
X133332680Y-88744259D02*
X133370775Y-88820450D01*
X133370775Y-88820450D02*
X133370775Y-88934736D01*
X133370775Y-88325211D02*
X132837441Y-88325211D01*
X132989822Y-88325211D02*
X132913632Y-88287116D01*
X132913632Y-88287116D02*
X132875537Y-88249021D01*
X132875537Y-88249021D02*
X132837441Y-88172830D01*
X132837441Y-88172830D02*
X132837441Y-88096640D01*
D11*
X162505122Y-72696133D02*
X162571789Y-72629466D01*
X162571789Y-72629466D02*
X162705122Y-72562800D01*
X162705122Y-72562800D02*
X162971789Y-72696133D01*
X162971789Y-72696133D02*
X163105122Y-72629466D01*
X163105122Y-72629466D02*
X163171789Y-72562800D01*
D12*
X130135333Y-57255580D02*
X130087714Y-57303200D01*
X130087714Y-57303200D02*
X129944857Y-57350819D01*
X129944857Y-57350819D02*
X129849619Y-57350819D01*
X129849619Y-57350819D02*
X129706762Y-57303200D01*
X129706762Y-57303200D02*
X129611524Y-57207961D01*
X129611524Y-57207961D02*
X129563905Y-57112723D01*
X129563905Y-57112723D02*
X129516286Y-56922247D01*
X129516286Y-56922247D02*
X129516286Y-56779390D01*
X129516286Y-56779390D02*
X129563905Y-56588914D01*
X129563905Y-56588914D02*
X129611524Y-56493676D01*
X129611524Y-56493676D02*
X129706762Y-56398438D01*
X129706762Y-56398438D02*
X129849619Y-56350819D01*
X129849619Y-56350819D02*
X129944857Y-56350819D01*
X129944857Y-56350819D02*
X130087714Y-56398438D01*
X130087714Y-56398438D02*
X130135333Y-56446057D01*
X130992476Y-56350819D02*
X130802000Y-56350819D01*
X130802000Y-56350819D02*
X130706762Y-56398438D01*
X130706762Y-56398438D02*
X130659143Y-56446057D01*
X130659143Y-56446057D02*
X130563905Y-56588914D01*
X130563905Y-56588914D02*
X130516286Y-56779390D01*
X130516286Y-56779390D02*
X130516286Y-57160342D01*
X130516286Y-57160342D02*
X130563905Y-57255580D01*
X130563905Y-57255580D02*
X130611524Y-57303200D01*
X130611524Y-57303200D02*
X130706762Y-57350819D01*
X130706762Y-57350819D02*
X130897238Y-57350819D01*
X130897238Y-57350819D02*
X130992476Y-57303200D01*
X130992476Y-57303200D02*
X131040095Y-57255580D01*
X131040095Y-57255580D02*
X131087714Y-57160342D01*
X131087714Y-57160342D02*
X131087714Y-56922247D01*
X131087714Y-56922247D02*
X131040095Y-56827009D01*
X131040095Y-56827009D02*
X130992476Y-56779390D01*
X130992476Y-56779390D02*
X130897238Y-56731771D01*
X130897238Y-56731771D02*
X130706762Y-56731771D01*
X130706762Y-56731771D02*
X130611524Y-56779390D01*
X130611524Y-56779390D02*
X130563905Y-56827009D01*
X130563905Y-56827009D02*
X130516286Y-56922247D01*
D13*
X136415809Y-34941878D02*
X136415809Y-34621878D01*
X136415809Y-34621878D02*
X136491999Y-34621878D01*
X136491999Y-34621878D02*
X136537714Y-34637116D01*
X136537714Y-34637116D02*
X136568190Y-34667592D01*
X136568190Y-34667592D02*
X136583428Y-34698068D01*
X136583428Y-34698068D02*
X136598666Y-34759020D01*
X136598666Y-34759020D02*
X136598666Y-34804735D01*
X136598666Y-34804735D02*
X136583428Y-34865687D01*
X136583428Y-34865687D02*
X136568190Y-34896163D01*
X136568190Y-34896163D02*
X136537714Y-34926640D01*
X136537714Y-34926640D02*
X136491999Y-34941878D01*
X136491999Y-34941878D02*
X136415809Y-34941878D01*
X136872952Y-34728544D02*
X136872952Y-34941878D01*
X136796761Y-34606640D02*
X136720571Y-34835211D01*
X136720571Y-34835211D02*
X136918666Y-34835211D01*
X138193809Y-34941878D02*
X138193809Y-34621878D01*
X138193809Y-34621878D02*
X138269999Y-34621878D01*
X138269999Y-34621878D02*
X138315714Y-34637116D01*
X138315714Y-34637116D02*
X138346190Y-34667592D01*
X138346190Y-34667592D02*
X138361428Y-34698068D01*
X138361428Y-34698068D02*
X138376666Y-34759020D01*
X138376666Y-34759020D02*
X138376666Y-34804735D01*
X138376666Y-34804735D02*
X138361428Y-34865687D01*
X138361428Y-34865687D02*
X138346190Y-34896163D01*
X138346190Y-34896163D02*
X138315714Y-34926640D01*
X138315714Y-34926640D02*
X138269999Y-34941878D01*
X138269999Y-34941878D02*
X138193809Y-34941878D01*
X138483333Y-34621878D02*
X138681428Y-34621878D01*
X138681428Y-34621878D02*
X138574761Y-34743782D01*
X138574761Y-34743782D02*
X138620476Y-34743782D01*
X138620476Y-34743782D02*
X138650952Y-34759020D01*
X138650952Y-34759020D02*
X138666190Y-34774259D01*
X138666190Y-34774259D02*
X138681428Y-34804735D01*
X138681428Y-34804735D02*
X138681428Y-34880925D01*
X138681428Y-34880925D02*
X138666190Y-34911401D01*
X138666190Y-34911401D02*
X138650952Y-34926640D01*
X138650952Y-34926640D02*
X138620476Y-34941878D01*
X138620476Y-34941878D02*
X138529047Y-34941878D01*
X138529047Y-34941878D02*
X138498571Y-34926640D01*
X138498571Y-34926640D02*
X138483333Y-34911401D01*
D12*
X138590580Y-42298857D02*
X138638200Y-42346476D01*
X138638200Y-42346476D02*
X138685819Y-42489333D01*
X138685819Y-42489333D02*
X138685819Y-42584571D01*
X138685819Y-42584571D02*
X138638200Y-42727428D01*
X138638200Y-42727428D02*
X138542961Y-42822666D01*
X138542961Y-42822666D02*
X138447723Y-42870285D01*
X138447723Y-42870285D02*
X138257247Y-42917904D01*
X138257247Y-42917904D02*
X138114390Y-42917904D01*
X138114390Y-42917904D02*
X137923914Y-42870285D01*
X137923914Y-42870285D02*
X137828676Y-42822666D01*
X137828676Y-42822666D02*
X137733438Y-42727428D01*
X137733438Y-42727428D02*
X137685819Y-42584571D01*
X137685819Y-42584571D02*
X137685819Y-42489333D01*
X137685819Y-42489333D02*
X137733438Y-42346476D01*
X137733438Y-42346476D02*
X137781057Y-42298857D01*
X138685819Y-41346476D02*
X138685819Y-41917904D01*
X138685819Y-41632190D02*
X137685819Y-41632190D01*
X137685819Y-41632190D02*
X137828676Y-41727428D01*
X137828676Y-41727428D02*
X137923914Y-41822666D01*
X137923914Y-41822666D02*
X137971533Y-41917904D01*
X137685819Y-40727428D02*
X137685819Y-40632190D01*
X137685819Y-40632190D02*
X137733438Y-40536952D01*
X137733438Y-40536952D02*
X137781057Y-40489333D01*
X137781057Y-40489333D02*
X137876295Y-40441714D01*
X137876295Y-40441714D02*
X138066771Y-40394095D01*
X138066771Y-40394095D02*
X138304866Y-40394095D01*
X138304866Y-40394095D02*
X138495342Y-40441714D01*
X138495342Y-40441714D02*
X138590580Y-40489333D01*
X138590580Y-40489333D02*
X138638200Y-40536952D01*
X138638200Y-40536952D02*
X138685819Y-40632190D01*
X138685819Y-40632190D02*
X138685819Y-40727428D01*
X138685819Y-40727428D02*
X138638200Y-40822666D01*
X138638200Y-40822666D02*
X138590580Y-40870285D01*
X138590580Y-40870285D02*
X138495342Y-40917904D01*
X138495342Y-40917904D02*
X138304866Y-40965523D01*
X138304866Y-40965523D02*
X138066771Y-40965523D01*
X138066771Y-40965523D02*
X137876295Y-40917904D01*
X137876295Y-40917904D02*
X137781057Y-40870285D01*
X137781057Y-40870285D02*
X137733438Y-40822666D01*
X137733438Y-40822666D02*
X137685819Y-40727428D01*
X138535580Y-61888666D02*
X138583200Y-61936285D01*
X138583200Y-61936285D02*
X138630819Y-62079142D01*
X138630819Y-62079142D02*
X138630819Y-62174380D01*
X138630819Y-62174380D02*
X138583200Y-62317237D01*
X138583200Y-62317237D02*
X138487961Y-62412475D01*
X138487961Y-62412475D02*
X138392723Y-62460094D01*
X138392723Y-62460094D02*
X138202247Y-62507713D01*
X138202247Y-62507713D02*
X138059390Y-62507713D01*
X138059390Y-62507713D02*
X137868914Y-62460094D01*
X137868914Y-62460094D02*
X137773676Y-62412475D01*
X137773676Y-62412475D02*
X137678438Y-62317237D01*
X137678438Y-62317237D02*
X137630819Y-62174380D01*
X137630819Y-62174380D02*
X137630819Y-62079142D01*
X137630819Y-62079142D02*
X137678438Y-61936285D01*
X137678438Y-61936285D02*
X137726057Y-61888666D01*
X137630819Y-61555332D02*
X137630819Y-60888666D01*
X137630819Y-60888666D02*
X138630819Y-61317237D01*
X131151333Y-66112819D02*
X130818000Y-65636628D01*
X130579905Y-66112819D02*
X130579905Y-65112819D01*
X130579905Y-65112819D02*
X130960857Y-65112819D01*
X130960857Y-65112819D02*
X131056095Y-65160438D01*
X131056095Y-65160438D02*
X131103714Y-65208057D01*
X131103714Y-65208057D02*
X131151333Y-65303295D01*
X131151333Y-65303295D02*
X131151333Y-65446152D01*
X131151333Y-65446152D02*
X131103714Y-65541390D01*
X131103714Y-65541390D02*
X131056095Y-65589009D01*
X131056095Y-65589009D02*
X130960857Y-65636628D01*
X130960857Y-65636628D02*
X130579905Y-65636628D01*
X132008476Y-65446152D02*
X132008476Y-66112819D01*
X131770381Y-65065200D02*
X131532286Y-65779485D01*
X131532286Y-65779485D02*
X132151333Y-65779485D01*
X135215333Y-66047580D02*
X135167714Y-66095200D01*
X135167714Y-66095200D02*
X135024857Y-66142819D01*
X135024857Y-66142819D02*
X134929619Y-66142819D01*
X134929619Y-66142819D02*
X134786762Y-66095200D01*
X134786762Y-66095200D02*
X134691524Y-65999961D01*
X134691524Y-65999961D02*
X134643905Y-65904723D01*
X134643905Y-65904723D02*
X134596286Y-65714247D01*
X134596286Y-65714247D02*
X134596286Y-65571390D01*
X134596286Y-65571390D02*
X134643905Y-65380914D01*
X134643905Y-65380914D02*
X134691524Y-65285676D01*
X134691524Y-65285676D02*
X134786762Y-65190438D01*
X134786762Y-65190438D02*
X134929619Y-65142819D01*
X134929619Y-65142819D02*
X135024857Y-65142819D01*
X135024857Y-65142819D02*
X135167714Y-65190438D01*
X135167714Y-65190438D02*
X135215333Y-65238057D01*
X135786762Y-65571390D02*
X135691524Y-65523771D01*
X135691524Y-65523771D02*
X135643905Y-65476152D01*
X135643905Y-65476152D02*
X135596286Y-65380914D01*
X135596286Y-65380914D02*
X135596286Y-65333295D01*
X135596286Y-65333295D02*
X135643905Y-65238057D01*
X135643905Y-65238057D02*
X135691524Y-65190438D01*
X135691524Y-65190438D02*
X135786762Y-65142819D01*
X135786762Y-65142819D02*
X135977238Y-65142819D01*
X135977238Y-65142819D02*
X136072476Y-65190438D01*
X136072476Y-65190438D02*
X136120095Y-65238057D01*
X136120095Y-65238057D02*
X136167714Y-65333295D01*
X136167714Y-65333295D02*
X136167714Y-65380914D01*
X136167714Y-65380914D02*
X136120095Y-65476152D01*
X136120095Y-65476152D02*
X136072476Y-65523771D01*
X136072476Y-65523771D02*
X135977238Y-65571390D01*
X135977238Y-65571390D02*
X135786762Y-65571390D01*
X135786762Y-65571390D02*
X135691524Y-65619009D01*
X135691524Y-65619009D02*
X135643905Y-65666628D01*
X135643905Y-65666628D02*
X135596286Y-65761866D01*
X135596286Y-65761866D02*
X135596286Y-65952342D01*
X135596286Y-65952342D02*
X135643905Y-66047580D01*
X135643905Y-66047580D02*
X135691524Y-66095200D01*
X135691524Y-66095200D02*
X135786762Y-66142819D01*
X135786762Y-66142819D02*
X135977238Y-66142819D01*
X135977238Y-66142819D02*
X136072476Y-66095200D01*
X136072476Y-66095200D02*
X136120095Y-66047580D01*
X136120095Y-66047580D02*
X136167714Y-65952342D01*
X136167714Y-65952342D02*
X136167714Y-65761866D01*
X136167714Y-65761866D02*
X136120095Y-65666628D01*
X136120095Y-65666628D02*
X136072476Y-65619009D01*
X136072476Y-65619009D02*
X135977238Y-65571390D01*
X130559905Y-60398819D02*
X130559905Y-59398819D01*
X130559905Y-59398819D02*
X130798000Y-59398819D01*
X130798000Y-59398819D02*
X130940857Y-59446438D01*
X130940857Y-59446438D02*
X131036095Y-59541676D01*
X131036095Y-59541676D02*
X131083714Y-59636914D01*
X131083714Y-59636914D02*
X131131333Y-59827390D01*
X131131333Y-59827390D02*
X131131333Y-59970247D01*
X131131333Y-59970247D02*
X131083714Y-60160723D01*
X131083714Y-60160723D02*
X131036095Y-60255961D01*
X131036095Y-60255961D02*
X130940857Y-60351200D01*
X130940857Y-60351200D02*
X130798000Y-60398819D01*
X130798000Y-60398819D02*
X130559905Y-60398819D01*
X132036095Y-59398819D02*
X131559905Y-59398819D01*
X131559905Y-59398819D02*
X131512286Y-59875009D01*
X131512286Y-59875009D02*
X131559905Y-59827390D01*
X131559905Y-59827390D02*
X131655143Y-59779771D01*
X131655143Y-59779771D02*
X131893238Y-59779771D01*
X131893238Y-59779771D02*
X131988476Y-59827390D01*
X131988476Y-59827390D02*
X132036095Y-59875009D01*
X132036095Y-59875009D02*
X132083714Y-59970247D01*
X132083714Y-59970247D02*
X132083714Y-60208342D01*
X132083714Y-60208342D02*
X132036095Y-60303580D01*
X132036095Y-60303580D02*
X131988476Y-60351200D01*
X131988476Y-60351200D02*
X131893238Y-60398819D01*
X131893238Y-60398819D02*
X131655143Y-60398819D01*
X131655143Y-60398819D02*
X131559905Y-60351200D01*
X131559905Y-60351200D02*
X131512286Y-60303580D01*
X146929048Y-78813866D02*
X147690953Y-78813866D01*
X147310000Y-79194819D02*
X147310000Y-78432914D01*
X167348819Y-44703904D02*
X168158342Y-44703904D01*
X168158342Y-44703904D02*
X168253580Y-44656285D01*
X168253580Y-44656285D02*
X168301200Y-44608666D01*
X168301200Y-44608666D02*
X168348819Y-44513428D01*
X168348819Y-44513428D02*
X168348819Y-44322952D01*
X168348819Y-44322952D02*
X168301200Y-44227714D01*
X168301200Y-44227714D02*
X168253580Y-44180095D01*
X168253580Y-44180095D02*
X168158342Y-44132476D01*
X168158342Y-44132476D02*
X167348819Y-44132476D01*
X168348819Y-43132476D02*
X168348819Y-43703904D01*
X168348819Y-43418190D02*
X167348819Y-43418190D01*
X167348819Y-43418190D02*
X167491676Y-43513428D01*
X167491676Y-43513428D02*
X167586914Y-43608666D01*
X167586914Y-43608666D02*
X167634533Y-43703904D01*
X128611333Y-39983580D02*
X128563714Y-40031200D01*
X128563714Y-40031200D02*
X128420857Y-40078819D01*
X128420857Y-40078819D02*
X128325619Y-40078819D01*
X128325619Y-40078819D02*
X128182762Y-40031200D01*
X128182762Y-40031200D02*
X128087524Y-39935961D01*
X128087524Y-39935961D02*
X128039905Y-39840723D01*
X128039905Y-39840723D02*
X127992286Y-39650247D01*
X127992286Y-39650247D02*
X127992286Y-39507390D01*
X127992286Y-39507390D02*
X128039905Y-39316914D01*
X128039905Y-39316914D02*
X128087524Y-39221676D01*
X128087524Y-39221676D02*
X128182762Y-39126438D01*
X128182762Y-39126438D02*
X128325619Y-39078819D01*
X128325619Y-39078819D02*
X128420857Y-39078819D01*
X128420857Y-39078819D02*
X128563714Y-39126438D01*
X128563714Y-39126438D02*
X128611333Y-39174057D01*
X129468476Y-39412152D02*
X129468476Y-40078819D01*
X129230381Y-39031200D02*
X128992286Y-39745485D01*
X128992286Y-39745485D02*
X129611333Y-39745485D01*
X166573580Y-30879166D02*
X166621200Y-30926785D01*
X166621200Y-30926785D02*
X166668819Y-31069642D01*
X166668819Y-31069642D02*
X166668819Y-31164880D01*
X166668819Y-31164880D02*
X166621200Y-31307737D01*
X166621200Y-31307737D02*
X166525961Y-31402975D01*
X166525961Y-31402975D02*
X166430723Y-31450594D01*
X166430723Y-31450594D02*
X166240247Y-31498213D01*
X166240247Y-31498213D02*
X166097390Y-31498213D01*
X166097390Y-31498213D02*
X165906914Y-31450594D01*
X165906914Y-31450594D02*
X165811676Y-31402975D01*
X165811676Y-31402975D02*
X165716438Y-31307737D01*
X165716438Y-31307737D02*
X165668819Y-31164880D01*
X165668819Y-31164880D02*
X165668819Y-31069642D01*
X165668819Y-31069642D02*
X165716438Y-30926785D01*
X165716438Y-30926785D02*
X165764057Y-30879166D01*
X165764057Y-30498213D02*
X165716438Y-30450594D01*
X165716438Y-30450594D02*
X165668819Y-30355356D01*
X165668819Y-30355356D02*
X165668819Y-30117261D01*
X165668819Y-30117261D02*
X165716438Y-30022023D01*
X165716438Y-30022023D02*
X165764057Y-29974404D01*
X165764057Y-29974404D02*
X165859295Y-29926785D01*
X165859295Y-29926785D02*
X165954533Y-29926785D01*
X165954533Y-29926785D02*
X166097390Y-29974404D01*
X166097390Y-29974404D02*
X166668819Y-30545832D01*
X166668819Y-30545832D02*
X166668819Y-29926785D01*
X144105333Y-49476819D02*
X143772000Y-49000628D01*
X143533905Y-49476819D02*
X143533905Y-48476819D01*
X143533905Y-48476819D02*
X143914857Y-48476819D01*
X143914857Y-48476819D02*
X144010095Y-48524438D01*
X144010095Y-48524438D02*
X144057714Y-48572057D01*
X144057714Y-48572057D02*
X144105333Y-48667295D01*
X144105333Y-48667295D02*
X144105333Y-48810152D01*
X144105333Y-48810152D02*
X144057714Y-48905390D01*
X144057714Y-48905390D02*
X144010095Y-48953009D01*
X144010095Y-48953009D02*
X143914857Y-49000628D01*
X143914857Y-49000628D02*
X143533905Y-49000628D01*
X145010095Y-48476819D02*
X144533905Y-48476819D01*
X144533905Y-48476819D02*
X144486286Y-48953009D01*
X144486286Y-48953009D02*
X144533905Y-48905390D01*
X144533905Y-48905390D02*
X144629143Y-48857771D01*
X144629143Y-48857771D02*
X144867238Y-48857771D01*
X144867238Y-48857771D02*
X144962476Y-48905390D01*
X144962476Y-48905390D02*
X145010095Y-48953009D01*
X145010095Y-48953009D02*
X145057714Y-49048247D01*
X145057714Y-49048247D02*
X145057714Y-49286342D01*
X145057714Y-49286342D02*
X145010095Y-49381580D01*
X145010095Y-49381580D02*
X144962476Y-49429200D01*
X144962476Y-49429200D02*
X144867238Y-49476819D01*
X144867238Y-49476819D02*
X144629143Y-49476819D01*
X144629143Y-49476819D02*
X144533905Y-49429200D01*
X144533905Y-49429200D02*
X144486286Y-49381580D01*
X159840819Y-30879166D02*
X159364628Y-31212499D01*
X159840819Y-31450594D02*
X158840819Y-31450594D01*
X158840819Y-31450594D02*
X158840819Y-31069642D01*
X158840819Y-31069642D02*
X158888438Y-30974404D01*
X158888438Y-30974404D02*
X158936057Y-30926785D01*
X158936057Y-30926785D02*
X159031295Y-30879166D01*
X159031295Y-30879166D02*
X159174152Y-30879166D01*
X159174152Y-30879166D02*
X159269390Y-30926785D01*
X159269390Y-30926785D02*
X159317009Y-30974404D01*
X159317009Y-30974404D02*
X159364628Y-31069642D01*
X159364628Y-31069642D02*
X159364628Y-31450594D01*
X159840819Y-29926785D02*
X159840819Y-30498213D01*
X159840819Y-30212499D02*
X158840819Y-30212499D01*
X158840819Y-30212499D02*
X158983676Y-30307737D01*
X158983676Y-30307737D02*
X159078914Y-30402975D01*
X159078914Y-30402975D02*
X159126533Y-30498213D01*
D13*
X131709809Y-37290678D02*
X131709809Y-36970678D01*
X131709809Y-36970678D02*
X131785999Y-36970678D01*
X131785999Y-36970678D02*
X131831714Y-36985916D01*
X131831714Y-36985916D02*
X131862190Y-37016392D01*
X131862190Y-37016392D02*
X131877428Y-37046868D01*
X131877428Y-37046868D02*
X131892666Y-37107820D01*
X131892666Y-37107820D02*
X131892666Y-37153535D01*
X131892666Y-37153535D02*
X131877428Y-37214487D01*
X131877428Y-37214487D02*
X131862190Y-37244963D01*
X131862190Y-37244963D02*
X131831714Y-37275440D01*
X131831714Y-37275440D02*
X131785999Y-37290678D01*
X131785999Y-37290678D02*
X131709809Y-37290678D01*
X132014571Y-37001154D02*
X132029809Y-36985916D01*
X132029809Y-36985916D02*
X132060285Y-36970678D01*
X132060285Y-36970678D02*
X132136476Y-36970678D01*
X132136476Y-36970678D02*
X132166952Y-36985916D01*
X132166952Y-36985916D02*
X132182190Y-37001154D01*
X132182190Y-37001154D02*
X132197428Y-37031630D01*
X132197428Y-37031630D02*
X132197428Y-37062106D01*
X132197428Y-37062106D02*
X132182190Y-37107820D01*
X132182190Y-37107820D02*
X131999333Y-37290678D01*
X131999333Y-37290678D02*
X132197428Y-37290678D01*
D12*
X144021595Y-58890819D02*
X144021595Y-59700342D01*
X144021595Y-59700342D02*
X144069214Y-59795580D01*
X144069214Y-59795580D02*
X144116833Y-59843200D01*
X144116833Y-59843200D02*
X144212071Y-59890819D01*
X144212071Y-59890819D02*
X144402547Y-59890819D01*
X144402547Y-59890819D02*
X144497785Y-59843200D01*
X144497785Y-59843200D02*
X144545404Y-59795580D01*
X144545404Y-59795580D02*
X144593023Y-59700342D01*
X144593023Y-59700342D02*
X144593023Y-58890819D01*
X145545404Y-58890819D02*
X145069214Y-58890819D01*
X145069214Y-58890819D02*
X145021595Y-59367009D01*
X145021595Y-59367009D02*
X145069214Y-59319390D01*
X145069214Y-59319390D02*
X145164452Y-59271771D01*
X145164452Y-59271771D02*
X145402547Y-59271771D01*
X145402547Y-59271771D02*
X145497785Y-59319390D01*
X145497785Y-59319390D02*
X145545404Y-59367009D01*
X145545404Y-59367009D02*
X145593023Y-59462247D01*
X145593023Y-59462247D02*
X145593023Y-59700342D01*
X145593023Y-59700342D02*
X145545404Y-59795580D01*
X145545404Y-59795580D02*
X145497785Y-59843200D01*
X145497785Y-59843200D02*
X145402547Y-59890819D01*
X145402547Y-59890819D02*
X145164452Y-59890819D01*
X145164452Y-59890819D02*
X145069214Y-59843200D01*
X145069214Y-59843200D02*
X145021595Y-59795580D01*
X135852819Y-57149904D02*
X136662342Y-57149904D01*
X136662342Y-57149904D02*
X136757580Y-57102285D01*
X136757580Y-57102285D02*
X136805200Y-57054666D01*
X136805200Y-57054666D02*
X136852819Y-56959428D01*
X136852819Y-56959428D02*
X136852819Y-56768952D01*
X136852819Y-56768952D02*
X136805200Y-56673714D01*
X136805200Y-56673714D02*
X136757580Y-56626095D01*
X136757580Y-56626095D02*
X136662342Y-56578476D01*
X136662342Y-56578476D02*
X135852819Y-56578476D01*
X135948057Y-56149904D02*
X135900438Y-56102285D01*
X135900438Y-56102285D02*
X135852819Y-56007047D01*
X135852819Y-56007047D02*
X135852819Y-55768952D01*
X135852819Y-55768952D02*
X135900438Y-55673714D01*
X135900438Y-55673714D02*
X135948057Y-55626095D01*
X135948057Y-55626095D02*
X136043295Y-55578476D01*
X136043295Y-55578476D02*
X136138533Y-55578476D01*
X136138533Y-55578476D02*
X136281390Y-55626095D01*
X136281390Y-55626095D02*
X136852819Y-56197523D01*
X136852819Y-56197523D02*
X136852819Y-55578476D01*
X164338095Y-58894319D02*
X164338095Y-59703842D01*
X164338095Y-59703842D02*
X164385714Y-59799080D01*
X164385714Y-59799080D02*
X164433333Y-59846700D01*
X164433333Y-59846700D02*
X164528571Y-59894319D01*
X164528571Y-59894319D02*
X164719047Y-59894319D01*
X164719047Y-59894319D02*
X164814285Y-59846700D01*
X164814285Y-59846700D02*
X164861904Y-59799080D01*
X164861904Y-59799080D02*
X164909523Y-59703842D01*
X164909523Y-59703842D02*
X164909523Y-58894319D01*
X165814285Y-59227652D02*
X165814285Y-59894319D01*
X165576190Y-58846700D02*
X165338095Y-59560985D01*
X165338095Y-59560985D02*
X165957142Y-59560985D01*
X143074819Y-37250666D02*
X142598628Y-37583999D01*
X143074819Y-37822094D02*
X142074819Y-37822094D01*
X142074819Y-37822094D02*
X142074819Y-37441142D01*
X142074819Y-37441142D02*
X142122438Y-37345904D01*
X142122438Y-37345904D02*
X142170057Y-37298285D01*
X142170057Y-37298285D02*
X142265295Y-37250666D01*
X142265295Y-37250666D02*
X142408152Y-37250666D01*
X142408152Y-37250666D02*
X142503390Y-37298285D01*
X142503390Y-37298285D02*
X142551009Y-37345904D01*
X142551009Y-37345904D02*
X142598628Y-37441142D01*
X142598628Y-37441142D02*
X142598628Y-37822094D01*
X142170057Y-36869713D02*
X142122438Y-36822094D01*
X142122438Y-36822094D02*
X142074819Y-36726856D01*
X142074819Y-36726856D02*
X142074819Y-36488761D01*
X142074819Y-36488761D02*
X142122438Y-36393523D01*
X142122438Y-36393523D02*
X142170057Y-36345904D01*
X142170057Y-36345904D02*
X142265295Y-36298285D01*
X142265295Y-36298285D02*
X142360533Y-36298285D01*
X142360533Y-36298285D02*
X142503390Y-36345904D01*
X142503390Y-36345904D02*
X143074819Y-36917332D01*
X143074819Y-36917332D02*
X143074819Y-36298285D01*
X134453334Y-39316818D02*
X134120001Y-38840627D01*
X133881906Y-39316818D02*
X133881906Y-38316818D01*
X133881906Y-38316818D02*
X134262858Y-38316818D01*
X134262858Y-38316818D02*
X134358096Y-38364437D01*
X134358096Y-38364437D02*
X134405715Y-38412056D01*
X134405715Y-38412056D02*
X134453334Y-38507294D01*
X134453334Y-38507294D02*
X134453334Y-38650151D01*
X134453334Y-38650151D02*
X134405715Y-38745389D01*
X134405715Y-38745389D02*
X134358096Y-38793008D01*
X134358096Y-38793008D02*
X134262858Y-38840627D01*
X134262858Y-38840627D02*
X133881906Y-38840627D01*
X134786668Y-38316818D02*
X135405715Y-38316818D01*
X135405715Y-38316818D02*
X135072382Y-38697770D01*
X135072382Y-38697770D02*
X135215239Y-38697770D01*
X135215239Y-38697770D02*
X135310477Y-38745389D01*
X135310477Y-38745389D02*
X135358096Y-38793008D01*
X135358096Y-38793008D02*
X135405715Y-38888246D01*
X135405715Y-38888246D02*
X135405715Y-39126341D01*
X135405715Y-39126341D02*
X135358096Y-39221579D01*
X135358096Y-39221579D02*
X135310477Y-39269199D01*
X135310477Y-39269199D02*
X135215239Y-39316818D01*
X135215239Y-39316818D02*
X134929525Y-39316818D01*
X134929525Y-39316818D02*
X134834287Y-39269199D01*
X134834287Y-39269199D02*
X134786668Y-39221579D01*
X150314819Y-44108666D02*
X149838628Y-44441999D01*
X150314819Y-44680094D02*
X149314819Y-44680094D01*
X149314819Y-44680094D02*
X149314819Y-44299142D01*
X149314819Y-44299142D02*
X149362438Y-44203904D01*
X149362438Y-44203904D02*
X149410057Y-44156285D01*
X149410057Y-44156285D02*
X149505295Y-44108666D01*
X149505295Y-44108666D02*
X149648152Y-44108666D01*
X149648152Y-44108666D02*
X149743390Y-44156285D01*
X149743390Y-44156285D02*
X149791009Y-44203904D01*
X149791009Y-44203904D02*
X149838628Y-44299142D01*
X149838628Y-44299142D02*
X149838628Y-44680094D01*
X149314819Y-43251523D02*
X149314819Y-43441999D01*
X149314819Y-43441999D02*
X149362438Y-43537237D01*
X149362438Y-43537237D02*
X149410057Y-43584856D01*
X149410057Y-43584856D02*
X149552914Y-43680094D01*
X149552914Y-43680094D02*
X149743390Y-43727713D01*
X149743390Y-43727713D02*
X150124342Y-43727713D01*
X150124342Y-43727713D02*
X150219580Y-43680094D01*
X150219580Y-43680094D02*
X150267200Y-43632475D01*
X150267200Y-43632475D02*
X150314819Y-43537237D01*
X150314819Y-43537237D02*
X150314819Y-43346761D01*
X150314819Y-43346761D02*
X150267200Y-43251523D01*
X150267200Y-43251523D02*
X150219580Y-43203904D01*
X150219580Y-43203904D02*
X150124342Y-43156285D01*
X150124342Y-43156285D02*
X149886247Y-43156285D01*
X149886247Y-43156285D02*
X149791009Y-43203904D01*
X149791009Y-43203904D02*
X149743390Y-43251523D01*
X149743390Y-43251523D02*
X149695771Y-43346761D01*
X149695771Y-43346761D02*
X149695771Y-43537237D01*
X149695771Y-43537237D02*
X149743390Y-43632475D01*
X149743390Y-43632475D02*
X149791009Y-43680094D01*
X149791009Y-43680094D02*
X149886247Y-43727713D01*
X138590580Y-46140666D02*
X138638200Y-46188285D01*
X138638200Y-46188285D02*
X138685819Y-46331142D01*
X138685819Y-46331142D02*
X138685819Y-46426380D01*
X138685819Y-46426380D02*
X138638200Y-46569237D01*
X138638200Y-46569237D02*
X138542961Y-46664475D01*
X138542961Y-46664475D02*
X138447723Y-46712094D01*
X138447723Y-46712094D02*
X138257247Y-46759713D01*
X138257247Y-46759713D02*
X138114390Y-46759713D01*
X138114390Y-46759713D02*
X137923914Y-46712094D01*
X137923914Y-46712094D02*
X137828676Y-46664475D01*
X137828676Y-46664475D02*
X137733438Y-46569237D01*
X137733438Y-46569237D02*
X137685819Y-46426380D01*
X137685819Y-46426380D02*
X137685819Y-46331142D01*
X137685819Y-46331142D02*
X137733438Y-46188285D01*
X137733438Y-46188285D02*
X137781057Y-46140666D01*
X138685819Y-45664475D02*
X138685819Y-45473999D01*
X138685819Y-45473999D02*
X138638200Y-45378761D01*
X138638200Y-45378761D02*
X138590580Y-45331142D01*
X138590580Y-45331142D02*
X138447723Y-45235904D01*
X138447723Y-45235904D02*
X138257247Y-45188285D01*
X138257247Y-45188285D02*
X137876295Y-45188285D01*
X137876295Y-45188285D02*
X137781057Y-45235904D01*
X137781057Y-45235904D02*
X137733438Y-45283523D01*
X137733438Y-45283523D02*
X137685819Y-45378761D01*
X137685819Y-45378761D02*
X137685819Y-45569237D01*
X137685819Y-45569237D02*
X137733438Y-45664475D01*
X137733438Y-45664475D02*
X137781057Y-45712094D01*
X137781057Y-45712094D02*
X137876295Y-45759713D01*
X137876295Y-45759713D02*
X138114390Y-45759713D01*
X138114390Y-45759713D02*
X138209628Y-45712094D01*
X138209628Y-45712094D02*
X138257247Y-45664475D01*
X138257247Y-45664475D02*
X138304866Y-45569237D01*
X138304866Y-45569237D02*
X138304866Y-45378761D01*
X138304866Y-45378761D02*
X138257247Y-45283523D01*
X138257247Y-45283523D02*
X138209628Y-45235904D01*
X138209628Y-45235904D02*
X138114390Y-45188285D01*
X156159580Y-30879166D02*
X156207200Y-30926785D01*
X156207200Y-30926785D02*
X156254819Y-31069642D01*
X156254819Y-31069642D02*
X156254819Y-31164880D01*
X156254819Y-31164880D02*
X156207200Y-31307737D01*
X156207200Y-31307737D02*
X156111961Y-31402975D01*
X156111961Y-31402975D02*
X156016723Y-31450594D01*
X156016723Y-31450594D02*
X155826247Y-31498213D01*
X155826247Y-31498213D02*
X155683390Y-31498213D01*
X155683390Y-31498213D02*
X155492914Y-31450594D01*
X155492914Y-31450594D02*
X155397676Y-31402975D01*
X155397676Y-31402975D02*
X155302438Y-31307737D01*
X155302438Y-31307737D02*
X155254819Y-31164880D01*
X155254819Y-31164880D02*
X155254819Y-31069642D01*
X155254819Y-31069642D02*
X155302438Y-30926785D01*
X155302438Y-30926785D02*
X155350057Y-30879166D01*
X156254819Y-29926785D02*
X156254819Y-30498213D01*
X156254819Y-30212499D02*
X155254819Y-30212499D01*
X155254819Y-30212499D02*
X155397676Y-30307737D01*
X155397676Y-30307737D02*
X155492914Y-30402975D01*
X155492914Y-30402975D02*
X155540533Y-30498213D01*
X128121580Y-52998666D02*
X128169200Y-53046285D01*
X128169200Y-53046285D02*
X128216819Y-53189142D01*
X128216819Y-53189142D02*
X128216819Y-53284380D01*
X128216819Y-53284380D02*
X128169200Y-53427237D01*
X128169200Y-53427237D02*
X128073961Y-53522475D01*
X128073961Y-53522475D02*
X127978723Y-53570094D01*
X127978723Y-53570094D02*
X127788247Y-53617713D01*
X127788247Y-53617713D02*
X127645390Y-53617713D01*
X127645390Y-53617713D02*
X127454914Y-53570094D01*
X127454914Y-53570094D02*
X127359676Y-53522475D01*
X127359676Y-53522475D02*
X127264438Y-53427237D01*
X127264438Y-53427237D02*
X127216819Y-53284380D01*
X127216819Y-53284380D02*
X127216819Y-53189142D01*
X127216819Y-53189142D02*
X127264438Y-53046285D01*
X127264438Y-53046285D02*
X127312057Y-52998666D01*
X127216819Y-52093904D02*
X127216819Y-52570094D01*
X127216819Y-52570094D02*
X127693009Y-52617713D01*
X127693009Y-52617713D02*
X127645390Y-52570094D01*
X127645390Y-52570094D02*
X127597771Y-52474856D01*
X127597771Y-52474856D02*
X127597771Y-52236761D01*
X127597771Y-52236761D02*
X127645390Y-52141523D01*
X127645390Y-52141523D02*
X127693009Y-52093904D01*
X127693009Y-52093904D02*
X127788247Y-52046285D01*
X127788247Y-52046285D02*
X128026342Y-52046285D01*
X128026342Y-52046285D02*
X128121580Y-52093904D01*
X128121580Y-52093904D02*
X128169200Y-52141523D01*
X128169200Y-52141523D02*
X128216819Y-52236761D01*
X128216819Y-52236761D02*
X128216819Y-52474856D01*
X128216819Y-52474856D02*
X128169200Y-52570094D01*
X128169200Y-52570094D02*
X128121580Y-52617713D01*
D14*
X129223494Y-34252176D02*
X129223494Y-33771376D01*
X129223494Y-33771376D02*
X129337970Y-33771376D01*
X129337970Y-33771376D02*
X129406656Y-33794271D01*
X129406656Y-33794271D02*
X129452446Y-33840061D01*
X129452446Y-33840061D02*
X129475341Y-33885852D01*
X129475341Y-33885852D02*
X129498237Y-33977433D01*
X129498237Y-33977433D02*
X129498237Y-34046119D01*
X129498237Y-34046119D02*
X129475341Y-34137700D01*
X129475341Y-34137700D02*
X129452446Y-34183490D01*
X129452446Y-34183490D02*
X129406656Y-34229281D01*
X129406656Y-34229281D02*
X129337970Y-34252176D01*
X129337970Y-34252176D02*
X129223494Y-34252176D01*
X129956141Y-34252176D02*
X129681398Y-34252176D01*
X129818770Y-34252176D02*
X129818770Y-33771376D01*
X129818770Y-33771376D02*
X129772979Y-33840061D01*
X129772979Y-33840061D02*
X129727189Y-33885852D01*
X129727189Y-33885852D02*
X129681398Y-33908747D01*
D12*
X144472819Y-83224666D02*
X143996628Y-83557999D01*
X144472819Y-83796094D02*
X143472819Y-83796094D01*
X143472819Y-83796094D02*
X143472819Y-83415142D01*
X143472819Y-83415142D02*
X143520438Y-83319904D01*
X143520438Y-83319904D02*
X143568057Y-83272285D01*
X143568057Y-83272285D02*
X143663295Y-83224666D01*
X143663295Y-83224666D02*
X143806152Y-83224666D01*
X143806152Y-83224666D02*
X143901390Y-83272285D01*
X143901390Y-83272285D02*
X143949009Y-83319904D01*
X143949009Y-83319904D02*
X143996628Y-83415142D01*
X143996628Y-83415142D02*
X143996628Y-83796094D01*
X143472819Y-82891332D02*
X143472819Y-82224666D01*
X143472819Y-82224666D02*
X144472819Y-82653237D01*
X154398319Y-60451904D02*
X155207842Y-60451904D01*
X155207842Y-60451904D02*
X155303080Y-60404285D01*
X155303080Y-60404285D02*
X155350700Y-60356666D01*
X155350700Y-60356666D02*
X155398319Y-60261428D01*
X155398319Y-60261428D02*
X155398319Y-60070952D01*
X155398319Y-60070952D02*
X155350700Y-59975714D01*
X155350700Y-59975714D02*
X155303080Y-59928095D01*
X155303080Y-59928095D02*
X155207842Y-59880476D01*
X155207842Y-59880476D02*
X154398319Y-59880476D01*
X154398319Y-59499523D02*
X154398319Y-58880476D01*
X154398319Y-58880476D02*
X154779271Y-59213809D01*
X154779271Y-59213809D02*
X154779271Y-59070952D01*
X154779271Y-59070952D02*
X154826890Y-58975714D01*
X154826890Y-58975714D02*
X154874509Y-58928095D01*
X154874509Y-58928095D02*
X154969747Y-58880476D01*
X154969747Y-58880476D02*
X155207842Y-58880476D01*
X155207842Y-58880476D02*
X155303080Y-58928095D01*
X155303080Y-58928095D02*
X155350700Y-58975714D01*
X155350700Y-58975714D02*
X155398319Y-59070952D01*
X155398319Y-59070952D02*
X155398319Y-59356666D01*
X155398319Y-59356666D02*
X155350700Y-59451904D01*
X155350700Y-59451904D02*
X155303080Y-59499523D01*
X163271580Y-30879166D02*
X163319200Y-30926785D01*
X163319200Y-30926785D02*
X163366819Y-31069642D01*
X163366819Y-31069642D02*
X163366819Y-31164880D01*
X163366819Y-31164880D02*
X163319200Y-31307737D01*
X163319200Y-31307737D02*
X163223961Y-31402975D01*
X163223961Y-31402975D02*
X163128723Y-31450594D01*
X163128723Y-31450594D02*
X162938247Y-31498213D01*
X162938247Y-31498213D02*
X162795390Y-31498213D01*
X162795390Y-31498213D02*
X162604914Y-31450594D01*
X162604914Y-31450594D02*
X162509676Y-31402975D01*
X162509676Y-31402975D02*
X162414438Y-31307737D01*
X162414438Y-31307737D02*
X162366819Y-31164880D01*
X162366819Y-31164880D02*
X162366819Y-31069642D01*
X162366819Y-31069642D02*
X162414438Y-30926785D01*
X162414438Y-30926785D02*
X162462057Y-30879166D01*
X162366819Y-30545832D02*
X162366819Y-29926785D01*
X162366819Y-29926785D02*
X162747771Y-30260118D01*
X162747771Y-30260118D02*
X162747771Y-30117261D01*
X162747771Y-30117261D02*
X162795390Y-30022023D01*
X162795390Y-30022023D02*
X162843009Y-29974404D01*
X162843009Y-29974404D02*
X162938247Y-29926785D01*
X162938247Y-29926785D02*
X163176342Y-29926785D01*
X163176342Y-29926785D02*
X163271580Y-29974404D01*
X163271580Y-29974404D02*
X163319200Y-30022023D01*
X163319200Y-30022023D02*
X163366819Y-30117261D01*
X163366819Y-30117261D02*
X163366819Y-30402975D01*
X163366819Y-30402975D02*
X163319200Y-30498213D01*
X163319200Y-30498213D02*
X163271580Y-30545832D01*
X132804819Y-73151904D02*
X133614342Y-73151904D01*
X133614342Y-73151904D02*
X133709580Y-73104285D01*
X133709580Y-73104285D02*
X133757200Y-73056666D01*
X133757200Y-73056666D02*
X133804819Y-72961428D01*
X133804819Y-72961428D02*
X133804819Y-72770952D01*
X133804819Y-72770952D02*
X133757200Y-72675714D01*
X133757200Y-72675714D02*
X133709580Y-72628095D01*
X133709580Y-72628095D02*
X133614342Y-72580476D01*
X133614342Y-72580476D02*
X132804819Y-72580476D01*
X132804819Y-71675714D02*
X132804819Y-71866190D01*
X132804819Y-71866190D02*
X132852438Y-71961428D01*
X132852438Y-71961428D02*
X132900057Y-72009047D01*
X132900057Y-72009047D02*
X133042914Y-72104285D01*
X133042914Y-72104285D02*
X133233390Y-72151904D01*
X133233390Y-72151904D02*
X133614342Y-72151904D01*
X133614342Y-72151904D02*
X133709580Y-72104285D01*
X133709580Y-72104285D02*
X133757200Y-72056666D01*
X133757200Y-72056666D02*
X133804819Y-71961428D01*
X133804819Y-71961428D02*
X133804819Y-71770952D01*
X133804819Y-71770952D02*
X133757200Y-71675714D01*
X133757200Y-71675714D02*
X133709580Y-71628095D01*
X133709580Y-71628095D02*
X133614342Y-71580476D01*
X133614342Y-71580476D02*
X133376247Y-71580476D01*
X133376247Y-71580476D02*
X133281009Y-71628095D01*
X133281009Y-71628095D02*
X133233390Y-71675714D01*
X133233390Y-71675714D02*
X133185771Y-71770952D01*
X133185771Y-71770952D02*
X133185771Y-71961428D01*
X133185771Y-71961428D02*
X133233390Y-72056666D01*
X133233390Y-72056666D02*
X133281009Y-72104285D01*
X133281009Y-72104285D02*
X133376247Y-72151904D01*
D15*
%TO.C,C6*%
X130040748Y-54383000D02*
X130563252Y-54383000D01*
X130040748Y-55853000D02*
X130563252Y-55853000D01*
D16*
%TO.C,D4*%
X136132000Y-36922000D02*
X136132000Y-35722000D01*
X137172000Y-35722000D02*
X137172000Y-36922000D01*
D17*
X136752000Y-37822000D02*
G75*
G02*
X136552000Y-37822000I-100000J0D01*
G01*
X136552000Y-37822000D02*
G75*
G02*
X136752000Y-37822000I100000J0D01*
G01*
D16*
%TO.C,D3*%
X137910000Y-36922000D02*
X137910000Y-35722000D01*
X138950000Y-35722000D02*
X138950000Y-36922000D01*
D17*
X138530000Y-37822000D02*
G75*
G02*
X138330000Y-37822000I-100000J0D01*
G01*
X138330000Y-37822000D02*
G75*
G02*
X138530000Y-37822000I100000J0D01*
G01*
D15*
%TO.C,C10*%
X139176000Y-41917252D02*
X139176000Y-41394748D01*
X140646000Y-41917252D02*
X140646000Y-41394748D01*
%TO.C,C7*%
X135643252Y-60987000D02*
X135120748Y-60987000D01*
X135643252Y-62457000D02*
X135120748Y-62457000D01*
%TO.C,R4*%
X131545064Y-63273000D02*
X131090936Y-63273000D01*
X131545064Y-64743000D02*
X131090936Y-64743000D01*
%TO.C,C8*%
X135643252Y-63273000D02*
X135120748Y-63273000D01*
X135643252Y-64743000D02*
X135120748Y-64743000D01*
%TO.C,J8*%
X122100000Y-40843000D02*
X122100000Y-41343000D01*
X122340000Y-41083000D02*
X122340000Y-51363000D01*
X122840000Y-40843000D02*
X122100000Y-40843000D01*
X122900000Y-41083000D02*
X122900000Y-51363000D01*
X124400000Y-41083000D02*
X124400000Y-51363000D01*
X125761000Y-47729000D02*
X125726000Y-47694000D01*
X125977000Y-47536000D02*
X125931000Y-47489000D01*
X128069000Y-50038000D02*
X128023000Y-49991000D01*
X128275000Y-49833000D02*
X128239000Y-49798000D01*
X129301000Y-41083000D02*
X129301000Y-51363000D01*
X132261000Y-41083000D02*
X122340000Y-41083000D01*
X132261000Y-41083000D02*
X132261000Y-51363000D01*
X132261000Y-51363000D02*
X122340000Y-51363000D01*
X125319748Y-43711805D02*
G75*
G02*
X125465001Y-42999000I1680253J28806D01*
G01*
X125465245Y-44366318D02*
G75*
G02*
X125320001Y-43683000I1534755J683318D01*
G01*
X126316958Y-42147574D02*
G75*
G02*
X127683999Y-42148001I683041J-1535419D01*
G01*
X127683042Y-45218426D02*
G75*
G02*
X126316000Y-45218000I-683042J1535426D01*
G01*
X128535426Y-42999958D02*
G75*
G02*
X128534999Y-44366999I-1535419J-683041D01*
G01*
X128680000Y-48763000D02*
G75*
G02*
X125320000Y-48763000I-1680000J0D01*
G01*
X125320000Y-48763000D02*
G75*
G02*
X128680000Y-48763000I1680000J0D01*
G01*
%TO.C,J6*%
X124400000Y-55312000D02*
X125730000Y-55312000D01*
X124400000Y-56642000D02*
X124400000Y-55312000D01*
X124400000Y-57912000D02*
X124400000Y-65592000D01*
X124400000Y-57912000D02*
X127060000Y-57912000D01*
X124400000Y-65592000D02*
X127060000Y-65592000D01*
X127060000Y-57912000D02*
X127060000Y-65592000D01*
%TO.C,D5*%
X130298000Y-62662000D02*
X132983000Y-62662000D01*
X132983000Y-60742000D02*
X130298000Y-60742000D01*
X132983000Y-62662000D02*
X132983000Y-60742000D01*
%TO.C,J5*%
X135576000Y-84151000D02*
X136906000Y-84151000D01*
X135576000Y-85481000D02*
X135576000Y-84151000D01*
X135576000Y-86751000D02*
X135576000Y-94431000D01*
X135576000Y-86751000D02*
X138236000Y-86751000D01*
X135576000Y-94431000D02*
X138236000Y-94431000D01*
X138236000Y-86751000D02*
X138236000Y-94431000D01*
%TO.C,BZ1*%
X157220000Y-81280000D02*
G75*
G02*
X145020000Y-81280000I-6100000J0D01*
G01*
X145020000Y-81280000D02*
G75*
G02*
X157220000Y-81280000I6100000J0D01*
G01*
D16*
%TO.C,U1*%
X154456000Y-34688000D02*
X154456000Y-35933000D01*
X154456000Y-52688000D02*
X154456000Y-51443000D01*
X155186000Y-34688000D02*
X154456000Y-34688000D01*
X155186000Y-52688000D02*
X154456000Y-52688000D01*
X173236000Y-34688000D02*
X179956000Y-34688000D01*
X179956000Y-34688000D02*
X179956000Y-52688000D01*
X179956000Y-52688000D02*
X173236000Y-52688000D01*
D17*
X172566000Y-33488000D02*
G75*
G02*
X172366000Y-33488000I-100000J0D01*
G01*
X172366000Y-33488000D02*
G75*
G02*
X172566000Y-33488000I100000J0D01*
G01*
D15*
%TO.C,C4*%
X128516748Y-37111000D02*
X129039252Y-37111000D01*
X128516748Y-38581000D02*
X129039252Y-38581000D01*
%TO.C,C2*%
X167159000Y-30973752D02*
X167159000Y-30451248D01*
X168629000Y-30973752D02*
X168629000Y-30451248D01*
%TO.C,R5*%
X147504064Y-48287000D02*
X147049936Y-48287000D01*
X147504064Y-49757000D02*
X147049936Y-49757000D01*
%TO.C,R1*%
X160301000Y-30939564D02*
X160301000Y-30485436D01*
X161771000Y-30939564D02*
X161771000Y-30485436D01*
D16*
%TO.C,D2*%
X131480000Y-37580000D02*
X132680000Y-37580000D01*
X132680000Y-38620000D02*
X131480000Y-38620000D01*
D17*
X130680000Y-38100000D02*
G75*
G02*
X130480000Y-38100000I-100000J0D01*
G01*
X130480000Y-38100000D02*
G75*
G02*
X130680000Y-38100000I100000J0D01*
G01*
D16*
%TO.C,U5*%
X145953500Y-55111000D02*
X143613500Y-55111000D01*
X145953500Y-63761000D02*
X143613500Y-63761000D01*
D17*
X148933500Y-63536000D02*
G75*
G02*
X148733500Y-63536000I-100000J0D01*
G01*
X148733500Y-63536000D02*
G75*
G02*
X148933500Y-63536000I100000J0D01*
G01*
D15*
%TO.C,J9*%
X170120000Y-55820000D02*
X171450000Y-55820000D01*
X170120000Y-57150000D02*
X170120000Y-55820000D01*
X170120000Y-58420000D02*
X170120000Y-61020000D01*
X170120000Y-58420000D02*
X172780000Y-58420000D01*
X170120000Y-61020000D02*
X172780000Y-61020000D01*
X172780000Y-58420000D02*
X172780000Y-61020000D01*
D16*
%TO.C,U2*%
X133445000Y-54427000D02*
X139950000Y-54427000D01*
X133445000Y-57932000D02*
X133445000Y-54427000D01*
X139950000Y-54427000D02*
X139950000Y-57932000D01*
X139950000Y-57932000D02*
X133445000Y-57932000D01*
D17*
X134507500Y-61179500D02*
G75*
G02*
X134307500Y-61179500I-100000J0D01*
G01*
X134307500Y-61179500D02*
G75*
G02*
X134507500Y-61179500I100000J0D01*
G01*
D16*
%TO.C,U4*%
X166270000Y-55114500D02*
X163930000Y-55114500D01*
X166270000Y-63764500D02*
X163930000Y-63764500D01*
D17*
X169250000Y-63539500D02*
G75*
G02*
X169050000Y-63539500I-100000J0D01*
G01*
X169050000Y-63539500D02*
G75*
G02*
X169250000Y-63539500I100000J0D01*
G01*
D15*
%TO.C,R2*%
X140235000Y-36856936D02*
X140235000Y-37311064D01*
X141705000Y-36856936D02*
X141705000Y-37311064D01*
D16*
%TO.C,J1*%
X130905000Y-25670000D02*
X130905000Y-27100000D01*
X130905000Y-31120000D02*
X130905000Y-29440000D01*
X139845000Y-25670000D02*
X130905000Y-25670000D01*
X139845000Y-25670000D02*
X139845000Y-27100000D01*
X139845000Y-31120000D02*
X139845000Y-29440000D01*
D17*
X138675000Y-34270000D02*
G75*
G02*
X138475000Y-34270000I-100000J0D01*
G01*
X138475000Y-34270000D02*
G75*
G02*
X138675000Y-34270000I100000J0D01*
G01*
D15*
%TO.C,M2*%
X163944000Y-71120000D02*
X163944000Y-65980000D01*
X166604000Y-65980000D02*
X163944000Y-65980000D01*
X166604000Y-71120000D02*
X163944000Y-71120000D01*
X166604000Y-71120000D02*
X166604000Y-65980000D01*
X166604000Y-72390000D02*
X166604000Y-73720000D01*
X166604000Y-73720000D02*
X165274000Y-73720000D01*
%TO.C,M4*%
X154800000Y-71120000D02*
X154800000Y-65980000D01*
X157460000Y-65980000D02*
X154800000Y-65980000D01*
X157460000Y-71120000D02*
X154800000Y-71120000D01*
X157460000Y-71120000D02*
X157460000Y-65980000D01*
X157460000Y-72390000D02*
X157460000Y-73720000D01*
X157460000Y-73720000D02*
X156130000Y-73720000D01*
%TO.C,M3*%
X159372000Y-71120000D02*
X159372000Y-65980000D01*
X162032000Y-65980000D02*
X159372000Y-65980000D01*
X162032000Y-71120000D02*
X159372000Y-71120000D01*
X162032000Y-71120000D02*
X162032000Y-65980000D01*
X162032000Y-72390000D02*
X162032000Y-73720000D01*
X162032000Y-73720000D02*
X160702000Y-73720000D01*
%TO.C,R3*%
X133885000Y-36094936D02*
X133885000Y-36549064D01*
X135355000Y-36094936D02*
X135355000Y-36549064D01*
%TO.C,R6*%
X147558000Y-44169064D02*
X147558000Y-43714936D01*
X149028000Y-44169064D02*
X149028000Y-43714936D01*
%TO.C,J3*%
X163770000Y-88900000D02*
X163770000Y-76140000D01*
X166430000Y-76140000D02*
X163770000Y-76140000D01*
X166430000Y-88900000D02*
X163770000Y-88900000D01*
X166430000Y-88900000D02*
X166430000Y-76140000D01*
X166430000Y-90170000D02*
X166430000Y-91500000D01*
X166430000Y-91500000D02*
X165100000Y-91500000D01*
%TO.C,C9*%
X139176000Y-46235252D02*
X139176000Y-45712748D01*
X140646000Y-46235252D02*
X140646000Y-45712748D01*
%TO.C,M5*%
X150228000Y-71120000D02*
X150228000Y-65980000D01*
X152888000Y-65980000D02*
X150228000Y-65980000D01*
X152888000Y-71120000D02*
X150228000Y-71120000D01*
X152888000Y-71120000D02*
X152888000Y-65980000D01*
X152888000Y-72390000D02*
X152888000Y-73720000D01*
X152888000Y-73720000D02*
X151558000Y-73720000D01*
%TO.C,J10*%
X133798000Y-79188000D02*
X135128000Y-79188000D01*
X133798000Y-80518000D02*
X133798000Y-79188000D01*
X133798000Y-81788000D02*
X133798000Y-81848000D01*
X133798000Y-81788000D02*
X136458000Y-81788000D01*
X133798000Y-81848000D02*
X136458000Y-81848000D01*
X136458000Y-81788000D02*
X136458000Y-81848000D01*
%TO.C,J2*%
X123384000Y-36576000D02*
X123384000Y-28896000D01*
X126044000Y-28896000D02*
X123384000Y-28896000D01*
X126044000Y-36576000D02*
X123384000Y-36576000D01*
X126044000Y-36576000D02*
X126044000Y-28896000D01*
X126044000Y-37846000D02*
X126044000Y-39176000D01*
X126044000Y-39176000D02*
X124714000Y-39176000D01*
D16*
%TO.C,SW2*%
X142129000Y-40036000D02*
X146329000Y-40036000D01*
X142129000Y-42156000D02*
X142129000Y-41156000D01*
X146329000Y-42156000D02*
X146329000Y-41156000D01*
X146329000Y-43276000D02*
X142129000Y-43276000D01*
D17*
X141229000Y-40556000D02*
G75*
G02*
X141029000Y-40556000I-100000J0D01*
G01*
X141029000Y-40556000D02*
G75*
G02*
X141229000Y-40556000I100000J0D01*
G01*
D15*
%TO.C,C1*%
X156745000Y-30973752D02*
X156745000Y-30451248D01*
X158215000Y-30973752D02*
X158215000Y-30451248D01*
%TO.C,JP1*%
X137318000Y-79948000D02*
X137318000Y-78548000D01*
X138018000Y-77848000D02*
X138618000Y-77848000D01*
X138618000Y-80648000D02*
X138018000Y-80648000D01*
X139318000Y-78548000D02*
X139318000Y-79948000D01*
X137318000Y-78548000D02*
G75*
G02*
X138018000Y-77848000I699999J1D01*
G01*
X138018000Y-80648000D02*
G75*
G02*
X137318000Y-79948000I0J700000D01*
G01*
X138618000Y-77848000D02*
G75*
G02*
X139318000Y-78548000I1J-699999D01*
G01*
X139318000Y-79948000D02*
G75*
G02*
X138618000Y-80648000I-700000J0D01*
G01*
%TO.C,J7*%
X149800000Y-92770000D02*
X149800000Y-91440000D01*
X151130000Y-92770000D02*
X149800000Y-92770000D01*
X152400000Y-90110000D02*
X160080000Y-90110000D01*
X152400000Y-92770000D02*
X152400000Y-90110000D01*
X152400000Y-92770000D02*
X160080000Y-92770000D01*
X160080000Y-92770000D02*
X160080000Y-90110000D01*
%TO.C,C5*%
X130040748Y-52097000D02*
X130563252Y-52097000D01*
X130040748Y-53567000D02*
X130563252Y-53567000D01*
D16*
%TO.C,D1*%
X129131000Y-34710000D02*
X131981000Y-34710000D01*
X131981000Y-36410000D02*
X129131000Y-36410000D01*
D17*
X127656000Y-35560000D02*
G75*
G02*
X127456000Y-35560000I-100000J0D01*
G01*
X127456000Y-35560000D02*
G75*
G02*
X127656000Y-35560000I100000J0D01*
G01*
D15*
%TO.C,R7*%
X143156000Y-79909936D02*
X143156000Y-80364064D01*
X144626000Y-79909936D02*
X144626000Y-80364064D01*
D16*
%TO.C,U3*%
X149993500Y-57740000D02*
X149993500Y-61640000D01*
X159893500Y-57740000D02*
X159893500Y-61640000D01*
D17*
X159488500Y-55390000D02*
G75*
G02*
X159288500Y-55390000I-100000J0D01*
G01*
X159288500Y-55390000D02*
G75*
G02*
X159488500Y-55390000I100000J0D01*
G01*
D15*
%TO.C,C3*%
X163857000Y-30973752D02*
X163857000Y-30451248D01*
X165327000Y-30973752D02*
X165327000Y-30451248D01*
%TO.C,U6*%
X123145000Y-69730000D02*
X123145000Y-71380000D01*
X123145000Y-73380000D02*
X123145000Y-75030000D01*
X123145000Y-75030000D02*
X143585000Y-75030000D01*
X143585000Y-69730000D02*
X123145000Y-69730000D01*
X143585000Y-75030000D02*
X143585000Y-69730000D01*
X123145000Y-71380000D02*
G75*
G02*
X123145000Y-73380000I0J-1000000D01*
G01*
%TO.C,J4*%
X170120000Y-76140000D02*
X171450000Y-76140000D01*
X170120000Y-77470000D02*
X170120000Y-76140000D01*
X170120000Y-78740000D02*
X170120000Y-91500000D01*
X170120000Y-78740000D02*
X172780000Y-78740000D01*
X170120000Y-91500000D02*
X172780000Y-91500000D01*
X172780000Y-78740000D02*
X172780000Y-91500000D01*
%TO.C,JP2*%
X140224000Y-79948000D02*
X140224000Y-78548000D01*
X140924000Y-77848000D02*
X141524000Y-77848000D01*
X141524000Y-80648000D02*
X140924000Y-80648000D01*
X142224000Y-78548000D02*
X142224000Y-79948000D01*
X140224000Y-78548000D02*
G75*
G02*
X140924000Y-77848000I699999J1D01*
G01*
X140924000Y-80648000D02*
G75*
G02*
X140224000Y-79948000I0J700000D01*
G01*
X141524000Y-77848000D02*
G75*
G02*
X142224000Y-78548000I1J-699999D01*
G01*
X142224000Y-79948000D02*
G75*
G02*
X141524000Y-80648000I-700000J0D01*
G01*
%TO.C,M1*%
X168516000Y-71120000D02*
X168516000Y-65980000D01*
X171176000Y-65980000D02*
X168516000Y-65980000D01*
X171176000Y-71120000D02*
X168516000Y-71120000D01*
X171176000Y-71120000D02*
X171176000Y-65980000D01*
X171176000Y-72390000D02*
X171176000Y-73720000D01*
X171176000Y-73720000D02*
X169846000Y-73720000D01*
D16*
%TO.C,SW1*%
X142129000Y-44354000D02*
X146329000Y-44354000D01*
X142129000Y-46474000D02*
X142129000Y-45474000D01*
X146329000Y-46474000D02*
X146329000Y-45474000D01*
X146329000Y-47594000D02*
X142129000Y-47594000D01*
D17*
X141229000Y-44874000D02*
G75*
G02*
X141029000Y-44874000I-100000J0D01*
G01*
X141029000Y-44874000D02*
G75*
G02*
X141229000Y-44874000I100000J0D01*
G01*
D15*
%TO.C,M6*%
X145482000Y-71120000D02*
X145482000Y-65980000D01*
X148142000Y-65980000D02*
X145482000Y-65980000D01*
X148142000Y-71120000D02*
X145482000Y-71120000D01*
X148142000Y-71120000D02*
X148142000Y-65980000D01*
X148142000Y-72390000D02*
X148142000Y-73720000D01*
X148142000Y-73720000D02*
X146812000Y-73720000D01*
%TO.C,J11*%
X143181000Y-50994000D02*
X143181000Y-53654000D01*
X148321000Y-50994000D02*
X143181000Y-50994000D01*
X148321000Y-50994000D02*
X148321000Y-53654000D01*
X148321000Y-53654000D02*
X143181000Y-53654000D01*
X149591000Y-50994000D02*
X150921000Y-50994000D01*
X150921000Y-50994000D02*
X150921000Y-52324000D01*
%TO.C,M7*%
X121795000Y-84150000D02*
X121795000Y-84650000D01*
X122035000Y-84390000D02*
X122035000Y-94670000D01*
X122535000Y-84150000D02*
X121795000Y-84150000D01*
X122595000Y-84390000D02*
X122595000Y-94670000D01*
X124095000Y-84390000D02*
X124095000Y-94670000D01*
X125456000Y-91036000D02*
X125421000Y-91001000D01*
X125672000Y-90843000D02*
X125626000Y-90796000D01*
X127764000Y-93345000D02*
X127718000Y-93298000D01*
X127970000Y-93140000D02*
X127934000Y-93105000D01*
X128996000Y-84390000D02*
X128996000Y-94670000D01*
X131956000Y-84390000D02*
X122035000Y-84390000D01*
X131956000Y-84390000D02*
X131956000Y-94670000D01*
X131956000Y-94670000D02*
X122035000Y-94670000D01*
X125014748Y-87018805D02*
G75*
G02*
X125160001Y-86306000I1680253J28806D01*
G01*
X125160245Y-87673318D02*
G75*
G02*
X125015001Y-86990000I1534755J683318D01*
G01*
X126011958Y-85454574D02*
G75*
G02*
X127378999Y-85455001I683041J-1535419D01*
G01*
X127378042Y-88525426D02*
G75*
G02*
X126011000Y-88525000I-683042J1535426D01*
G01*
X128230426Y-86306958D02*
G75*
G02*
X128229999Y-87673999I-1535419J-683041D01*
G01*
X128375000Y-92070000D02*
G75*
G02*
X125015000Y-92070000I-1680000J0D01*
G01*
X125015000Y-92070000D02*
G75*
G02*
X128375000Y-92070000I1680000J0D01*
G01*
%TD*%
M02*
