M48
; DRILL file {KiCad 8.0.0} date 2024-04-15T20:03:39+0200
; FORMAT={-:-/ absolute / inch / decimal}
; #@! TF.CreationDate,2024-04-15T20:03:39+02:00
; #@! TF.GenerationSoftware,Kicad,Pcbnew,8.0.0
; #@! TF.FileFunction,Plated,1,2,PTH
FMAT,2
INCH
; #@! TA.AperFunction,Plated,PTH,ComponentDrill
T1C0.0079
; #@! TA.AperFunction,Plated,PTH,ViaDrill
T2C0.0118
; #@! TA.AperFunction,Plated,PTH,ComponentDrill
T3C0.0236
; #@! TA.AperFunction,Plated,PTH,ComponentDrill
T4C0.0315
; #@! TA.AperFunction,Plated,PTH,ComponentDrill
T5C0.0394
; #@! TA.AperFunction,Plated,PTH,ComponentDrill
T6C0.0512
%
G90
G05
T1
X6.4309Y-1.6334
X6.4309Y-1.6885
X6.4585Y-1.6058
X6.4585Y-1.6609
X6.4585Y-1.7161
X6.4861Y-1.6334
X6.4861Y-1.6885
X6.5136Y-1.6058
X6.5136Y-1.6609
X6.5136Y-1.7161
X6.5412Y-1.6334
X6.5412Y-1.6885
T2
X5.05Y-2.475
X5.05Y-2.5665
X5.26Y-2.12
X5.4Y-1.25
X5.61Y-1.4
X5.6408Y-2.601
X5.6645Y-2.5763
X5.7151Y-2.3825
X5.7151Y-2.9481
X5.7976Y-2.5223
X5.7984Y-1.8852
X5.8383Y-1.4656
X5.8752Y-2.2559
X5.885Y-2.1369
X5.8948Y-1.4206
X5.9353Y-2.34
X5.9498Y-2.029
X5.9751Y-2.527
X6.0088Y-1.9747
X6.0489Y-2.1956
X6.0533Y-2.1615
X6.0751Y-2.3957
X6.0771Y-2.056
X6.08Y-2.61
X6.1003Y-2.1733
X6.1401Y-1.5536
X6.1402Y-1.9236
X6.1621Y-1.7923
X6.1751Y-2.3001
X6.1884Y-1.7632
X6.1929Y-2.0107
X6.2Y-1.294
X6.24Y-1.49
X6.27Y-1.2485
X6.2787Y-1.9257
X6.2994Y-1.7985
X6.34Y-1.87
X6.3695Y-1.9942
X6.42Y-1.96
X6.4799Y-2.2258
X6.4926Y-1.5526
X6.5189Y-2.5557
X6.5403Y-1.4803
X6.572Y-2.5794
X6.5957Y-2.5264
X6.6006Y-1.9694
X6.6103Y-1.6801
X6.6345Y-2.5728
X6.64Y-1.4256
X6.7323Y-2.1802
X6.7865Y-2.8929
X6.827Y-1.9989
T4
X4.9006Y-2.6996
X4.9006Y-2.9996
X5.0006Y-2.6996
X5.0006Y-2.9996
X5.1006Y-2.6996
X5.1006Y-2.9996
X5.2006Y-2.6996
X5.2006Y-2.9996
X5.3006Y-2.6996
X5.3006Y-2.9996
X5.4006Y-2.6996
X5.4006Y-2.9996
X5.5006Y-2.6996
X5.5006Y-2.9996
X5.6006Y-2.6996
X5.6006Y-2.9996
T5
X4.91Y-1.19
X4.91Y-1.29
X4.91Y-1.39
X4.91Y-1.49
X4.95Y-2.23
X4.95Y-2.33
X4.95Y-2.43
X4.95Y-2.53
X5.32Y-3.17
X5.39Y-3.3654
X5.39Y-3.4654
X5.39Y-3.5654
X5.39Y-3.6654
X5.6894Y-2.06
X5.78Y-2.65
X5.78Y-2.75
X5.78Y-2.85
X5.7894Y-2.06
X5.8Y-3.2
X5.8894Y-2.06
X5.95Y-3.6
X5.9669Y-2.65
X5.9669Y-2.75
X5.9669Y-2.85
X6.05Y-3.6
X6.0992Y-3.2
X6.1469Y-2.65
X6.1469Y-2.75
X6.1469Y-2.85
X6.15Y-3.6
X6.25Y-3.6
X6.3269Y-2.65
X6.3269Y-2.75
X6.3269Y-2.85
X6.5Y-3.05
X6.5Y-3.15
X6.5Y-3.25
X6.5Y-3.35
X6.5Y-3.45
X6.5Y-3.55
X6.5069Y-2.65
X6.5069Y-2.75
X6.5069Y-2.85
X6.6869Y-2.65
X6.6869Y-2.75
X6.6869Y-2.85
X6.75Y-2.25
X6.75Y-2.35
X6.75Y-3.05
X6.75Y-3.15
X6.75Y-3.25
X6.75Y-3.35
X6.75Y-3.45
X6.75Y-3.55
T6
X4.988Y-3.4248
X4.988Y-3.6248
X5.0Y-1.7198
X5.0Y-1.9198
T3
G00X5.1594Y-1.1287
M15
G01X5.1594Y-1.0972
M16
G05
G00X5.1594Y-1.2988
M15
G01X5.1594Y-1.2555
M16
G05
G00X5.5Y-1.1287
M15
G01X5.5Y-1.0972
M16
G05
G00X5.5Y-1.2988
M15
G01X5.5Y-1.2555
M16
G05
M30
